<svg width="357" height="411" viewBox="0 0 357 411" fill="none" xmlns="http://www.w3.org/2000/svg">
<g clip-path="url(#clip0_280_496)">
<path d="M126.9 121.2L247.9 201.8C248.705 202.328 249.366 203.047 249.823 203.894C250.28 204.741 250.52 205.688 250.52 206.65C250.52 207.612 250.28 208.559 249.823 209.406C249.366 210.253 248.705 210.972 247.9 211.5L126.9 292C126.029 292.577 125.018 292.907 123.974 292.956C122.93 293.006 121.893 292.772 120.971 292.28C120.049 291.789 119.277 291.057 118.736 290.163C118.196 289.269 117.907 288.245 117.9 287.2V126C117.907 124.955 118.196 123.932 118.736 123.037C119.277 122.143 120.049 121.411 120.971 120.92C121.893 120.428 122.93 120.194 123.974 120.244C125.018 120.293 126.029 120.624 126.9 121.2Z" fill="#EA5B2B"/>
<path d="M68.3004 410.9C61.6305 410.841 55.0751 409.159 49.2004 406C42.7392 402.61 37.3402 397.501 33.5991 391.237C29.8581 384.972 27.9206 377.796 28.0004 370.5V266H42.0004V370.5C42.0079 375.248 43.3005 379.905 45.741 383.977C48.1815 388.05 51.6789 391.386 55.862 393.631C60.0452 395.876 64.7582 396.947 69.501 396.731C74.2438 396.514 78.8395 395.017 82.8004 392.4L330.8 227.3C334.389 224.896 337.331 221.644 339.365 217.834C341.399 214.023 342.463 209.77 342.463 205.45C342.463 201.13 341.399 196.877 339.365 193.066C337.331 189.255 334.389 186.004 330.8 183.6L82.8004 18.4999C78.8539 15.8513 74.2613 14.3262 69.5145 14.0878C64.7676 13.8494 60.0453 14.9068 55.8533 17.1466C51.6613 19.3864 48.1576 22.7244 45.7174 26.803C43.2771 30.8815 41.9922 35.547 42.0004 40.2999V158H28.0004V40.2999C28.0246 33.0327 30.0133 25.9073 33.7562 19.678C37.499 13.4488 42.8566 8.34754 49.2618 4.91438C55.6669 1.48122 62.8812 -0.156069 70.1409 0.175854C77.4005 0.507778 84.4353 2.79656 90.5004 6.79988L338.5 171.9C344.029 175.567 348.563 180.545 351.7 186.39C354.837 192.235 356.479 198.766 356.479 205.4C356.479 212.034 354.837 218.564 351.7 224.41C348.563 230.255 344.029 235.233 338.5 238.9L90.5004 404C83.9601 408.475 76.225 410.879 68.3004 410.9Z" fill="#EA5B2B"/>
<path d="M66.9995 240H56.1995V209C56.1995 208.072 55.8308 207.182 55.1744 206.525C54.518 205.869 53.6278 205.5 52.6995 205.5C51.7713 205.5 50.8811 205.869 50.2247 206.525C49.5683 207.182 49.1995 208.072 49.1995 209V240H19.6995V208.5C19.6995 207.572 19.3308 206.682 18.6744 206.025C18.018 205.369 17.1278 205 16.1995 205C15.2713 205 14.3811 205.369 13.7247 206.025C13.0683 206.682 12.6995 207.572 12.6995 208.5V240H3.09955C1.49955 240 0.099549 241.9 -0.00045102 244.2C-0.100451 246.5 1.19954 248.4 2.79954 248.4H5.19955V263C5.19955 268.57 7.41204 273.911 11.3503 277.849C15.2886 281.788 20.63 284 26.1995 284H43.1995C48.7691 284 54.1105 281.788 58.0488 277.849C61.9871 273.911 64.1995 268.57 64.1995 263V248.4H66.6995C68.2995 248.4 69.6996 246.5 69.7996 244.2C69.8996 241.9 68.5995 240 66.9995 240Z" fill="#EA5B2B"/>
<path d="M3.60033 180.9H67.5003C69.1003 180.9 70.5003 179 70.5003 176.7C70.5003 174.4 69.4003 172.4 67.8003 172.4H65.4003V157.8C65.4003 146.2 56.0003 131.8 44.4003 131.8H27.4003C15.8003 131.8 6.40033 146.2 6.40033 157.8V172.4H3.90033C2.30033 172.4 0.90033 174.3 0.80033 176.7C0.70033 179.1 2.00033 180.9 3.60033 180.9Z" fill="#EA5B2B"/>
</g>
<defs>
<clipPath id="clip0_280_496">
<rect width="356.4" height="410.8" fill="white"/>
</clipPath>
</defs>
</svg>
