<svg width="710" height="609" fill="none" xmlns="http://www.w3.org/2000/svg"><path d="M521.3 395.809c0 16.113-.413 32.226 0 48.133.619 19.006 1.858 38.011 2.89 57.016 0 1.653-.206 4.132 1.033 5.165 7.226 7.23 5.161 16.526 5.987 25.203.206 1.652-.207 3.305 0 4.958.206 7.643-5.781 13.014-13.833 12.601a8.055 8.055 0 00-5.78 2.686c-6.194 9.709-15.898 11.568-26.22 12.601a4.745 4.745 0 01-2.891-.413c-3.716-1.033-7.019-2.479-10.735-3.718 2.271-2.479 4.335-5.165 6.606-7.437a116.194 116.194 0 018.465-9.09c5.368-4.751 8.258-9.709 5.987-17.353-.619-2.479 1.239-5.577 1.858-8.263.59-1.867.801-3.834.62-5.784-7.433-28.922-9.91-58.669-13.214-88.21-2.477-21.072-8.464-41.523-12.8-62.388-2.477-11.155-4.748-22.31-7.226-33.259a30.34 30.34 0 00-3.716-5.784c-.826-1.446-4.955-3.512-5.987 4.958-10.529.206-16.929-3.926-20.026-11.776-6.4-16.526-6.607-34.292-7.433-51.645-1.032-26.029 4.13-51.438 7.02-77.054 1.858-16.94 2.89-34.086 3.303-51.232.62-14.048 4.749-23.964 19.82-27.476 6.193-1.239 11.768-4.958 17.342-7.85 5.574-2.892 10.942-11.362 10.323-20.038-.619-8.677-6.4-15.7-9.91-23.55-1.445-3.306-5.368-7.024.206-11.156 1.446-1.24-1.032-7.023-.825-10.742a85.552 85.552 0 012.064-19.212 12.608 12.608 0 017.433-7.437c9.703-2.892 19.819-4.131 29.729-.413 6.4 2.272 9.91 7.437 10.942 14.46 1.032 7.024 3.097 15.288 3.51 23.138.207 4.751-2.065 9.502-3.303 14.254a16.696 16.696 0 00-1.445 4.545c-.62 4.338-2.891 10.742-.826 13.014a52.638 52.638 0 0018.581 12.808c10.529 3.925 21.884 5.991 32.826 8.47a11.559 11.559 0 019.703 9.09c7.639 28.301 16.104 56.396 22.917 84.904 2.271 10.123 1.652 21.691 0 32.433-3.303 20.865-13.007 39.457-24.568 57.017-.826 1.239-2.271 3.305-3.303 3.098-6.4-.619-6.194 4.339-7.02 8.057a29.57 29.57 0 00-.413 7.437c1.858 41.316 2.065 82.632 5.781 123.742a610.406 610.406 0 011.032 106.389c-.826 9.916.826 19.832-3.716 29.748-2.271 4.751-.619 11.362-1.445 16.939a13.641 13.641 0 01-3.51 8.47 28.073 28.073 0 01-26.22 7.437c-3.922-1.033-5.368-2.892-4.542-6.611a166.095 166.095 0 014.336-16.733c1.858-4.958 2.477-9.709-.207-14.667a30.204 30.204 0 01-3.716-9.296c-.619-5.164-2.064-10.949-.619-15.494 3.923-10.535.619-20.451-.62-30.574-3.509-33.466-7.432-66.725-11.355-100.191a14.655 14.655 0 00-.826-4.132l-2.064.207z" stroke="#EB623D" stroke-width="3" stroke-linecap="round" stroke-linejoin="round"/><path d="M362.948 341.271c-.619 3.512-1.445 7.024-1.858 10.536l-11.768 115.065c-1.238 12.189-2.477 24.377-3.303 36.565-.207 4.751.619 9.71.826 14.667.206 4.958 1.032 6.818-.413 9.09-4.542 7.024-4.749 14.461-4.749 22.311s-2.477 11.155-8.877 13.634a7.853 7.853 0 00-3.304 4.958c-2.271 8.883-10.529 16.94-19.613 18.179-9.084 1.24-14.039-4.338-11.561-12.601a42.975 42.975 0 017.019-12.808c7.226-9.297 10.117-19.006 10.736-30.781.619-11.775-1.239-25.203-2.89-37.804-1.652-12.602-.62-25.823-.826-38.631-.207-23.55 0-47.1-.62-70.65-.206-14.668-1.238-29.335-2.064-43.796-.826-14.46-2.065-27.268-3.51-40.696-.826-7.643-4.542-10.329-12.181-10.949a5.977 5.977 0 01-3.922-3.512c-13.007-51.025-21.059-102.464-1.239-153.902 2.89-7.437 5.161-15.081 7.639-22.931a14.87 14.87 0 0110.942-10.535 106.913 106.913 0 0019.407-6.404 146.998 146.998 0 0017.548-9.916 4.333 4.333 0 001.239-3.719c-1.858-8.056 0-16.526-5.574-24.17-2.478-3.718-6.4-10.535-.826-16.526.826-1.033-.206-3.925-.206-5.99-.207-14.668 4.954-23.138 16.929-26.856a24.554 24.554 0 0120.626 2.93 24.57 24.57 0 017.452 7.644 24.604 24.604 0 013.51 10.084c1.032 11.982 2.477 23.963-4.129 35.532-2.684 4.751-2.065 11.568-2.684 17.559a5.361 5.361 0 002.477 3.512c12.8 5.99 25.394 11.775 38.194 17.146 3.716 1.653 6.4 3.099 7.433 7.23 5.368 19.626 13.006 38.838 15.484 58.669 2.89 24.17 4.129 48.96.206 73.543-1.032 5.784-.826 11.982-2.271 17.766-2.064 9.296-4.955 18.592-7.639 27.682-.413 1.239-1.651 3.098-2.477 3.098-5.781.827-7.019 5.165-8.465 9.71-7.639 22.311-8.258 45.861-9.29 68.998-1.445 31.607-1.446 63.213-2.478 94.614-.826 21.071-2.477 42.142-3.716 63.213a22.663 22.663 0 01-.413 3.719c-5.368 12.601.207 22.724 6.813 33.259a30.998 30.998 0 014.129 15.081c.413 5.991-3.303 8.676-9.497 8.47-12.18-.62-16.929-5.371-21.677-16.94a28.535 28.535 0 00-5.368-8.263c-4.749-5.165-4.336-11.362-4.336-17.56 0-6.197-.619-7.643-.619-11.362 0-3.718-.62-11.981.825-17.559a51.253 51.253 0 001.239-19.419c-2.064-16.319-2.271-33.052-3.922-49.372-2.065-21.278-4.955-42.556-7.226-64.04-1.033-9.916-1.652-20.039-2.478-30.161-.206-2.273-.619-4.338-.825-6.611h-1.859zm-271.695-3.718a38.428 38.428 0 012.065 6.404c4.129 52.058 8.258 103.91.62 155.762-2.478 17.972-2.685 36.358-4.543 54.331-.62 6.61 3.097 9.296 8.052 11.568 1.445.62 3.51 2.066 3.716 3.512a18.804 18.804 0 005.608 10.154 18.78 18.78 0 0010.496 4.926c1.23.208 2.486.208 3.716 0 4.129-.619 11.768-1.446 11.768-2.272.206-5.578.413-12.601-2.891-16.113-8.258-9.71-8.258-19.212-5.987-30.987a388.396 388.396 0 007.02-53.298 815.01 815.01 0 0114.452-111.76c2.89-15.494 4.748-31.401 7.638-46.894a9.5 9.5 0 014.542-5.991 7.021 7.021 0 004.13-7.85c-2.065-23.344-4.336-46.687-5.988-70.238-.619-7.643.413-15.287.413-22.93.207-4.132 3.51-4.338 6.194-4.338 6.4.206 9.29-3.306 11.561-8.883 7.02-17.353 6.4-35.326 4.749-53.092-1.032-11.361-3.716-22.517-5.574-33.672-.826-5.991-3.304-9.503-10.117-11.156-12.8-2.892-25.6-6.61-35.097-16.94-3.303-3.718-5.368-7.23-3.097-12.187 2.271-4.958 5.987-11.156 8.465-17.147 2.477-5.99 4.955-8.883.206-14.254-1.652-2.066-.206-6.817-.206-10.329.413-10.535-2.684-19.418-13.42-23.343a29.712 29.712 0 00-30.762 4.544 14.67 14.67 0 00-5.368 8.057c-1.651 13.221-7.019 26.649.62 39.87 2.064 3.512 2.477 7.85 3.51 11.775a5.166 5.166 0 01-.62 3.512c-8.051 9.09-16.93 16.527-29.523 18.592a87.086 87.086 0 00-18.994 5.578 10.946 10.946 0 00-6.194 7.23 202.16 202.16 0 00-.825 69.618 8.266 8.266 0 002.064 4.958c5.162 4.545 4.749 10.122 3.923 16.32-.826 6.197 1.032 7.437 1.445 11.362.413 3.925 1.445 3.099 1.032 4.545-4.129 23.137-8.464 46.067-12.8 68.998a92.78 92.78 0 00-2.064 14.667 6.403 6.403 0 003.303 4.338c3.922 1.446 4.542 3.718 4.335 7.437-1.032 26.029-1.239 52.058-2.684 77.881-.825 14.047-4.335 27.682-5.161 41.729-1.858 30.368-2.684 60.735-4.542 90.896-.62 9.089-4.129 17.766-5.368 26.649-1.239 8.883-5.574 14.254-9.084 21.277-3.51 7.024-2.89 10.536-3.923 15.907a5.782 5.782 0 003.304 3.719c7.639 1.446 15.484 2.065 22.71-2.686 3.716-2.479 6.813-4.958 5.987-10.329-.206-1.446 2.271-4.132 4.13-5.164 1.857-1.033 8.464-5.165 7.638-11.362a5.58 5.58 0 01.826-3.512c9.29-14.668 10.323-32.02 13.007-48.547 5.987-38.011 9.703-76.641 15.69-114.652 2.89-19.006 8.878-37.598 13.42-56.19h2.477z" stroke="#EB623D" stroke-width="3" stroke-linecap="round" stroke-linejoin="round"/><path d="M266.534 428.448c-.207 9.71 1.238 19.626-.413 28.922-2.891 17.972-8.052 35.532-11.355 53.297-1.033 5.578.206 11.569.412 17.353a25.342 25.342 0 01-.412 3.925c-.207 2.273-1.239 4.752-.62 6.818 2.271 8.883 5.368 17.765 7.846 26.648 2.477 8.883 2.064 13.015-2.891 15.907-4.955 2.892-11.355 1.653-16.929 2.272a48.387 48.387 0 01-5.368.827c-6.194.206-13.007 2.066-18.374 0-5.368-2.066-5.988-9.09-5.162-13.221 3.303-14.048 2.271-28.302 2.065-42.349a111.652 111.652 0 00-4.955-27.062c-6.4-22.931-13.626-45.448-13.626-69.618 0-14.461-1.239-28.921-1.858-43.382a42.949 42.949 0 00-.826-4.545c-8.258 4.132-8.671 3.925-10.323-4.545-2.684-15.493-5.161-30.987-8.052-46.48-2.89-15.494-3.303-33.053 1.652-49.58 3.716-11.775 7.019-23.756 10.116-35.738 2.065-7.644.826-9.296-6.813-8.47-7.639.826-9.497-2.066-11.768-7.643a71.327 71.327 0 01-3.51-32.227c.62-9.09 1.652-18.179 2.065-27.269.206-4.958-1.032-10.122-1.239-15.287-.413-11.568 9.497-20.038 20.852-19.418 2.065.206 4.955-2.479 6.607-4.752 1.652-2.272 2.89-7.23 5.368-9.502 7.019-6.198 9.29-13.635 9.29-22.518a44.637 44.637 0 011.652-14.873c3.097-8.47 5.574-18.18 11.355-24.997 13.007-15.08 37.162-4.338 43.975 7.85a77.28 77.28 0 016.813 19.006c4.955 19.832 6.606 40.283 17.755 58.256 8.878 13.84 8.671 29.334 3.51 44.828-.826 1.859-1.858 3.718-2.89 6.197l-2.065-3.099h-1.445c-.826 4.132-2.478 8.263-2.065 11.982.413 3.718 2.891 7.85 4.749 12.188l-4.336-1.859c-.826 3.925-1.445 7.643-2.064 11.362l-5.988-3.305c-5.367 2.479-8.464 10.948-5.781 18.592 10.943 31.4 12.594 63.627 8.052 96.473-2.064 14.461-5.987 28.715-3.303 43.589a14.89 14.89 0 01-.619 5.164h-8.259c-.206 13.634-.619 27.062-.825 40.283zm-31.588 47.514c-1.239-9.09-.206-18.386-.206-27.682s.206-17.972-.207-27.062c-.413-9.089-1.652-19.212-2.477-28.921l-.62-8.263h-2.064c0 4.751 0 9.502-.207 14.254-.206 4.751-1.239 14.46-1.239 21.484 0 7.024 1.239 17.559 1.446 26.442.206 14.048.206 27.889.206 41.936 0 9.09-.826 18.179-.206 27.269.206 4.338 2.684 8.676 4.748 14.667 8.052-19.212 3.097-36.565.826-54.124zm408.782 96.06l4.955 6.198c3.51-10.123 10.116-17.973 5.781-29.542-4.336-11.568-5.575-29.127-4.129-44.001.535-8.25 1.57-16.459 3.096-24.583l1.859 10.122c1.651 7.644 2.271 15.7 4.748 22.931 4.749 13.221 4.542 26.235 2.89 39.663-.413 3.099-.206 6.198-.412 9.296-1.033 10.123-2.271 20.039-3.097 30.161-.826 10.122 1.858 13.428 7.432 14.254 5.574.826 15.071-3.099 16.516-10.536 1.446-7.437 1.859-12.808 0-18.179-5.367-16.113-4.954-32.226-2.477-48.546 1.652-10.949 4.749-21.485 5.161-32.433.413-10.949-2.064-18.179-2.89-27.476-.826-9.296-4.129-22.31-1.652-32.226 5.162-19.419 7.226-39.044 8.878-58.669 1.652-19.625.206-36.565 0-54.744 0-1.446-.206-3.925.619-4.132 7.639-4.131 2.891-10.122 2.065-15.08-2.065-14.667-4.955-29.334-7.433-43.795-.26-2.035.025-4.103.826-5.991 5.162-12.601 10.736-24.79 15.898-37.391a79.842 79.842 0 004.129-15.287c.825-6.197.825-12.395 1.445-18.592.619-6.198-2.271-11.775-7.02-16.32a13.026 13.026 0 01-3.097-6.611c-4.335-20.864-8.258-41.729-12.8-62.387a27.27 27.27 0 00-5.781-10.742c-15.071-18.18-38.813-14.461-47.071 7.85a103.763 103.763 0 00-4.129 57.223c1.032 5.577.206 8.676-5.781 9.709-5.987 1.033-9.084 4.545-12.388 9.296-9.497 14.048-18.787 28.302-29.936 40.903-5.987 7.23-10.322 14.048-10.942 23.137-.619 9.09 1.239 10.742 7.433 13.428 6.193 2.685 15.277 8.056 23.123 11.775 7.845 3.718 3.096 6.404 2.477 9.503-2.477 10.122-5.161 20.451-8.465 30.367-1.238 3.925-.412 6.197 2.891 7.437 3.303 1.239 4.542 4.545 3.923 8.47-2.065 16.939-4.955 33.879-1.239 51.025 1.858 8.883 3.716 17.766 5.368 26.649.825 4.751.619 9.916 1.445 14.667.826 4.752.619 7.231 2.684 9.09 11.148 10.742 13.213 24.376 13.419 38.837.207 14.461.826 26.029 2.065 38.837a343.442 343.442 0 005.987 35.945c2.684 13.221-1.445 24.583-7.845 35.326a10.727 10.727 0 01-3.923 3.511 23.967 23.967 0 00-11.355 15.494c-1.652 6.197 3.51 10.742 10.529 9.709 7.02-1.033 13.213-7.23 17.962-13.221 4.748-5.991 5.161-6.404 8.258-10.329z" stroke="#EB623D" stroke-width="3" stroke-linecap="round" stroke-linejoin="round"/></svg>