<svg width="20" height="20" fill="none" xmlns="http://www.w3.org/2000/svg"><path d="M11.22 20H7.094V6.667h3.95v1.797l.091-.052c.866-1.407 2.174-2.025 3.781-2.077.918-.026 1.816.084 2.662.482 1.093.52 1.705 1.419 2.044 2.545.266.899.364 1.817.364 2.748.02 2.571.013 5.143.013 7.714 0 .046-.002.092-.007.137h-4.139v-.28c0-2.18.007-4.362-.006-6.543a8.618 8.618 0 00-.137-1.478c-.247-1.367-1.139-1.83-2.408-1.68-1.158.137-1.796.814-1.978 2.07a9.776 9.776 0 00-.098 1.381c-.009 2.092-.01 4.178-.006 6.257V20zM.339 6.667h4.126v13.327H.339V6.667zm4.457-4.271c.007 1.321-1.067 2.422-2.382 2.428C1.1 4.831 0 3.73 0 2.402A2.404 2.404 0 012.382 0a2.4 2.4 0 012.414 2.396z" fill="#C4C4C4"/></svg>