<svg width="865" height="500" fill="none" xmlns="http://www.w3.org/2000/svg"><path d="M522.616 477.672c-.32.288-.784.432-1.248.432-.944 0-1.456-.544-1.456-1.536v-5.024h2.56v-.96h-2.56v-1.84h-1.136v1.84h-1.504v.96h1.504v5.088c0 1.552.88 2.448 2.464 2.448.656 0 1.328-.192 1.776-.592l-.4-.816zm6.756-7.152c-1.424 0-2.528.56-3.152 1.536v-4.928h-1.136V479h1.136v-4.416c0-1.92 1.136-3.04 2.944-3.04 1.6 0 2.528.912 2.528 2.688V479h1.136v-4.88c0-2.416-1.408-3.6-3.456-3.6zm13.915 4.272c0-2.528-1.712-4.272-4.08-4.272-2.368 0-4.112 1.776-4.112 4.272 0 2.496 1.792 4.288 4.416 4.288 1.328 0 2.496-.48 3.248-1.376l-.64-.736c-.64.736-1.552 1.104-2.576 1.104-1.84 0-3.184-1.168-3.312-2.928h7.04c0-.128.016-.256.016-.352zm-4.08-3.296c1.648 0 2.848 1.152 2.992 2.8h-5.968c.144-1.648 1.344-2.8 2.976-2.8zm18.708 5.68c-.864.624-1.856.864-2.928.864-2.752 0-4.784-1.984-4.784-4.64 0-2.672 2.032-4.64 4.8-4.64 1.312 0 2.432.384 3.376 1.312l.736-.752c-.992-1.072-2.464-1.616-4.16-1.616-3.424 0-5.92 2.416-5.92 5.696s2.496 5.696 5.904 5.696c1.552 0 3.056-.48 4.112-1.424V473.4h-1.136v3.776zm7.687 1.904c2.464 0 4.272-1.792 4.272-4.288 0-2.496-1.808-4.272-4.272-4.272-2.464 0-4.288 1.776-4.288 4.272 0 2.496 1.824 4.288 4.288 4.288zm0-1.008c-1.792 0-3.136-1.312-3.136-3.28 0-1.968 1.344-3.28 3.136-3.28s3.12 1.312 3.12 3.28c0 1.968-1.328 3.28-3.12 3.28zm10.031 1.008c2.464 0 4.272-1.792 4.272-4.288 0-2.496-1.808-4.272-4.272-4.272-2.464 0-4.288 1.776-4.288 4.272 0 2.496 1.824 4.288 4.288 4.288zm0-1.008c-1.792 0-3.136-1.312-3.136-3.28 0-1.968 1.344-3.28 3.136-3.28s3.12 1.312 3.12 3.28c0 1.968-1.328 3.28-3.12 3.28zm13.136-10.944v5.056c-.704-1.088-1.856-1.664-3.2-1.664-2.4 0-4.192 1.728-4.192 4.272 0 2.544 1.792 4.288 4.192 4.288 1.392 0 2.56-.608 3.248-1.744V479h1.088v-11.872h-1.136zm-3.104 10.944c-1.792 0-3.136-1.312-3.136-3.28 0-1.968 1.344-3.28 3.136-3.28 1.776 0 3.12 1.312 3.12 3.28 0 1.968-1.344 3.28-3.12 3.28zm7.531-.736c-.48 0-.848.368-.848.864 0 .416.24.72.576.816l-.544 2.32h.768l.672-2.208c.16-.448.224-.656.224-.928 0-.48-.352-.864-.848-.864zm11.483.336c-.32.288-.784.432-1.248.432-.944 0-1.456-.544-1.456-1.536v-5.024h2.56v-.96h-2.56v-1.84h-1.136v1.84h-1.504v.96h1.504v5.088c0 1.552.88 2.448 2.464 2.448.656 0 1.328-.192 1.776-.592l-.4-.816zm6.756-7.152c-1.424 0-2.528.56-3.152 1.536v-4.928h-1.136V479h1.136v-4.416c0-1.92 1.136-3.04 2.944-3.04 1.6 0 2.528.912 2.528 2.688V479h1.136v-4.88c0-2.416-1.408-3.6-3.456-3.6zm13.915 4.272c0-2.528-1.712-4.272-4.08-4.272-2.368 0-4.112 1.776-4.112 4.272 0 2.496 1.792 4.288 4.416 4.288 1.328 0 2.496-.48 3.248-1.376l-.64-.736c-.64.736-1.552 1.104-2.576 1.104-1.84 0-3.184-1.168-3.312-2.928h7.04c0-.128.016-.256.016-.352zm-4.08-3.296c1.648 0 2.848 1.152 2.992 2.8h-5.968c.144-1.648 1.344-2.8 2.976-2.8zm17.876 1.728c1.024-.416 1.712-1.264 1.712-2.544 0-1.824-1.44-2.88-3.936-2.88h-4.832V479h5.152c2.8 0 4.208-1.088 4.208-2.992 0-1.52-.864-2.464-2.304-2.784zm-2.304-4.448c1.792 0 2.832.688 2.832 2.032s-1.04 2.032-2.832 2.032h-3.568v-4.064h3.568zm.384 9.248h-3.952v-4.208h3.952c1.968 0 3.04.64 3.04 2.096 0 1.472-1.072 2.112-3.04 2.112zm9.63-7.504c-1.328 0-2.576.416-3.424 1.136l.512.848c.688-.608 1.712-.992 2.8-.992 1.568 0 2.384.784 2.384 2.224v.512h-2.672c-2.416 0-3.248 1.088-3.248 2.384 0 1.456 1.168 2.448 3.072 2.448 1.392 0 2.384-.528 2.896-1.392V479h1.088v-5.216c0-2.176-1.232-3.264-3.408-3.264zm-.4 7.664c-1.344 0-2.128-.608-2.128-1.584 0-.864.528-1.504 2.16-1.504h2.64v1.376c-.448 1.104-1.392 1.712-2.672 1.712zm13.469-11.056v5.056c-.704-1.088-1.856-1.664-3.2-1.664-2.4 0-4.192 1.728-4.192 4.272 0 2.544 1.792 4.288 4.192 4.288 1.392 0 2.56-.608 3.248-1.744V479h1.088v-11.872h-1.136zm-3.104 10.944c-1.792 0-3.136-1.312-3.136-3.28 0-1.968 1.344-3.28 3.136-3.28 1.776 0 3.12 1.312 3.12 3.28 0 1.968-1.344 3.28-3.12 3.28zm14.535-7.552c-1.328 0-2.576.416-3.424 1.136l.512.848c.688-.608 1.712-.992 2.8-.992 1.568 0 2.384.784 2.384 2.224v.512h-2.672c-2.416 0-3.248 1.088-3.248 2.384 0 1.456 1.168 2.448 3.072 2.448 1.392 0 2.384-.528 2.896-1.392V479h1.088v-5.216c0-2.176-1.232-3.264-3.408-3.264zm-.4 7.664c-1.344 0-2.128-.608-2.128-1.584 0-.864.528-1.504 2.16-1.504h2.64v1.376c-.448 1.104-1.392 1.712-2.672 1.712zm11.182-7.664c-1.456 0-2.592.592-3.2 1.616v-1.552h-1.088V479h1.136v-4.416c0-1.92 1.136-3.04 2.944-3.04 1.6 0 2.528.912 2.528 2.688V479h1.136v-4.88c0-2.416-1.408-3.6-3.456-3.6zm13.115-3.392v5.056c-.704-1.088-1.856-1.664-3.2-1.664-2.4 0-4.192 1.728-4.192 4.272 0 2.544 1.792 4.288 4.192 4.288 1.392 0 2.56-.608 3.248-1.744V479h1.088v-11.872h-1.136zm-3.104 10.944c-1.792 0-3.136-1.312-3.136-3.28 0-1.968 1.344-3.28 3.136-3.28 1.776 0 3.12 1.312 3.12 3.28 0 1.968-1.344 3.28-3.12 3.28zm15.623-.4c-.32.288-.784.432-1.248.432-.944 0-1.456-.544-1.456-1.536v-5.024h2.56v-.96h-2.56v-1.84h-1.136v1.84h-1.504v.96h1.504v5.088c0 1.552.88 2.448 2.464 2.448.656 0 1.328-.192 1.776-.592l-.4-.816zm6.756-7.152c-1.424 0-2.528.56-3.152 1.536v-4.928h-1.136V479h1.136v-4.416c0-1.92 1.136-3.04 2.944-3.04 1.6 0 2.528.912 2.528 2.688V479h1.136v-4.88c0-2.416-1.408-3.6-3.456-3.6zm13.916 4.272c0-2.528-1.712-4.272-4.08-4.272-2.368 0-4.112 1.776-4.112 4.272 0 2.496 1.792 4.288 4.416 4.288 1.328 0 2.496-.48 3.248-1.376l-.64-.736c-.64.736-1.552 1.104-2.576 1.104-1.84 0-3.184-1.168-3.312-2.928h7.04c0-.128.016-.256.016-.352zm-4.08-3.296c1.648 0 2.848 1.152 2.992 2.8h-5.968c.144-1.648 1.344-2.8 2.976-2.8zm15.331 7.6c2.864 0 4.592-1.664 4.592-4.88V467.8h-1.152v6.368c0 2.656-1.248 3.872-3.44 3.872-2.176 0-3.424-1.216-3.424-3.872V467.8h-1.184v6.416c0 3.216 1.744 4.88 4.608 4.88zm14.624-8.512v1.616c-.704-1.104-1.92-1.68-3.328-1.68-2.4 0-4.224 1.648-4.224 4.064 0 2.416 1.824 4.096 4.224 4.096 1.376 0 2.576-.56 3.28-1.632v1.072c0 2.08-.976 3.056-3.104 3.056-1.296 0-2.512-.432-3.312-1.152l-.576.864c.88.832 2.384 1.296 3.92 1.296 2.784 0 4.208-1.312 4.208-4.208v-7.392h-1.088zm-3.216 7.088c-1.856 0-3.184-1.264-3.184-3.088s1.328-3.072 3.184-3.072 3.2 1.248 3.2 3.072-1.344 3.088-3.2 3.088zm7.481 1.328h1.136v-11.872h-1.136V479zm10.249-8.416l-3.168 7.152-3.168-7.152h-1.184l3.76 8.4-.368.816c-.48 1.056-.992 1.408-1.744 1.408-.608 0-1.12-.224-1.536-.64l-.528.848c.512.512 1.264.768 2.048.768 1.2 0 2.096-.528 2.8-2.176l4.208-9.424h-1.12z" fill="#fff"/><path fill="#C4C4C4" d="M0 373h865v-1H0z"/><path d="M567.958 373h-15.16v53.764h15.16V373zm-40.866 0h-15.159v54.052h15.159V373zm-65.253 0H446.68v54.052h15.159V373zm-46.357 0h-15.16v54.052h15.16V373zm-41.305 0h-17.576v54.052h17.576V373zm-44.723 0h-16.535v54h16.535v-54zm468.756 0h-15.16v54.052h15.16V373zm34.713 0h-15.159v54.052h15.159V373zM865 373h-16.535v54H865v-54z" fill="#7CAA2B"/><path d="M671.575 0h-18.372v427h18.372V0zm57.782 0h-18.372v427h18.372V0z" fill="#D6A533"/><path d="M765.829 0h-18.372v427h18.372V0z" fill="#E9623E"/><path d="M628 0h-18.372v427H628V0z" fill="#D6A533"/><path d="M315.076 135.788h2.637" stroke="#A6A6A6" stroke-miterlimit="10"/><path d="M322.766 135.787h181.916l67.889.958 33.396-4.55 159.726-3.832 38.668-.718 32.517-1.916 19.993.718" stroke="#E9623E" stroke-width="2" stroke-miterlimit="10" stroke-dasharray="2.31 2.31"/><path d="M859.288 126.448l2.417.239" stroke="#A6A6A6" stroke-miterlimit="10"/><path d="M416.36 139.14c1.941 0 3.515-1.715 3.515-3.832 0-2.116-1.574-3.831-3.515-3.831s-3.515 1.715-3.515 3.831c0 2.117 1.574 3.832 3.515 3.832zm89.201.958c1.942 0 3.515-1.715 3.515-3.832 0-2.116-1.573-3.831-3.515-3.831-1.941 0-3.515 1.715-3.515 3.831 0 2.117 1.574 3.832 3.515 3.832zm66.131-.479c1.942 0 3.515-1.715 3.515-3.832 0-2.116-1.573-3.831-3.515-3.831-1.941 0-3.515 1.715-3.515 3.831 0 2.117 1.574 3.832 3.515 3.832zm194.44-6.945c1.942 0 3.516-1.715 3.516-3.832 0-2.116-1.574-3.831-3.516-3.831-1.941 0-3.515 1.715-3.515 3.831 0 2.117 1.574 3.832 3.515 3.832zm36.471-1.197c1.942 0 3.515-1.716 3.515-3.832 0-2.116-1.573-3.832-3.515-3.832-1.941 0-3.515 1.716-3.515 3.832 0 2.116 1.574 3.832 3.515 3.832zm34.275-1.437c1.941 0 3.515-1.716 3.515-3.832 0-2.116-1.574-3.832-3.515-3.832-1.942 0-3.516 1.716-3.516 3.832 0 2.116 1.574 3.832 3.516 3.832z" fill="#A6A6A6"/><path d="M313.758 136.745h12.743v135.788l1.538 5.508 5.053-8.143 5.053 8.143 3.296-7.185h14.281l.878 5.269 1.538-205.238 1.758 64.9h9.228l1.757-7.424-.878 108.726 3.295 1.677-2.417 31.132h3.296l-.879 11.735 3.296-7.184 3.295-5.508v7.184l2.637 7.424 1.538-8.142 2.636-5.509 10.107.958 1.538 5.269v-99.386l3.295.958-.219-42.868-.44-56.518 4.175 57.476 6.591.958 1.757-6.466-.878 139.619h4.174v10.059l4.174-12.932 1.758 5.508 19.993-1.677 1.758 6.227.879-206.196 3.295 63.942h9.228l.659 7.424 3.515-11.974v138.662l2.417 9.1 2.637-8.143h4.833l5.053-3.592 1.758 4.55 7.47-.958 2.636 9.101 2.417-7.424 4.175 3.832 2.636-4.551h9.887l1.758 6.227V153.03l3.295 4.55V96.512l4.175 34.725 2.636 4.55h8.349v131.238l3.295.958-.878 9.1 5.932-9.1.439 5.029 1.099 9.579 3.515-8.142 1.538-3.593h7.47l1.758 5.269v-139.38l3.295.958.879-11.974 1.758 8.143 3.295-3.593 1.758 5.508 3.295-6.466v136.027l3.296-.958v17.243l3.296-10.777 4.174 5.269 3.515-4.55 15.819 1.916 2.417-4.55h9.228v8.142-160.454l2.636 18.2v-30.893l3.296 28.978h10.106v5.508l3.296-5.508-.879 131.476 2.636 6.466v15.327l3.296-12.692h5.053l2.417-5.508 3.295 6.466 4.175-4.551 4.174 6.227-.659-122.137 3.296 2.874v-33.767l6.591 7.184 7.69.958 3.295-7.424v146.085h5.054l.659 15.567 2.197-13.411 1.318-8.622 3.296 8.143h21.75l5.054 4.55V115.671l4.174 14.608h10.107v44.784l4.174-1.916v109.444l2.417-9.1h15.159V84.777l3.296 43.586h10.106l-1.757 39.276h4.174v103.936l5.053 5.508 4.175-7.185h12.523l1.758 8.143V89.327l2.417 39.036 9.227.958v143.212l6.591 1.916 11.865-1.916.878 3.592V51.728v76.635l10.766-.718v139.38l1.758 10.058 4.174-5.508h12.523l.879 7.424V123.095l3.296 4.55v-27.541l3.295 27.541h7.47v102.02l1.318-.958v40.234" stroke="#6C6C6C" stroke-width="2" stroke-linecap="round" stroke-linejoin="round"/><path d="M560.354 439.646a.502.502 0 00-.708 0l-3.182 3.182a.502.502 0 00.708.708l2.828-2.829 2.828 2.829a.502.502 0 00.708-.708l-3.182-3.182zM560.5 460v-20h-1v20h1zm58.854-20.354a.502.502 0 00-.708 0l-3.182 3.182a.502.502 0 00.708.708l2.828-2.829 2.828 2.829a.502.502 0 00.708-.708l-3.182-3.182zM619.5 460v-20h-1v20h1zm137.854-20.354a.502.502 0 00-.708 0l-3.182 3.182a.502.502 0 00.708.708l2.828-2.829 2.828 2.829a.502.502 0 00.708-.708l-3.182-3.182zM757.5 460v-20h-1v20h1z" fill="#fff"/></svg>