<svg width="432" height="32" viewBox="0 0 432 32" fill="none" xmlns="http://www.w3.org/2000/svg">
<path d="M63.696 32C68.3227 32 72.4553 30.4278 75.2403 27.3733L73.1291 25.262C70.5687 27.9123 67.4243 29.0353 63.8307 29.0353C56.2393 29.0353 50.5345 23.4653 50.5345 16.0086C50.5345 8.55192 56.2393 2.98188 63.8307 2.98188C67.4243 2.98188 70.5687 4.10488 73.1291 6.71022L75.2403 4.59899C72.4553 1.54445 68.3227 0.0171843 63.7409 0.0171843C54.2628 0.0171843 47.2554 6.80006 47.2554 16.0086C47.2554 25.2171 54.2628 32 63.696 32Z" fill="white"/>
<path d="M101.554 32C109.595 32 114.446 27.3284 114.446 18.2995V0.286701H111.212V18.1647C111.212 25.6214 107.708 29.0353 101.554 29.0353C95.4451 29.0353 91.9413 25.6214 91.9413 18.1647V0.286701H88.6173V18.2995C88.6173 27.3284 93.5135 32 101.554 32Z" fill="white"/>
<path d="M156.221 31.7305L148.54 20.9498C153.122 19.4674 155.727 16.0086 155.727 11.0674C155.727 4.32947 150.876 0.286701 142.88 0.286701H131.111V31.7305H134.435V21.7583H142.88C143.778 21.7583 144.587 21.7134 145.395 21.6236L152.583 31.7305H156.221ZM142.79 18.9284H134.435V3.16156H142.79C149.079 3.16156 152.403 6.03642 152.403 11.0674C152.403 16.0086 149.079 18.9284 142.79 18.9284Z" fill="white"/>
<path d="M195.331 31.7305L187.649 20.9498C192.231 19.4674 194.837 16.0086 194.837 11.0674C194.837 4.32947 189.985 0.286701 181.989 0.286701H170.221V31.7305H173.545V21.7583H181.989C182.888 21.7583 183.696 21.7134 184.505 21.6236L191.692 31.7305H195.331ZM181.9 18.9284H173.545V3.16156H181.9C188.188 3.16156 191.512 6.03642 191.512 11.0674C191.512 16.0086 188.188 18.9284 181.9 18.9284Z" fill="white"/>
<path d="M212.654 28.8556V17.1765H228.915V14.3466H212.654V3.16156H230.892V0.286701H209.33V31.7305H231.565V28.8556H212.654Z" fill="white"/>
<path d="M269.026 0.286701V25.8011L248.767 0.286701H246.027V31.7305H249.351V6.2161L269.565 31.7305H272.305V0.286701H269.026Z" fill="white"/>
<path d="M295.325 31.7305H298.649V3.16156H309.7V0.286701H284.275V3.16156H295.325V31.7305Z" fill="white"/>
<path d="M370.501 0.286716L356.98 23.6L343.325 0.286716H340.585V31.7305H343.774V6.71023L356.127 27.7326H357.699L370.052 6.57547V31.7305H373.241V0.286716H370.501Z" fill="#E9623E"/>
<path d="M390.135 31.7305H411.067V28.8556H393.459V0.286716H390.135V31.7305Z" fill="#E9623E"/>
<path d="M27.7164 0.19117H0V31.7305L27.7164 0.19117Z" fill="#E9623E"/>
<path d="M413.743 10.7043H415.256V1.33039H418.926V0H410.073V1.33039H413.743V10.7043Z" fill="white"/>
<path d="M431.984 10.7043L431.969 0H430.715L426.311 7.52357L421.846 0H420.592V10.7043H422.06V2.95132L425.929 9.40446H426.632L430.501 2.90544L430.516 10.7043H431.984Z" fill="white"/>
</svg>
