<svg width="256" height="48" viewBox="0 0 256 48" fill="none" xmlns="http://www.w3.org/2000/svg">
<g clip-path="url(#clip0_417_149)">
<path d="M18.7238 24.0651H7.94144L6.32732 28.239H0L10.524 2.21729H16.1412L26.6653 28.239H20.4025L18.7238 24.0651ZM10.0076 18.9129H16.6577L13.5586 11.0869L13.3649 10.239H13.3004L13.1066 11.0869L10.0076 18.9129Z" fill="#555555"/>
<path d="M26.4717 1.3042H32.3471V28.239H26.4717V1.3042Z" fill="#555555"/>
<path d="M33.4446 18.3261C33.4393 16.919 33.7024 15.524 34.2194 14.2174C34.7197 12.9534 35.4915 11.8174 36.4792 10.8913C37.4551 9.9043 38.6193 9.12774 39.9011 8.60868C42.7661 7.4807 45.9461 7.4807 48.8111 8.60868C50.0929 9.12774 51.2571 9.9043 52.2331 10.8913C53.2208 11.8174 53.9926 12.9534 54.4928 14.2174C55.0099 15.524 55.2729 16.919 55.2676 18.3261V19.3043C55.203 19.5 55.2031 19.7608 55.1385 19.9565H39.4492C39.607 20.5522 39.846 21.1229 40.1594 21.6522C40.4777 22.1261 40.8702 22.5446 41.3216 22.8913C41.7404 23.2583 42.2216 23.5456 42.742 23.7391C43.2595 23.9259 43.8067 24.0143 44.3561 24C45.1901 24.0244 46.0153 23.8217 46.745 23.413C47.3932 23.0734 47.931 22.5527 48.2945 21.913H54.6219C54.3216 22.822 53.8862 23.6797 53.3306 24.4565C52.716 25.3051 51.9755 26.053 51.1354 26.6739C50.2091 27.3493 49.1857 27.8772 48.1009 28.2391C46.8926 28.6393 45.6277 28.8375 44.3561 28.8261C42.8362 28.8433 41.326 28.578 39.9011 28.0435C38.6446 27.4766 37.4887 26.7055 36.4792 25.7609C35.5244 24.7817 34.7581 23.6317 34.2194 22.3696C33.6961 21.0876 33.4326 19.7127 33.4446 18.3261ZM44.3561 12.7174C43.3654 12.6982 42.3941 12.9949 41.5799 13.5652C40.7581 14.119 40.1265 14.9165 39.772 15.8478H49.0048C48.8094 15.378 48.5485 14.9387 48.23 14.5435C47.912 14.1664 47.5424 13.837 47.1324 13.5652L45.8411 12.913C45.3573 12.7796 44.8576 12.7137 44.3561 12.7174Z" fill="#555555"/>
<path d="M60.6265 22.0433C60.6558 22.3371 60.7528 22.6199 60.9098 22.8691C61.0668 23.1182 61.2793 23.3268 61.5304 23.4781C62.1732 23.8628 62.9152 24.0445 63.661 23.9998C64.4765 24.0551 65.2936 23.9212 66.0499 23.6085C66.2774 23.4914 66.4695 23.3145 66.6058 23.0964C66.7421 22.8783 66.8178 22.6272 66.8247 22.3694C66.8302 22.2166 66.7975 22.0649 66.7299 21.9281C66.6622 21.7914 66.5616 21.674 66.4374 21.5867C66.1619 21.3351 65.8293 21.1559 65.4689 21.065C64.9479 20.8571 64.4069 20.7041 63.8548 20.6085L61.595 20.152L60.3683 19.8911L59.0124 19.4346C58.5495 19.2607 58.1144 19.019 57.7211 18.7172C57.2979 18.4632 56.9256 18.1314 56.6235 17.7389C56.2762 17.2912 56.0136 16.7827 55.8487 16.2389C55.632 15.61 55.5228 14.9484 55.5259 14.2824C55.5053 13.3361 55.7043 12.398 56.107 11.5433C56.4548 10.7347 57.0125 10.0362 57.7211 9.52153C58.5532 8.9075 59.4964 8.46435 60.4974 8.21718C61.7609 7.88162 63.0651 7.72793 64.3712 7.76066C65.5048 7.77114 66.6327 7.9245 67.7287 8.21718C68.6306 8.49955 69.4655 8.96567 70.1821 9.58675C70.8612 10.1425 71.3936 10.8595 71.7317 11.6737C72.1203 12.5101 72.3189 13.4237 72.3128 14.3476H66.4374C66.4115 14.1024 66.3349 13.8653 66.2125 13.6519C66.0902 13.4384 65.9248 13.2533 65.7271 13.1085C65.4861 12.9077 65.2077 12.7579 64.9081 12.6683C64.6086 12.5787 64.2942 12.5509 63.9839 12.5868C63.2862 12.5285 62.5876 12.6879 61.9824 13.0433C61.7915 13.1696 61.6371 13.3448 61.535 13.551C61.433 13.7572 61.3868 13.9871 61.4013 14.2172C61.3965 14.4497 61.4643 14.6779 61.595 14.8694C61.7913 15.0637 62.0372 15.1991 62.3052 15.2607C62.6718 15.4343 63.0646 15.5445 63.4673 15.5867L65.1461 15.8476L68.116 16.4998C68.9829 16.7157 69.8108 17.0678 70.5695 17.5433C71.2552 17.9873 71.8476 18.5635 72.3128 19.2389C72.7301 20.0886 72.9299 21.0303 72.8939 21.9781C72.9346 23.0457 72.6892 24.1047 72.1836 25.0433C71.7182 25.9072 71.0539 26.6454 70.2466 27.1954C69.3367 27.7966 68.3325 28.2377 67.2767 28.4998C66.0246 28.7691 64.7474 28.9003 63.4673 28.8911C62.131 28.9231 60.7991 28.7246 59.5289 28.3041C58.5655 27.9078 57.6717 27.3573 56.8817 26.6737C56.217 26.0525 55.689 25.297 55.3322 24.4563C55.0266 23.6669 54.8732 22.8257 54.8802 21.9781L60.6265 22.0433Z" fill="#555555"/>
<path d="M73.8623 1.3042H79.7377V16.7607L86.2587 8.41289H93.1026L86.4525 16.6303L93.6837 28.239H86.7107L82.3203 20.5433L79.7377 23.6085V28.239H73.8623V1.3042Z" fill="#555555"/>
<path d="M91.1012 18.3262C91.0958 16.9191 91.3588 15.5241 91.8759 14.2175C92.3987 12.9659 93.1675 11.8344 94.1357 10.8915C95.1245 9.88953 96.313 9.11145 97.6222 8.60884C99.0098 8.0158 100.506 7.72683 102.013 7.76102C103.539 7.73306 105.056 8.02161 106.468 8.60884C108.389 9.38831 110.036 10.7297 111.198 12.461C112.36 14.1923 112.984 16.2347 112.989 18.3262C113.004 18.6537 112.982 18.982 112.924 19.3045C112.912 19.527 112.868 19.7466 112.795 19.9567H97.1703C97.3001 20.5617 97.541 21.1369 97.8805 21.6523C98.1756 22.1241 98.5466 22.5429 98.978 22.8914C99.3969 23.2585 99.8782 23.5458 100.399 23.7393C101.744 24.1766 103.206 24.0594 104.466 23.4132C105.086 23.0348 105.615 22.5226 106.016 21.9132H112.343C111.993 22.8125 111.538 23.6664 110.987 24.4567C110.391 25.3207 109.647 26.0714 108.792 26.6741C107.873 27.3619 106.848 27.8908 105.757 28.2393C104.55 28.6453 103.285 28.8437 102.013 28.8262C100.513 28.8491 99.0232 28.5836 97.6222 28.0436C96.3376 27.4931 95.1577 26.7207 94.1357 25.761C93.1791 24.7965 92.4316 23.6416 91.9405 22.3697C91.3671 21.1015 91.0803 19.7203 91.1012 18.3262ZM102.077 12.7175C101.065 12.689 100.07 12.9859 99.2363 13.5654C98.4332 14.1393 97.8066 14.9305 97.4286 15.848H106.661C106.466 15.3781 106.205 14.9389 105.887 14.5436C105.584 14.1511 105.212 13.8193 104.789 13.5654L103.498 12.9132C103.035 12.784 102.557 12.7182 102.077 12.7175Z" fill="#555555"/>
<path d="M127.387 13.5654H124.933C124.25 13.5245 123.565 13.6249 122.921 13.8604C122.277 14.0958 121.688 14.4615 121.188 14.935C120.285 15.848 119.833 17.1523 119.833 18.9784V28.2393H114.022V8.41321H118.67L119.122 10.3045C119.801 9.69852 120.591 9.23317 121.447 8.93495C122.463 8.57733 123.534 8.40079 124.61 8.41321H127.387V13.5654Z" fill="#555555"/>
<path d="M126.612 18.3261C126.607 16.919 126.87 15.524 127.387 14.2174C127.887 12.9534 128.659 11.8174 129.646 10.8913C130.622 9.9043 131.787 9.12774 133.068 8.60868C135.933 7.4807 139.113 7.4807 141.978 8.60868C143.26 9.12774 144.424 9.9043 145.4 10.8913C146.388 11.8174 147.16 12.9534 147.66 14.2174C148.214 15.5148 148.5 16.913 148.5 18.3261C148.5 19.7392 148.214 21.1373 147.66 22.4348C147.128 23.6814 146.361 24.8112 145.4 25.7609C144.395 26.7415 143.211 27.5166 141.914 28.0435C140.492 28.5885 138.98 28.8541 137.459 28.8261C135.96 28.8368 134.473 28.5716 133.068 28.0435C131.799 27.4998 130.64 26.7262 129.646 25.7609C128.707 24.7939 127.942 23.6682 127.387 22.4348C126.87 21.1282 126.607 19.7332 126.612 18.3261ZM132.423 18.3261C132.444 19.7982 132.995 21.2122 133.972 22.3043C134.429 22.7822 134.979 23.1596 135.586 23.413C136.2 23.673 136.858 23.8061 137.523 23.8043C138.231 23.813 138.933 23.68 139.589 23.413C140.169 23.1421 140.694 22.7663 141.139 22.3043C141.601 21.7841 141.972 21.1887 142.237 20.5435C142.502 19.8352 142.633 19.0831 142.624 18.3261C142.632 17.5478 142.501 16.7745 142.237 16.0435C141.987 15.4096 141.614 14.833 141.139 14.3478C140.682 13.87 140.133 13.4925 139.525 13.2391C138.891 12.9722 138.21 12.8391 137.523 12.8478C136.837 12.8444 136.157 12.9773 135.522 13.2391C134.932 13.5248 134.388 13.8985 133.908 14.3478C133.453 14.8366 133.102 15.4135 132.875 16.0435C132.558 16.7609 132.403 17.5407 132.423 18.3261Z" fill="#555555"/>
<path d="M151.082 13.4348H147.531V8.41302H151.082V7.63041C151.089 6.72536 151.219 5.82559 151.469 4.9565C151.684 4.05848 152.08 3.21482 152.632 2.47824C153.218 1.68479 153.996 1.05615 154.891 0.652156C155.989 0.167715 157.181 -0.0554228 158.378 -1.84439e-05H162.316V4.76085H159.798C159.353 4.73364 158.908 4.82351 158.507 5.02172C158.158 5.16212 157.848 5.3859 157.603 5.67389C157.39 5.9422 157.236 6.25351 157.151 6.58693C157.044 6.96834 157 7.36502 157.022 7.76085V8.41302H162.252V13.4348H157.022V28.2391H151.082V13.4348Z" fill="#555555"/>
<path d="M164.318 13.4348H160.702V8.41302H164.318V7.63041C164.301 6.72825 164.41 5.82818 164.641 4.9565C164.882 4.06823 165.275 3.22949 165.803 2.47824C166.389 1.68479 167.167 1.05615 168.062 0.652156C169.16 0.167715 170.353 -0.0554228 171.549 -1.84439e-05H175.487V4.76085H172.969C172.524 4.73364 172.079 4.82351 171.678 5.02172C171.338 5.14594 171.045 5.37385 170.839 5.67389C170.606 5.93857 170.43 6.24956 170.322 6.58693C170.247 6.97399 170.204 7.36662 170.193 7.76085V8.41302H175.423V13.4348H170.193V28.2391H164.318V13.4348Z" fill="#555555"/>
<path d="M178.716 22.3696H172.905V28.2522H178.716V22.3696Z" fill="#555555"/>
<path d="M155.279 41.5434C155.264 41.0732 155.352 40.6056 155.537 40.1738C155.695 39.7392 155.936 39.3403 156.247 38.9999C156.582 38.6665 156.976 38.4008 157.409 38.2173C157.873 37.9954 158.381 37.8838 158.894 37.8912C159.269 37.8874 159.641 37.9538 159.992 38.0869L160.831 38.5434V35.6738H162.833V44.9999H161.09V44.413L160.186 44.9999C159.299 45.282 158.346 45.259 157.474 44.9347C157.041 44.7512 156.646 44.4855 156.312 44.1521C155.678 43.4353 155.332 42.5046 155.343 41.5434H155.279ZM157.345 41.5434C157.314 41.8113 157.359 42.0826 157.474 42.326C157.657 42.7678 158.005 43.1191 158.442 43.3043C158.641 43.4097 158.865 43.455 159.088 43.4347C159.332 43.4603 159.579 43.4151 159.798 43.3043C160.236 43.1191 160.583 42.7678 160.767 42.326C160.882 42.0826 160.926 41.8113 160.896 41.5434C160.917 41.2758 160.873 41.0069 160.767 40.7608C160.683 40.5379 160.551 40.3372 160.379 40.1738L159.798 39.7825L159.088 39.6521L158.378 39.7825L157.861 40.1738C157.69 40.3372 157.557 40.5379 157.474 40.7608C157.368 41.0069 157.323 41.2758 157.345 41.5434Z" fill="#555555"/>
<path d="M165.803 38.1523H163.801V44.9871H165.803V38.1523Z" fill="#555555"/>
<path d="M166.384 41.5433C166.369 41.0731 166.457 40.6055 166.642 40.1737C166.8 39.7391 167.042 39.3402 167.352 38.9998C167.687 38.6664 168.081 38.4007 168.515 38.2172C168.983 38.0089 169.488 37.898 170 37.8911H170.71L171.291 38.0868L171.743 38.3476C171.917 38.4178 172.072 38.5297 172.195 38.6737L172.324 38.0868H173.938V44.4129C173.96 44.8835 173.871 45.3527 173.68 45.7824C173.56 46.2163 173.312 46.603 172.97 46.8911C172.673 47.2237 172.294 47.4712 171.872 47.6085C171.378 47.7997 170.851 47.8884 170.322 47.8694H169.225L168.321 47.5433L167.675 47.0868C167.49 46.921 167.337 46.722 167.223 46.4998C167.004 46.1212 166.872 45.6978 166.836 45.2607H168.773C168.785 45.4115 168.854 45.5516 168.967 45.652C169.015 45.7863 169.106 45.9009 169.225 45.9781L169.677 46.1737H170.322C170.588 46.2047 170.856 46.1595 171.097 46.0433C171.309 45.9439 171.488 45.7855 171.614 45.5868C171.743 45.3911 171.872 45.2607 171.872 45.065C171.925 44.8742 171.947 44.676 171.936 44.4781V44.2824L171.033 44.8042C170.639 44.943 170.223 45.0093 169.806 44.9998C169.34 45.0147 168.877 44.9256 168.45 44.7389C168.04 44.5779 167.666 44.3338 167.352 44.0216C167.057 43.6938 166.817 43.3192 166.642 42.9129C166.467 42.4783 166.379 42.0126 166.384 41.5433ZM168.385 41.5433C168.371 41.8179 168.438 42.0906 168.579 42.3259C168.762 42.7677 169.11 43.119 169.548 43.3042L170.193 43.4346L170.903 43.3042C171.341 43.119 171.689 42.7677 171.872 42.3259C171.957 42.074 172.001 41.8096 172.001 41.5433C171.99 41.2781 171.946 41.0153 171.872 40.7607C171.789 40.5378 171.656 40.337 171.485 40.1737L170.903 39.7824L170.193 39.652L169.483 39.7824L168.967 40.1737C168.795 40.337 168.662 40.5378 168.579 40.7607C168.455 41.0029 168.389 41.2708 168.385 41.5433Z" fill="#555555"/>
<path d="M176.843 38.1523H174.842V44.9871H176.843V38.1523Z" fill="#555555"/>
<path d="M178.78 36.2607H180.265V38.1521H182.202V39.9129H180.265V42.2607C180.245 42.4374 180.267 42.6163 180.33 42.7825C180.332 42.849 180.351 42.9138 180.385 42.9709C180.419 43.0279 180.467 43.0753 180.524 43.1086C180.55 43.1712 180.596 43.2238 180.654 43.2589C180.712 43.2939 180.779 43.3098 180.846 43.3042H182.331V44.9347H179.943C179.613 44.8849 179.302 44.7502 179.039 44.5434C178.759 44.3317 178.555 44.0342 178.458 43.6955C178.285 43.26 178.198 42.795 178.199 42.326V39.9129H177.166V38.3477L178.199 37.9564L178.78 36.2607Z" fill="#555555"/>
<path d="M182.396 41.5433C182.381 41.0731 182.469 40.6055 182.654 40.1737C182.812 39.7391 183.054 39.3402 183.364 38.9998C183.699 38.6664 184.093 38.4007 184.527 38.2172C184.995 38.0089 185.5 37.898 186.012 37.8911C186.432 37.9078 186.847 37.996 187.238 38.152L188.142 38.6737V38.152H189.885V44.9998H188.142V44.4781L187.238 44.9998C186.352 45.2819 185.398 45.2589 184.527 44.9346C184.093 44.7511 183.699 44.4854 183.364 44.152C183.054 43.8117 182.812 43.4127 182.654 42.9781C182.47 42.5233 182.382 42.0345 182.396 41.5433ZM184.397 41.5433C184.397 41.8096 184.441 42.074 184.527 42.3259C184.625 42.5406 184.756 42.7387 184.914 42.9129C185.076 43.0863 185.274 43.2201 185.495 43.3042L186.205 43.4346L186.916 43.3042C187.144 43.237 187.347 43.1004 187.497 42.9129C187.694 42.7727 187.832 42.5634 187.884 42.3259C187.97 42.074 188.013 41.8096 188.013 41.5433C188.002 41.2781 187.958 41.0153 187.884 40.7607L187.497 40.1737L186.916 39.7824L186.205 39.652L185.495 39.7824L184.914 40.1737L184.527 40.7607C184.452 41.0153 184.409 41.2781 184.397 41.5433Z" fill="#555555"/>
<path d="M190.854 35.6738H192.92V44.9999H190.854V35.6738Z" fill="#555555"/>
<path d="M196.084 34.2393H198.021V47.4784H196.084V34.2393Z" fill="#555555"/>
<path d="M208.738 41.5434C208.721 42.0317 208.634 42.5149 208.48 42.9782C208.298 43.4158 208.035 43.8143 207.705 44.1521C207.395 44.485 207.022 44.7512 206.608 44.9347C206.114 45.1259 205.587 45.2146 205.058 45.1956H204.477L203.896 45.0651L203.38 44.8043L202.992 44.5434L202.863 45.0651H201.184V35.6738H203.186V38.5434L204.025 38.0869C204.376 37.9538 204.748 37.8874 205.123 37.8912C205.635 37.8924 206.141 38.0036 206.608 38.2173C207.041 38.4008 207.436 38.6665 207.77 38.9999C208.058 39.3569 208.297 39.7518 208.48 40.1738C208.634 40.6146 208.721 41.0763 208.738 41.5434ZM206.672 41.5434C206.694 41.2758 206.649 41.0069 206.543 40.7608C206.46 40.5379 206.327 40.3371 206.156 40.1738L205.575 39.7825L204.864 39.6521L204.219 39.7825L203.638 40.1738C203.466 40.3371 203.334 40.5379 203.25 40.7608C203.127 41.003 203.06 41.2709 203.057 41.5434C203.042 41.818 203.109 42.0907 203.25 42.326C203.303 42.5635 203.441 42.7728 203.638 42.913C203.764 43.0958 203.945 43.2329 204.154 43.3043C204.376 43.4088 204.621 43.4537 204.864 43.4347C205.109 43.4603 205.355 43.4151 205.575 43.3043C206.012 43.1191 206.36 42.7678 206.543 42.326C206.629 42.0741 206.672 41.8097 206.672 41.5434Z" fill="#555555"/>
<path d="M213.839 39.9129H213C212.529 39.9013 212.07 40.0636 211.709 40.3694C211.54 40.5645 211.413 40.7926 211.335 41.0394C211.257 41.2862 211.231 41.5465 211.257 41.8042V44.9998H209.255V38.152H210.869L210.998 38.8042C211.233 38.6141 211.494 38.4602 211.773 38.3477C212.124 38.2146 212.496 38.1482 212.871 38.152H213.839V39.9129Z" fill="#555555"/>
<path d="M213.71 41.5433C213.727 41.0762 213.814 40.6145 213.968 40.1737C214.151 39.7517 214.39 39.3568 214.678 38.9998C215.013 38.6664 215.407 38.4007 215.841 38.2172C216.309 38.0089 216.814 37.898 217.326 37.8911C217.747 37.901 218.163 37.9895 218.552 38.152C218.881 38.272 219.187 38.4485 219.456 38.6737V38.152H221.199V44.9998H219.456V44.4781L218.552 44.9998C217.666 45.2819 216.712 45.2589 215.841 44.9346C215.407 44.7511 215.013 44.4854 214.678 44.152C214.044 43.4352 213.699 42.5045 213.71 41.5433ZM215.711 41.5433C215.697 41.8179 215.764 42.0906 215.905 42.3259C216.089 42.7677 216.436 43.119 216.874 43.3042L217.519 43.4346L218.23 43.3042C218.667 43.119 219.015 42.7677 219.198 42.3259C219.313 42.0825 219.358 41.8112 219.327 41.5433C219.349 41.2757 219.304 41.0068 219.198 40.7607C219.115 40.5378 218.982 40.337 218.811 40.1737L218.23 39.7824L217.519 39.652L216.809 39.7824L216.293 40.1737C216.121 40.337 215.988 40.5378 215.905 40.7607C215.782 41.0029 215.715 41.2708 215.711 41.5433Z" fill="#555555"/>
<path d="M229.206 45H227.139V41.3478C227.156 41.0852 227.134 40.8215 227.075 40.5652C227.002 40.385 226.916 40.2106 226.817 40.0435L226.365 39.7826L225.848 39.6522C225.598 39.6464 225.351 39.7144 225.138 39.8478C224.937 39.9344 224.76 40.0686 224.621 40.2392C224.487 40.4182 224.378 40.6158 224.299 40.8261C224.242 41.0606 224.22 41.3025 224.234 41.5435V45H222.168V38.1522H223.782L223.911 38.6739L224.428 38.4131L224.944 38.1522L225.525 37.9565H226.106C226.591 37.9625 227.071 38.0507 227.527 38.2174C227.895 38.3575 228.226 38.5806 228.495 38.8696C228.974 39.6046 229.221 40.4684 229.206 41.3478V45Z" fill="#555555"/>
<path d="M229.593 41.5434C229.578 41.0732 229.666 40.6056 229.851 40.1738C229.985 39.7279 230.23 39.3238 230.561 38.9999C230.858 38.6522 231.235 38.3835 231.659 38.2173C232.127 38.009 232.632 37.8981 233.144 37.8912C233.519 37.8808 233.893 37.9474 234.242 38.0869C234.547 38.1851 234.832 38.3399 235.081 38.5434V35.6738H237.147V44.9999H235.404L235.275 44.413L234.371 44.9999C233.999 45.1396 233.605 45.206 233.209 45.1956C232.701 45.215 232.195 45.1261 231.724 44.9347C231.29 44.7512 230.896 44.4855 230.561 44.1521C230.23 43.8282 229.985 43.4241 229.851 42.9782C229.667 42.5233 229.579 42.0346 229.593 41.5434ZM231.594 41.5434C231.594 41.8097 231.638 42.0741 231.724 42.326C231.822 42.5407 231.952 42.7388 232.111 42.913C232.273 43.0864 232.471 43.2202 232.692 43.3043C232.912 43.415 233.158 43.4603 233.402 43.4347C233.646 43.4537 233.891 43.4088 234.112 43.3043L234.694 42.913L235.081 42.326C235.166 42.0741 235.21 41.8097 235.21 41.5434C235.199 41.2782 235.155 41.0154 235.081 40.7608L234.694 40.1738L234.112 39.7825L233.402 39.6521L232.692 39.7825L232.111 40.1738C231.96 40.3538 231.83 40.5507 231.724 40.7608C231.649 41.0154 231.606 41.2782 231.594 41.5434Z" fill="#555555"/>
<path d="M240.117 38.1523H238.115V44.9871H240.117V38.1523Z" fill="#555555"/>
<path d="M248.059 45H246.057V41.3478C246.057 41.0816 246.013 40.8171 245.928 40.5652C245.882 40.3739 245.794 40.1955 245.67 40.0435L245.218 39.7826L244.701 39.6522C244.471 39.6474 244.245 39.7158 244.056 39.8478C243.846 39.9192 243.665 40.0563 243.539 40.2392C243.38 40.4011 243.268 40.6042 243.216 40.8261C243.136 41.057 243.093 41.299 243.087 41.5435V45H241.086V38.1522H242.7L242.829 38.6739L243.281 38.4131L243.797 38.1522L244.378 37.9565H245.024C245.487 37.9673 245.945 38.0555 246.38 38.2174C246.748 38.3575 247.079 38.5806 247.348 38.8696C247.62 39.1828 247.799 39.5671 247.865 39.9783C248.002 40.4213 248.067 40.8838 248.059 41.3478V45Z" fill="#555555"/>
<path d="M248.446 41.5433C248.431 41.0731 248.519 40.6055 248.704 40.1737C248.862 39.7391 249.104 39.3402 249.414 38.9998C249.749 38.6664 250.143 38.4007 250.577 38.2172C251.045 38.0089 251.55 37.898 252.062 37.8911H252.707L253.288 38.0868L253.805 38.3476C253.979 38.4178 254.134 38.5297 254.257 38.6737L254.386 38.0868H256V44.4129C256.022 44.8835 255.933 45.3527 255.742 45.7824C255.622 46.2163 255.374 46.603 255.032 46.8911C254.711 47.2262 254.311 47.4731 253.869 47.6085C253.375 47.7997 252.848 47.8884 252.32 47.8694H251.222L250.383 47.5433L249.737 47.0868C249.552 46.921 249.399 46.722 249.285 46.4998C249.066 46.1212 248.934 45.6978 248.898 45.2607H250.835C250.848 45.3994 250.892 45.5332 250.964 45.652L251.287 45.9781L251.739 46.1737H252.32C252.606 46.21 252.897 46.1649 253.159 46.0433C253.371 45.9439 253.55 45.7855 253.676 45.5868L253.934 45.065C253.987 44.8742 254.009 44.676 253.999 44.4781V44.2824L253.095 44.8042C252.699 44.9379 252.285 45.004 251.868 44.9998C251.402 45.0216 250.937 44.9322 250.512 44.7389C250.094 44.5938 249.717 44.3475 249.414 44.0216C249.097 43.7113 248.854 43.3321 248.704 42.9129C248.529 42.4783 248.441 42.0126 248.446 41.5433ZM250.447 41.5433C250.447 41.8096 250.491 42.074 250.577 42.3259L250.964 42.9129L251.545 43.3042L252.255 43.4346L252.965 43.3042C253.194 43.237 253.397 43.1004 253.547 42.9129C253.705 42.7387 253.836 42.5406 253.934 42.3259C254.019 42.074 254.063 41.8096 254.063 41.5433C254.052 41.2781 254.008 41.0153 253.934 40.7607L253.547 40.1737L252.965 39.7824L252.255 39.652L251.545 39.7824L250.964 40.1737L250.577 40.7607C250.502 41.0153 250.459 41.2781 250.447 41.5433Z" fill="#555555"/>
<path d="M165.803 35.7393H163.801V37.774H165.803V35.7393Z" fill="#555555"/>
<path d="M176.843 35.7393H174.842V37.774H176.843V35.7393Z" fill="#555555"/>
<path d="M240.117 35.7393H238.115V37.774H240.117V35.7393Z" fill="#555555"/>
<path d="M184.397 18.3262C184.389 19.1045 184.521 19.8778 184.785 20.6088C185.059 21.2294 185.43 21.8018 185.883 22.3045C186.347 22.7561 186.896 23.1107 187.497 23.348C188.132 23.6098 188.812 23.7427 189.498 23.7393C190.457 23.741 191.397 23.4698 192.21 22.9567C193.004 22.4576 193.633 21.7312 194.018 20.8697H199.958C199.702 21.9989 199.266 23.0783 198.666 24.0654C198.035 24.9969 197.274 25.8316 196.407 26.5436C195.455 27.2862 194.385 27.8596 193.243 28.2393C192.012 28.6397 190.726 28.8378 189.434 28.8262C187.927 28.8604 186.431 28.5715 185.043 27.9784C183.761 27.4904 182.595 26.7348 181.621 25.761C180.646 24.799 179.877 23.6447 179.361 22.3697C178.818 21.0919 178.532 19.7171 178.522 18.3262C178.539 16.915 178.824 15.5202 179.361 14.2175C179.894 12.987 180.637 11.8611 181.557 10.8915C182.562 9.91076 183.746 9.13568 185.043 8.60884C186.431 8.0158 187.927 7.72683 189.434 7.76102C190.726 7.74941 192.012 7.94759 193.243 8.34798C194.354 8.7544 195.398 9.3259 196.342 10.0436C197.226 10.738 197.989 11.5754 198.602 12.5219C199.238 13.4975 199.697 14.5795 199.958 15.7175H194.018C193.612 14.8699 192.988 14.1488 192.21 13.6306C191.397 13.1175 190.457 12.8462 189.498 12.848C188.812 12.8445 188.132 12.9775 187.497 13.2393C186.883 13.5023 186.328 13.8856 185.863 14.367C185.397 14.8484 185.031 15.4183 184.785 16.0436C184.515 16.7731 184.383 17.5475 184.397 18.3262Z" fill="#555555"/>
<path d="M200.216 18.326C200.211 16.9188 200.474 15.5239 200.991 14.2173C201.507 12.962 202.277 11.8293 203.25 10.8912C204.232 9.91102 205.395 9.13543 206.672 8.60857C208.094 8.05319 209.604 7.76583 211.127 7.76074C212.63 7.76486 214.119 8.0524 215.518 8.60857C216.815 9.1354 217.999 9.91049 219.004 10.8912C219.958 11.8461 220.725 12.9746 221.264 14.2173C222.3 16.8566 222.3 19.7954 221.264 22.4347C220.709 23.6681 219.944 24.7938 219.004 25.7607C217.999 26.7414 216.815 27.5165 215.518 28.0434C214.093 28.5779 212.583 28.8432 211.063 28.826C209.557 28.8543 208.062 28.5656 206.672 27.9781C205.398 27.4737 204.235 26.7202 203.25 25.7607C202.311 24.7938 201.546 23.6681 200.991 22.4347C200.474 21.1281 200.211 19.7331 200.216 18.326ZM206.027 18.326C206.018 19.083 206.149 19.8351 206.414 20.5434C206.679 21.1886 207.05 21.784 207.512 22.3042C207.992 22.7535 208.536 23.1272 209.126 23.4129C209.761 23.6747 210.441 23.8077 211.127 23.8042C211.814 23.813 212.495 23.6798 213.129 23.4129C213.737 23.1595 214.286 22.7821 214.743 22.3042C215.218 21.7945 215.591 21.1965 215.841 20.5434C216.106 19.8351 216.237 19.083 216.228 18.326C216.242 17.5685 216.11 16.8155 215.841 16.1086C215.591 15.4554 215.218 14.8574 214.743 14.3477C214.275 13.8837 213.728 13.5082 213.129 13.239C211.845 12.7167 210.41 12.7167 209.126 13.239C208.527 13.5082 207.98 13.8837 207.512 14.3477C207.037 14.8574 206.664 15.4554 206.414 16.1086C206.145 16.8155 206.013 17.5685 206.027 18.326Z" fill="#555555"/>
<path d="M256 28.2391H250.125V17.6739C250.21 16.4073 249.941 15.1419 249.35 14.0217C249.07 13.6348 248.699 13.3246 248.271 13.1196C247.842 12.9145 247.37 12.8211 246.896 12.8478C246.3 12.8487 245.71 12.9592 245.153 13.1739C244.658 13.4031 244.218 13.7367 243.862 14.1522C243.472 14.5557 243.185 15.0477 243.022 15.587C242.78 16.209 242.67 16.8756 242.7 17.5435V28.2391H236.824V17.6739C236.893 16.4007 236.602 15.134 235.985 14.0217C235.72 13.6355 235.361 13.3246 234.942 13.119C234.524 12.9135 234.06 12.8201 233.596 12.8478C232.98 12.8556 232.369 12.9658 231.788 13.1739C231.296 13.408 230.857 13.7409 230.497 14.1522C230.104 14.6283 229.818 15.1844 229.657 15.7826C229.441 16.4565 229.332 17.161 229.335 17.8696V28.2391H223.524V8.41304H228.173L228.56 9.78261C229.355 9.20934 230.224 8.74855 231.142 8.41304C232.202 7.954 233.347 7.73154 234.5 7.76087C235.679 7.74467 236.847 7.98954 237.922 8.47826C238.924 8.91644 239.826 9.56052 240.569 10.3696L241.86 9.3913L243.474 8.54347L245.411 8.02174C246.133 7.86294 246.868 7.77556 247.607 7.76087C248.848 7.7467 250.079 7.9909 251.222 8.47826C252.238 8.89198 253.145 9.5396 253.869 10.3696C254.599 11.266 255.128 12.3118 255.419 13.4348C255.824 14.7652 256.02 16.1516 256 17.5435V28.2391Z" fill="#555555"/>
</g>
<defs>
<clipPath id="clip0_417_149">
<rect width="256" height="48" fill="white"/>
</clipPath>
</defs>
</svg>
