<svg width="298" height="30" viewBox="0 0 298 30" fill="none" xmlns="http://www.w3.org/2000/svg">
<g clip-path="url(#clip0_417_137)">
<path d="M0 0.257324V29.4002H22.231V23.6573H6.26587V17.4002H20.0851V11.6573H6.26587V6.00018H21.8876V0.257324H0Z" fill="#555555"/>
<path d="M55.8778 0.257324L49.5261 9.60018L43.5177 0.257324H36.0502L45.6636 14.4002L35.4494 29.4002H42.9169L49.5261 19.2002L55.8778 29.4002H63.3454L53.1311 14.4002L63.002 0.257324H55.8778Z" fill="#555555"/>
<path d="M77.4221 0.257324V29.4002H99.3955V23.6573H83.7738V17.4002H97.2497V11.6573H83.7738V6.00018H99.3955V0.257324H77.4221Z" fill="#555555"/>
<path d="M129.952 17.0573H122.485V23.4002H129.952C132.699 23.4002 134.502 22.4573 134.502 20.0573C134.759 18.6002 133.3 17.0573 129.952 17.0573ZM132.957 8.65732C132.957 6.85732 131.497 5.65732 128.751 5.65732H122.485V11.6573H128.493C131.154 12.0002 132.957 11.0573 132.957 8.65732ZM116.219 0.257324H129.695C132.957 0.257324 135.703 1.20018 137.162 3.00018C138.465 4.26795 139.233 5.98529 139.308 7.80018C139.308 11.0573 137.506 12.8573 135.36 14.0573C138.707 15.2573 140.767 17.4002 140.767 21.2573C140.767 26.6573 136.562 29.4002 129.952 29.4002H116.219V0.257324Z" fill="#555555"/>
<path d="M155.788 0.257324V29.4002H178.019V23.6573H162.14V17.4002H175.959V11.6573H162.14V6.00018H177.762V0.257324H155.788Z" fill="#555555"/>
<path d="M213.125 0.257324V18.0002L199.649 0.257324H193.641V29.4002H199.907V10.8002L214.07 29.4002H219.477V0.257324H213.125Z" fill="#555555"/>
<path d="M235.7 16.8002V0.257324H241.965V16.8002C241.965 21.6002 244.369 24.0002 248.231 24.0002C252.094 24.0002 254.583 21.6002 254.583 17.0573V0.257324H260.849V16.8002C260.849 25.4573 256.042 30.0002 248.231 30.0002C240.42 30.0002 235.7 25.4573 235.7 16.8002Z" fill="#555555"/>
<path d="M274.067 24.8573L278.016 20.4002C280.677 22.4573 283.423 24.0002 286.685 24.0002C289.947 24.0002 290.891 22.8002 290.891 21.2573C290.891 19.8002 290.032 18.8573 284.882 17.6573C279.732 16.4573 275.269 14.6573 275.269 8.65732C275.269 3.25732 279.475 0.000175762 285.483 0.000175762C289.399 -0.100555 293.226 1.17339 296.298 3.60018L293.037 8.40018C290.29 6.60018 287.887 5.65732 285.483 5.65732C283.08 5.65732 281.878 6.85732 281.878 8.05732C281.878 9.85732 283.08 10.4573 288.23 12.0002C293.38 13.543 297.5 15.6002 297.5 20.6573C297.5 26.4002 293.037 29.6573 287.028 29.6573C281.02 29.6573 277.415 28.2002 274.067 24.8573Z" fill="#555555"/>
</g>
<defs>
<clipPath id="clip0_417_137">
<rect width="297.5" height="30" fill="white"/>
</clipPath>
</defs>
</svg>
