<svg width="146" height="40" viewBox="0 0 146 40" fill="none" xmlns="http://www.w3.org/2000/svg">
<path d="M17.2905 19.4943C16.8228 18.6339 16.1303 17.9173 15.2873 17.4213C14.5071 16.9368 13.6781 16.536 12.8142 16.2253C11.9157 15.9189 11.0007 15.6636 10.0735 15.4606C8.97596 15.1815 7.91787 14.7651 6.92414 14.2211C6.60644 14.0651 6.3374 13.8249 6.14619 13.5266C5.95498 13.2282 5.84889 12.8831 5.83942 12.5286C5.82715 12.1805 5.90576 11.8353 6.06747 11.527C6.22918 11.2187 6.46839 10.9581 6.76143 10.7709C7.46882 10.3255 8.29532 10.108 9.12974 10.1475C11.1979 10.1475 12.6069 11.0041 13.3565 12.7171L17.4459 10.4194C16.6892 8.96615 15.5272 7.76489 14.1014 6.9619C12.5823 6.11975 10.8691 5.69234 9.13336 5.72243C6.79277 5.72243 4.83304 6.35183 3.25417 7.61063C2.50045 8.20195 1.89624 8.96285 1.49045 9.83174C1.08466 10.7006 0.888686 11.6531 0.918398 12.612C0.864892 13.6305 1.08993 14.6443 1.56923 15.5439C2.0442 16.394 2.74513 17.0953 3.59405 17.5699C4.36849 18.0288 5.18007 18.4216 6.02021 18.7441C6.90676 19.0666 7.80951 19.3424 8.72478 19.5704C11.5716 20.2638 12.995 21.2303 12.995 22.4697C12.995 24.161 11.721 25.0067 9.17313 25.0067C6.62524 25.0067 4.962 23.9194 4.18341 21.7449L0 24.1586C0.703454 25.7933 1.91956 27.1535 3.46388 28.0328C5.20693 29.005 7.1792 29.4883 9.17313 29.4318C11.6608 29.4318 13.7446 28.8157 15.4247 27.5834C16.2332 27.0143 16.8878 26.2526 17.3296 25.3669C17.7714 24.4812 17.9866 23.4994 17.9558 22.5096C18.0068 21.463 17.777 20.4218 17.2905 19.4943V19.4943Z" fill="white"/>
<path d="M42.8538 9.19453C40.6337 6.87747 37.9954 5.72015 34.9389 5.72257C31.5232 5.72257 28.9006 7.00069 27.0711 9.55695V6.29519H22.2151V40H27.0711V25.6447C28.9247 28.1695 31.5473 29.4319 34.9389 29.4319C36.4241 29.4497 37.8964 29.154 39.26 28.5639C40.6237 27.9738 41.8481 27.1027 42.8538 26.0071C43.9316 24.8905 44.7769 23.5702 45.3406 22.1229C45.9042 20.6756 46.1749 19.1304 46.1369 17.5772C46.1721 16.0315 45.8999 14.4942 45.3362 13.055C44.7726 11.6158 43.9287 10.3035 42.8538 9.19453ZM39.238 22.7598C38.5762 23.4252 37.786 23.9484 36.9156 24.2974C36.0453 24.6463 35.1131 24.8137 34.176 24.7894C33.2353 24.8165 32.299 24.6504 31.4248 24.3014C30.5505 23.9524 29.7567 23.4278 29.0923 22.7598C28.4299 22.0731 27.9102 21.2613 27.5632 20.3717C27.2162 19.482 27.049 18.5322 27.0711 17.5772C27.0408 16.6278 27.2044 15.6822 27.552 14.7984C27.8996 13.9147 28.4237 13.1115 29.0923 12.4382C29.7497 11.758 30.5413 11.2224 31.4165 10.8655C32.2917 10.5086 33.2315 10.3382 34.176 10.3651C35.1169 10.341 36.0526 10.5128 36.9239 10.8696C37.7952 11.2264 38.5832 11.7605 39.238 12.4382C39.907 13.1113 40.4317 13.9144 40.7799 14.7981C41.1281 15.6818 41.2925 16.6276 41.2628 17.5772C41.2921 18.5318 41.1296 19.4826 40.7848 20.3729C40.4401 21.2632 39.9202 22.075 39.2561 22.7598H39.238Z" fill="white"/>
<path d="M98.9663 23.9739H104.538V28.8484H94.1032V10.9957H87.0922V28.8484H82.2363V10.9957H78.0999V6.30969H82.2363V1.44242L87.0922 0V6.30969H94.1032V1.44242L98.9663 0V6.30969H104.538V10.9957H98.9663V23.9739Z" fill="white"/>
<path d="M129.946 17.6244C130.02 14.5045 128.874 11.4793 126.753 9.19453C124.625 6.87747 121.926 5.72015 118.658 5.72257C115.151 5.72257 112.303 6.86539 110.114 9.15104C109.023 10.2598 108.167 11.5773 107.596 13.025C107.024 14.4727 106.749 16.0208 106.787 17.5772C106.787 21.0033 107.912 23.8434 110.161 26.0977C112.41 28.3519 115.363 29.4633 119.019 29.4319C123.397 29.4319 126.679 27.7938 128.865 24.5175L124.866 22.1763C123.547 24.0343 121.619 24.9657 119.081 24.9706C117.383 25.0289 115.712 24.5329 114.319 23.5571C113.034 22.5934 112.159 21.1785 111.871 19.5959L129.765 19.5705C129.877 18.9276 129.937 18.2769 129.946 17.6244ZM111.824 15.584C112.083 14.0304 112.898 12.6247 114.116 11.63C115.392 10.6144 116.987 10.0887 118.614 10.1477C120.144 10.1087 121.637 10.6233 122.82 11.5974C124.021 12.6102 124.811 14.0279 125.043 15.584H111.824Z" fill="white"/>
<path d="M139.076 10.0969V6.30968H134.216V28.8448H139.076V17.4866C139.076 15.1744 139.765 13.5218 141.144 12.5288C142.529 11.4546 144.251 10.911 146 10.9957V5.72256C142.612 5.72256 140.291 7.30271 139.076 10.0969Z" fill="white"/>
<path d="M50.3925 26.1629L52.7789 23.771C53.0269 23.5211 53.3572 23.3704 53.7081 23.347L56.6007 23.1984L56.4525 26.0977C56.4356 26.4513 56.2903 26.7864 56.0439 27.04L53.6575 29.4319L50.3925 26.1629Z" fill="#E74F3D"/>
<path d="M53.6539 5.72256L56.0439 8.11814C56.2942 8.37005 56.4435 8.7054 56.4633 9.06043L56.6115 11.9598L53.719 11.8148C53.3676 11.7904 53.0372 11.6384 52.7897 11.3871L50.4033 8.99519L53.6539 5.72256Z" fill="#E74F3D"/>
<path d="M74.0467 8.99516L71.6603 11.3871C71.4123 11.637 71.0819 11.7877 70.731 11.8111L67.8384 11.9561L67.9831 9.05677C68.0073 8.70634 68.1576 8.37666 68.4061 8.12898L70.7925 5.7334L74.0467 8.99516Z" fill="#E74F3D"/>
<path d="M70.7816 29.4319L68.3953 27.04C68.1441 26.7872 67.9947 26.4504 67.9758 26.0941L67.8312 23.1947L70.7238 23.3433C71.0747 23.3667 71.405 23.5175 71.653 23.7674L74.0394 26.1593L70.7816 29.4319Z" fill="#E74F3D"/>
<path d="M74.0469 19.5709H68.9451C68.6001 19.5762 68.2631 19.4665 67.9869 19.2592L65.8175 17.5667L67.9869 15.8742C68.2635 15.6681 68.6005 15.5598 68.9451 15.5662H74.0469V19.5709Z" fill="#E74F3D"/>
<path d="M50.3925 15.584H55.4943C55.8377 15.5782 56.1733 15.6865 56.4488 15.892L58.6183 17.5845L56.4488 19.277C56.1737 19.4836 55.8381 19.5932 55.4943 19.5887H50.3925V15.584Z" fill="#E74F3D"/>
<path d="M64.2156 5.72256V10.8363C64.2219 11.1817 64.1138 11.5194 63.9082 11.7967L62.2197 13.9712L60.5311 11.7967C60.3243 11.5199 60.2149 11.1821 60.2202 10.8363V5.72256H64.2156Z" fill="#E74F3D"/>
<path d="M60.2204 29.432V24.3183C60.2159 23.9738 60.3252 23.6374 60.5313 23.3615L62.2199 21.187L63.9084 23.3615C64.1135 23.6377 64.2216 23.9741 64.2158 24.3183V29.432H60.2204Z" fill="#E74F3D"/>
</svg>
