<svg width="404" height="116" viewBox="0 0 404 116" fill="none" xmlns="http://www.w3.org/2000/svg">
<g clip-path="url(#clip0_1002_711)">
<path d="M47.82 53.79C46.5265 51.416 44.6114 49.4387 42.28 48.07C40.1219 46.7333 37.8293 45.6273 35.44 44.77C32.955 43.9246 30.4244 43.2202 27.86 42.66C24.8247 41.8899 21.8984 40.7409 19.15 39.24C18.2713 38.8095 17.5273 38.1468 16.9984 37.3236C16.4696 36.5003 16.1762 35.5481 16.15 34.57C16.1161 33.6095 16.3335 32.6569 16.7807 31.8062C17.228 30.9556 17.8895 30.2365 18.7 29.72C20.6564 28.4911 22.9422 27.8909 25.25 28C30.97 28 34.8667 30.3633 36.94 35.09L48.25 28.75C46.1571 24.7402 42.9433 21.4256 39 19.21C34.7986 16.8863 30.0605 15.7069 25.26 15.79C18.7867 15.79 13.3667 17.5267 9 21C6.91547 22.6316 5.24441 24.7311 4.12212 27.1286C2.99982 29.5261 2.45782 32.1541 2.54 34.8C2.39202 37.6103 3.01441 40.4076 4.34 42.89C5.6536 45.2355 7.59215 47.1706 9.94 48.48C12.0819 49.7462 14.3264 50.83 16.65 51.72C19.1019 52.6098 21.5987 53.3708 24.13 54C32.0033 55.9133 35.94 58.58 35.94 62C35.94 66.6667 32.4167 69 25.37 69C18.3233 69 13.7233 66 11.57 60L0 66.66C1.94553 71.1705 5.30889 74.9236 9.58 77.35C14.4007 80.0325 19.8554 81.3659 25.37 81.21C32.25 81.21 38.0133 79.51 42.66 76.11C44.8959 74.5396 46.7063 72.4379 47.9282 69.9941C49.1501 67.5502 49.7452 64.8409 49.66 62.11C49.8011 59.2221 49.1657 56.3491 47.82 53.79V53.79Z" fill="white"/>
<path d="M118.52 25.3701C112.38 18.9767 105.083 15.7834 96.63 15.79C87.1833 15.79 79.93 19.3167 74.87 26.3701V17.3701H61.44V110.37H74.87V70.7601C79.9967 77.7267 87.25 81.21 96.63 81.21C100.738 81.2591 104.809 80.4431 108.581 78.8149C112.352 77.1868 115.739 74.7831 118.52 71.7601C121.501 68.6792 123.839 65.036 125.398 61.0426C126.957 57.0493 127.705 52.7856 127.6 48.5C127.697 44.235 126.945 39.9932 125.386 36.0221C123.827 32.0509 121.493 28.4299 118.52 25.3701ZM108.52 62.8C106.69 64.6361 104.504 66.0797 102.097 67.0425C99.6899 68.0054 97.1117 68.4673 94.52 68.4001C91.9184 68.4749 89.329 68.0168 86.911 67.0537C84.4931 66.0906 82.2977 64.6431 80.46 62.8C78.6281 60.9051 77.1907 58.6653 76.2311 56.2106C75.2715 53.7558 74.8089 51.135 74.87 48.5C74.7862 45.8803 75.2388 43.271 76.2001 40.8326C77.1614 38.3941 78.611 36.1779 80.46 34.32C82.2784 32.4432 84.4675 30.9653 86.8881 29.9806C89.3087 28.9958 91.9078 28.5257 94.52 28.6C97.1223 28.5334 99.7101 29.0074 102.12 29.9919C104.53 30.9765 106.709 32.4502 108.52 34.32C110.37 36.1774 111.821 38.3933 112.784 40.8317C113.747 43.2701 114.202 45.8796 114.12 48.5C114.201 51.134 113.751 53.7573 112.798 56.214C111.845 58.6706 110.407 60.9104 108.57 62.8H108.52Z" fill="white"/>
<path d="M273.71 66.15H289.12V79.6H260.26V30.34H240.87V79.6H227.44V30.34H216V17.41H227.44V3.98L240.87 0V17.41H260.26V3.98L273.71 0V17.41H289.12V30.34H273.71V66.15Z" fill="white"/>
<path d="M359.39 48.6301C359.594 40.0216 356.425 31.6744 350.56 25.3701C344.673 18.9767 337.21 15.7834 328.17 15.79C318.47 15.79 310.593 18.9434 304.54 25.25C301.524 28.3095 299.156 31.9448 297.575 35.9393C295.995 39.9337 295.234 44.2055 295.34 48.5C295.34 57.9534 298.45 65.7901 304.67 72.0101C310.89 78.2301 319.057 81.2967 329.17 81.21C341.277 81.21 350.353 76.6901 356.4 67.6501L345.34 61.19C341.693 66.3167 336.36 68.8867 329.34 68.9001C324.643 69.0611 320.022 67.6924 316.17 65C312.616 62.3408 310.198 58.4368 309.4 54.07L358.89 54C359.199 52.2261 359.366 50.4305 359.39 48.6301ZM309.27 43C309.986 38.7134 312.24 34.8348 315.61 32.09C319.137 29.2878 323.548 27.8374 328.05 28C332.281 27.8923 336.41 29.3123 339.68 32C343.002 34.7946 345.189 38.7064 345.83 43H309.27Z" fill="white"/>
<path d="M384.64 27.86V17.41H371.2V79.59H384.64V48.25C384.64 41.87 386.547 37.31 390.36 34.57C394.19 31.6061 398.953 30.1062 403.79 30.34V15.79C394.42 15.79 388 20.15 384.64 27.86Z" fill="white"/>
<path d="M139.37 72.19L145.97 65.59C146.656 64.9005 147.57 64.4846 148.54 64.42L156.54 64.01L156.13 72.01C156.083 72.9856 155.681 73.9104 155 74.61L148.4 81.21L139.37 72.19Z" fill="#E74F3D"/>
<path d="M148.39 15.79L155 22.4C155.692 23.0951 156.105 24.0204 156.16 25L156.57 33L148.57 32.6C147.598 32.5328 146.684 32.1132 146 31.42L139.4 24.82L148.39 15.79Z" fill="#E74F3D"/>
<path d="M204.79 24.8201L198.19 31.4201C197.504 32.1095 196.59 32.5255 195.62 32.5901L187.62 32.9901L188.02 24.9901C188.087 24.0232 188.503 23.1135 189.19 22.4301L195.79 15.8201L204.79 24.8201Z" fill="#E74F3D"/>
<path d="M195.76 81.21L189.16 74.61C188.465 73.9124 188.052 72.9831 188 72L187.6 64L195.6 64.41C196.57 64.4746 197.484 64.8905 198.17 65.58L204.77 72.18L195.76 81.21Z" fill="#E74F3D"/>
<path d="M204.79 53.9999H190.68C189.726 54.0146 188.794 53.7121 188.03 53.1399L182.03 48.4699L188.03 43.7999C188.795 43.2314 189.727 42.9325 190.68 42.9499H204.79V53.9999Z" fill="#E74F3D"/>
<path d="M139.37 42.9999H153.48C154.43 42.9839 155.358 43.2827 156.12 43.8499L162.12 48.5199L156.12 53.1899C155.359 53.7599 154.431 54.0623 153.48 54.0499H139.37V42.9999Z" fill="#E74F3D"/>
<path d="M177.6 15.79V29.9C177.618 30.8531 177.319 31.785 176.75 32.55L172.08 38.55L167.41 32.55C166.838 31.7863 166.535 30.8542 166.55 29.9V15.79H177.6Z" fill="#E74F3D"/>
<path d="M166.55 81.21V67.1C166.538 66.1492 166.84 65.221 167.41 64.46L172.08 58.46L176.75 64.46C177.317 65.2219 177.616 66.1502 177.6 67.1V81.21H166.55Z" fill="#E74F3D"/>
<path d="M151.07 102.24C151.077 103.603 150.765 104.949 150.16 106.17C149.556 107.405 148.617 108.444 147.45 109.17C146.286 109.904 144.936 110.289 143.56 110.28H139V94.2801H143.53C144.9 94.2759 146.244 94.6548 147.41 95.3739C148.577 96.0931 149.519 97.1239 150.13 98.3501C150.741 99.5562 151.063 100.888 151.07 102.24V102.24ZM150.07 102.24C150.097 101.037 149.829 99.8457 149.29 98.7701C148.749 97.6972 147.926 96.7916 146.91 96.1501C145.891 95.5 144.709 95.1532 143.5 95.1501H140V109.22H143.53C144.732 109.238 145.915 108.914 146.94 108.286C147.966 107.657 148.791 106.75 149.32 105.67C149.842 104.604 150.1 103.427 150.07 102.24V102.24Z" fill="white"/>
<path d="M159.84 98.1099V98.9999C159.382 98.8469 158.902 98.7725 158.42 98.7799C157.923 98.779 157.43 98.8601 156.96 99.0199C156.524 99.1646 156.127 99.4075 155.8 99.7299C155.281 100.17 154.905 100.755 154.72 101.41C154.531 102.206 154.438 103.022 154.44 103.84V110.21H153.51V98.2099H154.38V100.05C154.612 99.6791 154.895 99.3425 155.22 99.0499C155.646 98.6634 156.146 98.3674 156.69 98.1799C157.245 97.981 157.83 97.8795 158.42 97.8799C158.902 97.8877 159.38 97.9652 159.84 98.1099V98.1099Z" fill="white"/>
<path d="M163.1 94.49V95.91H162.17V94.49H163.1ZM163.1 98.26V110.26H162.17V98.26H163.1Z" fill="white"/>
<path d="M166.43 110.25V93.9299H167.37V110.25H166.43Z" fill="white"/>
<path d="M170.48 110.25V93.9299H171.41V110.25H170.48Z" fill="white"/>
<path d="M175.67 94.49V95.91H174.74V94.49H175.67ZM175.67 98.26V110.26H174.74V98.26H175.67Z" fill="white"/>
<path d="M188.43 101.06C188.75 102.147 188.888 103.278 188.84 104.41V110.25H187.91V104.41C187.937 103.399 187.822 102.389 187.57 101.41C187.352 100.645 186.866 99.9847 186.2 99.55C185.513 99.1244 184.717 98.9089 183.91 98.93C183.423 98.9275 182.939 99.0087 182.48 99.17C182.04 99.3248 181.635 99.5662 181.29 99.88C180.644 100.495 180.221 101.308 180.09 102.19C179.987 102.68 179.937 103.179 179.94 103.68V110.27H179V98.27H179.87V100.27C180.093 99.9038 180.362 99.5677 180.67 99.27C181.055 98.897 181.515 98.6106 182.02 98.43C182.534 98.241 183.073 98.1298 183.62 98.1C183.77 98.0864 183.92 98.0864 184.07 98.1C185.009 98.0851 185.93 98.3572 186.71 98.88C187.509 99.3965 188.114 100.163 188.43 101.06V101.06Z" fill="white"/>
<path d="M201.63 98.2599V109.59C201.664 110.64 201.557 111.689 201.31 112.71C201.074 113.439 200.638 114.088 200.05 114.58C199.517 115.038 198.894 115.379 198.22 115.58C197.528 115.797 196.806 115.905 196.08 115.9C195.248 115.911 194.423 115.744 193.66 115.41C192.93 115.082 192.296 114.573 191.82 113.93C191.647 113.715 191.497 113.484 191.37 113.24L192.24 112.82C192.328 113.009 192.439 113.187 192.57 113.35C192.96 113.873 193.481 114.283 194.08 114.54C194.711 114.813 195.392 114.952 196.08 114.95C196.703 114.954 197.324 114.863 197.92 114.68C198.477 114.519 198.992 114.239 199.43 113.86C199.918 113.461 200.268 112.919 200.43 112.31C200.62 111.413 200.7 110.496 200.67 109.58V108L200.33 108.53C199.891 109.181 199.292 109.708 198.59 110.06C197.871 110.424 197.076 110.609 196.27 110.6C195.463 110.607 194.664 110.437 193.93 110.1C193.211 109.763 192.581 109.263 192.09 108.64C191.197 107.356 190.754 105.812 190.83 104.25C190.75 102.69 191.193 101.148 192.09 99.8699C192.566 99.2647 193.173 98.7761 193.866 98.4416C194.56 98.1071 195.32 97.9355 196.09 97.9399C196.922 97.9324 197.745 98.11 198.5 98.4599C199.23 98.793 199.86 99.3099 200.33 99.9599C200.491 100.19 200.632 100.435 200.75 100.69V98.2599H201.63ZM200.76 104.26C200.853 102.918 200.501 101.583 199.76 100.46C199.386 99.9367 198.873 99.528 198.28 99.2799C197.65 99.0052 196.968 98.8688 196.28 98.8799C195.618 98.8778 194.963 99.0176 194.36 99.2899C193.778 99.5522 193.27 99.9541 192.88 100.46C192.199 101.609 191.839 102.919 191.839 104.255C191.839 105.59 192.199 106.901 192.88 108.05C193.265 108.567 193.774 108.98 194.36 109.25C194.961 109.53 195.617 109.674 196.28 109.67C196.952 109.678 197.618 109.538 198.23 109.26C198.824 109.003 199.338 108.592 199.72 108.07C200.481 106.944 200.847 105.597 200.76 104.24V104.26Z" fill="white"/>
<path d="M225.63 110.23H224.7V96.51L218.48 110.25H217.48L211.26 96.51V110.25H210.33V94.25H211.22L218 109.12L224.73 94.26H225.66L225.63 110.23Z" fill="white"/>
<path d="M228.48 100.5C228.604 100.276 228.744 100.062 228.9 99.86C229.381 99.2381 230.01 98.7465 230.73 98.43C231.481 98.1216 232.289 97.9751 233.1 98C234.145 97.9714 235.179 98.2161 236.1 98.71C236.947 99.1823 237.594 99.9464 237.92 100.86C238.139 101.484 238.254 102.139 238.26 102.8V110.3H237.39V107.68C237.096 108.181 236.721 108.631 236.28 109.01C235.846 109.388 235.361 109.705 234.84 109.95C233.984 110.364 233.05 110.589 232.1 110.61C231.367 110.611 230.644 110.45 229.98 110.14C229.346 109.85 228.81 109.381 228.44 108.79C228.071 108.188 227.877 107.496 227.88 106.79C227.859 106.2 228.002 105.615 228.293 105.101C228.584 104.588 229.013 104.165 229.53 103.88C230.057 103.577 230.627 103.354 231.22 103.22C231.82 103.08 232.7 102.92 233.86 102.74L234.37 102.68L237.23 102.28C237.193 101.377 236.806 100.523 236.15 99.9001C235.763 99.5504 235.301 99.2939 234.8 99.1501C234.26 98.979 233.696 98.8946 233.13 98.9001C232.442 98.8911 231.759 99.0309 231.13 99.31C230.551 99.5681 230.048 99.9711 229.67 100.48C229.52 100.69 229.41 100.84 229.35 100.95L228.48 100.5ZM233.9 103.66C233.021 103.774 232.15 103.937 231.29 104.15C230.645 104.301 230.046 104.603 229.54 105.03C229.303 105.245 229.117 105.51 228.994 105.806C228.872 106.101 228.816 106.42 228.83 106.74C228.83 107.451 229.11 108.134 229.61 108.64C230.107 109.18 230.774 109.533 231.5 109.64C231.683 109.651 231.867 109.651 232.05 109.64C232.964 109.628 233.86 109.38 234.65 108.92C235.448 108.493 236.115 107.857 236.58 107.08C236.882 106.569 237.086 106.006 237.18 105.42C237.27 104.66 237.306 103.895 237.29 103.13L233.9 103.66Z" fill="white"/>
<path d="M249.86 101.28C249.729 100.978 249.557 100.696 249.35 100.44C248.978 99.9335 248.482 99.5307 247.91 99.27C247.317 98.9989 246.672 98.8591 246.02 98.8601C245.334 98.8534 244.653 98.986 244.02 99.2501C243.419 99.4996 242.9 99.9117 242.52 100.44C241.82 101.591 241.449 102.913 241.449 104.26C241.449 105.607 241.82 106.929 242.52 108.08C242.904 108.591 243.414 108.994 244 109.25C244.613 109.514 245.273 109.65 245.94 109.65C246.607 109.65 247.267 109.514 247.88 109.25C248.466 108.994 248.976 108.591 249.36 108.08C249.554 107.822 249.718 107.544 249.85 107.25L250.76 107.65C250.589 108.004 250.382 108.34 250.14 108.65C249.663 109.277 249.038 109.775 248.32 110.1C247.569 110.425 246.759 110.592 245.94 110.592C245.121 110.592 244.311 110.425 243.56 110.1C242.842 109.775 242.217 109.277 241.74 108.65C240.845 107.366 240.395 105.824 240.46 104.26C240.402 102.688 240.851 101.138 241.74 99.84C242.235 99.2078 242.875 98.7041 243.607 98.3716C244.338 98.0392 245.138 97.8877 245.94 97.9301C246.755 97.9209 247.563 98.0845 248.31 98.4101C249.029 98.7283 249.657 99.2196 250.14 99.84C250.389 100.167 250.597 100.523 250.76 100.9L249.86 101.28Z" fill="white"/>
<path d="M262.51 101.06C262.83 102.147 262.968 103.278 262.92 104.41V110.25H262V104.41C262.022 103.399 261.907 102.39 261.66 101.41C261.442 100.645 260.956 99.9847 260.29 99.55C259.603 99.1255 258.807 98.91 258 98.93C257.513 98.9267 257.029 99.0079 256.57 99.17C256.129 99.3225 255.724 99.5642 255.38 99.88C254.734 100.495 254.311 101.308 254.18 102.19C254.067 102.692 254.013 103.206 254.02 103.72V110.27H253.09V94.27H254V100.27C254.22 99.9017 254.489 99.5653 254.8 99.27C255.185 98.897 255.645 98.6106 256.15 98.43C256.664 98.241 257.203 98.1298 257.75 98.1C257.896 98.0868 258.044 98.0868 258.19 98.1C259.132 98.0837 260.057 98.3558 260.84 98.88C261.617 99.4073 262.203 100.172 262.51 101.06V101.06Z" fill="white"/>
<path d="M266.74 94.49V95.91H265.8V94.49H266.74ZM266.74 98.26V110.26H265.8V98.26H266.74Z" fill="white"/>
<path d="M279.49 101.06C279.815 102.146 279.953 103.278 279.9 104.41V110.25H279V104.41C279.024 103.4 278.913 102.391 278.67 101.41C278.452 100.642 277.962 99.9809 277.29 99.55C276.607 99.1241 275.814 98.9085 275.01 98.93C274.52 98.9268 274.033 99.008 273.57 99.17C273.131 99.3272 272.727 99.5683 272.38 99.88C271.731 100.491 271.311 101.307 271.19 102.19C271.078 102.679 271.024 103.179 271.03 103.68V110.27H270.1V98.27H270.96V100.27C271.186 99.9061 271.455 99.5704 271.76 99.27C272.15 98.8989 272.613 98.6129 273.12 98.43C273.634 98.241 274.173 98.1298 274.72 98.1C274.866 98.0868 275.014 98.0868 275.16 98.1C276.099 98.0851 277.02 98.3572 277.8 98.88C278.59 99.3986 279.185 100.166 279.49 101.06V101.06Z" fill="white"/>
<path d="M292.85 104.26V104.52H282.85C282.834 105.785 283.2 107.026 283.9 108.08C284.288 108.585 284.797 108.984 285.38 109.24C286.008 109.524 286.691 109.664 287.38 109.65C288.046 109.656 288.704 109.516 289.31 109.24C289.896 108.985 290.409 108.586 290.8 108.08C290.99 107.82 291.154 107.542 291.29 107.25L292.17 107.63C292.021 107.989 291.822 108.326 291.58 108.63C291.097 109.252 290.469 109.747 289.75 110.07C289.003 110.4 288.196 110.57 287.38 110.57C286.564 110.57 285.757 110.4 285.01 110.07C284.295 109.741 283.668 109.247 283.18 108.63C282.281 107.347 281.828 105.805 281.89 104.24C281.835 102.667 282.287 101.117 283.18 99.8201C283.658 99.204 284.284 98.719 285 98.4101C285.748 98.0935 286.553 97.9304 287.365 97.9304C288.177 97.9304 288.982 98.0935 289.73 98.4101C290.453 98.7255 291.086 99.2171 291.57 99.8401C292.451 101.142 292.898 102.689 292.85 104.26V104.26ZM282.92 103.59H291.83C291.825 102.463 291.476 101.364 290.83 100.44C290.453 99.9305 289.95 99.5274 289.37 99.2701C288.773 98.9988 288.125 98.8589 287.47 98.8601C286.783 98.852 286.101 98.9882 285.47 99.2601C284.868 99.5076 284.346 99.9158 283.96 100.44C283.309 101.364 282.947 102.46 282.92 103.59V103.59Z" fill="white"/>
<path d="M301.78 94.26V109.32H309.78V110.25H300.89V94.25L301.78 94.26Z" fill="white"/>
<path d="M321.9 104.26V104.52H312C311.969 105.78 312.318 107.02 313 108.08C313.391 108.586 313.904 108.985 314.49 109.24C315.103 109.51 315.765 109.65 316.435 109.65C317.105 109.65 317.767 109.51 318.38 109.24C318.963 108.984 319.472 108.585 319.86 108.08C320.057 107.825 320.222 107.546 320.35 107.25L321.24 107.63C321.091 107.991 320.889 108.329 320.64 108.63C320.163 109.254 319.537 109.749 318.82 110.07C318.071 110.404 317.26 110.574 316.44 110.57C315.627 110.574 314.822 110.404 314.08 110.07C313.363 109.744 312.735 109.25 312.25 108.63C311.351 107.347 310.898 105.805 310.96 104.24C310.905 102.667 311.357 101.117 312.25 99.8201C312.728 99.1954 313.358 98.7032 314.08 98.3901C314.828 98.0735 315.633 97.9104 316.445 97.9104C317.258 97.9104 318.062 98.0735 318.81 98.3901C319.532 98.7032 320.162 99.1954 320.64 99.8201C321.518 101.13 321.959 102.684 321.9 104.26V104.26ZM311.97 103.59H320.87C320.869 102.462 320.52 101.362 319.87 100.44C319.496 99.9309 318.997 99.5277 318.42 99.2701C317.823 98.9988 317.175 98.8589 316.52 98.8601C315.833 98.8546 315.152 98.9908 314.52 99.2601C313.921 99.5132 313.4 99.9203 313.01 100.44C312.365 101.365 312.013 102.463 312 103.59H311.97Z" fill="white"/>
<path d="M324.07 100.5C324.21 100.27 324.35 100.05 324.49 99.8599C324.977 99.2399 325.609 98.7489 326.33 98.4299C327.073 98.1034 327.878 97.9397 328.69 97.9499C329.735 97.9236 330.768 98.1682 331.69 98.6599C332.537 99.1322 333.184 99.8963 333.51 100.81C333.726 101.434 333.838 102.09 333.84 102.75V110.25H333V107.63C332.712 108.136 332.336 108.586 331.89 108.96C331.459 109.342 330.974 109.659 330.45 109.9C329.598 110.314 328.667 110.54 327.72 110.56C326.987 110.56 326.264 110.4 325.6 110.09C324.964 109.803 324.428 109.333 324.06 108.74C323.691 108.138 323.497 107.446 323.5 106.74C323.479 106.151 323.621 105.567 323.91 105.054C324.2 104.54 324.625 104.117 325.14 103.83C325.667 103.527 326.237 103.304 326.83 103.17C327.443 103.03 328.323 102.87 329.47 102.69L329.99 102.63L332.85 102.23C332.829 101.518 332.582 100.831 332.145 100.269C331.709 99.706 331.104 99.2968 330.42 99.0999C329.876 98.9296 329.31 98.8453 328.74 98.8499C328.068 98.8466 327.404 98.9863 326.79 99.2599C326.208 99.5177 325.702 99.9206 325.32 100.43C325.208 100.581 325.105 100.738 325.01 100.9L324.07 100.5ZM329.49 103.66C328.612 103.776 327.74 103.939 326.88 104.15C326.238 104.299 325.641 104.601 325.14 105.03C324.902 105.244 324.714 105.509 324.591 105.805C324.469 106.1 324.413 106.42 324.43 106.74C324.43 107.449 324.706 108.131 325.2 108.64C325.697 109.18 326.364 109.533 327.09 109.64C327.276 109.651 327.463 109.651 327.65 109.64C328.564 109.628 329.46 109.38 330.25 108.92C330.914 108.572 331.488 108.075 331.927 107.468C332.366 106.86 332.658 106.159 332.78 105.42C332.864 104.66 332.901 103.895 332.89 103.13L329.49 103.66Z" fill="white"/>
<path d="M343 98.1099V98.9999C342.542 98.8478 342.062 98.7734 341.58 98.7799C341.083 98.7782 340.59 98.8593 340.12 99.0199C339.682 99.1655 339.282 99.4082 338.95 99.7299C338.437 100.174 338.065 100.758 337.88 101.41C337.686 102.205 337.592 103.021 337.6 103.84V110.21H336.67V98.2099H337.53V100.05C337.766 99.6789 338.052 99.3424 338.38 99.0499C338.802 98.6634 339.299 98.3674 339.84 98.1799C340.399 97.981 340.987 97.8796 341.58 97.8799C342.062 97.8877 342.54 97.9652 343 98.1099V98.1099Z" fill="white"/>
<path d="M354.57 101.06C354.895 102.146 355.033 103.278 354.98 104.41V110.25H354.05V104.41C354.074 103.4 353.963 102.391 353.72 101.41C353.502 100.642 353.012 99.9808 352.34 99.5499C351.654 99.1227 350.858 98.907 350.05 98.9299C349.563 98.9274 349.079 99.0086 348.62 99.1699C348.18 99.3247 347.775 99.5661 347.43 99.8799C346.784 100.495 346.361 101.308 346.23 102.19C346.127 102.68 346.077 103.179 346.08 103.68V110.27H345.15V98.2699H346V100.27C346.226 99.9061 346.495 99.5704 346.8 99.2699C347.19 98.8988 347.653 98.6128 348.16 98.4299C348.67 98.2409 349.206 98.1296 349.75 98.0999C349.9 98.0871 350.05 98.0871 350.2 98.0999C351.139 98.085 352.06 98.3571 352.84 98.8799C353.645 99.3918 354.254 100.16 354.57 101.06Z" fill="white"/>
<path d="M358.8 94.49V95.91H357.87V94.49H358.8ZM358.8 98.26V110.26H357.87V98.26H358.8Z" fill="white"/>
<path d="M371.56 101.06C371.88 102.147 372.018 103.278 371.97 104.41V110.25H371V104.41C371.027 103.399 370.912 102.389 370.66 101.41C370.442 100.645 369.956 99.9847 369.29 99.55C368.604 99.1244 367.807 98.9088 367 98.93C366.513 98.9275 366.029 99.0087 365.57 99.17C365.13 99.3247 364.725 99.5662 364.38 99.88C363.734 100.495 363.311 101.308 363.18 102.19C363.077 102.68 363.027 103.179 363.03 103.68V110.27H362.09V98.27H363V100.27C363.223 99.9037 363.492 99.5677 363.8 99.27C364.185 98.897 364.645 98.6106 365.15 98.43C365.664 98.241 366.203 98.1297 366.75 98.1C366.9 98.0868 367.05 98.0868 367.2 98.1C368.139 98.0851 369.06 98.3572 369.84 98.88C370.639 99.3964 371.244 100.163 371.56 101.06V101.06Z" fill="white"/>
<path d="M384.76 98.2599V109.59C384.794 110.64 384.687 111.689 384.44 112.71C384.205 113.439 383.768 114.088 383.18 114.58C382.647 115.038 382.024 115.379 381.35 115.58C380.658 115.797 379.936 115.905 379.21 115.9C378.378 115.91 377.553 115.743 376.79 115.41C376.06 115.082 375.426 114.573 374.95 113.93C374.777 113.715 374.627 113.484 374.5 113.24L375.37 112.82C375.458 113.009 375.569 113.187 375.7 113.35C376.09 113.873 376.611 114.283 377.21 114.54C377.841 114.813 378.522 114.952 379.21 114.95C379.833 114.954 380.454 114.863 381.05 114.68C381.607 114.519 382.122 114.239 382.56 113.86C383.048 113.461 383.398 112.919 383.56 112.31C383.75 111.413 383.83 110.496 383.8 109.58V108L383.46 108.53C383.021 109.181 382.422 109.708 381.72 110.06C381.001 110.424 380.206 110.609 379.4 110.6C378.593 110.606 377.794 110.436 377.06 110.1C376.341 109.763 375.711 109.263 375.22 108.64C374.327 107.356 373.884 105.812 373.96 104.25C373.88 102.69 374.323 101.148 375.22 99.8699C375.696 99.2647 376.303 98.7761 376.996 98.4416C377.69 98.1071 378.45 97.9355 379.22 97.9399C380.052 97.9324 380.875 98.11 381.63 98.4599C382.36 98.793 382.99 99.3099 383.46 99.9599C383.621 100.19 383.762 100.435 383.88 100.69V98.2599H384.76ZM383.89 104.26C383.983 102.918 383.631 101.583 382.89 100.46C382.516 99.9367 382.003 99.528 381.41 99.2799C380.78 99.0052 380.098 98.8688 379.41 98.8799C378.748 98.8778 378.093 99.0176 377.49 99.2899C376.908 99.5522 376.4 99.9541 376.01 100.46C375.329 101.609 374.969 102.919 374.969 104.255C374.969 105.59 375.329 106.901 376.01 108.05C376.395 108.567 376.904 108.98 377.49 109.25C378.091 109.53 378.747 109.674 379.41 109.67C380.082 109.678 380.748 109.538 381.36 109.26C381.954 109.003 382.468 108.592 382.85 108.07C383.611 106.944 383.977 105.597 383.89 104.24V104.26Z" fill="white"/>
</g>
<defs>
<clipPath id="clip0_1002_711">
<rect width="403.79" height="115.91" fill="white"/>
</clipPath>
</defs>
</svg>
