<svg width="50" height="50" fill="none" xmlns="http://www.w3.org/2000/svg"><path fill-rule="evenodd" clip-rule="evenodd" d="M25 23.571c2.455 0 4.286-1.844 4.286-3.928 0-2.085-1.831-3.929-4.286-3.929-2.455 0-4.286 1.844-4.286 3.929 0 2.084 1.83 3.928 4.286 3.928zM25 25c3.156 0 5.714-2.399 5.714-5.357 0-2.959-2.558-5.357-5.714-5.357-3.156 0-5.714 2.398-5.714 5.357C19.286 22.6 21.844 25 25 25z" fill="#555"/><path fill-rule="evenodd" clip-rule="evenodd" d="M25 9.96l3.302 1.13a3.57 3.57 0 012.413 3.38v4.816h-1.43v-4.817a2.143 2.143 0 00-1.447-2.027L25 11.47l-2.838.974a2.143 2.143 0 00-1.447 2.026v4.817h-1.43V14.47a3.572 3.572 0 012.414-3.378L25 9.959zm-2.857 22.183A2.857 2.857 0 0025 29.286a2.856 2.856 0 104.399-2.407c4.068.762 8.458 2.494 8.458 5.264v3.571H12.143v-3.571c0-2.77 4.39-4.502 8.459-5.264a2.857 2.857 0 001.541 5.264zm-4.286 3.571V31.43H16.43v4.285h1.428zm15.715-4.285v4.285h-1.429V31.43h1.429z" fill="#555"/><path fill-rule="evenodd" clip-rule="evenodd" d="M20.043 26.99c.32 2.102 2.417 3.724 4.957 3.724s4.637-1.622 4.957-3.724a28.68 28.68 0 00-1.386-.253v.049c0 1.378-1.594 2.496-3.562 2.5h-.018c-1.968-.004-3.562-1.122-3.562-2.5v-.049c-.456.072-.92.156-1.386.253z" fill="#555"/><circle cx="25" cy="25" r="24.5" stroke="#555"/></svg>