<svg width="865" height="500" viewBox="0 0 865 500" fill="none" xmlns="http://www.w3.org/2000/svg">
<path d="M522.616 477.672C522.296 477.96 521.832 478.104 521.368 478.104C520.424 478.104 519.912 477.56 519.912 476.568V471.544H522.472V470.584H519.912V468.744H518.776V470.584H517.272V471.544H518.776V476.632C518.776 478.184 519.656 479.08 521.24 479.08C521.896 479.08 522.568 478.888 523.016 478.488L522.616 477.672ZM529.372 470.52C527.948 470.52 526.844 471.08 526.22 472.056V467.128H525.084V479H526.22V474.584C526.22 472.664 527.356 471.544 529.164 471.544C530.764 471.544 531.692 472.456 531.692 474.232V479H532.828V474.12C532.828 471.704 531.42 470.52 529.372 470.52ZM543.287 474.792C543.287 472.264 541.575 470.52 539.207 470.52C536.839 470.52 535.095 472.296 535.095 474.792C535.095 477.288 536.887 479.08 539.511 479.08C540.839 479.08 542.007 478.6 542.759 477.704L542.119 476.968C541.479 477.704 540.567 478.072 539.543 478.072C537.703 478.072 536.359 476.904 536.231 475.144H543.271C543.271 475.016 543.287 474.888 543.287 474.792ZM539.207 471.496C540.855 471.496 542.055 472.648 542.199 474.296H536.231C536.375 472.648 537.575 471.496 539.207 471.496ZM557.915 477.176C557.051 477.8 556.059 478.04 554.987 478.04C552.235 478.04 550.203 476.056 550.203 473.4C550.203 470.728 552.235 468.76 555.003 468.76C556.315 468.76 557.435 469.144 558.379 470.072L559.115 469.32C558.123 468.248 556.651 467.704 554.955 467.704C551.531 467.704 549.035 470.12 549.035 473.4C549.035 476.68 551.531 479.096 554.939 479.096C556.491 479.096 557.995 478.616 559.051 477.672V473.4H557.915V477.176ZM565.602 479.08C568.066 479.08 569.874 477.288 569.874 474.792C569.874 472.296 568.066 470.52 565.602 470.52C563.138 470.52 561.314 472.296 561.314 474.792C561.314 477.288 563.138 479.08 565.602 479.08ZM565.602 478.072C563.81 478.072 562.466 476.76 562.466 474.792C562.466 472.824 563.81 471.512 565.602 471.512C567.394 471.512 568.722 472.824 568.722 474.792C568.722 476.76 567.394 478.072 565.602 478.072ZM575.633 479.08C578.097 479.08 579.905 477.288 579.905 474.792C579.905 472.296 578.097 470.52 575.633 470.52C573.169 470.52 571.345 472.296 571.345 474.792C571.345 477.288 573.169 479.08 575.633 479.08ZM575.633 478.072C573.841 478.072 572.497 476.76 572.497 474.792C572.497 472.824 573.841 471.512 575.633 471.512C577.425 471.512 578.753 472.824 578.753 474.792C578.753 476.76 577.425 478.072 575.633 478.072ZM588.769 467.128V472.184C588.065 471.096 586.913 470.52 585.569 470.52C583.169 470.52 581.377 472.248 581.377 474.792C581.377 477.336 583.169 479.08 585.569 479.08C586.961 479.08 588.129 478.472 588.817 477.336V479H589.905V467.128H588.769ZM585.665 478.072C583.873 478.072 582.529 476.76 582.529 474.792C582.529 472.824 583.873 471.512 585.665 471.512C587.441 471.512 588.785 472.824 588.785 474.792C588.785 476.76 587.441 478.072 585.665 478.072ZM593.196 477.336C592.716 477.336 592.348 477.704 592.348 478.2C592.348 478.616 592.588 478.92 592.924 479.016L592.38 481.336H593.148L593.82 479.128C593.98 478.68 594.044 478.472 594.044 478.2C594.044 477.72 593.692 477.336 593.196 477.336ZM604.679 477.672C604.359 477.96 603.895 478.104 603.431 478.104C602.487 478.104 601.975 477.56 601.975 476.568V471.544H604.535V470.584H601.975V468.744H600.839V470.584H599.335V471.544H600.839V476.632C600.839 478.184 601.719 479.08 603.303 479.08C603.959 479.08 604.631 478.888 605.079 478.488L604.679 477.672ZM611.435 470.52C610.011 470.52 608.907 471.08 608.283 472.056V467.128H607.147V479H608.283V474.584C608.283 472.664 609.419 471.544 611.227 471.544C612.827 471.544 613.755 472.456 613.755 474.232V479H614.891V474.12C614.891 471.704 613.483 470.52 611.435 470.52ZM625.35 474.792C625.35 472.264 623.638 470.52 621.27 470.52C618.902 470.52 617.158 472.296 617.158 474.792C617.158 477.288 618.95 479.08 621.574 479.08C622.902 479.08 624.07 478.6 624.822 477.704L624.182 476.968C623.542 477.704 622.63 478.072 621.606 478.072C619.766 478.072 618.422 476.904 618.294 475.144H625.334C625.334 475.016 625.35 474.888 625.35 474.792ZM621.27 471.496C622.918 471.496 624.118 472.648 624.262 474.296H618.294C618.438 472.648 619.638 471.496 621.27 471.496ZM639.146 473.224C640.17 472.808 640.858 471.96 640.858 470.68C640.858 468.856 639.418 467.8 636.922 467.8H632.09V479H637.242C640.042 479 641.45 477.912 641.45 476.008C641.45 474.488 640.586 473.544 639.146 473.224ZM636.842 468.776C638.634 468.776 639.674 469.464 639.674 470.808C639.674 472.152 638.634 472.84 636.842 472.84H633.274V468.776H636.842ZM637.226 478.024H633.274V473.816H637.226C639.194 473.816 640.266 474.456 640.266 475.912C640.266 477.384 639.194 478.024 637.226 478.024ZM646.856 470.52C645.528 470.52 644.28 470.936 643.432 471.656L643.944 472.504C644.632 471.896 645.656 471.512 646.744 471.512C648.312 471.512 649.128 472.296 649.128 473.736V474.248H646.456C644.04 474.248 643.208 475.336 643.208 476.632C643.208 478.088 644.376 479.08 646.28 479.08C647.672 479.08 648.664 478.552 649.176 477.688V479H650.264V473.784C650.264 471.608 649.032 470.52 646.856 470.52ZM646.456 478.184C645.112 478.184 644.328 477.576 644.328 476.6C644.328 475.736 644.856 475.096 646.488 475.096H649.128V476.472C648.68 477.576 647.736 478.184 646.456 478.184ZM659.925 467.128V472.184C659.221 471.096 658.069 470.52 656.725 470.52C654.325 470.52 652.533 472.248 652.533 474.792C652.533 477.336 654.325 479.08 656.725 479.08C658.117 479.08 659.285 478.472 659.973 477.336V479H661.061V467.128H659.925ZM656.821 478.072C655.029 478.072 653.685 476.76 653.685 474.792C653.685 472.824 655.029 471.512 656.821 471.512C658.597 471.512 659.941 472.824 659.941 474.792C659.941 476.76 658.597 478.072 656.821 478.072ZM671.356 470.52C670.028 470.52 668.78 470.936 667.932 471.656L668.444 472.504C669.132 471.896 670.156 471.512 671.244 471.512C672.812 471.512 673.628 472.296 673.628 473.736V474.248H670.956C668.54 474.248 667.708 475.336 667.708 476.632C667.708 478.088 668.876 479.08 670.78 479.08C672.172 479.08 673.164 478.552 673.676 477.688V479H674.764V473.784C674.764 471.608 673.532 470.52 671.356 470.52ZM670.956 478.184C669.612 478.184 668.828 477.576 668.828 476.6C668.828 475.736 669.356 475.096 670.988 475.096H673.628V476.472C673.18 477.576 672.236 478.184 670.956 478.184ZM682.138 470.52C680.682 470.52 679.546 471.112 678.938 472.136V470.584H677.85V479H678.986V474.584C678.986 472.664 680.122 471.544 681.93 471.544C683.53 471.544 684.458 472.456 684.458 474.232V479H685.594V474.12C685.594 471.704 684.186 470.52 682.138 470.52ZM695.253 467.128V472.184C694.549 471.096 693.397 470.52 692.053 470.52C689.653 470.52 687.861 472.248 687.861 474.792C687.861 477.336 689.653 479.08 692.053 479.08C693.445 479.08 694.613 478.472 695.301 477.336V479H696.389V467.128H695.253ZM692.149 478.072C690.357 478.072 689.013 476.76 689.013 474.792C689.013 472.824 690.357 471.512 692.149 471.512C693.925 471.512 695.269 472.824 695.269 474.792C695.269 476.76 693.925 478.072 692.149 478.072ZM707.772 477.672C707.452 477.96 706.988 478.104 706.524 478.104C705.58 478.104 705.068 477.56 705.068 476.568V471.544H707.628V470.584H705.068V468.744H703.932V470.584H702.428V471.544H703.932V476.632C703.932 478.184 704.812 479.08 706.396 479.08C707.052 479.08 707.724 478.888 708.172 478.488L707.772 477.672ZM714.528 470.52C713.104 470.52 712 471.08 711.376 472.056V467.128H710.24V479H711.376V474.584C711.376 472.664 712.512 471.544 714.32 471.544C715.92 471.544 716.848 472.456 716.848 474.232V479H717.984V474.12C717.984 471.704 716.576 470.52 714.528 470.52ZM728.444 474.792C728.444 472.264 726.732 470.52 724.364 470.52C721.996 470.52 720.252 472.296 720.252 474.792C720.252 477.288 722.044 479.08 724.668 479.08C725.996 479.08 727.164 478.6 727.916 477.704L727.276 476.968C726.636 477.704 725.724 478.072 724.7 478.072C722.86 478.072 721.516 476.904 721.388 475.144H728.428C728.428 475.016 728.444 474.888 728.444 474.792ZM724.364 471.496C726.012 471.496 727.212 472.648 727.356 474.296H721.388C721.532 472.648 722.732 471.496 724.364 471.496ZM739.695 479.096C742.559 479.096 744.287 477.432 744.287 474.216V467.8H743.135V474.168C743.135 476.824 741.887 478.04 739.695 478.04C737.519 478.04 736.271 476.824 736.271 474.168V467.8H735.087V474.216C735.087 477.432 736.831 479.096 739.695 479.096ZM754.319 470.584V472.2C753.615 471.096 752.399 470.52 750.991 470.52C748.591 470.52 746.767 472.168 746.767 474.584C746.767 477 748.591 478.68 750.991 478.68C752.367 478.68 753.567 478.12 754.271 477.048V478.12C754.271 480.2 753.295 481.176 751.167 481.176C749.871 481.176 748.655 480.744 747.855 480.024L747.279 480.888C748.159 481.72 749.663 482.184 751.199 482.184C753.983 482.184 755.407 480.872 755.407 477.976V470.584H754.319ZM751.103 477.672C749.247 477.672 747.919 476.408 747.919 474.584C747.919 472.76 749.247 471.512 751.103 471.512C752.959 471.512 754.303 472.76 754.303 474.584C754.303 476.408 752.959 477.672 751.103 477.672ZM758.584 479H759.72V467.128H758.584V479ZM768.833 470.584L765.665 477.736L762.497 470.584H761.313L765.073 478.984L764.705 479.8C764.225 480.856 763.713 481.208 762.961 481.208C762.353 481.208 761.841 480.984 761.425 480.568L760.897 481.416C761.409 481.928 762.161 482.184 762.945 482.184C764.145 482.184 765.041 481.656 765.745 480.008L769.953 470.584H768.833Z" fill="white"/>
<rect width="865" height="1" transform="matrix(1 0 0 -1 0 373)" fill="#C4C4C4"/>
<path d="M567.958 373H552.798V426.764H567.958V373Z" fill="#7CAA2B"/>
<path d="M527.092 373H511.933V427.052H527.092V373Z" fill="#7CAA2B"/>
<path d="M461.839 373H446.68V427.052H461.839V373Z" fill="#7CAA2B"/>
<path d="M415.482 373H400.322V427.052H415.482V373Z" fill="#7CAA2B"/>
<path d="M374.177 373H356.601V427.052H374.177V373Z" fill="#7CAA2B"/>
<path d="M329.454 373H312.919V427H329.454V373Z" fill="#7CAA2B"/>
<path d="M798.21 373H783.05V427.052H798.21V373Z" fill="#7CAA2B"/>
<path d="M832.923 373H817.764V427.052H832.923V373Z" fill="#7CAA2B"/>
<path d="M865 373H848.465V427H865V373Z" fill="#7CAA2B"/>
<path d="M671.575 0H653.203V427H671.575V0Z" fill="#D6A533"/>
<path d="M729.357 0H710.985V427H729.357V0Z" fill="#D6A533"/>
<path d="M765.829 0H747.457V427H765.829V0Z" fill="#E9623E"/>
<path d="M628 0H609.628V427H628V0Z" fill="#D6A533"/>
<path d="M315.076 135.788H317.713" stroke="#A6A6A6" stroke-miterlimit="10"/>
<path d="M322.766 135.787H504.682L572.571 136.745L605.967 132.195L765.693 128.363L804.361 127.645L836.878 125.729L856.871 126.447" stroke="#E9623E" stroke-width="2" stroke-miterlimit="10" stroke-dasharray="2.31 2.31"/>
<path d="M859.288 126.448L861.705 126.687" stroke="#A6A6A6" stroke-miterlimit="10"/>
<path d="M416.36 139.14C418.301 139.14 419.875 137.425 419.875 135.308C419.875 133.192 418.301 131.477 416.36 131.477C414.419 131.477 412.845 133.192 412.845 135.308C412.845 137.425 414.419 139.14 416.36 139.14Z" fill="#A6A6A6"/>
<path d="M505.561 140.098C507.503 140.098 509.076 138.383 509.076 136.266C509.076 134.15 507.503 132.435 505.561 132.435C503.62 132.435 502.046 134.15 502.046 136.266C502.046 138.383 503.62 140.098 505.561 140.098Z" fill="#A6A6A6"/>
<path d="M571.692 139.619C573.634 139.619 575.207 137.904 575.207 135.787C575.207 133.671 573.634 131.956 571.692 131.956C569.751 131.956 568.177 133.671 568.177 135.787C568.177 137.904 569.751 139.619 571.692 139.619Z" fill="#A6A6A6"/>
<path d="M766.132 132.674C768.074 132.674 769.648 130.959 769.648 128.842C769.648 126.726 768.074 125.011 766.132 125.011C764.191 125.011 762.617 126.726 762.617 128.842C762.617 130.959 764.191 132.674 766.132 132.674Z" fill="#A6A6A6"/>
<path d="M802.603 131.477C804.545 131.477 806.118 129.761 806.118 127.645C806.118 125.529 804.545 123.813 802.603 123.813C800.662 123.813 799.088 125.529 799.088 127.645C799.088 129.761 800.662 131.477 802.603 131.477Z" fill="#A6A6A6"/>
<path d="M836.878 130.04C838.819 130.04 840.393 128.324 840.393 126.208C840.393 124.092 838.819 122.376 836.878 122.376C834.936 122.376 833.362 124.092 833.362 126.208C833.362 128.324 834.936 130.04 836.878 130.04Z" fill="#A6A6A6"/>
<path d="M313.758 136.745H326.501V213.38V272.533L328.039 278.041L333.092 269.898L338.145 278.041L341.441 270.856H355.722L356.6 276.125L358.138 70.8872L359.896 135.787H369.124L370.881 128.363L370.003 237.089L373.298 238.766L370.881 269.898H374.177L373.298 281.633L376.594 274.449L379.889 268.941V276.125L382.526 283.549L384.064 275.407L386.7 269.898L396.807 270.856L398.345 276.125V176.739L401.64 177.697L401.421 134.829L400.981 78.3112L405.156 135.787L411.747 136.745L413.504 130.279L412.626 269.898H416.8V279.957L420.974 267.025L422.732 272.533L442.725 270.856L444.483 277.083L445.362 70.8872L448.657 134.829H457.885L458.544 142.253L462.059 130.279V268.941L464.476 278.041L467.113 269.898H471.946L476.999 266.306L478.757 270.856L486.227 269.898L488.863 278.999L491.28 271.575L495.455 275.407L498.091 270.856H507.978L509.736 277.083V153.03L513.031 157.58V132.195V96.512L517.206 131.237L519.842 135.787H528.191V267.025L531.486 267.983L530.608 277.083L536.54 267.983L536.979 273.012L538.078 282.591L541.593 274.449L543.131 270.856H550.601L552.359 276.125V136.745L555.654 137.703L556.533 125.729L558.291 133.872L561.586 130.279L563.344 135.787L566.639 129.321V265.348L569.935 264.39V281.633L573.231 270.856L577.405 276.125L580.92 271.575L596.739 273.491L599.156 268.941H608.384V277.083V116.629L611.02 134.829V103.936L614.316 132.914H624.422V138.422L627.718 132.914L626.839 264.39L629.475 270.856V286.183L632.771 273.491H637.824L640.241 267.983L643.536 274.449L647.711 269.898L651.885 276.125L651.226 153.988L654.522 156.862V123.095L661.113 130.279L668.803 131.237L672.098 123.813V269.898H677.152L677.811 285.465L680.008 272.054L681.326 263.432L684.622 271.575H706.372L711.426 276.125V115.671L715.6 130.279H725.707V175.063L729.881 173.147V282.591L732.298 273.491H747.457V84.7773L750.753 128.363H760.859L759.102 167.639H763.276V271.575L768.329 277.083L772.504 269.898H785.027L786.785 278.041V89.3275L789.202 128.363L798.429 129.321V272.533L805.02 274.449L816.885 272.533L817.763 276.125V51.7285V128.363L828.529 127.645V135.787V267.025L830.287 277.083L834.461 271.575H846.984L847.863 278.999V123.095L851.159 127.645V100.104L854.454 127.645H861.924V229.665L863.242 228.707V268.941" stroke="#6C6C6C" stroke-width="2" stroke-linecap="round" stroke-linejoin="round"/>
<path d="M560.354 439.646C560.158 439.451 559.842 439.451 559.646 439.646L556.464 442.828C556.269 443.024 556.269 443.34 556.464 443.536C556.66 443.731 556.976 443.731 557.172 443.536L560 440.707L562.828 443.536C563.024 443.731 563.34 443.731 563.536 443.536C563.731 443.34 563.731 443.024 563.536 442.828L560.354 439.646ZM560.5 460V440H559.5V460H560.5Z" fill="white"/>
<path d="M619.354 439.646C619.158 439.451 618.842 439.451 618.646 439.646L615.464 442.828C615.269 443.024 615.269 443.34 615.464 443.536C615.66 443.731 615.976 443.731 616.172 443.536L619 440.707L621.828 443.536C622.024 443.731 622.34 443.731 622.536 443.536C622.731 443.34 622.731 443.024 622.536 442.828L619.354 439.646ZM619.5 460V440H618.5V460H619.5Z" fill="white"/>
<path d="M757.354 439.646C757.158 439.451 756.842 439.451 756.646 439.646L753.464 442.828C753.269 443.024 753.269 443.34 753.464 443.536C753.66 443.731 753.976 443.731 754.172 443.536L757 440.707L759.828 443.536C760.024 443.731 760.34 443.731 760.536 443.536C760.731 443.34 760.731 443.024 760.536 442.828L757.354 439.646ZM757.5 460V440H756.5V460H757.5Z" fill="white"/>
</svg>
