<svg width="427" height="247" viewBox="0 0 427 247" fill="none" xmlns="http://www.w3.org/2000/svg">
<g clip-path="url(#clip0_276_520)">
<path fill-rule="evenodd" clip-rule="evenodd" d="M115.8 162.8L14.2 162.6C13.3906 162.587 12.5866 162.735 11.8349 163.035C11.0832 163.336 10.3989 163.783 9.82186 164.351C9.24479 164.919 8.7865 165.596 8.47371 166.342C8.16092 167.089 7.99989 167.89 8 168.7L11.3 229C11.3 230.618 11.9427 232.169 13.0866 233.313C14.2306 234.457 15.7822 235.1 17.4 235.1L112.2 235.4C113.009 235.413 113.813 235.265 114.565 234.965C115.317 234.664 116.001 234.217 116.578 233.649C117.155 233.081 117.613 232.404 117.926 231.658C118.239 230.911 118.4 230.109 118.4 229.3L122 169C121.95 167.371 121.281 165.823 120.129 164.671C118.976 163.519 117.428 162.85 115.8 162.8V162.8Z" stroke="#6C6C6C" stroke-width="3" stroke-miterlimit="10"/>
<path d="M111.499 228.5L21.6992 228.2" stroke="#6C6C6C" stroke-width="3" stroke-miterlimit="10"/>
<path fill-rule="evenodd" clip-rule="evenodd" d="M268.4 162.8L166.7 162.6C165.891 162.587 165.087 162.735 164.335 163.035C163.583 163.336 162.899 163.783 162.322 164.351C161.745 164.919 161.286 165.596 160.974 166.342C160.661 167.089 160.5 167.89 160.5 168.7L163.8 229C163.8 229.809 163.961 230.611 164.274 231.358C164.587 232.104 165.045 232.781 165.622 233.349C166.199 233.917 166.883 234.364 167.635 234.665C168.387 234.965 169.191 235.113 170 235.1L264.8 235.4C266.418 235.4 267.969 234.757 269.113 233.613C270.257 232.469 270.9 230.918 270.9 229.3L274.5 169C274.475 167.381 273.827 165.833 272.692 164.678C271.556 163.524 270.019 162.851 268.4 162.8V162.8Z" stroke="#6C6C6C" stroke-width="3" stroke-miterlimit="10"/>
<path d="M263.999 228.5L174.199 228.2" stroke="#6C6C6C" stroke-width="3" stroke-miterlimit="10"/>
<path d="M273.699 156.4C263.999 146 250.499 138.6 232.599 136.1V132.7C242.499 132.1 250.899 130.2 260.199 133.6C256.491 122.672 254.205 111.312 253.399 99.8001C252.699 90.5001 252.999 81.0001 250.099 72.2001C248.421 67.2359 245.682 62.6966 242.073 58.8975C238.464 55.0983 234.071 52.1305 229.199 50.2001C219.399 46.6001 207.699 48.1001 199.599 54.6001C196.699 56.9001 194.099 60.1001 194.399 63.8001C189.399 62.1001 183.899 65.6001 181.599 70.3001C179.299 75.0001 179.399 80.5001 179.699 85.8001C180.699 101.1 182.999 116.8 178.899 131.6L202.899 132.4V136.1C184.999 138.6 171.499 146 161.699 156.4" stroke="#E8623D" stroke-width="3" stroke-miterlimit="8"/>
<path fill-rule="evenodd" clip-rule="evenodd" d="M418.7 162.8L317 162.6C315.383 162.6 313.831 163.243 312.687 164.387C311.543 165.531 310.9 167.082 310.9 168.7L314.2 229C314.2 229.801 314.358 230.594 314.665 231.334C314.971 232.075 315.421 232.747 315.987 233.313C316.553 233.88 317.226 234.329 317.966 234.636C318.706 234.942 319.499 235.1 320.3 235.1L415.1 235.4C415.91 235.413 416.714 235.265 417.465 234.965C418.217 234.664 418.901 234.217 419.479 233.649C420.056 233.081 420.514 232.404 420.827 231.658C421.139 230.911 421.3 230.11 421.3 229.3L424.9 169C424.85 167.372 424.181 165.824 423.029 164.672C421.877 163.52 420.329 162.85 418.7 162.8V162.8Z" stroke="#6C6C6C" stroke-width="3" stroke-miterlimit="10"/>
<path d="M414.4 228.5L324.5 228.2" stroke="#6C6C6C" stroke-width="3" stroke-miterlimit="10"/>
<path d="M124.001 148.8C112.901 143.5 99.1008 139.8 84.0008 138.2V133.2C89.7008 128.2 94.2008 120.7 96.7008 111.9L97.3008 112.1C100.201 112.6 103.301 107.3 104.201 100.2C105.101 93.0999 103.601 86.9999 100.701 86.4999C100.238 86.4876 99.7775 86.5699 99.3476 86.7419C98.9177 86.9138 98.5274 87.1718 98.2008 87.4999C98.1008 87.0999 98.1008 86.6999 98.0008 86.2999C97.9008 85.8999 98.6008 83.0999 99.0008 81.5999C100.001 76.5999 101.001 71.2999 99.4008 66.3999C98.4889 63.8954 97.0575 61.6121 95.2008 59.6999C89.6008 53.4999 81.5008 49.7999 73.2008 48.7999C64.9008 47.7999 56.4008 49.0999 48.4008 51.8999C43.7008 53.4999 38.3008 57.0999 39.3008 61.9999C36.9008 61.0999 34.1008 63.0999 33.2008 65.4999C32.3008 67.8999 32.6008 70.5999 33.0008 73.1999C33.7008 77.7999 34.5008 82.4999 35.2008 87.1999C34.9336 86.9595 34.6116 86.7883 34.263 86.7011C33.9143 86.614 33.5496 86.6135 33.2008 86.6999C30.3008 87.1999 28.8008 93.2999 29.7008 100.3C30.6008 107.3 33.8008 112.7 36.7008 112.2L37.4008 112C39.8008 120.8 44.3008 128.3 50.0008 133.3V138.1C34.1008 139.8 19.8008 143.7 8.30078 149.3" stroke="#E8623D" stroke-width="3" stroke-miterlimit="8"/>
<path d="M420.2 157.6C414.3 146.6 399 138.1 379.9 135.4V128.5H396.8C402.02 119.226 404.71 108.742 404.6 98.0999C404.6 70.5999 387.7 48.2 366.9 48.2C346.1 48.2 329.3 70.5999 329.3 98.0999C329.19 108.742 331.88 119.226 337.1 128.5H354V135.4C334.9 138.1 319.5 146.6 313.6 157.6" stroke="#E8623D" stroke-width="3" stroke-miterlimit="8"/>
<path d="M299.801 8.19995H260.501C256.867 8.19995 253.383 9.64334 250.813 12.2126C248.244 14.7818 246.801 18.2665 246.801 21.9V39.9C246.8 43.499 248.216 46.9537 250.742 49.5173C253.269 52.0809 256.702 53.5474 260.301 53.5999V66.6999C260.331 67.1839 260.496 67.6496 260.777 68.0447C261.058 68.4397 261.444 68.7483 261.892 68.9355C262.339 69.1227 262.83 69.1811 263.308 69.1042C263.787 69.0272 264.235 68.8179 264.601 68.5L279.401 53.5999H299.801C303.434 53.5999 306.919 52.1566 309.488 49.5873C312.057 47.0181 313.501 43.5334 313.501 39.9V21.9C313.501 20.1008 313.146 18.3193 312.458 16.6572C311.769 14.995 310.76 13.4848 309.488 12.2126C308.216 10.9404 306.706 9.93129 305.044 9.2428C303.381 8.55431 301.6 8.19995 299.801 8.19995V8.19995Z" stroke="#6C6C6C" stroke-width="1.89" stroke-miterlimit="10"/>
<path d="M271.039 33.9894C272.535 33.9894 273.782 32.7841 273.782 31.1217C273.782 29.4593 272.535 28.2956 271.039 28.2956C269.501 28.2956 268.213 29.4593 268.213 31.1217C268.213 32.7841 269.501 33.9894 271.039 33.9894ZM280.455 33.9894C281.951 33.9894 283.198 32.7841 283.198 31.1217C283.198 29.4593 281.951 28.2956 280.455 28.2956C278.917 28.2956 277.628 29.4593 277.628 31.1217C277.628 32.7841 278.917 33.9894 280.455 33.9894ZM289.87 33.9894C291.367 33.9894 292.613 32.7841 292.613 31.1217C292.613 29.4593 291.367 28.2956 289.87 28.2956C288.333 28.2956 287.044 29.4593 287.044 31.1217C287.044 32.7841 288.333 33.9894 289.87 33.9894Z" fill="#A5A4A5"/>
<path d="M210.1 119.6H219.2" stroke="#E8623D" stroke-width="7.27" stroke-linecap="round" stroke-linejoin="round"/>
<path d="M253.199 99.8C251.799 118.4 228.099 119.3 218.699 119.6" stroke="#E8623D" stroke-width="3" stroke-miterlimit="8"/>
<path d="M361.301 115.8H370.401" stroke="#E8623D" stroke-width="7.27" stroke-linecap="round" stroke-linejoin="round"/>
<path d="M404.4 96C403 114.6 379.3 115.5 369.9 115.8" stroke="#E8623D" stroke-width="3" stroke-miterlimit="8"/>
<path d="M61 121.1H70.1" stroke="#E8623D" stroke-width="7.27" stroke-linecap="round" stroke-linejoin="round"/>
<path d="M104.1 101.2C102.6 119.8 78.9996 120.7 69.5996 121.1" stroke="#E8623D" stroke-width="3" stroke-miterlimit="8"/>
<path d="M0 245.4H424.5" stroke="#6C6C6C" stroke-width="3" stroke-miterlimit="10"/>
</g>
<defs>
<clipPath id="clip0_276_520">
<rect width="426.4" height="246.9" fill="white"/>
</clipPath>
</defs>
</svg>
