<svg width="30" height="42" viewBox="0 0 30 42" fill="none" xmlns="http://www.w3.org/2000/svg">
<g clip-path="url(#clip0_417_135)">
<path d="M14.6658 42.0103C14.3416 41.7433 13.9669 41.5379 13.7137 41.2298C9.71303 36.5164 6.07697 31.5462 3.23092 26.0215C1.96489 23.5569 0.891277 21.0205 0.334221 18.289C-0.435529 14.51 0.121532 10.9364 2.03578 7.60926C3.95003 4.28212 6.94799 1.81758 10.736 0.65719C14.1188 -0.369705 17.4713 -0.184869 20.7326 1.19117C23.6293 2.40291 25.9385 4.38481 27.6401 7.07527C28.9095 9.07874 29.6906 11.3596 29.919 13.7296C30.1722 16.1017 29.767 18.4019 29.0277 20.6508C27.9237 24.0088 26.293 27.11 24.4497 30.0983C22.0088 34.0724 19.2235 37.7897 16.1951 41.3222C15.9521 41.5995 15.6077 41.7741 15.314 42.0103H14.6658ZM14.9797 22.8689C19.0614 22.8997 22.4848 19.4802 22.5152 15.3418C22.5456 11.2034 19.264 7.61952 15.0304 7.59899C13.0487 7.57981 11.1405 8.35821 9.72406 9.76349C8.30765 11.1688 7.49871 13.0862 7.47467 15.0953C7.45585 16.1076 7.63592 17.1135 8.0044 18.0545C8.37288 18.9955 8.9224 19.8528 9.62092 20.5763C10.3194 21.2998 11.153 21.8751 12.073 22.2687C12.9931 22.6624 13.9812 22.8664 14.9797 22.8689Z" fill="#555555"/>
</g>
<defs>
<clipPath id="clip0_417_135">
<rect width="30" height="42" fill="white"/>
</clipPath>
</defs>
</svg>
