<svg width="36" height="37" viewBox="0 0 36 37" fill="none" xmlns="http://www.w3.org/2000/svg">
<path fill-rule="evenodd" clip-rule="evenodd" d="M18 20C21.437 20 24 17.418 24 14.5C24 11.582 21.437 9 18 9C14.563 9 12 11.582 12 14.5C12 17.418 14.563 20 18 20ZM18 22C22.418 22 26 18.642 26 14.5C26 10.358 22.418 7 18 7C13.582 7 10 10.358 10 14.5C10 18.642 13.582 22 18 22Z" fill="#555555"/>
<path fill-rule="evenodd" clip-rule="evenodd" d="M18 0.942993L22.622 2.52699C23.6078 2.86506 24.4632 3.50268 25.0689 4.35073C25.6745 5.19878 26.0001 6.21488 26 7.25699V14H24V7.25699C24 6.6317 23.8047 6.02202 23.4413 5.51319C23.0778 5.00435 22.5645 4.6218 21.973 4.41899L18 3.05699L14.027 4.41999C13.4357 4.62274 12.9224 5.00515 12.559 5.51378C12.1956 6.02242 12.0002 6.63187 12 7.25699V14H10V7.25699C9.99992 6.21488 10.3255 5.19878 10.9311 4.35073C11.5367 3.50268 12.3922 2.86506 13.378 2.52699L18 0.942993ZM14 32C15.0609 32 16.0783 31.5786 16.8284 30.8284C17.5786 30.0783 18 29.0609 18 28C18.0002 28.6943 18.1811 29.3765 18.5249 29.9797C18.8686 30.5828 19.3635 31.0861 19.9608 31.4401C20.558 31.794 21.2371 31.9864 21.9313 31.9983C22.6255 32.0103 23.3108 31.8413 23.9198 31.5081C24.5289 31.1749 25.0408 30.6889 25.4051 30.0979C25.7694 29.5069 25.9736 28.8312 25.9976 28.1374C26.0216 27.4435 25.8647 26.7554 25.5421 26.1406C25.2196 25.5258 24.7426 25.0055 24.158 24.631C29.854 25.697 36 28.122 36 32V37H0V32C0 28.122 6.146 25.697 11.842 24.631C11.1134 25.0973 10.5557 25.7872 10.2523 26.5973C9.94901 27.4074 9.91646 28.294 10.1596 29.1242C10.4027 29.9543 10.9083 30.6833 11.6008 31.2018C12.2932 31.7203 13.135 32.0003 14 32ZM8 37V31H6V37H8ZM30 31V37H28V31H30Z" fill="#555555"/>
<path fill-rule="evenodd" clip-rule="evenodd" d="M11.0601 24.786C11.5091 27.728 14.4441 30 18.0001 30C21.5551 30 24.4911 27.728 24.9401 24.786C24.2964 24.6522 23.6495 24.5341 23.0001 24.432V24.5C23.0001 26.43 20.7681 27.995 18.0121 28H17.9881C15.2321 27.995 13.0001 26.43 13.0001 24.5V24.432C12.3621 24.532 11.7121 24.65 11.0601 24.786Z" fill="#555555"/>
</svg>
