<svg width="60" height="60" viewBox="0 0 60 60" fill="none" xmlns="http://www.w3.org/2000/svg">
<g clip-path="url(#clip0_239_456)">
<path d="M32.457 0C33.4899 0.156372 34.5384 0.28147 35.5713 0.469116C42.191 1.65754 47.6996 4.89444 52.2223 9.82016C56.1503 14.0891 58.6698 19.0774 59.6088 24.8006C60.6417 31.2119 59.7027 37.3573 56.8232 43.1587C53.083 50.7115 47.277 56.0281 39.1706 58.5457C26.9015 62.3612 14.5697 58.5457 6.44763 48.4441C3.36076 44.6191 1.28379 40.0812 0.406943 35.2463C0.234799 34.3549 0.140906 33.448 6.10352e-05 32.541V27.8655C0.0470094 27.6622 0.0939463 27.4589 0.125245 27.24C0.26609 26.208 0.344349 25.1603 0.547792 24.1282C1.61195 18.5926 4.05326 13.7451 7.93433 9.66379C12.6135 4.73806 18.3256 1.68882 25.0079 0.469116C26.0877 0.28147 27.1675 0.156372 28.2473 0H32.457ZM30.047 58.3268C32.0032 58.061 34.0063 57.9202 35.9312 57.498C43.2395 55.9187 49.0141 51.9937 53.2708 45.8796C56.0564 41.8764 57.6213 37.4198 58.1065 32.5723C58.4351 29.1947 58.0282 25.8796 57.1675 22.6114C54.9922 14.3237 50.0939 8.20952 42.2849 4.59733C36.4789 1.92336 30.3913 1.31351 24.1159 2.54885C18.6699 3.61218 13.8498 5.95777 10 9.94526C3.11429 17.0758 0.594736 25.7076 2.36312 35.387C4.80444 48.6317 16.6041 58.2017 30.047 58.3268Z" fill="#E9623E"/>
<path d="M39.7496 26.5363C38.9984 23.7998 35.9781 20.8131 33.3959 20.2345C32.9108 21.1884 32.1753 21.9077 31.1111 22.2361C30.312 22.4888 29.4506 22.4623 28.6685 22.1611C27.8864 21.8599 27.2302 21.3018 26.8075 20.5785C26.6667 20.344 26.5884 20.172 26.2285 20.2971C23.6933 21.1258 20.9859 23.9249 20.2504 26.5363C21.6119 27.2556 22.4257 28.3815 22.4257 29.9765C22.4257 31.5715 21.6275 32.6661 20.2034 33.4011C21.3772 36.4972 23.4742 38.577 26.5258 39.7341C28.0908 36.7005 32.097 36.9351 33.4585 39.7341C36.025 38.8115 37.9186 37.1227 39.2488 34.7146L40.8138 35.5121C39.987 37.2169 38.7303 38.6773 37.1675 39.7498C36.2441 40.3909 35.2113 40.86 34.1941 41.3604C33.8811 41.5168 33.6776 41.6419 33.5994 42.0328C33.4339 42.863 32.9806 43.6082 32.3194 44.1374C31.6581 44.6665 30.8313 44.9457 29.9844 44.9257C29.135 44.9338 28.3097 44.644 27.652 44.1069C26.9944 43.5697 26.546 42.8192 26.385 41.9859C26.3723 41.8452 26.3155 41.7121 26.2228 41.6054C26.1301 41.4987 26.0062 41.4239 25.8685 41.3917C22.3318 40.0469 19.9061 37.6075 18.5289 34.0734C18.4805 33.9608 18.4077 33.8603 18.3156 33.7792C18.2236 33.698 18.1148 33.6383 17.9969 33.6043C16.2285 33.2134 15.0235 31.7435 15.0391 29.9609C15.0548 28.1782 16.2285 26.7396 18.0125 26.333C18.1242 26.2996 18.2277 26.2434 18.3165 26.1681C18.4054 26.0927 18.4777 25.9998 18.5289 25.8952C19.8904 22.3143 22.3474 19.8436 25.9468 18.4988C26.0479 18.4433 26.1363 18.3674 26.2063 18.2758C26.2764 18.1843 26.3266 18.0791 26.3537 17.9671C26.5214 17.1271 26.9776 16.372 27.6434 15.8323C28.3092 15.2927 29.1428 15.0024 30 15.0117C31.7997 14.9961 33.2394 16.1845 33.6463 17.9671C33.683 18.0856 33.7436 18.1952 33.8243 18.2894C33.9051 18.3835 34.0043 18.4601 34.1158 18.5144C37.6526 19.8748 40.1095 22.3143 41.4397 25.8483C41.4825 25.983 41.5625 26.1029 41.6705 26.1942C41.7785 26.2855 41.91 26.3444 42.0501 26.3643C43.9124 26.7396 45.1956 28.491 44.9452 30.3049C44.6792 32.3534 43.1299 33.7451 41.205 33.6825C40.2686 33.6672 39.3736 33.294 38.7041 32.6396C38.0346 31.9851 37.6415 31.0993 37.6056 30.1641C37.5274 28.5848 38.0595 27.6622 39.7496 26.5363ZM41.252 31.8686C41.5053 31.8727 41.7569 31.8265 41.9922 31.7325C42.2275 31.6384 42.4416 31.4986 42.6223 31.321C42.8029 31.1434 42.9463 30.9317 43.0442 30.6982C43.1421 30.4647 43.1925 30.214 43.1925 29.9609C43.1946 29.7131 43.1475 29.4674 43.0541 29.238C42.9606 29.0085 42.8226 28.7998 42.648 28.6239C42.4734 28.448 42.2657 28.3084 42.0368 28.2131C41.808 28.1178 41.5625 28.0688 41.3146 28.0688C40.1878 28.0531 39.374 28.835 39.374 29.9452C39.3633 30.1967 39.4042 30.4477 39.4942 30.6828C39.5841 30.9179 39.7213 31.1321 39.8972 31.3122C40.0731 31.4924 40.284 31.6347 40.517 31.7304C40.75 31.8261 41.0001 31.8731 41.252 31.8686ZM28.1064 18.6551C28.0908 19.781 28.8889 20.5942 29.9844 20.6098C30.2395 20.6185 30.4937 20.5747 30.7312 20.4812C30.9687 20.3876 31.1844 20.2462 31.3649 20.0659C31.5454 19.8855 31.6869 19.67 31.7805 19.4327C31.8741 19.1954 31.918 18.9414 31.9092 18.6864C31.9092 18.1832 31.7102 17.7003 31.3556 17.343C31.0009 16.9856 30.5193 16.7828 30.0156 16.7787C29.767 16.7766 29.5203 16.8235 29.2898 16.9167C29.0593 17.0099 28.8494 17.1475 28.6721 17.3218C28.4948 17.496 28.3536 17.7035 28.2565 17.9323C28.1595 18.161 28.1085 18.4067 28.1064 18.6551ZM18.7167 31.8686C19.8435 31.8686 20.6416 31.0555 20.626 29.9452C20.6103 28.835 19.8122 28.0531 18.6854 28.0688C18.4369 28.0687 18.1908 28.1183 17.9618 28.2148C17.7327 28.3112 17.5253 28.4525 17.3517 28.6303C17.1782 28.8081 17.042 29.0188 16.9512 29.25C16.8604 29.4812 16.8169 29.7282 16.8232 29.9765C16.8211 30.2256 16.8686 30.4725 16.963 30.703C17.0575 30.9335 17.1969 31.1429 17.3731 31.3191C17.5494 31.4952 17.7589 31.6345 17.9896 31.7288C18.2203 31.8232 18.4675 31.8707 18.7167 31.8686ZM28.1064 41.2197C28.098 41.4685 28.14 41.7165 28.23 41.9487C28.32 42.1809 28.4561 42.3924 28.6301 42.5707C28.8041 42.7489 29.0124 42.8901 29.2424 42.9858C29.4725 43.0815 29.7195 43.1296 29.9687 43.1274C31.0955 43.143 31.8936 42.3455 31.8936 41.2353C31.8936 40.1251 31.0955 39.3119 29.9844 39.3276C29.7358 39.3254 29.4894 39.373 29.2596 39.4676C29.0297 39.5621 28.8212 39.7016 28.6461 39.878C28.4711 40.0543 28.3332 40.2639 28.2405 40.4943C28.1478 40.7247 28.1022 40.9714 28.1064 41.2197Z" fill="#E9623E"/>
<path d="M51.1735 33.8701C49.7807 42.1735 42.6445 50.3361 32.0655 51.462L34.4129 53.6512L33.1923 54.8709C31.7525 53.4479 30.3127 52.0093 28.9043 50.5863C30.2971 49.2258 31.7368 47.7872 33.2079 46.3173L34.3347 47.5214L32.3159 49.4135C34.6946 49.8826 40.6727 47.0992 43.5835 44.3314C46.4943 41.5636 48.607 37.795 49.452 33.5886C49.5986 33.5895 49.745 33.6 49.8902 33.6199L51.1735 33.8701Z" fill="#E9623E"/>
<path d="M27.981 8.47533L25.6806 6.28612L26.8856 5.06641L31.1735 9.30411L26.823 13.6512L25.6023 12.3846L27.5741 10.5394L27.4489 10.3831C23.3187 10.898 19.4626 12.7231 16.4474 15.5903C13.3331 18.5144 11.3926 22.1266 10.5632 26.3643L8.87305 26.0672C9.76507 19.4057 15.8058 9.96086 27.981 8.47533Z" fill="#E9623E"/>
<path d="M51.4713 27.8967C52.2694 27.0836 52.9736 26.333 53.7405 25.5355C54.163 26.0516 54.5229 26.4894 54.8829 26.896L50.6575 31.0867L46.3539 26.7865L47.5902 25.5824L49.4369 27.5527L49.5933 27.4276C49.03 23.2212 47.3085 19.5308 44.3977 16.4347C41.4869 13.3385 37.8563 11.3682 33.5996 10.5238C33.7092 9.92958 33.8031 9.36664 33.9126 8.81934C41.9095 10.1329 50.2193 16.8725 51.4713 27.8967Z" fill="#E9623E"/>
<path d="M13.6618 33.1352L12.4099 34.3549C11.8152 33.6981 11.1892 33.0414 10.5789 32.3846L10.4068 32.5097C10.9231 36.6333 12.7433 40.4846 15.6024 43.5027C18.5288 46.6145 22.1438 48.5535 26.4005 49.3979C26.3066 49.9921 26.197 50.5551 26.1031 51.118C18.2628 49.8514 9.82772 43.2056 8.54446 32.1657L6.33789 34.4331L5.08594 33.0727L9.34258 28.835L13.6618 33.1352Z" fill="#E9623E"/>
<path d="M25.3365 30.8366V29.1008H27.1518V30.8366H25.3365Z" fill="#E9623E"/>
<path d="M30.9077 29.0852V30.8209H29.108V29.0852H30.9077Z" fill="#E9623E"/>
<path d="M34.6635 30.8522H32.8482V29.0852H34.6635V30.8522Z" fill="#E9623E"/>
</g>
<defs>
<clipPath id="clip0_239_456">
<rect width="60" height="60" fill="white"/>
</clipPath>
</defs>
</svg>
