<svg width="44" height="30" viewBox="0 0 44 30" fill="none" xmlns="http://www.w3.org/2000/svg">
<g clip-path="url(#clip0_417_130)">
<path d="M0 5.5498C2.41096 7.11864 4.83269 8.67682 7.24365 10.2563L14.3689 14.9095L14.8425 15.2296L0 24.5573V5.5498Z" fill="#555555"/>
<path d="M22.0108 0H41.1693C42.4501 0.0106724 43.4941 0.779104 43.8493 1.94239C43.9354 2.24122 43.8601 2.39063 43.6125 2.55071C37.2838 6.67024 30.9622 10.7969 24.6478 14.9307L22.2799 16.4781C22.0754 16.6276 21.9247 16.6169 21.7202 16.4781C14.6021 11.8179 7.48045 7.16473 0.355209 2.51869C0.129181 2.36928 0.0753601 2.2412 0.161466 1.97439C0.505889 0.779083 1.53915 0.0106724 2.84149 0H22.0108Z" fill="#555555"/>
<path d="M22 30.0107H2.84148C1.60371 30.0107 0.602735 29.3064 0.204496 28.1965C0.0861011 27.8656 0.107633 27.6628 0.452056 27.4494C4.64253 24.8453 8.81508 22.2306 12.9697 19.6052L17.0705 17.0332C17.275 16.9051 17.4256 16.8945 17.6302 17.0332C18.7495 17.7803 19.8904 18.4953 20.999 19.253C21.6879 19.7226 22.3229 19.7226 23.0118 19.253C24.1204 18.4953 25.2613 17.7803 26.3699 17.0439C26.5851 16.8945 26.7251 16.9051 26.9403 17.0439L43.6233 27.5028C43.8816 27.6628 43.9247 27.8016 43.8386 28.0791C43.4942 29.2423 42.4501 30.0107 41.1693 30.0107H22Z" fill="#555555"/>
<path d="M44 5.52832V24.5358L29.1575 15.2295L44 5.52832Z" fill="#555555"/>
</g>
<defs>
<clipPath id="clip0_417_130">
<rect width="44" height="30" fill="white"/>
</clipPath>
</defs>
</svg>
