<svg width="61" height="60" viewBox="0 0 61 60" fill="none" xmlns="http://www.w3.org/2000/svg">
<g clip-path="url(#clip0_239_480)">
<path d="M60.0313 32.1054C59.9218 32.9037 59.8122 33.7177 59.687 34.5161C58.9043 39.6974 56.8693 44.3308 53.6604 48.4634L53.2847 48.9799H55.8049C56.5876 48.9799 57.0415 49.3713 57.0415 49.9974C57.0415 50.6235 56.5875 50.9836 55.8362 50.9836H51.2028C50.3731 50.9836 50.0287 50.6392 50.0131 49.8252C49.9974 48.2755 49.9974 46.7258 50.0131 45.1918C50.0131 44.4247 50.4514 43.9395 51.0618 43.9708C51.6723 44.0021 52.048 44.4717 52.048 45.1918C52.048 45.9118 52.0637 46.3658 52.0637 46.945L52.1107 47.0858L52.4707 46.6476C55.2727 42.8594 57.0572 38.6486 57.699 33.9838C58.8104 25.9066 56.838 18.6434 51.7193 12.3193C47.3833 6.96582 41.7637 3.63161 34.9544 2.4576C27.1589 1.11139 20.0053 2.77068 13.556 7.35716C13.149 7.65458 12.6794 7.92068 12.2411 7.545C11.9683 7.2871 11.8056 6.93378 11.7871 6.55882C11.7715 6.32402 12.0219 5.9953 12.2567 5.82311C15.8913 3.10532 20.1093 1.27231 24.5761 0.469606C25.6405 0.281764 26.7206 0.156535 27.8007 0H32.1367C32.2792 0.0462057 32.4261 0.0776736 32.575 0.0939174C36.238 0.391335 39.7287 1.29923 43.0003 2.94285C52.3298 7.63892 57.9181 15.1526 59.687 25.4683C59.8278 26.2979 59.9218 27.1589 60.0313 28.0042V32.1054Z" fill="#E9623E"/>
<path d="M16.5771 11.7557C17.1093 11.9279 17.5476 12.0531 17.9546 12.2097C18.7842 12.554 19.5982 13.1802 20.4278 13.1958C21.2575 13.2115 22.0558 12.601 22.8541 12.2723C23.1516 12.1627 23.4333 12.0061 23.7307 11.9592C24.67 11.8026 25.1709 11.2861 25.4057 10.3782C25.5622 9.75204 25.8753 9.17286 26.1101 8.57802C26.5171 7.59185 27.2684 7.0753 28.3329 7.04399C29.3973 7.01268 30.587 7.01268 31.7141 7.04399C32.8411 7.0753 33.5299 7.5762 33.9368 8.57802C34.3438 9.57985 34.61 10.3156 35.0013 11.1765C35.1231 11.3998 35.3159 11.5761 35.5492 11.6774C36.7232 12.194 37.9128 12.6949 39.1025 13.1489C39.3369 13.2472 39.5999 13.2528 39.8382 13.1645C40.6992 12.8358 41.5288 12.4601 42.3741 12.1001C43.2194 11.74 44.2056 11.8026 44.9726 12.5071C45.7396 13.2115 46.7258 14.229 47.5711 15.1212C48.4164 16.0135 48.3381 16.6239 47.9624 17.5162C47.5867 18.4084 47.1954 19.3007 46.851 20.2086C46.7677 20.4489 46.7789 20.7119 46.8823 20.9443C47.3363 22.1183 47.8215 23.2923 48.3224 24.4507C48.4361 24.699 48.6287 24.9026 48.8703 25.0299C49.6999 25.4056 50.5609 25.7343 51.4062 26.0787C52.2515 26.4231 52.9403 27.2527 52.9716 28.3328C53.0029 29.4129 53.0028 30.5556 52.9872 31.667C52.9715 32.7784 52.4393 33.5141 51.4218 33.9211C50.4044 34.3281 49.7156 34.5785 48.8703 34.9542C48.6321 35.0859 48.4407 35.2883 48.3224 35.5334C47.8215 36.6918 47.3363 37.8658 46.8823 39.0398C46.7822 39.2722 46.7656 39.5322 46.8353 39.7755C47.1641 40.6365 47.5398 41.4661 47.9155 42.3114C48.2911 43.1567 48.2285 44.1898 47.4928 44.9568C46.7571 45.7239 45.8335 46.6631 44.9726 47.477C44.1116 48.291 43.329 48.3067 42.3585 47.884C41.3879 47.4614 40.6522 47.1327 39.7913 46.7883C39.5647 46.7208 39.322 46.7318 39.1025 46.8196C37.9285 47.2892 36.7545 47.7745 35.5961 48.291C35.3306 48.4041 35.1103 48.6024 34.97 48.8546C34.61 49.6529 34.3125 50.4825 33.9838 51.2965C33.5612 52.3766 32.7472 52.9245 31.6045 52.9401C30.4618 52.9558 29.4599 52.9714 28.3798 52.9401C27.2997 52.9088 26.5014 52.3923 26.0788 51.3591C25.6561 50.326 25.4213 49.6372 25.0456 48.8076C24.9298 48.5761 24.7357 48.3931 24.4978 48.291C23.3237 47.7745 22.1497 47.2892 20.9444 46.8196C20.7249 46.7318 20.4822 46.7208 20.2557 46.7883C19.3947 47.1327 18.5338 47.5084 17.6885 47.884C16.8432 48.2597 15.8414 48.1815 15.0743 47.4614C14.3073 46.7413 13.3837 45.8021 12.5541 44.9412C11.7245 44.0802 11.7088 43.2819 12.1471 42.2957C12.5854 41.3096 12.8985 40.5895 13.2429 39.7129C13.3032 39.5066 13.2922 39.286 13.2116 39.0868C12.7211 37.8762 12.2202 36.6709 11.7088 35.4708C11.5946 35.2398 11.4076 35.0528 11.1766 34.9386C10.3783 34.5942 9.5643 34.2811 8.75032 33.9681C7.63892 33.5298 7.07538 32.7158 7.05973 31.5418C7.04408 30.3677 7.04405 29.4285 7.07536 28.3797C7.10667 27.331 7.63889 26.4544 8.68768 26.0474C9.73647 25.6404 10.3626 25.4056 11.1766 25.0299C11.4113 24.9209 11.5998 24.7324 11.7088 24.4977C12.241 23.308 12.7263 22.1027 13.2116 20.8974C13.2922 20.6927 13.3032 20.4671 13.2429 20.2556C12.8828 19.3633 12.4915 18.5024 12.1158 17.6258C11.7401 16.7492 11.834 15.81 12.5228 15.0742C13.2116 14.3385 14.2603 13.2741 15.1839 12.4445C15.5752 12.1001 16.1388 11.9592 16.5771 11.7557ZM29.9922 50.9365H31.401C31.8236 50.9365 32.0428 50.733 32.1993 50.326C32.5437 49.3398 32.9663 48.3693 33.342 47.3988C33.5298 46.9135 33.8742 46.6787 34.3439 46.5065C35.784 45.9587 37.1928 45.3795 38.6016 44.7533C39.1025 44.5185 39.5408 44.4559 40.0417 44.6751C40.9966 45.0977 41.9828 45.489 42.9376 45.9273C43.3133 46.0995 43.5794 46.0682 43.8612 45.7708C44.5186 45.0821 45.1761 44.4246 45.8492 43.7828C46.1153 43.5167 46.1309 43.2662 45.9744 42.9375C45.5518 41.9827 45.1604 40.9965 44.7378 40.0416C44.4873 39.5251 44.55 39.0711 44.7848 38.5545C45.4266 37.177 46.0057 35.7682 46.5379 34.3594C46.7258 33.8272 46.9762 33.4828 47.5085 33.295C48.479 32.9193 49.4495 32.4966 50.4357 32.1366C50.78 32.0114 50.9679 31.8392 50.9522 31.4791C50.9522 30.493 50.9523 29.5224 50.9679 28.5519C50.9679 28.1449 50.7644 27.9727 50.4044 27.8475L47.4772 26.6892C46.9762 26.5013 46.7258 26.1569 46.5379 25.656C45.9901 24.2316 45.4109 22.8071 44.7848 21.4139C44.55 20.8974 44.4873 20.4747 44.7221 19.9738C45.1604 18.9876 45.5831 18.0171 45.9588 17.0153C46.0005 16.8876 46.0123 16.752 45.9933 16.619C45.9743 16.486 45.925 16.3592 45.8492 16.2483C45.1918 15.5282 44.4717 14.8708 43.7986 14.1663C43.5325 13.8846 43.282 13.9002 42.9689 14.0411C41.9984 14.4794 41.0279 14.8707 40.073 15.2934C39.5408 15.5282 39.1025 15.4656 38.5703 15.2151C37.1928 14.589 35.7996 14.0098 34.3752 13.4776C33.8742 13.2897 33.5298 13.0549 33.342 12.554C32.9507 11.5365 32.5593 10.5191 32.121 9.53288C32.0697 9.41961 31.9915 9.32053 31.8934 9.24418C31.7952 9.16782 31.6799 9.11649 31.5575 9.0946C30.5557 9.04764 29.5695 9.06328 28.5677 9.06328C28.2076 9.06328 28.0198 9.23547 27.8946 9.57985C27.5189 10.5973 27.0806 11.5992 26.6893 12.6166C26.5171 13.0706 26.1884 13.2897 25.7344 13.4776C24.2943 14.0255 22.8542 14.6203 21.4297 15.2464C20.9444 15.4656 20.5374 15.5282 20.0522 15.3247C19.066 14.8864 18.0798 14.4951 17.0936 14.0411C16.7336 13.8846 16.4832 13.9159 16.217 14.1976C15.5439 14.8864 14.8395 15.5438 14.2134 16.2483C14.1352 16.355 14.0831 16.4785 14.0613 16.609C14.0396 16.7395 14.0488 16.8733 14.0882 16.9996C14.4638 18.0015 14.9021 18.9876 15.3404 19.9582C15.5596 20.4747 15.497 20.8974 15.2778 21.4139C14.636 22.8071 14.0569 24.2316 13.509 25.656C13.3368 26.1256 13.1176 26.47 12.6324 26.6579C11.6149 27.0492 10.6131 27.4875 9.59559 27.8632C9.23556 27.9884 9.09469 28.1919 9.09469 28.5363V31.4635C9.09469 31.8235 9.28254 31.9957 9.61126 32.1209C10.5818 32.481 11.5366 32.9036 12.4915 33.2637C13.055 33.4671 13.3368 33.8428 13.5403 34.4063C14.0412 35.7839 14.6204 37.1457 15.2309 38.4919C15.4813 39.0241 15.5753 39.4937 15.3248 40.0416C14.8865 40.9965 14.5108 41.9827 14.0725 42.9375C13.9316 43.2662 13.9316 43.5167 14.1977 43.7672C14.8552 44.3933 15.4813 45.0351 16.0918 45.6925C16.4675 46.0995 16.8119 46.0839 17.2815 45.8647C18.2207 45.4264 19.1599 45.0038 20.1304 44.6594C20.526 44.5298 20.9557 44.5521 21.3357 44.722C22.7282 45.5038 24.2105 46.1135 25.75 46.5378C25.9623 46.5795 26.1596 46.6769 26.3219 46.8199C26.4842 46.9629 26.6056 47.1465 26.6736 47.3518C26.9084 47.978 27.1745 48.6041 27.425 49.2459C28.1137 50.9678 28.1137 50.9678 29.9922 50.9365Z" fill="#E9623E"/>
<path d="M7.81114 12.8358C6.9815 14.1664 6.08922 15.4499 5.3535 16.8275C2.72371 21.727 1.62798 26.9553 2.1602 32.4653C2.92722 40.4643 6.49623 46.9918 12.7733 52.0009C16.6859 55.1497 21.405 57.135 26.3919 57.7301C33.5455 58.638 40.1357 57.0414 46.084 52.9245L46.5536 52.5801C47.2111 52.1262 47.7746 52.1731 48.1503 52.7053C48.526 53.2376 48.3538 53.8011 47.7433 54.2237C46.8197 54.8499 45.8805 55.5073 44.91 56.0552C39.5252 59.1129 33.7542 60.3912 27.5972 59.8903C21.8347 59.4317 16.3282 57.3149 11.7423 53.7956C7.15632 50.2763 3.68704 45.5049 1.75319 40.0573C0.239401 35.8392 -0.301054 31.3334 0.172209 26.877C0.740722 21.1943 2.94871 15.7994 6.52752 11.3487L6.76232 11.0043C6.44925 11.0043 6.19879 11.0513 5.97965 10.9887C4.96217 10.7226 3.52204 11.7557 3.00547 10.0182C3.50639 8.1867 4.97785 9.20418 6.01098 9.01634C7.04412 8.82849 7.87374 8.98502 8.81295 8.98502C9.75216 8.98502 10.0339 9.32941 10.0339 10.1904C10.0496 11.7401 10.0496 13.2741 10.0339 14.8238C10.0339 15.5595 9.61129 16.0135 9.01645 16.0135C8.42162 16.0135 8.01463 15.5282 7.99897 14.7612V12.9141L7.81114 12.8358Z" fill="#E9623E"/>
<path d="M30.0235 44.9883C28.0483 44.9904 26.0923 44.6019 24.2678 43.845C22.4434 43.0882 20.7866 41.9781 19.3928 40.5785C17.9991 39.179 16.8959 37.5176 16.1467 35.69C15.3975 33.8624 15.0171 31.9047 15.0274 29.9296C15.0274 21.6489 21.7428 14.9961 30.0705 14.9961C38.3982 14.9961 45.0352 21.7115 45.0352 30.0705C45.0352 38.4295 38.3042 44.9883 30.0235 44.9883ZM43.0316 29.9765C43.016 22.8229 37.1302 16.9684 29.9922 16.9998C22.8542 17.0311 17.0311 22.8698 17.0311 29.9765C17.0311 37.0833 22.8855 43.0003 30.0235 42.9846C37.1615 42.969 43.0473 37.1146 43.0316 29.9765Z" fill="#E9623E"/>
<path d="M28.9904 36.7075C28.9904 34.8447 29.006 33.0289 28.9747 31.2131C28.9747 31.0722 28.7243 30.853 28.5521 30.8061C26.4389 30.086 25.03 28.2232 24.9987 26.0787C24.9841 25.0067 25.3138 23.9583 25.9393 23.0877C26.5648 22.217 27.4532 21.57 28.4738 21.2418C28.8808 21.1009 29.0373 20.9443 29.006 20.5217C28.9802 20.2488 29.0013 19.9734 29.0686 19.7077C29.1165 19.4939 29.2389 19.3042 29.4138 19.1723C29.5887 19.0403 29.8048 18.9749 30.0235 18.9876C30.2388 18.9801 30.4503 19.0456 30.6236 19.1735C30.797 19.3014 30.922 19.4841 30.9784 19.6921C31.021 19.7629 31.0427 19.8443 31.041 19.9269C30.8062 20.913 31.448 21.1635 32.215 21.5079C33.9369 22.3062 34.8291 23.7776 35.0326 25.656C35.1266 26.4074 34.7509 26.924 34.1247 26.9866C33.4986 27.0492 33.0759 26.6422 32.9977 25.8596C32.8411 24.5133 32.1837 23.6211 31.0567 23.2767V24.9516C31.0567 26.1726 31.0723 27.3779 31.0567 28.5833C31.041 28.9277 31.1192 29.0842 31.4949 29.2094C32.5199 29.5155 33.419 30.1437 34.059 31.0008C34.699 31.8579 35.0459 32.8984 35.0483 33.9681C35.064 36.1752 33.6708 38.0537 31.4636 38.7737C31.1506 38.8833 31.0253 39.0085 31.0567 39.3529C31.0748 39.6414 31.0538 39.931 30.994 40.2138C30.9593 40.442 30.8404 40.6488 30.6608 40.7937C30.4811 40.9385 30.2538 41.0109 30.0235 40.9965C29.5226 40.9965 29.1939 40.7148 29.053 40.2295C29.032 40.1737 29.0163 40.116 29.006 40.0573C29.2095 39.1181 28.6773 38.8363 27.8946 38.492C26.1101 37.6936 25.1866 36.2065 25.0144 34.2655C24.9518 33.5454 25.3118 33.0602 25.9223 32.9976C26.5328 32.9349 26.9554 33.3419 27.0493 34.062C27.2528 35.5021 27.8476 36.3631 28.9904 36.7075ZM28.9904 23.2611C27.7224 23.6837 27.018 24.8734 27.065 26.2196C27.0806 27.2058 28.0981 28.6459 28.9591 28.6615C28.9779 28.5319 28.9883 28.4012 28.9904 28.2702V23.2611ZM31.088 36.6918C32.215 36.3787 32.9977 35.2204 32.9977 33.9681C32.9977 32.7158 32.1994 31.5887 31.088 31.2913V36.6918Z" fill="#E9623E"/>
</g>
<defs>
<clipPath id="clip0_239_480">
<rect width="60.0313" height="60" fill="white"/>
</clipPath>
</defs>
</svg>
