<svg width="60" height="60" viewBox="0 0 60 60" fill="none" xmlns="http://www.w3.org/2000/svg">
<path d="M48.051 17.225L47.9263 17.4839L47.7092 17.9348L47.7036 17.9465L47.6974 17.9579C47.5741 18.1831 47.4502 18.4058 47.3271 18.627C46.9602 19.2865 46.5999 19.934 46.2823 20.604C46.2257 20.7554 46.2273 20.9227 46.2872 21.0733L46.289 21.0777C46.7692 22.3196 47.2997 23.5633 47.8479 24.776L47.8512 24.7832L47.8542 24.7904C47.9139 24.9343 48.0242 25.051 48.1639 25.1188C49.1087 25.4437 50.0563 25.7215 51.0256 25.9844C51.2824 26.0494 51.545 26.1701 51.7187 26.4236C51.8852 26.6666 51.9091 26.9451 51.9 27.1817C51.8834 29.0466 51.8835 30.9096 51.9167 32.7716L51.9169 32.7805H51.9168C51.9168 33.069 51.8694 33.3714 51.6654 33.6197C51.4671 33.8611 51.1889 33.966 50.9456 34.0315L50.939 34.0332L50.939 34.0332C50.4951 34.1462 50.0526 34.2841 49.5945 34.4284L49.5132 34.454C49.0843 34.5892 48.6413 34.7289 48.1897 34.8499L48.1816 34.852L48.1816 34.852C48.0429 34.8867 47.9845 34.927 47.9493 34.9617C47.9081 35.0021 47.8565 35.0763 47.7937 35.2438C47.3386 36.4573 46.8332 37.6703 46.2942 38.8495M48.051 17.225L45.8393 38.6419M48.051 17.225L47.8901 16.987C47.7896 16.8384 47.6765 16.6986 47.5521 16.5694L47.5521 16.5694L47.5477 16.5649C47.0023 16.0129 46.4544 15.4636 45.9064 14.9143C45.0877 14.0936 44.2689 13.2728 43.4585 12.4424L43.4585 12.4424L43.4542 12.4381C43.2613 12.2452 43.0257 12.0959 42.7307 12.0814C42.4576 12.068 42.2247 12.1775 42.0563 12.271L42.0528 12.273C41.6648 12.4926 41.2702 12.7025 40.8681 12.9164C40.8188 12.9426 40.7694 12.9689 40.7198 12.9953C40.271 13.2342 39.8145 13.4793 39.3645 13.7423C39.2701 13.7934 39.2178 13.7975 39.1798 13.7954C39.1263 13.7923 39.0473 13.7725 38.8973 13.705L38.8928 13.703C37.6709 13.1674 36.4428 12.6457 35.1952 12.1737L35.1695 12.164L35.1429 12.1571C35.0759 12.1399 35.0152 12.1042 34.9676 12.0541C34.92 12.004 34.8875 11.9415 34.8737 11.8738L34.87 11.8558L34.8651 11.8382C34.7443 11.4078 34.6101 10.9776 34.4784 10.5553C34.4619 10.5024 34.4454 10.4496 34.429 10.3969C34.2809 9.92123 34.1378 9.45506 34.0158 8.99127C33.9565 8.76423 33.8549 8.5024 33.6266 8.31436C33.3903 8.11979 33.1057 8.07386 32.8357 8.08352C30.9562 8.10011 29.0602 8.1001 27.1807 8.08351C26.8933 8.07391 26.5971 8.1245 26.3555 8.32962C26.1261 8.52441 26.0265 8.79282 25.9684 9.02264C25.7053 9.95965 25.4279 10.9059 25.1194 11.8175C25.0458 11.9639 24.9253 12.0817 24.7768 12.1519C23.5419 12.686 22.3174 13.2153 21.0779 13.6946L21.0779 13.6946L21.0734 13.6963C20.9228 13.7562 20.7555 13.7579 20.604 13.7013C19.7129 13.279 18.8509 12.7916 17.9707 12.2934C17.7341 12.1505 17.4577 12.0435 17.1476 12.0991C16.8505 12.1523 16.6294 12.3381 16.4627 12.5049L16.4626 12.5048L16.456 12.5116C15.1599 13.8576 13.8298 15.1711 12.4945 16.4897C12.3304 16.645 12.1506 16.8556 12.096 17.1421C12.0385 17.444 12.1398 17.7144 12.2795 17.9418C12.5317 18.3733 12.7688 18.8146 13.0079 19.2637C13.0341 19.313 13.0604 19.3623 13.0867 19.4117C13.2992 19.8114 13.515 20.2171 13.7409 20.6163C13.7934 20.7124 13.7976 20.7654 13.7955 20.8037C13.7924 20.8573 13.7726 20.9363 13.7051 21.0863L13.7044 21.0878C13.4257 21.7127 13.1686 22.3407 12.9149 22.9605L12.9135 22.964C12.6583 23.5872 12.4065 24.2021 12.1347 24.8117L12.1346 24.8117L12.132 24.8179C12.0778 24.9439 11.9788 25.0451 11.8543 25.102C10.935 25.4331 9.99886 25.7158 9.04989 25.949C8.75095 26.0212 8.45909 26.1543 8.27187 26.4351C8.09559 26.6995 8.07491 27.0052 8.08361 27.264C8.10021 29.0771 8.1002 30.8735 8.08361 32.6866M48.051 17.225L9.08638 34.0353M46.2942 38.8495C46.2941 38.8496 46.2941 38.8497 46.2941 38.8498L45.8393 38.6419M46.2942 38.8495C46.2943 38.8492 46.2944 38.849 46.2945 38.8488L45.8393 38.6419M46.2942 38.8495C46.2204 39.0119 46.1975 39.1043 46.1949 39.1704C46.1929 39.2226 46.202 39.2915 46.2698 39.4062L46.2724 39.4107C46.5276 39.8529 46.765 40.3024 46.9974 40.7423L46.9995 40.7462C47.2329 41.188 47.4613 41.6202 47.705 42.043M45.8393 38.6419C45.6723 39.0093 45.6222 39.2932 45.8393 39.6605C46.0898 40.0947 46.3236 40.5372 46.5574 40.9798C46.7912 41.4223 47.025 41.8648 47.2754 42.299M47.705 42.043C47.7035 42.0406 47.7021 42.0382 47.7006 42.0358L47.2754 42.299M47.705 42.043C47.7062 42.0451 47.7074 42.0471 47.7085 42.0491L47.2754 42.299M47.705 42.043C47.845 42.2714 47.9445 42.5404 47.8879 42.842C47.8343 43.1281 47.6568 43.3428 47.4954 43.5042L47.4909 43.5087L47.4909 43.5087C46.1562 44.81 44.8247 46.1249 43.5276 47.4719L43.5211 47.4787L43.521 47.4786C43.3543 47.6453 43.1332 47.8312 42.836 47.8844C42.5253 47.9401 42.2483 47.8324 42.0112 47.6891M47.2754 42.299C47.4925 42.6497 47.4257 42.8668 47.1418 43.1507C45.8059 44.4532 44.47 45.7724 43.1675 47.1251C42.8669 47.4256 42.6498 47.4924 42.2657 47.2586M42.0112 47.6891C42.0127 47.69 42.0143 47.6908 42.0158 47.6917L42.2657 47.2586M42.0112 47.6891C42.0094 47.688 42.0076 47.6869 42.0057 47.6857L42.2657 47.2586M42.0112 47.6891C41.6081 47.4566 41.1968 47.2384 40.7778 47.016L40.7141 46.9822C40.2771 46.7502 39.8323 46.5131 39.3982 46.258M42.2657 47.2586C41.8532 47.0206 41.4331 46.7977 41.0144 46.5755C40.5518 46.33 40.091 46.0855 39.6439 45.8225M39.6439 45.8225L39.4045 46.2615C39.4024 46.2603 39.4003 46.2592 39.3982 46.258M39.6439 45.8225C39.2766 45.6221 39.0261 45.6722 38.6587 45.8392L27.1864 51.4M39.6439 45.8225L39.3904 46.2535C39.393 46.255 39.3956 46.2565 39.3982 46.258M39.3982 46.258C39.281 46.1951 39.2198 46.1901 39.1783 46.1924C39.1202 46.1955 39.0355 46.2172 38.8656 46.2944L38.8618 46.2961C38.3062 46.543 37.7406 46.7757 37.1816 47.0055C37.1278 47.0277 37.0741 47.0498 37.0204 47.0718C36.4065 47.3245 35.8011 47.5758 35.2099 47.8468L35.2016 47.8506L35.1931 47.8541C35.05 47.9135 34.9336 48.023 34.8657 48.1618M34.8657 48.1618C34.8687 48.1528 34.8717 48.1438 34.8747 48.1348L34.4004 47.9767L34.8567 48.1812C34.8596 48.1747 34.8626 48.1682 34.8657 48.1618ZM34.8657 48.1618C34.5532 49.1003 34.2601 50.0309 34.0161 50.9742L34.016 50.9744C33.9435 51.2542 33.8147 51.5326 33.5475 51.7137C33.2934 51.886 33.0021 51.9087 32.7548 51.9M32.7548 51.9H32.7639V51.4L32.7447 51.8997C32.748 51.8998 32.7514 51.8999 32.7548 51.9ZM32.7548 51.9H27.1958M27.1958 51.9C27.1993 51.8999 27.2029 51.8998 27.2064 51.8996L27.1864 51.4M27.1958 51.9C26.9542 51.9087 26.6692 51.8854 26.4205 51.7122C26.163 51.5328 26.0402 51.2608 25.9688 50.9956L25.9681 50.9929C25.8247 50.4482 25.6668 49.9281 25.5058 49.3981C25.3823 48.9915 25.257 48.579 25.1353 48.1452L25.1343 48.1417C25.1002 48.0167 25.0644 47.9687 25.0377 47.942C25.0059 47.9102 24.9442 47.8665 24.7945 47.812L24.7919 47.8111C23.5641 47.3569 22.3336 46.8515 21.1514 46.2944M27.1958 51.9H27.1864V51.4M27.1864 51.4L21.1514 46.2944M21.1514 46.2944C21.1532 46.2952 21.1551 46.296 21.157 46.2969L21.3584 45.8392L21.1452 46.2915C21.1472 46.2925 21.1493 46.2934 21.1514 46.2944ZM21.1514 46.2944C20.9841 46.2214 20.8818 46.2037 20.8089 46.2055C20.7411 46.2071 20.657 46.2265 20.5273 46.3031L20.5201 46.3073L20.5201 46.3073C20.0875 46.5532 19.6476 46.7859 19.2155 47.0144L19.2125 47.016C18.7798 47.2448 18.3549 47.4696 17.9392 47.7057M21.1514 46.2944L17.6846 47.2753M17.9392 47.7057C17.942 47.704 17.9449 47.7022 17.9477 47.7005L17.6846 47.2753M17.9392 47.7057C17.9367 47.7072 17.9342 47.7086 17.9317 47.71L17.6846 47.2753M17.9392 47.7057C17.7123 47.8446 17.4429 47.9449 17.1422 47.8876C16.8556 47.833 16.645 47.6531 16.4898 47.489M17.6846 47.2753C17.3339 47.4924 17.1168 47.4256 16.8496 47.1418M16.4898 47.489C16.4911 47.4904 16.4925 47.4917 16.4938 47.4931L16.8496 47.1418M16.4898 47.489C15.1712 46.1537 13.8577 44.8236 12.5117 43.5275L12.5049 43.521L12.505 43.5209C12.3382 43.3542 12.1524 43.1331 12.0992 42.8359C12.0434 42.5245 12.1516 42.247 12.2954 42.0096M16.4898 47.489C16.4884 47.4875 16.4869 47.486 16.4855 47.4844L16.8496 47.1418M16.8496 47.1418C15.5304 45.8058 14.2111 44.4699 12.8585 43.1674L12.2954 42.0096M12.2954 42.0096C12.2947 42.0108 12.294 42.012 12.2933 42.0132L12.7249 42.2656L12.2978 42.0056C12.297 42.007 12.2962 42.0083 12.2954 42.0096ZM12.2954 42.0096C12.8046 41.1388 13.2779 40.2736 13.7013 39.3796M12.2954 42.0096L12.608 35.0015M13.7013 39.3796C13.6997 39.3838 13.6981 39.388 13.6964 39.3923L14.161 39.577L13.709 39.3633C13.7065 39.3688 13.7039 39.3742 13.7013 39.3796ZM13.7013 39.3796C13.758 39.2281 13.7563 39.0607 13.6964 38.9102L13.6947 38.9057C13.2151 37.6653 12.685 36.4225 12.1525 35.2077M12.1525 35.2077C12.1531 35.2091 12.1538 35.2104 12.1544 35.2118L12.608 35.0015M12.1525 35.2077C12.1517 35.2059 12.1509 35.204 12.1501 35.2022L12.608 35.0015M12.1525 35.2077C12.0821 35.0584 11.9637 34.9373 11.8165 34.8635M12.608 35.0015C12.485 34.7363 12.272 34.5233 12.0069 34.4003M11.8165 34.8635C11.8255 34.8667 11.8346 34.8698 11.8436 34.8729L12.0069 34.4003M11.8165 34.8635C10.9142 34.5523 10.0059 34.2613 9.08638 34.0353M11.8165 34.8635C11.8099 34.8602 11.8032 34.857 11.7965 34.8539L12.0069 34.4003M12.0069 34.4003L9.08638 34.0353M9.08638 34.0353C9.08801 34.0356 9.08964 34.036 9.09127 34.0364L9.2014 33.5486L9.08213 34.0342C9.08355 34.0346 9.08496 34.0349 9.08638 34.0353ZM9.08638 34.0353C8.77836 33.9651 8.47322 33.8355 8.27802 33.5471C8.09377 33.2749 8.07508 32.9556 8.08361 32.6866M8.08361 32.6866C8.08359 32.6885 8.08357 32.6905 8.08355 32.6924L8.58353 32.697L8.08381 32.6803C8.08374 32.6824 8.08367 32.6845 8.08361 32.6866ZM60.0002 30.0084C60.009 26.0652 59.2388 22.1591 57.7339 18.5143C56.2289 14.8696 54.0189 11.558 51.2306 8.76968C48.4423 5.98139 45.1307 3.77133 41.4859 2.26639C37.8412 0.761445 33.9351 -0.00873211 29.9918 7.46818e-05C26.0556 -0.00651126 22.1568 0.763089 18.5183 2.26484C14.8798 3.7666 11.5732 5.97104 8.78756 8.75202C6.00192 11.533 3.79196 14.836 2.28412 18.4719C0.776284 22.1079 0.000162054 26.0054 0.000167564 29.9416L60.0002 30.0084ZM60.0002 30.0084C60.0024 33.9518 59.2265 37.8569 57.7169 41.4999M60.0002 30.0084L57.7169 41.4999M57.7169 41.4999C56.2073 45.143 53.9938 48.4523 51.203 51.2384M57.7169 41.4999L51.203 51.2384M51.203 51.2384C48.4123 54.0245 45.0993 56.2325 41.4537 57.736M51.203 51.2384L41.4537 57.736M41.4537 57.736C37.8082 59.2395 33.9018 60.0089 29.9584 60.0001L41.4537 57.736ZM59.5002 30.0073V30.0087C59.5024 33.8863 58.7394 37.7263 57.255 41.3085C55.7706 44.8908 53.594 48.1449 50.8498 50.8845C48.1056 53.6241 44.8478 55.7953 41.2631 57.2738C37.6784 58.7522 33.8372 59.5087 29.9595 59.5001H29.9584C26.0816 59.5001 22.2429 58.7349 18.6624 57.2483C15.082 55.7617 11.8301 53.5831 9.09338 50.8372C6.35664 48.0913 4.18882 44.8322 2.71421 41.2467C1.2396 37.6613 0.487199 33.8201 0.500168 29.9433V29.9416C0.500162 26.0712 1.26332 22.2387 2.74598 18.6635C4.22864 15.0882 6.40169 11.8404 9.14081 9.10587C11.8799 6.37133 15.1314 4.2037 18.7091 2.72702C22.2868 1.25035 26.1205 0.493598 29.991 0.500078L29.9929 0.500073C33.8703 0.491414 37.7112 1.24873 41.2951 2.72854C44.879 4.20835 48.1353 6.38151 50.877 9.12324C53.6188 11.865 55.7919 15.1213 57.2717 18.7051C58.7515 22.289 59.5089 26.1299 59.5002 30.0073Z" stroke="#E9623E"/>
<path d="M30.0361 21.8582L30.0361 21.8583L30.0429 21.8583C31.1143 21.856 32.1753 22.0672 33.1641 22.4795C34.1529 22.8918 35.0497 23.497 35.8021 24.2596C36.5545 25.0223 37.1474 25.9271 37.5463 26.9214C37.9452 27.9157 38.142 28.9795 38.1253 30.0507L38.1253 30.0507V30.0586C38.1254 31.1286 37.9126 32.1879 37.4994 33.1749C37.0862 34.1619 36.4807 35.0568 35.7183 35.8075C34.9559 36.5582 34.0517 37.1498 33.0584 37.5477C32.0652 37.9456 31.0027 38.1419 29.9328 38.1252V38.1252L29.926 38.1252C28.8605 38.1231 27.8059 37.9104 26.8228 37.4994C25.8398 37.0883 24.9478 36.4869 24.198 35.7298C23.4482 34.9727 22.8555 34.0749 22.454 33.0879C22.0525 32.101 21.85 31.0444 21.8583 29.9789H21.8584L21.8583 29.973C21.8541 28.9009 22.0632 27.8386 22.4734 26.848C22.8837 25.8575 23.4869 24.9584 24.248 24.2032C25.009 23.448 25.9127 22.8517 26.9064 22.4492C27.9001 22.0466 28.964 21.8457 30.0361 21.8582Z" stroke="#E9623E"/>
<rect x="7" y="48.6431" width="58.8921" height="5.92504" transform="rotate(-45 7 48.6431)" fill="#E9623E"/>
</svg>
