<svg width="66" height="53" viewBox="0 0 66 53" fill="none" xmlns="http://www.w3.org/2000/svg">
<path d="M21.192 53.72C27.4796 53.72 33.0374 51.2645 37.009 46.6199C40.9703 41.9874 43.288 35.2576 43.288 26.8H41.288C41.288 34.9024 39.0697 41.1326 35.489 45.3201C31.9186 49.4955 26.9284 51.72 21.192 51.72V53.72ZM43.288 26.8C43.288 18.3424 40.9703 11.6126 37.009 6.9801C33.0374 2.33554 27.4796 -0.120003 21.192 -0.120003V1.88C26.9284 1.88 31.9186 4.10446 35.489 8.27989C39.0697 12.4674 41.288 18.6976 41.288 26.8H43.288ZM21.192 -0.120003C14.9386 -0.120003 9.39894 2.33686 5.43721 6.981C1.48573 11.6131 -0.832 18.3424 -0.832 26.8H1.168C1.168 18.6976 3.38627 12.4669 6.95879 8.279C10.5211 4.10313 15.4934 1.88 21.192 1.88V-0.120003ZM-0.832 26.8C-0.832 35.2576 1.48573 41.9869 5.43721 46.619C9.39894 51.2631 14.9386 53.72 21.192 53.72V51.72C15.4934 51.72 10.5211 49.4969 6.95879 45.321C3.38627 41.1331 1.168 34.9024 1.168 26.8H-0.832ZM21.192 43.584C18.0841 43.584 15.4986 42.3279 13.6508 39.6824C11.7703 36.9901 10.6 32.7757 10.6 26.8H8.6C8.6 32.9923 9.80566 37.6699 12.0112 40.8276C14.2494 44.0321 17.4599 45.584 21.192 45.584V43.584ZM10.6 26.8C10.6 20.8243 11.7703 16.6099 13.6508 13.9176C15.4986 11.2721 18.0841 10.016 21.192 10.016V8.016C17.4599 8.016 14.2494 9.56787 12.0112 12.7724C9.80566 15.9301 8.6 20.6077 8.6 26.8H10.6ZM21.192 10.016C24.3394 10.016 26.9423 11.2751 28.7974 13.9193C30.6856 16.6108 31.856 20.8241 31.856 26.8H33.856C33.856 20.6079 32.6504 15.9292 30.4346 12.7707C28.1857 9.56494 24.9566 8.016 21.192 8.016V10.016ZM31.856 26.8C31.856 32.7759 30.6856 36.9892 28.7974 39.6807C26.9423 42.3249 24.3394 43.584 21.192 43.584V45.584C24.9566 45.584 28.1857 44.0351 30.4346 40.8293C32.6504 37.6708 33.856 32.9921 33.856 26.8H31.856ZM45.6698 1.6V0.599997H44.6698V1.6H45.6698ZM45.6698 9.448H44.6698V10.448H45.6698V9.448ZM56.3257 9.448H57.3257V8.448H56.3257V9.448ZM56.3257 52H55.3257V53H56.3257V52ZM65.6858 52V53H66.6858V52H65.6858ZM65.6858 1.6H66.6858V0.599997H65.6858V1.6ZM44.6698 1.6V9.448H46.6698V1.6H44.6698ZM45.6698 10.448H56.3257V8.448H45.6698V10.448ZM55.3257 9.448V52H57.3257V9.448H55.3257ZM56.3257 53H65.6858V51H56.3257V53ZM66.6858 52V1.6H64.6858V52H66.6858ZM65.6858 0.599997H45.6698V2.6H65.6858V0.599997Z" fill="#555555"/>
</svg>
