<svg width="40" height="40" viewBox="0 0 40 40" fill="none" xmlns="http://www.w3.org/2000/svg">
<g clip-path="url(#clip0_417_126)">
<path d="M0 9.57045C0.130874 9.24825 0.202266 8.87832 0.392629 8.60386C1.49911 7.08835 2.55801 5.54897 3.75968 4.11699C4.77098 2.89981 5.91314 1.77809 7.06721 0.692176C8.22129 -0.393743 8.7091 -0.238606 9.51814 0.906978C10.7079 2.57762 11.8144 4.30793 12.8733 6.0621C13.5871 7.25542 14.1582 8.53227 14.8007 9.77332C15.1814 10.5251 14.9911 11.1456 14.3962 11.6826C13.5158 12.4583 12.6591 13.2697 11.743 13.9977C11.1838 14.4511 11.1124 14.9046 11.3504 15.5609C13.6347 21.965 17.9576 26.3405 24.3188 28.6874C25.3777 29.0812 25.4016 29.0573 26.1868 28.2101C26.7698 27.5776 27.3052 26.9094 27.8763 26.253C28.0428 26.0502 28.2332 25.8592 28.4117 25.6683C28.9352 25.0955 29.5182 24.9642 30.2558 25.2864C32.2665 26.1337 34.1225 27.2793 35.9786 28.4249C36.9185 29.0215 37.8346 29.654 38.7507 30.2864C39.0661 30.5053 39.3537 30.7617 39.6074 31.0502C40.0833 31.5752 40.1428 32.0168 39.7026 32.5776C39.2623 33.1385 38.5247 34.0454 37.8227 34.654C36.0262 36.2053 34.1582 37.6611 32.3379 39.2005C31.2909 40.0836 30.1725 40.1432 28.8876 39.8568C24.8781 38.9619 21.2849 37.16 17.9298 34.833C11.8977 30.6325 6.96013 25.3938 3.31944 18.9619C1.85603 16.3724 0.737662 13.6277 0.214164 10.6683C0.166573 10.4058 0.13088 10.1313 0.0951873 9.86877C0.0852886 9.78164 0.0813019 9.69393 0.0832779 9.60625L0 9.57045Z" fill="#555555"/>
<path d="M21.4753 2.88791V0.0955627C31.0529 -0.274366 40.1784 8.26978 39.9405 18.6039H37.1327C37.0375 14.3199 35.574 10.5967 32.5401 7.54185C29.5062 4.48696 25.806 2.99531 21.4753 2.88791Z" fill="#555555"/>
<path d="M21.4753 10.0356V7.23137C27.5788 7.00464 33.0398 12.5178 32.8138 18.6037H30.0178C29.9345 16.2767 29.1493 14.2361 27.4836 12.5655C25.8179 10.8948 23.8191 10.1192 21.4753 10.0356Z" fill="#555555"/>
</g>
<defs>
<clipPath id="clip0_417_126">
<rect width="40" height="40" fill="white"/>
</clipPath>
</defs>
</svg>
