<svg width="52" height="60" viewBox="0 0 52 60" fill="none" xmlns="http://www.w3.org/2000/svg">
<g clip-path="url(#clip0_239_662)">
<path d="M26.4706 0C27.7765 0.305882 29.0706 0.635282 30.3764 0.9294L41.0941 3.30588C42.0235 3.50588 42.3059 3.85882 42.3059 4.78823C42.3059 8.62352 42.3764 12.447 42.2823 16.2706C42.1176 23.2353 39.3412 29.0235 34.2235 33.7059C32.0409 35.6996 29.4862 37.2428 26.7059 38.247C26.2722 38.3979 25.8009 38.402 25.3647 38.2588C17.0823 34.9412 11.9882 28.8823 10.1294 20.1765C9.79999 18.6471 9.74116 17.0353 9.71763 15.4588C9.65881 11.9529 9.70587 8.43528 9.70587 4.91764C9.70587 3.81176 9.94116 3.5294 11.0353 3.28234L25.2235 0.117647C25.3294 0.0941176 25.4353 0.0352941 25.5412 0H26.4706ZM12.0588 5.50587C12.0588 8.87058 12.0235 12.1765 12.0706 15.4706C12.0941 16.7765 12.1647 18.0941 12.4118 19.3647C13.8941 27.1647 18.3412 32.647 25.6117 35.8235C25.8524 35.9218 26.1211 35.926 26.3647 35.8353C30.3035 34.2437 33.6891 31.5319 36.1023 28.0356C38.5154 24.5393 39.8501 20.412 39.9412 16.1647C40.0117 12.7882 39.9529 9.39999 39.9647 6.02352C39.9647 5.62352 39.8588 5.45882 39.447 5.3647C35.6353 4.52941 31.8235 3.64706 28 2.82353C27.1529 2.64706 26.3412 2.29411 25.4235 2.50587C22.6941 3.15293 19.9529 3.7294 17.2235 4.34116L12.0588 5.50587Z" fill="#E9623E"/>
<path d="M9.8941 39.094C10.5176 38.2117 11.3059 37.5764 12.3882 37.3764C13.8588 37.094 15.1294 37.5058 16.047 38.6705C17.8 40.894 19.5059 43.1411 21.1765 45.4352C22.2706 46.9293 22.7765 48.6823 22.8 50.5411C22.847 53.247 22.8235 55.9646 22.8117 58.6822C22.8117 59.4822 22.3294 59.9881 21.6353 59.9999C20.9412 60.0117 20.4706 59.5058 20.4235 58.7058C20.4117 58.5411 20.4235 58.3881 20.4235 58.2352C20.4235 55.9058 20.3765 53.5881 20.4353 51.2587C20.4823 49.2587 19.8941 47.5293 18.647 45.9528C17.2118 44.1528 15.8588 42.294 14.447 40.4705C14.203 40.1488 13.8783 39.8971 13.5059 39.7411C12.9412 39.5175 12.3529 39.7764 12.0117 40.247C11.8331 40.4827 11.7374 40.7709 11.7396 41.0666C11.7417 41.3624 11.8415 41.6491 12.0235 41.8823C12.6353 42.7176 13.2823 43.5293 13.9059 44.3528C14.2588 44.7999 14.4 45.2822 14.0823 45.8117C13.6235 46.5881 12.647 46.5999 12.0353 45.8117C10.5882 43.9411 9.14115 42.0823 7.72939 40.1881C7.38181 39.7224 7.11533 39.2014 6.94116 38.647C6.78381 38.0802 6.70853 37.4939 6.71763 36.9058C6.70586 33.6705 6.71763 30.4234 6.70586 27.1881C6.72185 26.8559 6.69015 26.5231 6.61174 26.1999C6.39998 25.5411 5.6941 25.1176 4.99998 25.1881C4.30586 25.2587 3.70586 25.8117 3.63527 26.5058C3.41174 28.5881 3.22351 30.6705 3.03527 32.7411C2.81174 34.9999 2.6235 37.247 2.37644 39.494C2.29409 40.2823 2.44703 40.9528 2.92939 41.5764C6.15292 45.7646 9.36468 49.9646 12.6117 54.1528C13.047 54.7175 13.2941 55.2822 13.247 56.0234C13.2 56.7646 13.247 57.8587 13.2353 58.7764C13.2235 59.694 12.7529 60.0117 12.047 59.9999C11.3412 59.9881 10.9176 59.5058 10.8941 58.7881V58.6705C10.8823 57.7175 11.0823 56.6823 10.7882 55.8234C10.4941 54.9646 9.6941 54.2822 9.11763 53.5175C6.48233 50.0822 3.8588 46.6352 1.18821 43.2234C0.164681 41.9175 -0.141202 40.5175 0.058798 38.894C0.317622 36.6823 0.482327 34.4705 0.694092 32.2587C0.905856 30.047 1.0588 28.1411 1.29409 26.0823C1.50586 24.2823 3.16468 22.8823 5.03527 22.8352C6.90586 22.7881 8.67057 24.1058 8.99998 25.9529C9.07075 26.337 9.10619 26.7269 9.10586 27.1176C9.12155 30.4352 9.12155 33.7528 9.10586 37.0705C9.08819 37.4442 9.14922 37.8174 9.28501 38.166C9.4208 38.5146 9.62831 38.8307 9.8941 39.094Z" fill="#E9623E"/>
<path d="M41.7882 39.0705C42.3883 38.5176 42.5883 37.8117 42.5765 37.0117C42.5647 33.6941 42.5765 30.3764 42.5765 27.0588C42.5765 25.647 43.0353 24.4588 44.1883 23.5882C46.5412 21.8235 49.9883 23.2117 50.3765 26.1411C50.6706 28.3411 50.8471 30.5646 51.0588 32.7764C51.2706 34.9882 51.4706 37.3529 51.6706 39.647C51.7882 40.9411 51.3765 42.0588 50.6 43.0705L41.2118 55.2823C40.9134 55.6368 40.7582 56.0899 40.7765 56.5529C40.8118 57.2941 40.8 58.0352 40.7882 58.7764C40.7765 59.5176 40.2824 60.0117 39.5883 59.9999C38.8941 59.9882 38.4471 59.4941 38.4353 58.7764C38.4235 57.6823 38.4 56.5882 38.4588 55.4941C38.4958 55.1114 38.6429 54.7477 38.8824 54.447C42 50.3764 45.0706 46.2588 48.2824 42.2588C49.3177 40.9764 49.353 39.694 49.2 38.2235C48.8941 35.4235 48.6588 32.6352 48.3883 29.8352C48.2824 28.7646 48.1765 27.7058 48.0588 26.6352C47.9412 25.5646 47.2941 25.1529 46.4588 25.1882C45.6235 25.2235 44.9765 25.8823 44.9765 26.8235C44.9765 30.1411 44.953 33.4705 44.9883 36.7882C45 38.1882 44.6118 39.4117 43.7294 40.5176C42.3647 42.2235 41.0706 43.9882 39.7177 45.7058C39.499 45.999 39.201 46.2235 38.8588 46.3529C38.3647 46.5176 37.9294 46.294 37.6353 45.8705C37.4912 45.6698 37.4177 45.4271 37.4262 45.1801C37.4347 44.9332 37.5248 44.6961 37.6824 44.5058C38.3177 43.647 38.9883 42.7999 39.6235 41.9411C40.0471 41.3646 40.0471 40.7882 39.6824 40.2588C39.3177 39.7293 38.753 39.5293 38.1883 39.7293C37.8598 39.8424 37.5701 40.0464 37.353 40.3176C35.7765 42.3646 34.2157 44.4156 32.6706 46.4705C31.7416 47.6902 31.2449 49.1844 31.2588 50.7176C31.2706 53.3411 31.2706 55.9529 31.2588 58.5764C31.2588 59.4352 30.8235 59.9647 30.1294 59.9999C29.8531 60.0226 29.5781 59.9427 29.3568 59.7757C29.1355 59.6086 28.9834 59.366 28.9294 59.0941C28.8926 58.9638 28.8728 58.8294 28.8706 58.694C28.8824 55.8588 28.8706 53.0235 28.9177 50.1999C28.953 48.1764 29.7177 46.4117 30.9412 44.8117C32.353 42.9764 33.8471 41.1764 35.1412 39.2588C36.7883 36.7882 40.0235 36.5646 41.7882 39.0705Z" fill="#E9623E"/>
<path d="M38.0824 12.6118C37.9647 14.7059 38.0471 16.8471 37.6824 18.9059C36.5059 25.6471 32.753 30.5294 26.6236 33.5647C26.2824 33.7412 25.7059 33.7177 25.353 33.5412C19.4471 30.6314 15.8039 25.949 14.4236 19.4941C14.2118 18.5177 14.1412 17.4941 14.0706 16.4824C14.0118 15.6824 14.4941 15.153 15.1883 15.1294C15.8824 15.1059 16.353 15.6118 16.4 16.4118C16.6706 20.8941 18.3294 24.7647 21.4824 27.9765C22.6881 29.2053 24.0821 30.2339 25.6118 31.0235C25.7358 31.079 25.8701 31.1077 26.0059 31.1077C26.1417 31.1077 26.276 31.079 26.4 31.0235C31.4118 28.2235 34.5412 24.0235 35.353 18.3294C35.7177 15.7177 35.5647 13.0353 35.6118 10.3765C35.6471 8.96473 35.6236 8.96473 34.2589 8.65885C31.6706 8.08238 29.1059 7.43531 26.5059 6.97649C25.6706 6.82355 24.7412 7.11767 23.8824 7.30591C21.1765 7.88238 18.4824 8.5059 15.7883 9.1059C14.7412 9.34119 14.0353 8.88238 14.0471 8.00003C14.0588 7.40003 14.4118 6.9765 15.0824 6.82356L21 5.5059C22.4118 5.20002 23.8353 4.92943 25.2236 4.55296C26.2 4.29414 27.0706 4.63532 27.9765 4.83532C30.9177 5.45885 33.8589 6.14119 36.8 6.80002C37.6824 7.00002 37.9647 7.35296 37.9765 8.27061V12.6L38.0824 12.6118Z" fill="#E9623E"/>
<path d="M23.6825 19.2707L28.2708 15.1295C29.2355 14.2589 30.2002 13.3648 31.1766 12.4942C31.9531 11.8119 33.0119 12.1177 33.2237 13.0825C33.3413 13.6236 33.0472 14.0119 32.6708 14.353C30.5061 16.2981 28.3492 18.2472 26.2002 20.2001L24.5061 21.7177C23.7884 22.353 23.1413 22.3177 22.5413 21.6001C21.6355 20.5295 20.7178 19.4589 19.8237 18.3883C19.2943 17.7413 19.3178 17.0354 19.8708 16.5766C20.4237 16.1177 21.0708 16.2236 21.6119 16.8472L23.6825 19.2707Z" fill="#E9623E"/>
</g>
<defs>
<clipPath id="clip0_239_662">
<rect width="51.6941" height="60" fill="white"/>
</clipPath>
</defs>
</svg>
