<svg width="64" height="60" viewBox="0 0 64 60" fill="none" xmlns="http://www.w3.org/2000/svg">
<g clip-path="url(#clip0_239_507)">
<path d="M0.983337 25.0334V20.9834H3.71667V25.0167V25.5167H4.21667H7.69999H8.19999V25.0167V20.9667H10.9649C10.9635 21.1874 10.9614 21.4089 10.9593 21.631C10.9519 22.4184 10.9444 23.212 10.9669 23.9977H10.9668L10.9671 24.0034C10.9693 24.0585 10.9616 24.1261 10.9461 24.2533L10.9456 24.2578C10.9325 24.3653 10.9133 24.5233 10.924 24.6836C10.9356 24.8555 10.9829 25.0621 11.1275 25.252C11.2112 25.3618 11.3149 25.4496 11.4331 25.5189C11.4333 25.54 11.4333 25.5617 11.4333 25.5834C11.4333 26.2059 11.4371 26.8271 11.4408 27.4471C11.4482 28.6822 11.4555 29.9128 11.4334 31.1411L11.4334 31.1422C11.4181 32.114 11.1689 32.802 10.7005 33.3183C10.2219 33.8458 9.46153 34.253 8.3089 34.5491L7.88043 34.6592L7.93751 35.0979C8.85991 42.1867 14.9631 52.2507 26.4091 55.6131L26.4092 55.6132C38.7847 59.246 51.8828 53.6963 57.678 42.4288C63.4671 31.173 60.6697 17.1798 50.8136 9.24393C41.0789 1.40587 25.6913 1.09242 15.6531 10.6505L13.71 8.73179C15.9782 6.51311 18.616 4.70486 21.5059 3.38899C30.1786 -0.503482 38.8842 -0.563119 47.3206 3.79428L47.322 3.79501C56.5389 8.51826 61.843 16.1916 63.2714 26.502L63.2717 26.5041C63.3076 26.7557 63.3429 27.0237 63.3784 27.2931C63.4183 27.5962 63.4584 27.9012 63.5 28.1865V31.8513C63.4912 31.8925 63.4804 31.9352 63.467 31.9879C63.4618 32.0082 63.4563 32.03 63.4503 32.0538C63.4267 32.1486 63.3975 32.272 63.3854 32.4048L63.3853 32.4048L63.3845 32.4164C63.1767 35.5003 62.4518 38.5273 61.24 41.3707L61.2394 41.3721C55.4187 55.145 40.5717 62.4651 26.1869 58.3692L26.1866 58.3691C15.5606 55.3518 8.75016 48.2865 5.59606 37.658C5.41176 37.036 5.27874 36.4068 5.1376 35.739C5.07937 35.4635 5.01975 35.1815 4.95457 34.8907L4.86701 34.5001H4.46667H3.76079C2.69186 34.4528 1.82417 34.0825 1.23831 33.2735L1.23654 33.271C1.08284 33.0615 0.957731 32.8221 0.83412 32.551C0.7891 32.4522 0.736185 32.3299 0.68064 32.2014C0.621289 32.0642 0.558935 31.92 0.5 31.7902V25.5334H0.983337V25.0334Z" stroke="#E9623E"/>
<path d="M25.5332 16.1697L50.2931 30.0333L25.5332 43.897V16.1697Z" fill="#E9623E" stroke="#E9623E"/>
</g>
<defs>
<clipPath id="clip0_239_507">
<rect width="64" height="60" fill="white"/>
</clipPath>
</defs>
</svg>
