<svg width="60" height="60" viewBox="0 0 60 60" fill="none" xmlns="http://www.w3.org/2000/svg">
<g clip-path="url(#clip0_239_513)">
<path d="M29.216 0.869801L39.7965 6.98125L29.216 13.0941V9.93265V9.40351L28.6877 9.43346C22.9632 9.75797 18.2875 12.0712 14.5156 16.2916L10.7773 13.234C15.5221 7.83929 21.4649 4.96636 28.7435 4.56616L29.216 4.54018V4.06691V0.869801Z" stroke="#E9623E"/>
<path d="M0.869715 30.784L6.97752 20.1971L13.0941 30.784H9.93265H9.40351L9.43346 31.3123C9.75795 37.0364 12.0709 41.7124 16.2916 45.4725L13.2335 49.2222C7.83909 44.4775 4.96634 38.5349 4.56616 31.2566L4.54018 30.784H4.06691H0.869715Z" fill="#E9623E" stroke="#E9623E"/>
<path d="M30.797 55.933V59.1338L20.2006 53.0134L30.81 46.8922V50.0673V50.5978L31.3396 50.5664C37.0373 50.229 41.7125 47.9284 45.473 43.7077L49.2224 46.7549C44.4775 52.1726 38.5233 55.0336 31.2694 55.4338L30.797 55.4599V55.933Z" stroke="#E9623E"/>
<path d="M46.4415 11.1642C46.5458 11.0357 46.6502 10.907 46.7548 10.7781C52.1612 15.523 55.0337 21.4649 55.4339 28.7175L55.4599 29.19H55.9331H59.1343L53.0133 39.799L46.8923 29.19H50.0674H50.5979L50.5665 28.6604C50.2291 22.9631 47.9289 18.2886 43.7096 14.5166C44.6207 13.4082 45.5263 12.2921 46.4415 11.1642Z" stroke="#E9623E"/>
</g>
<defs>
<clipPath id="clip0_239_513">
<rect width="60" height="60" fill="white"/>
</clipPath>
</defs>
</svg>
