<svg width="60" height="75" viewBox="0 0 60 75" fill="none" xmlns="http://www.w3.org/2000/svg">
<g clip-path="url(#clip0_239_658)">
<path d="M25.5872 75.0001L22.3412 74.6941C16.5086 74.1841 10.7774 73.215 5.5027 70.4354C3.83406 69.581 2.33784 68.4223 1.0902 67.0182C0.202624 65.9981 -0.22849 64.9525 0.10118 63.499C0.811239 60.2603 1.59737 57.0726 3.04285 54.0634C3.90506 52.3038 5.07159 50.8247 6.82138 49.8556L19.6531 42.6897C19.8847 42.5329 20.1604 42.4556 20.4393 42.4693C20.7181 42.4831 20.985 42.5873 21.2001 42.7662C22.8481 44.0603 24.7492 44.9901 26.7791 45.4949C27.0584 45.5686 27.3143 45.7126 27.5229 45.9134C27.7314 46.1142 27.8856 46.3651 27.971 46.6424C28.5796 48.351 29.2389 50.0086 29.9236 51.8447C30.0419 51.6408 30.1436 51.4276 30.228 51.2072C30.8112 49.7026 31.3945 48.198 31.927 46.6934C32.0113 46.386 32.1795 46.1084 32.4125 45.892C32.6456 45.6757 32.9342 45.5293 33.2457 45.4694C35.1974 44.9724 37.0271 44.0784 38.6219 42.8427C38.8483 42.6414 39.1328 42.518 39.4338 42.4905C39.7348 42.463 40.0367 42.5328 40.2956 42.6897C44.4799 45.0358 48.6641 47.4075 52.8738 49.7026C55.0039 50.8757 56.348 52.6863 57.3116 54.8284C58.6557 57.8376 59.3657 60.9998 59.949 64.213C60.0002 64.5733 59.9771 64.9404 59.8811 65.2914C59.7851 65.6424 59.6183 65.9698 59.3911 66.2531C58.0978 68.1147 56.348 69.3898 54.4207 70.4354C50.9972 72.297 47.2947 73.3681 43.4655 73.9291C40.7013 74.3626 37.8864 74.5411 35.0969 74.8471L34.3362 75.0001H25.5872ZM37.4046 58.6792H47.7005V56.6135H37.4046V58.6792Z" fill="#555555"/>
<path d="M43.8971 32.8462C42.7559 33.0247 41.6148 33.2542 40.4482 33.3817C39.2817 33.5092 38.1152 33.5092 36.9487 33.5602C35.7821 33.6112 34.8438 33.6877 33.9563 32.8717C33.6351 32.6484 33.2561 32.5243 32.8658 32.5147C31.4964 32.4637 30.1017 32.3361 28.7323 32.4637C26.4499 32.6932 24.9791 34.4018 24.9791 36.5694C24.9791 38.737 26.4499 40.4456 28.7323 40.6751C30.127 40.8026 31.5725 40.6496 32.9926 40.5986C33.2424 40.5903 33.4862 40.5202 33.7027 40.3946C35.5539 39.3491 37.608 40.1141 39.5353 39.6551L39.6621 39.9866C38.4195 40.8281 37.2022 41.7462 35.8836 42.4857C34.2864 43.4635 32.4937 44.0731 30.6342 44.2709C28.428 44.4494 26.4246 43.7353 24.5226 42.7663C20.7524 40.8875 17.7103 37.8015 15.8751 33.9937C15.7483 33.6877 15.8244 33.2797 15.8751 32.9227C15.9259 32.5657 16.2555 31.5966 16.2555 30.9336C16.3062 27.4909 16.2809 24.0737 16.2809 20.631C16.2957 19.6277 15.9939 18.6456 15.4187 17.8258C15.278 17.6623 15.1975 17.4553 15.1904 17.2393C15.5201 14.8421 16.0273 12.496 17.3967 10.4304C18.7661 8.36473 21.4542 6.80914 24.193 6.22261C26.9318 5.63607 30.406 5.50857 33.5252 5.86559C35.3354 6.03169 37.1076 6.48798 38.7745 7.21717C41.6655 8.59425 43.2631 10.9914 44.0492 14.0006C44.3032 15.0097 44.5063 16.031 44.6579 17.0607C44.6822 17.3398 44.6106 17.6189 44.455 17.8513C43.9251 18.671 43.6431 19.6278 43.6435 20.6055C43.6435 24.0227 43.6181 27.4399 43.6435 30.8571C43.686 31.5248 43.7707 32.1892 43.8971 32.8462Z" fill="#555555"/>
<path d="M47.4981 33.4834C46.0779 32.8969 45.5961 31.8768 45.6215 30.4998C45.6722 27.3121 45.6468 24.1499 45.6215 20.9877C45.6215 19.9931 45.799 19.1006 46.6358 18.463C46.6937 18.4182 46.74 18.3601 46.7709 18.2935C46.8018 18.2269 46.8164 18.1539 46.8134 18.0805C46.4076 14.9948 45.9004 11.9346 44.1253 9.25697C42.3501 6.5793 39.9917 5.20222 37.1261 4.48818C32.55 3.34063 27.7668 3.31439 23.1785 4.41167C17.8531 5.68675 14.81 9.15496 13.6688 14.4083C13.4406 15.5303 13.263 16.6524 13.1109 17.7745C13.1031 17.9105 13.1239 18.0467 13.1719 18.1742C13.22 18.3016 13.2943 18.4174 13.3899 18.514C13.6786 18.7779 13.9074 19.1013 14.0605 19.4622C14.2137 19.8231 14.2877 20.2129 14.2774 20.6052C14.2774 24.0479 14.3028 27.4651 14.2774 30.9078C14.2521 32.5909 13.2123 33.5599 11.5386 33.5599H8.34335C6.695 33.5344 5.65527 32.5144 5.65527 30.8568V20.6817C5.65527 18.9986 6.66964 17.953 8.34335 17.9275C9.45916 17.902 9.48451 17.902 9.63667 16.8054C9.9917 14.3828 10.4482 12.0111 11.4372 9.767C13.542 4.94721 17.2445 2.11654 22.2909 0.917964C27.8193 -0.357114 33.3476 -0.357115 38.7998 1.24948C44.7085 2.98359 48.132 7.11484 49.5775 13.0057C49.9072 14.4338 50.1101 15.9129 50.3129 17.392C50.389 17.8255 50.5665 17.9275 50.9723 17.9275C51.4572 17.9182 51.9418 17.9609 52.4178 18.055C52.9432 18.1808 53.4114 18.4805 53.7471 18.9059C54.0828 19.3314 54.2666 19.858 54.269 20.4011V31.0863C54.2693 31.4165 54.2031 31.7435 54.0745 32.0473C53.9458 32.3512 53.7574 32.6258 53.5205 32.8545C53.2835 33.0832 53.0031 33.2613 52.6959 33.3782C52.3887 33.495 52.0612 33.5482 51.7331 33.5344C51.4065 33.5204 51.0812 33.5821 50.7821 33.7147C50.4831 33.8474 50.2184 34.0475 50.0086 34.2995C48.4871 35.9571 46.433 36.5946 44.3535 37.0536C41.1329 37.7932 37.8615 37.8442 34.5902 37.8442C34.2352 37.8442 33.8548 38.0992 33.4997 38.2267C33.1447 38.3542 32.6629 38.6602 32.2318 38.6857C31.1667 38.7367 30.1016 38.7112 29.0365 38.6857C28.485 38.6857 27.9561 38.4654 27.5661 38.0733C27.1761 37.6811 26.9571 37.1492 26.9571 36.5946C26.9502 36.3136 26.9998 36.034 27.1028 35.7727C27.2059 35.5114 27.3602 35.2736 27.5567 35.0737C27.7532 34.8737 27.9878 34.7156 28.2464 34.6089C28.505 34.5022 28.7824 34.449 29.0619 34.4525C30.0839 34.3845 31.1096 34.393 32.1303 34.478C32.6882 34.5545 33.2208 34.9625 33.7787 35.2175C34.3366 35.4725 34.1591 35.5746 34.3366 35.5746C38.1659 35.6001 41.9697 35.5746 45.6468 34.3505C46.0543 34.2155 46.4524 34.0536 46.8387 33.866L47.4981 33.4834Z" fill="#555555"/>
</g>
<defs>
<clipPath id="clip0_239_658">
<rect width="60" height="75" fill="white"/>
</clipPath>
</defs>
</svg>
