<svg width="84" height="53" viewBox="0 0 84 53" fill="none" xmlns="http://www.w3.org/2000/svg">
<path d="M21.192 53.72C27.4796 53.72 33.0374 51.2645 37.009 46.6199C40.9703 41.9874 43.288 35.2576 43.288 26.8H41.288C41.288 34.9024 39.0697 41.1326 35.489 45.3201C31.9186 49.4955 26.9284 51.72 21.192 51.72V53.72ZM43.288 26.8C43.288 18.3424 40.9703 11.6126 37.009 6.9801C33.0374 2.33554 27.4796 -0.120003 21.192 -0.120003V1.88C26.9284 1.88 31.9186 4.10446 35.489 8.27989C39.0697 12.4674 41.288 18.6976 41.288 26.8H43.288ZM21.192 -0.120003C14.9386 -0.120003 9.39894 2.33686 5.43721 6.981C1.48573 11.6131 -0.832 18.3424 -0.832 26.8H1.168C1.168 18.6976 3.38627 12.4669 6.95879 8.279C10.5211 4.10313 15.4934 1.88 21.192 1.88V-0.120003ZM-0.832 26.8C-0.832 35.2576 1.48573 41.9869 5.43721 46.619C9.39894 51.2631 14.9386 53.72 21.192 53.72V51.72C15.4934 51.72 10.5211 49.4969 6.95879 45.321C3.38627 41.1331 1.168 34.9024 1.168 26.8H-0.832ZM21.192 43.584C18.0841 43.584 15.4986 42.3279 13.6508 39.6824C11.7703 36.9901 10.6 32.7757 10.6 26.8H8.6C8.6 32.9923 9.80566 37.6699 12.0112 40.8276C14.2494 44.0321 17.4599 45.584 21.192 45.584V43.584ZM10.6 26.8C10.6 20.8243 11.7703 16.6099 13.6508 13.9176C15.4986 11.2721 18.0841 10.016 21.192 10.016V8.016C17.4599 8.016 14.2494 9.56787 12.0112 12.7724C9.80566 15.9301 8.6 20.6077 8.6 26.8H10.6ZM21.192 10.016C24.3394 10.016 26.9423 11.2751 28.7974 13.9193C30.6856 16.6108 31.856 20.8241 31.856 26.8H33.856C33.856 20.6079 32.6504 15.9292 30.4346 12.7707C28.1857 9.56494 24.9566 8.016 21.192 8.016V10.016ZM31.856 26.8C31.856 32.7759 30.6856 36.9892 28.7974 39.6807C26.9423 42.3249 24.3394 43.584 21.192 43.584V45.584C24.9566 45.584 28.1857 44.0351 30.4346 40.8293C32.6504 37.6708 33.856 32.9921 33.856 26.8H31.856ZM69.3662 22.408L68.6011 21.7641L67.4214 23.1658L69.2385 23.3998L69.3662 22.408ZM81.6062 7.864L82.3713 8.5079L82.6062 8.22879V7.864H81.6062ZM81.6062 1.6H82.6062V0.599997H81.6062V1.6ZM47.2622 1.6V0.599997H46.2622V1.6H47.2622ZM47.2622 9.448H46.2622V10.448H47.2622V9.448ZM70.1582 9.448L70.9234 10.0918L72.3063 8.448H70.1582V9.448ZM58.7102 23.056L57.945 22.4122L57.7102 22.6913V23.056H58.7102ZM58.7102 29.464H57.7102V30.464H58.7102V29.464ZM48.8462 39.616L49.4894 38.8503L48.5601 38.0697L47.9716 39.1311L48.8462 39.616ZM44.8142 46.888L43.9396 46.4031L43.5263 47.1486L44.1969 47.6747L44.8142 46.888ZM70.1313 23.0519L82.3713 8.5079L80.8411 7.22009L68.6011 21.7641L70.1313 23.0519ZM82.6062 7.864V1.6H80.6062V7.864H82.6062ZM81.6062 0.599997H47.2622V2.6H81.6062V0.599997ZM46.2622 1.6V9.448H48.2622V1.6H46.2622ZM47.2622 10.448H70.1582V8.448H47.2622V10.448ZM69.393 8.80424L57.945 22.4122L59.4754 23.6998L70.9234 10.0918L69.393 8.80424ZM57.7102 23.056V29.464H59.7102V23.056H57.7102ZM58.7102 30.464H63.3182V28.464H58.7102V30.464ZM63.3182 30.464C67.0302 30.464 69.5214 31.186 71.0614 32.3138C72.5509 33.4047 73.2622 34.9564 73.2622 36.952H75.2622C75.2622 34.4116 74.3174 32.2193 72.243 30.7002C70.219 29.218 67.2382 28.464 63.3182 28.464V30.464ZM73.2622 36.952C73.2622 38.9731 72.4245 40.5792 70.8587 41.7131C69.2574 42.8726 66.8238 43.584 63.6062 43.584V45.584C67.0846 45.584 69.9789 44.8194 72.0317 43.3329C74.1199 41.8208 75.2622 39.6109 75.2622 36.952H73.2622ZM63.6062 43.584C58.1241 43.584 52.888 41.7051 49.4894 38.8503L48.203 40.3817C52.0044 43.5749 57.7122 45.584 63.6062 45.584V43.584ZM47.9716 39.1311L43.9396 46.4031L45.6888 47.3729L49.7208 40.1009L47.9716 39.1311ZM44.1969 47.6747C49.09 51.5139 56.4504 53.72 63.7502 53.72V51.72C56.794 51.72 49.8984 49.6061 45.4315 46.1013L44.1969 47.6747ZM63.7502 53.72C70.6952 53.72 75.938 51.8343 79.4587 48.7368C82.9873 45.6324 84.6942 41.3894 84.6942 36.88H82.6942C82.6942 40.8666 81.1971 44.5436 78.1376 47.2352C75.0704 49.9337 70.3412 51.72 63.7502 51.72V53.72ZM84.6942 36.88C84.6942 32.8789 83.4126 29.3092 80.8192 26.5793C78.2317 23.8556 74.4176 22.0503 69.4939 21.4162L69.2385 23.3998C73.8188 23.9897 77.1687 25.6404 79.3692 27.9567C81.5637 30.2668 82.6942 33.3211 82.6942 36.88H84.6942Z" fill="#555555"/>
</svg>
