<svg width="85" height="53" viewBox="0 0 85 53" fill="none" xmlns="http://www.w3.org/2000/svg">
<path d="M21.192 53.72C27.4796 53.72 33.0374 51.2645 37.009 46.6199C40.9703 41.9874 43.288 35.2576 43.288 26.8H41.288C41.288 34.9024 39.0697 41.1326 35.489 45.3201C31.9186 49.4955 26.9284 51.72 21.192 51.72V53.72ZM43.288 26.8C43.288 18.3424 40.9703 11.6126 37.009 6.9801C33.0374 2.33554 27.4796 -0.120003 21.192 -0.120003V1.88C26.9284 1.88 31.9186 4.10446 35.489 8.27989C39.0697 12.4674 41.288 18.6976 41.288 26.8H43.288ZM21.192 -0.120003C14.9386 -0.120003 9.39894 2.33686 5.43721 6.981C1.48573 11.6131 -0.832 18.3424 -0.832 26.8H1.168C1.168 18.6976 3.38627 12.4669 6.95879 8.279C10.5211 4.10313 15.4934 1.88 21.192 1.88V-0.120003ZM-0.832 26.8C-0.832 35.2576 1.48573 41.9869 5.43721 46.619C9.39894 51.2631 14.9386 53.72 21.192 53.72V51.72C15.4934 51.72 10.5211 49.4969 6.95879 45.321C3.38627 41.1331 1.168 34.9024 1.168 26.8H-0.832ZM21.192 43.584C18.0841 43.584 15.4986 42.3279 13.6508 39.6824C11.7703 36.9901 10.6 32.7757 10.6 26.8H8.6C8.6 32.9923 9.80566 37.6699 12.0112 40.8276C14.2494 44.0321 17.4599 45.584 21.192 45.584V43.584ZM10.6 26.8C10.6 20.8243 11.7703 16.6099 13.6508 13.9176C15.4986 11.2721 18.0841 10.016 21.192 10.016V8.016C17.4599 8.016 14.2494 9.56787 12.0112 12.7724C9.80566 15.9301 8.6 20.6077 8.6 26.8H10.6ZM21.192 10.016C24.3394 10.016 26.9423 11.2751 28.7974 13.9193C30.6856 16.6108 31.856 20.8241 31.856 26.8H33.856C33.856 20.6079 32.6504 15.9292 30.4346 12.7707C28.1857 9.56494 24.9566 8.016 21.192 8.016V10.016ZM31.856 26.8C31.856 32.7759 30.6856 36.9892 28.7974 39.6807C26.9423 42.3249 24.3394 43.584 21.192 43.584V45.584C24.9566 45.584 28.1857 44.0351 30.4346 40.8293C32.6504 37.6708 33.856 32.9921 33.856 26.8H31.856ZM61.0058 44.08L60.3163 43.3557L58.5048 45.08H61.0058V44.08ZM74.4697 31.264L73.7855 30.5347L73.7803 30.5397L74.4697 31.264ZM45.6698 9.232L44.8658 8.6373L44.2822 9.42627L45.06 10.0246L45.6698 9.232ZM52.2218 14.272L51.612 15.0646L52.3993 15.6702L53.0103 14.887L52.2218 14.272ZM67.6298 26.728L68.3184 27.4531L68.3207 27.4509L67.6298 26.728ZM47.6138 45.736L46.9251 45.0109L46.6138 45.3066V45.736H47.6138ZM47.6138 52H46.6138V53H47.6138V52ZM84.7657 52V53H85.7657V52H84.7657ZM84.7657 44.08H85.7657V43.08H84.7657V44.08ZM61.6952 44.8043L75.1592 31.9883L73.7803 30.5397L60.3163 43.3557L61.6952 44.8043ZM75.1539 31.9933C78.7004 28.6662 80.8808 25.8144 82.1673 23.1176C83.4623 20.4029 83.8218 17.9072 83.8218 15.352H81.8218C81.8218 17.6928 81.4972 19.8771 80.3622 22.2564C79.2187 24.6536 77.2231 27.3098 73.7856 30.5347L75.1539 31.9933ZM83.8218 15.352C83.8218 10.5987 81.9307 6.68748 78.5499 3.98669C75.1933 1.30527 70.4514 -0.120003 64.8218 -0.120003V1.88C70.1361 1.88 74.3942 3.22672 77.3016 5.5493C80.1848 7.85252 81.8218 11.1773 81.8218 15.352H83.8218ZM64.8218 -0.120003C56.3098 -0.120003 48.9878 3.06494 44.8658 8.6373L46.4737 9.8267C50.1277 4.88705 56.7737 1.88 64.8218 1.88V-0.120003ZM45.06 10.0246L51.612 15.0646L52.8315 13.4794L46.2795 8.43937L45.06 10.0246ZM53.0103 14.887C55.5901 11.5795 59.373 10.016 64.0298 10.016V8.016C58.8945 8.016 54.4694 9.76447 51.4332 13.657L53.0103 14.887ZM64.0298 10.016C67.0027 10.016 69.0875 10.6584 70.4104 11.7075C71.6961 12.7272 72.3897 14.2327 72.3897 16.288H74.3897C74.3897 13.7353 73.4994 11.6048 71.6531 10.1405C69.844 8.70563 67.2488 8.016 64.0298 8.016V10.016ZM72.3897 16.288C72.3897 17.5686 72.1969 18.8514 71.4494 20.3626C70.6908 21.8963 69.3374 23.7123 66.9388 26.0051L68.3207 27.4509C70.8181 25.0637 72.3447 23.0637 73.2421 21.2494C74.1506 19.4126 74.3897 17.8154 74.3897 16.288H72.3897ZM66.9411 26.0029L46.9251 45.0109L48.3024 46.4611L68.3184 27.4531L66.9411 26.0029ZM46.6138 45.736V52H48.6138V45.736H46.6138ZM47.6138 53H84.7657V51H47.6138V53ZM85.7657 52V44.08H83.7657V52H85.7657ZM84.7657 43.08H61.0058V45.08H84.7657V43.08Z" fill="#555555"/>
</svg>
