<svg width="256" height="48" fill="none" xmlns="http://www.w3.org/2000/svg"><g clip-path="url(#clip0_417_149)" fill="#555"><path d="M18.724 24.065H7.94L6.327 28.24H0L10.524 2.217h5.617L26.665 28.24h-6.262l-1.68-4.174zm-8.716-5.152h6.65l-3.1-7.826-.193-.848H13.3l-.193.848-3.1 7.826z"/><path d="M26.472 1.304h5.875V28.24h-5.875V1.304zm6.973 17.022a11.056 11.056 0 01.774-4.109 9.2 9.2 0 012.26-3.326 10.194 10.194 0 013.422-2.282 12.153 12.153 0 018.91 0 10.195 10.195 0 013.422 2.282 9.198 9.198 0 012.26 3.326c.517 1.307.78 2.702.775 4.11v.977c-.065.196-.065.457-.13.652H39.45c.158.596.397 1.167.71 1.696.319.474.711.893 1.163 1.24.418.366.9.654 1.42.847a4.415 4.415 0 001.614.261 4.612 4.612 0 002.389-.587 3.826 3.826 0 001.55-1.5h6.327a9.488 9.488 0 01-1.291 2.543 10.187 10.187 0 01-2.196 2.218 11.128 11.128 0 01-3.034 1.565c-1.208.4-2.473.598-3.745.587-1.52.017-3.03-.248-4.455-.782a12.582 12.582 0 01-3.422-2.283 11.097 11.097 0 01-2.26-3.391 10.461 10.461 0 01-.774-4.044zm10.911-5.609a4.68 4.68 0 00-2.776.848 4.818 4.818 0 00-1.808 2.283h9.233a5.357 5.357 0 00-.775-1.305 5.18 5.18 0 00-1.098-.978l-1.29-.652a5.436 5.436 0 00-1.486-.196z"/><path d="M60.627 22.043a1.904 1.904 0 00.903 1.435 3.715 3.715 0 002.131.522 5.31 5.31 0 002.389-.392c.227-.117.42-.294.556-.512.136-.218.212-.469.219-.727a.922.922 0 00-.388-.782 2.254 2.254 0 00-.968-.522 8.07 8.07 0 00-1.614-.457l-2.26-.456-1.227-.26-1.356-.457a5.023 5.023 0 01-1.29-.718 3.951 3.951 0 01-1.099-.978 4.647 4.647 0 01-.774-1.5 5.922 5.922 0 01-.323-1.957 6.116 6.116 0 01.581-2.739 4.881 4.881 0 011.614-2.021 7.842 7.842 0 012.776-1.305 13.749 13.749 0 013.874-.456 13.46 13.46 0 013.358.456 6.889 6.889 0 012.453 1.37 5.344 5.344 0 011.55 2.087 6.25 6.25 0 01.58 2.674h-5.875a1.773 1.773 0 00-.71-1.24 2.316 2.316 0 00-1.743-.521 3.393 3.393 0 00-2.002.456 1.3 1.3 0 00-.58 1.174c-.005.233.062.46.193.652.196.195.442.33.71.392.367.173.76.284 1.162.326l1.68.26 2.969.653a8.478 8.478 0 012.454 1.043 6.228 6.228 0 011.743 1.696c.417.85.617 1.791.58 2.74a5.984 5.984 0 01-.71 3.064 6.108 6.108 0 01-1.936 2.152 9.57 9.57 0 01-2.97 1.305c-1.252.27-2.53.4-3.81.391a11.643 11.643 0 01-3.938-.587 9.665 9.665 0 01-2.647-1.63 6.522 6.522 0 01-1.55-2.218 6.712 6.712 0 01-.452-2.478l5.746.065zM73.862 1.304h5.876v15.457l6.52-8.348h6.845l-6.65 8.217 7.23 11.609h-6.972l-4.39-7.696-2.583 3.066v4.63h-5.876V1.304z"/><path d="M91.101 18.326a11.052 11.052 0 01.775-4.109 10.048 10.048 0 012.26-3.325 9.868 9.868 0 013.486-2.283 10.56 10.56 0 014.391-.848 11.06 11.06 0 014.455.848c1.921.78 3.568 2.12 4.73 3.852a10.573 10.573 0 011.791 5.865 4.4 4.4 0 01-.065.979 2.379 2.379 0 01-.129.652H97.17c.13.605.371 1.18.71 1.695.296.472.667.89 1.098 1.24.419.367.9.654 1.421.847a5.31 5.31 0 004.067-.326 4.932 4.932 0 001.55-1.5h6.327c-.35.9-.805 1.753-1.356 2.544a8.89 8.89 0 01-2.195 2.217 10.29 10.29 0 01-3.035 1.565 11.254 11.254 0 01-3.744.587c-1.5.023-2.99-.242-4.39-.782a11.997 11.997 0 01-3.487-2.283 9.857 9.857 0 01-2.195-3.391 9.472 9.472 0 01-.84-4.044zm10.976-5.609a4.742 4.742 0 00-2.84.848 5.273 5.273 0 00-1.808 2.283h9.232a5.358 5.358 0 00-.774-1.304 3.967 3.967 0 00-1.098-.979l-1.291-.652a5.316 5.316 0 00-1.421-.196zm25.31.848h-2.454a4.99 4.99 0 00-2.012.295 5.034 5.034 0 00-1.733 1.075c-.903.913-1.355 2.217-1.355 4.043v9.261h-5.811V8.413h4.648l.452 1.892a6.903 6.903 0 012.325-1.37 9.208 9.208 0 013.163-.522h2.777v5.152zm-.775 4.761a11.062 11.062 0 01.775-4.109 9.203 9.203 0 012.259-3.326 10.203 10.203 0 013.422-2.282 12.153 12.153 0 018.91 0 10.193 10.193 0 013.422 2.282 9.193 9.193 0 012.26 3.326 10.465 10.465 0 01-2.26 11.544 10.828 10.828 0 01-3.486 2.283c-1.422.544-2.934.81-4.455.782a12.227 12.227 0 01-4.391-.782 11.3 11.3 0 01-3.422-2.283 11.618 11.618 0 01-2.259-3.326 11.062 11.062 0 01-.775-4.109zm5.811 0a6.098 6.098 0 001.549 3.978 4.93 4.93 0 003.551 1.5 5.306 5.306 0 002.066-.391 5.218 5.218 0 001.55-1.109 6.196 6.196 0 001.098-1.76 6.12 6.12 0 00.387-2.218 6.523 6.523 0 00-.387-2.282 5.095 5.095 0 00-1.098-1.696 4.776 4.776 0 00-1.614-1.109 4.995 4.995 0 00-2.002-.391 5.182 5.182 0 00-2.001.391 6.52 6.52 0 00-1.614 1.109 4.95 4.95 0 00-1.033 1.696 5.314 5.314 0 00-.452 2.282z"/><path d="M151.082 13.435h-3.551V8.413h3.551V7.63a9.951 9.951 0 01.387-2.673 6.756 6.756 0 011.163-2.479 5.75 5.75 0 012.259-1.826A7.746 7.746 0 01158.378 0h3.938v4.76h-2.518a2.56 2.56 0 00-1.291.262c-.349.14-.659.364-.904.652-.213.268-.367.58-.452.913a3.606 3.606 0 00-.129 1.174v.652h5.23v5.022h-5.23v14.804h-5.94V13.435z"/><path d="M164.318 13.435h-3.616V8.413h3.616V7.63a9.724 9.724 0 01.323-2.673 7.912 7.912 0 011.162-2.479 5.75 5.75 0 012.259-1.826A7.748 7.748 0 01171.549 0h3.938v4.76h-2.518a2.56 2.56 0 00-1.291.262c-.34.124-.633.352-.839.652a2.565 2.565 0 00-.517.913c-.075.387-.118.78-.129 1.174v.652h5.23v5.022h-5.23v14.804h-5.875V13.435zm14.398 8.935h-5.811v5.882h5.811V22.37zm-23.437 19.173c-.015-.47.073-.937.258-1.37.158-.434.399-.833.71-1.173a3.67 3.67 0 011.162-.783 3.33 3.33 0 011.485-.326 3.01 3.01 0 011.098.196l.839.456v-2.87h2.002V45h-1.743v-.587l-.904.587a4.16 4.16 0 01-2.712-.065 3.676 3.676 0 01-1.162-.783 3.872 3.872 0 01-.969-2.609h-.064zm2.066 0c-.031.268.014.54.129.783.183.442.531.793.968.978.199.106.423.151.646.13.244.026.491-.019.71-.13.438-.185.785-.536.969-.978.115-.243.159-.515.129-.783a1.652 1.652 0 00-.129-.782 1.574 1.574 0 00-.388-.587l-.581-.392-.71-.13-.71.13-.517.392a1.571 1.571 0 00-.387.587 1.64 1.64 0 00-.129.782zm8.458-3.391h-2.002v6.835h2.002v-6.835zm.581 3.391a3.22 3.22 0 01.258-1.37c.158-.434.4-.833.71-1.173a3.68 3.68 0 011.163-.783 3.783 3.783 0 011.485-.326h.71l.581.196.452.26c.174.07.329.183.452.327l.129-.587h1.614v6.326c.022.47-.067.94-.258 1.37-.12.433-.368.82-.71 1.108a2.52 2.52 0 01-1.098.718 3.905 3.905 0 01-1.55.26h-1.097l-.904-.326-.646-.456a2.035 2.035 0 01-.452-.587 2.96 2.96 0 01-.387-1.24h1.937a.585.585 0 00.194.392.65.65 0 00.258.326l.452.196h.645c.266.03.534-.014.775-.13.212-.1.391-.258.517-.457.129-.196.258-.326.258-.522.053-.19.075-.389.064-.587v-.196l-.903.522c-.394.139-.81.205-1.227.196a3.134 3.134 0 01-1.356-.261 3.235 3.235 0 01-1.098-.717 4.056 4.056 0 01-.71-1.11 3.566 3.566 0 01-.258-1.369zm2.001 0c-.014.275.053.548.194.783.183.442.531.793.969.978l.645.13.71-.13c.438-.185.786-.536.969-.978.085-.252.129-.516.129-.783a3.294 3.294 0 00-.129-.782 1.57 1.57 0 00-.387-.587l-.582-.392-.71-.13-.71.13-.516.392a1.56 1.56 0 00-.388.587c-.124.242-.19.51-.194.782zm8.458-3.391h-2.001v6.835h2.001v-6.835zm1.937-1.892h1.485v1.892h1.937v1.76h-1.937v2.349c-.02.176.002.355.065.521a.391.391 0 00.194.327.32.32 0 00.322.195h1.485v1.63h-2.388a1.927 1.927 0 01-.904-.39 1.623 1.623 0 01-.581-.848 3.692 3.692 0 01-.259-1.37v-2.413h-1.033v-1.565l1.033-.392.581-1.695zm3.616 5.283a3.22 3.22 0 01.258-1.37c.158-.434.4-.833.71-1.173a3.68 3.68 0 011.163-.783 3.783 3.783 0 011.485-.326c.42.017.835.105 1.226.261l.904.522v-.522h1.743V45h-1.743v-.522l-.904.522a4.157 4.157 0 01-2.711-.065 3.68 3.68 0 01-1.163-.783c-.31-.34-.552-.74-.71-1.174a3.557 3.557 0 01-.258-1.435zm2.001 0c0 .267.044.531.13.783.098.215.229.413.387.587.162.173.36.307.581.391l.71.13.711-.13a1.17 1.17 0 00.581-.391.976.976 0 00.387-.587c.086-.252.129-.516.129-.783a3.294 3.294 0 00-.129-.782l-.387-.587-.581-.392-.711-.13-.71.13-.581.392-.387.587a3.296 3.296 0 00-.13.782zm6.457-5.869h2.066V45h-2.066v-9.326zm5.23-1.434h1.937v13.238h-1.937V34.24zm12.654 7.303a5.113 5.113 0 01-.258 1.435 3.729 3.729 0 01-.775 1.174c-.31.333-.683.6-1.097.783a3.905 3.905 0 01-1.55.26h-.581l-.581-.13-.516-.26-.388-.262-.129.522h-1.679v-9.391h2.002v2.87l.839-.457a3.01 3.01 0 011.098-.196 3.588 3.588 0 011.485.326c.433.184.828.45 1.162.783.288.357.527.752.71 1.174.154.44.241.902.258 1.37zm-2.066 0a1.64 1.64 0 00-.129-.782 1.57 1.57 0 00-.387-.587l-.581-.392-.711-.13-.645.13-.581.392a1.573 1.573 0 00-.388.587c-.123.242-.19.51-.193.782-.015.275.052.548.193.783a.982.982 0 00.388.587c.126.183.307.32.516.391.222.105.467.15.71.13.245.026.491-.019.711-.13.437-.185.785-.536.968-.978.086-.252.129-.516.129-.783zm7.167-1.63H213a1.92 1.92 0 00-1.291.456 1.895 1.895 0 00-.374.67c-.078.247-.104.508-.078.765V45h-2.002v-6.848h1.614l.129.652a3.04 3.04 0 01.775-.456 3.01 3.01 0 011.098-.196h.968v1.76zm-.129 1.63c.017-.467.104-.928.258-1.37a5.12 5.12 0 01.71-1.173 3.68 3.68 0 011.163-.783 3.783 3.783 0 011.485-.326 3.4 3.4 0 011.226.261c.329.12.635.297.904.522v-.522h1.743V45h-1.743v-.522l-.904.522a4.157 4.157 0 01-2.711-.065 3.68 3.68 0 01-1.163-.783 3.871 3.871 0 01-.968-2.609zm2.001 0c-.014.275.053.548.194.783.184.442.531.793.969.978l.645.13.711-.13c.437-.185.785-.536.968-.978.115-.243.16-.515.129-.783a1.64 1.64 0 00-.129-.782 1.57 1.57 0 00-.387-.587l-.581-.392-.711-.13-.71.13-.516.392a1.56 1.56 0 00-.388.587c-.123.242-.19.51-.194.782zM229.206 45h-2.067v-3.652a2.71 2.71 0 00-.064-.783 3.884 3.884 0 00-.258-.521l-.452-.261-.517-.13a1.282 1.282 0 00-.71.195c-.201.086-.378.22-.517.391a2.373 2.373 0 00-.322.587 2.44 2.44 0 00-.065.718V45h-2.066v-6.848h1.614l.129.522.517-.26.516-.262.581-.196h.581a4.31 4.31 0 011.421.261c.368.14.699.364.968.653a4.4 4.4 0 01.711 2.478V45zm.387-3.457c-.015-.47.073-.937.258-1.37.134-.445.379-.85.71-1.173a2.777 2.777 0 011.098-.783 3.783 3.783 0 011.485-.326c.375-.01.749.056 1.098.196.305.098.59.253.839.456v-2.87h2.066V45h-1.743l-.129-.587-.904.587c-.372.14-.766.206-1.162.196a3.58 3.58 0 01-1.485-.261 3.68 3.68 0 01-1.163-.783 2.751 2.751 0 01-.71-1.174 3.557 3.557 0 01-.258-1.435zm2.001 0c0 .267.044.531.13.783.098.215.228.413.387.587.162.173.36.307.581.391.22.111.466.156.71.13.244.02.489-.025.71-.13l.582-.391.387-.587c.085-.252.129-.516.129-.783a3.294 3.294 0 00-.129-.782l-.387-.587-.582-.392-.71-.13-.71.13-.581.392c-.151.18-.281.377-.387.587a3.296 3.296 0 00-.13.782zm8.523-3.391h-2.002v6.835h2.002v-6.835zM248.059 45h-2.002v-3.652c0-.266-.044-.53-.129-.783a1.31 1.31 0 00-.258-.521l-.452-.261-.517-.13a1.087 1.087 0 00-.645.195 1.03 1.03 0 00-.517.391 1.242 1.242 0 00-.323.587 2.37 2.37 0 00-.129.718V45h-2.001v-6.848h1.614l.129.522.452-.26.516-.262.581-.196h.646c.463.011.921.1 1.356.261.368.14.699.364.968.653.272.313.451.697.517 1.108.137.443.202.906.194 1.37V45zm.387-3.457a3.22 3.22 0 01.258-1.37c.158-.434.4-.833.71-1.173a3.68 3.68 0 011.163-.783 3.783 3.783 0 011.485-.326h.645l.581.196.517.26c.174.07.329.183.452.327l.129-.587H256v6.326c.022.47-.067.94-.258 1.37-.12.433-.368.82-.71 1.108a2.71 2.71 0 01-1.163.718 3.903 3.903 0 01-1.549.26h-1.098l-.839-.326-.646-.456a2.035 2.035 0 01-.452-.587 2.96 2.96 0 01-.387-1.24h1.937a.92.92 0 00.129.392l.323.326.452.196h.581c.286.036.577-.01.839-.13.212-.1.391-.258.517-.457l.258-.522c.053-.19.075-.389.065-.587v-.196l-.904.522c-.396.134-.81.2-1.227.196a2.944 2.944 0 01-1.356-.261 2.716 2.716 0 01-1.098-.717c-.317-.31-.56-.69-.71-1.11a3.566 3.566 0 01-.258-1.369zm2.001 0c0 .267.044.531.13.783l.387.587.581.391.71.13.71-.13c.229-.067.432-.204.582-.391a2.29 2.29 0 00.387-.587c.085-.252.129-.516.129-.783a3.294 3.294 0 00-.129-.782l-.387-.587-.582-.392-.71-.13-.71.13-.581.392-.387.587a3.296 3.296 0 00-.13.782zm-84.644-5.803h-2.002v2.034h2.002v-2.035zm11.04 0h-2.001v2.034h2.001v-2.035zm63.274 0h-2.002v2.034h2.002v-2.035zm-55.72-17.414a6.524 6.524 0 00.388 2.283c.274.62.645 1.193 1.098 1.695a4.889 4.889 0 001.614 1.044 5.182 5.182 0 002.001.391 5.064 5.064 0 002.712-.782 4.754 4.754 0 001.808-2.087h5.94a10.711 10.711 0 01-1.292 3.195 11.69 11.69 0 01-2.259 2.479 10.563 10.563 0 01-3.164 1.695c-1.231.4-2.517.599-3.809.587a10.56 10.56 0 01-4.391-.848 9.744 9.744 0 01-3.422-2.217 10.07 10.07 0 01-2.26-3.391 10.535 10.535 0 01-.839-4.044c.017-1.411.302-2.806.839-4.109a11.433 11.433 0 012.196-3.325 10.825 10.825 0 013.486-2.283 10.562 10.562 0 014.391-.848 11.966 11.966 0 013.809.587c1.111.406 2.155.978 3.099 1.696a10.201 10.201 0 012.26 2.478 9.906 9.906 0 011.356 3.195h-5.94a5.208 5.208 0 00-1.808-2.086 5.063 5.063 0 00-2.712-.783 5.18 5.18 0 00-2.001.391 5.02 5.02 0 00-1.634 1.128 5.087 5.087 0 00-1.078 1.677 6.254 6.254 0 00-.388 2.282zm15.819 0a11.062 11.062 0 01.775-4.109 9.791 9.791 0 012.259-3.326 10.53 10.53 0 013.422-2.282 12.358 12.358 0 014.455-.848c1.503.004 2.992.291 4.391.848a10.825 10.825 0 013.486 2.282 10.768 10.768 0 012.26 3.326 11.252 11.252 0 010 8.218 11.6 11.6 0 01-2.26 3.326 10.827 10.827 0 01-3.486 2.282c-1.425.535-2.935.8-4.455.783a10.756 10.756 0 01-4.391-.848 10.382 10.382 0 01-3.422-2.217 11.616 11.616 0 01-2.259-3.326 11.062 11.062 0 01-.775-4.109zm5.811 0a6.12 6.12 0 00.387 2.217 6.183 6.183 0 001.098 1.761 6.52 6.52 0 001.614 1.109 5.18 5.18 0 002.001.391 4.993 4.993 0 002.002-.391 4.775 4.775 0 001.614-1.109 5.43 5.43 0 001.098-1.76 6.12 6.12 0 00.387-2.218 5.929 5.929 0 00-.387-2.217 5.43 5.43 0 00-1.098-1.761 5.489 5.489 0 00-1.614-1.109 5.31 5.31 0 00-4.003 0 5.489 5.489 0 00-1.614 1.109 5.43 5.43 0 00-1.098 1.76 5.929 5.929 0 00-.387 2.218zM256 28.24h-5.875V17.673a6.847 6.847 0 00-.775-3.652 2.856 2.856 0 00-1.079-.902 2.818 2.818 0 00-1.375-.272c-.596 0-1.186.111-1.743.326-.495.23-.935.563-1.291.978a3.54 3.54 0 00-.84 1.435 4.803 4.803 0 00-.322 1.957v10.695h-5.876V17.674a6.775 6.775 0 00-.839-3.652 2.717 2.717 0 00-1.043-.903 2.688 2.688 0 00-1.346-.271 5.571 5.571 0 00-1.808.326 4 4 0 00-1.291.978 4.326 4.326 0 00-.84 1.63 6.745 6.745 0 00-.322 2.088v10.37h-5.811V8.412h4.649l.387 1.37a10.688 10.688 0 012.582-1.37 7.939 7.939 0 013.358-.652 8.001 8.001 0 013.422.717 7.884 7.884 0 012.647 1.892l1.291-.979 1.614-.848 1.937-.521a11.261 11.261 0 012.196-.261 8.956 8.956 0 013.615.717 7.034 7.034 0 012.647 1.892 8.053 8.053 0 011.55 3.065c.405 1.33.601 2.717.581 4.109v10.695z"/></g><defs><clipPath id="clip0_417_149"><path fill="#fff" d="M0 0h256v48H0z"/></clipPath></defs></svg>