<svg width="432" height="32" fill="none" xmlns="http://www.w3.org/2000/svg"><path d="M63.696 32c4.627 0 8.76-1.572 11.544-4.627l-2.11-2.111c-2.561 2.65-5.706 3.773-9.3 3.773-7.59 0-13.295-5.57-13.295-13.026 0-7.457 5.704-13.027 13.296-13.027 3.593 0 6.738 1.123 9.298 3.728L75.24 4.6C72.455 1.544 68.323.017 63.74.017 54.264.017 47.256 6.8 47.256 16.01 47.255 25.217 54.263 32 63.696 32zm37.858 0c8.041 0 12.892-4.672 12.892-13.7V.286h-3.234v17.878c0 7.456-3.504 10.87-9.658 10.87-6.109 0-9.613-3.414-9.613-10.87V.287h-3.324v18.012c0 9.03 4.896 13.701 12.937 13.701zm54.667-.27l-7.681-10.78c4.582-1.483 7.187-4.941 7.187-9.883 0-6.738-4.851-10.78-12.847-10.78h-11.769V31.73h3.324v-9.973h8.445c.898 0 1.707-.045 2.515-.134l7.188 10.107h3.638zM142.79 18.928h-8.355V3.162h8.355c6.289 0 9.613 2.874 9.613 7.905 0 4.942-3.324 7.861-9.613 7.861zm52.541 12.802l-7.682-10.78c4.582-1.483 7.188-4.941 7.188-9.883 0-6.738-4.852-10.78-12.848-10.78h-11.768V31.73h3.324v-9.973h8.444a22.4 22.4 0 002.516-.134l7.187 10.107h3.639zM181.9 18.928h-8.355V3.162h8.355c6.288 0 9.612 2.874 9.612 7.905 0 4.942-3.324 7.861-9.612 7.861zm30.754 9.928v-11.68h16.261v-2.83h-16.261V3.163h18.238V.287H209.33V31.73h22.235v-2.874h-18.911zM269.026.287V25.8L248.767.287h-2.74V31.73h3.324V6.215l20.214 25.514h2.74V.287h-3.279zm26.299 31.443h3.324V3.162H309.7V.287h-25.425v2.875h11.05V31.73z" fill="#fff"/><path d="M370.501.287L356.98 23.6 343.325.287h-2.74V31.73h3.189V6.71l12.353 21.022h1.572l12.353-21.158V31.73h3.189V.287h-2.74zm19.634 31.443h20.932v-2.874h-17.608V.286h-3.324V31.73zM27.716.191H0v31.54L27.716.19z" fill="#E9623E"/><path d="M413.743 10.704h1.513V1.33h3.67V0h-8.853v1.33h3.67v9.374zm18.241 0L431.969 0h-1.254l-4.404 7.524L421.846 0h-1.254v10.704h1.468V2.951l3.869 6.453h.703l3.869-6.499.015 7.8h1.468z" fill="#fff"/></svg>