<svg width="404" height="116" fill="none" xmlns="http://www.w3.org/2000/svg"><g clip-path="url(#clip0_1002_711)"><path d="M47.82 53.79a14.899 14.899 0 00-5.54-5.72 36.221 36.221 0 00-6.84-3.3 69.761 69.761 0 00-7.58-2.11 37.323 37.323 0 01-8.71-3.42 5.36 5.36 0 01-3-4.67 5.521 5.521 0 012.55-4.85A11.31 11.31 0 0125.25 28c5.72 0 9.617 2.363 11.69 7.09l11.31-6.34A23.32 23.32 0 0039 19.21a27.41 27.41 0 00-13.74-3.42C18.787 15.79 13.367 17.527 9 21a16.86 16.86 0 00-6.46 13.8 15.45 15.45 0 001.8 8.09 14.53 14.53 0 005.6 5.59 44.377 44.377 0 006.71 3.24A74.87 74.87 0 0024.13 54c7.873 1.913 11.81 4.58 11.81 8 0 4.667-3.523 7-10.57 7-7.047 0-11.647-3-13.8-9L0 66.66a22.58 22.58 0 009.58 10.69 30.69 30.69 0 0015.79 3.86c6.88 0 12.643-1.7 17.29-5.1a16.48 16.48 0 007-14 16.18 16.18 0 00-1.84-8.32zm70.7-28.42c-6.14-6.393-13.437-9.587-21.89-9.58-9.447 0-16.7 3.527-21.76 10.58v-9H61.44v93h13.43V70.76c5.127 6.967 12.38 10.45 21.76 10.45a29.27 29.27 0 0021.89-9.45 32.31 32.31 0 009.08-23.26 32.145 32.145 0 00-9.08-23.13zm-10 37.43a19.066 19.066 0 01-14 5.6 19.08 19.08 0 01-14.06-5.6 19.91 19.91 0 01-5.59-14.3 19.23 19.23 0 015.59-14.18 18.83 18.83 0 0114.06-5.72 18.823 18.823 0 0114 5.72 19.244 19.244 0 015.6 14.18 19.66 19.66 0 01-5.55 14.3h-.05zm165.19 3.35h15.41V79.6h-28.86V30.34h-19.39V79.6h-13.43V30.34H216V17.41h11.44V3.98L240.87 0v17.41h19.39V3.98L273.71 0v17.41h15.41v12.93h-15.41v35.81zm85.68-17.52a33.001 33.001 0 00-8.83-23.26c-5.887-6.393-13.35-9.587-22.39-9.58-9.7 0-17.577 3.153-23.63 9.46a32 32 0 00-9.2 23.25c0 9.453 3.11 17.29 9.33 23.51 6.22 6.22 14.387 9.287 24.5 9.2 12.107 0 21.183-4.52 27.23-13.56l-11.06-6.46c-3.647 5.127-8.98 7.697-16 7.71a21.69 21.69 0 01-13.17-3.9 17.603 17.603 0 01-6.77-10.93l49.49-.07c.309-1.774.476-3.57.5-5.37zM309.27 43a17.867 17.867 0 016.34-10.91A18.9 18.9 0 01328.05 28a17.61 17.61 0 0111.63 4 17.811 17.811 0 016.15 11h-36.56zm75.37-15.14V17.41H371.2v62.18h13.44V48.25c0-6.38 1.907-10.94 5.72-13.68a20.341 20.341 0 0113.43-4.23V15.79c-9.37 0-15.79 4.36-19.15 12.07z" fill="#fff"/><path d="M139.37 72.19l6.6-6.6a4 4 0 012.57-1.17l8-.41-.41 8a4.004 4.004 0 01-1.13 2.6l-6.6 6.6-9.03-9.02zm9.02-56.4L155 22.4a4.004 4.004 0 011.16 2.6l.41 8-8-.4a3.998 3.998 0 01-2.57-1.18l-6.6-6.6 8.99-9.03zm56.4 9.03l-6.6 6.6a4.001 4.001 0 01-2.57 1.17l-8 .4.4-8a4.001 4.001 0 011.17-2.56l6.6-6.61 9 9zm-9.03 56.39l-6.6-6.6A3.997 3.997 0 01188 72l-.4-8 8 .41a4 4 0 012.57 1.17l6.6 6.6-9.01 9.03zM204.79 54h-14.11a4.31 4.31 0 01-2.65-.86l-6-4.67 6-4.67a4.311 4.311 0 012.65-.85h14.11V54zm-65.42-11h14.11a4.3 4.3 0 012.64.85l6 4.67-6 4.67a4.31 4.31 0 01-2.64.86h-14.11V43zm38.23-27.21V29.9a4.304 4.304 0 01-.85 2.65l-4.67 6-4.67-6a4.308 4.308 0 01-.86-2.65V15.79h11.05zm-11.05 65.42V67.1c-.012-.95.29-1.879.86-2.64l4.67-6 4.67 6a4.3 4.3 0 01.85 2.64v14.11h-11.05z" fill="#E74F3D"/><path d="M151.07 102.24a8.752 8.752 0 01-.91 3.93 7.32 7.32 0 01-2.71 3 7.205 7.205 0 01-3.89 1.11H139v-16h4.53a7.349 7.349 0 016.6 4.07 8.708 8.708 0 01.94 3.89zm-1 0a7.376 7.376 0 00-.78-3.47 6.629 6.629 0 00-2.38-2.62 6.369 6.369 0 00-3.41-1H140v14.07h3.53a6.346 6.346 0 005.79-3.55 7.377 7.377 0 00.75-3.43zm9.77-4.13V99a4.274 4.274 0 00-1.42-.22 4.5 4.5 0 00-1.46.24 2.997 2.997 0 00-1.16.71 3.422 3.422 0 00-1.08 1.68 10.41 10.41 0 00-.28 2.43v6.37h-.93v-12h.87v1.84a4.7 4.7 0 01.84-1 4.247 4.247 0 011.47-.87c.555-.199 1.14-.3 1.73-.3a5 5 0 011.42.23zm3.26-3.62v1.42h-.93v-1.42h.93zm0 3.77v12h-.93v-12h.93zm3.33 11.99V93.93h.94v16.32h-.94zm4.05 0V93.93h.93v16.32h-.93zm5.19-15.76v1.42h-.93v-1.42h.93zm0 3.77v12h-.93v-12h.93zm12.76 2.8a10.31 10.31 0 01.41 3.35v5.84h-.93v-5.84a10.873 10.873 0 00-.34-3 3.3 3.3 0 00-1.37-1.86 4.143 4.143 0 00-2.29-.62 4.249 4.249 0 00-1.43.24 3.49 3.49 0 00-1.19.71 4.002 4.002 0 00-1.2 2.31c-.103.49-.153.989-.15 1.49v6.59H179v-12h.87v2c.223-.366.492-.702.8-1a3.75 3.75 0 011.35-.84 5.502 5.502 0 011.6-.33c.15-.014.3-.014.45 0a4.61 4.61 0 012.64.78 4.295 4.295 0 011.72 2.18zm13.2-2.8v11.33a11.66 11.66 0 01-.32 3.12 4.074 4.074 0 01-1.26 1.87 5 5 0 01-1.83 1 6.991 6.991 0 01-2.14.32 5.842 5.842 0 01-2.42-.49 4.67 4.67 0 01-1.84-1.48 4.17 4.17 0 01-.45-.69l.87-.42c.088.189.199.367.33.53.39.523.911.933 1.51 1.19a5 5 0 002 .41 6.137 6.137 0 001.84-.27 4.01 4.01 0 001.51-.82 2.997 2.997 0 001-1.55c.19-.897.27-1.814.24-2.73V108l-.34.53a4.569 4.569 0 01-1.74 1.53 5.01 5.01 0 01-2.32.54 5.493 5.493 0 01-2.34-.5 5.097 5.097 0 01-1.84-1.46 7.086 7.086 0 01-1.26-4.39 7 7 0 011.26-4.38 5.056 5.056 0 014-1.93 5.61 5.61 0 012.41.52c.73.333 1.36.85 1.83 1.5.161.23.302.475.42.73v-2.43h.88zm-.87 6a6.13 6.13 0 00-1-3.8 3.462 3.462 0 00-1.48-1.18 4.81 4.81 0 00-2-.4 4.63 4.63 0 00-1.92.41 3.884 3.884 0 00-1.48 1.17 7.442 7.442 0 000 7.59c.385.517.894.93 1.48 1.2.601.28 1.257.424 1.92.42a4.584 4.584 0 001.95-.41 3.635 3.635 0 001.49-1.19 6.138 6.138 0 001.04-3.83v.02zm24.87 5.97h-.93V96.51l-6.22 13.74h-1l-6.22-13.74v13.74h-.93v-16h.89l6.78 14.87 6.73-14.86h.93l-.03 15.97zm2.85-9.73c.124-.224.264-.438.42-.64a4.709 4.709 0 011.83-1.43 5.774 5.774 0 012.37-.43 6 6 0 013 .71 4.002 4.002 0 011.82 2.15c.219.624.334 1.279.34 1.94v7.5h-.87v-2.62a5.272 5.272 0 01-1.11 1.33 6.232 6.232 0 01-1.44.94 6.628 6.628 0 01-2.74.66 4.994 4.994 0 01-2.12-.47 3.567 3.567 0 01-1.54-1.35 3.795 3.795 0 01-.56-2 3.197 3.197 0 011.65-2.91 6.082 6.082 0 011.69-.66c.6-.14 1.48-.3 2.64-.48l.51-.06 2.86-.4a3.478 3.478 0 00-1.08-2.38 3.422 3.422 0 00-1.35-.75 5.358 5.358 0 00-1.67-.25 4.78 4.78 0 00-2 .41 3.69 3.69 0 00-1.46 1.17c-.15.21-.26.36-.32.47l-.87-.45zm5.42 3.16c-.879.114-1.75.277-2.61.49a4.197 4.197 0 00-1.75.88 2.172 2.172 0 00-.71 1.71c0 .711.28 1.394.78 1.9.497.54 1.164.893 1.89 1 .183.011.367.011.55 0a5.306 5.306 0 002.6-.72 4.997 4.997 0 001.93-1.84 4.738 4.738 0 00.6-1.66c.09-.76.126-1.525.11-2.29l-3.39.53zm15.96-2.38a3.64 3.64 0 00-.51-.84 3.68 3.68 0 00-1.44-1.17 4.53 4.53 0 00-1.89-.41 5.067 5.067 0 00-2 .39c-.601.25-1.12.662-1.5 1.19a7.354 7.354 0 000 7.64c.384.511.894.914 1.48 1.17a4.904 4.904 0 003.88 0 3.708 3.708 0 001.48-1.17c.194-.258.358-.536.49-.83l.91.4a5.54 5.54 0 01-.62 1 4.744 4.744 0 01-1.82 1.45 5.992 5.992 0 01-4.76 0 4.744 4.744 0 01-1.82-1.45 7.158 7.158 0 01-1.28-4.39 7.344 7.344 0 011.28-4.42 4.994 4.994 0 014.2-1.91 5.77 5.77 0 012.37.48 4.76 4.76 0 011.83 1.43c.249.327.457.683.62 1.06l-.9.38zm12.65-.22a10.31 10.31 0 01.41 3.35v5.84H262v-5.84a11.272 11.272 0 00-.34-3 3.3 3.3 0 00-1.37-1.86 4.161 4.161 0 00-2.29-.62 4.21 4.21 0 00-1.43.24 3.406 3.406 0 00-1.19.71 4.002 4.002 0 00-1.2 2.31 6.564 6.564 0 00-.16 1.53v6.55h-.93v-16h.91v6c.22-.368.489-.705.8-1a3.75 3.75 0 011.35-.84 5.502 5.502 0 011.6-.33 2.45 2.45 0 01.44 0 4.62 4.62 0 012.65.78 4.354 4.354 0 011.67 2.18zm4.23-6.57v1.42h-.94v-1.42h.94zm0 3.77v12h-.94v-12h.94zm12.75 2.8c.325 1.086.463 2.218.41 3.35v5.84h-.9v-5.84a11.356 11.356 0 00-.33-3 3.268 3.268 0 00-1.38-1.86 4.102 4.102 0 00-2.28-.62 4.275 4.275 0 00-1.44.24 3.593 3.593 0 00-1.19.71 3.9 3.9 0 00-1.19 2.31 6.334 6.334 0 00-.16 1.49v6.59h-.93v-12h.86v2c.226-.364.495-.7.8-1 .39-.371.853-.657 1.36-.84a5.502 5.502 0 011.6-.33 2.45 2.45 0 01.44 0 4.61 4.61 0 012.64.78 4.25 4.25 0 011.69 2.18zm13.36 3.2v.26h-10a6.292 6.292 0 001.05 3.56c.388.505.897.904 1.48 1.16a4.625 4.625 0 002 .41 4.555 4.555 0 001.93-.41 3.799 3.799 0 001.49-1.16c.19-.26.354-.538.49-.83l.88.38a4.18 4.18 0 01-.59 1 4.817 4.817 0 01-1.83 1.44 5.864 5.864 0 01-4.74 0 4.998 4.998 0 01-1.83-1.44 7.156 7.156 0 01-1.29-4.39 7.342 7.342 0 011.29-4.42 4.62 4.62 0 011.82-1.41 6.07 6.07 0 014.73 0 4.72 4.72 0 011.84 1.43 7.479 7.479 0 011.28 4.42zm-9.93-.67h8.91a5.54 5.54 0 00-1-3.15 3.665 3.665 0 00-1.46-1.17 4.573 4.573 0 00-1.9-.41 4.91 4.91 0 00-2 .4 3.553 3.553 0 00-1.51 1.18 5.705 5.705 0 00-1.04 3.15zm18.86-9.33v15.06h8v.93h-8.89v-16l.89.01zm20.12 10v.26H312a6.294 6.294 0 001 3.56c.391.506.904.905 1.49 1.16a4.824 4.824 0 003.89 0 3.786 3.786 0 001.48-1.16c.197-.255.362-.534.49-.83l.89.38a3.91 3.91 0 01-.6 1 4.717 4.717 0 01-1.82 1.44 5.773 5.773 0 01-2.38.5 5.681 5.681 0 01-2.36-.5 4.896 4.896 0 01-1.83-1.44 7.156 7.156 0 01-1.29-4.39 7.342 7.342 0 011.29-4.42 4.617 4.617 0 011.83-1.43 6.07 6.07 0 014.73 0 4.617 4.617 0 011.83 1.43 7.472 7.472 0 011.26 4.44zm-9.93-.67h8.9a5.475 5.475 0 00-1-3.15 3.64 3.64 0 00-1.45-1.17 4.573 4.573 0 00-1.9-.41 5 5 0 00-2 .4c-.599.253-1.12.66-1.51 1.18a5.622 5.622 0 00-1.01 3.15h-.03zm12.1-3.09c.14-.23.28-.45.42-.64a4.82 4.82 0 011.84-1.43 5.69 5.69 0 012.36-.48 6.05 6.05 0 013 .71 4.002 4.002 0 011.82 2.15c.216.624.328 1.28.33 1.94v7.5H333v-2.62a4.897 4.897 0 01-1.11 1.33 5.868 5.868 0 01-1.44.94 6.564 6.564 0 01-2.73.66c-.733 0-1.456-.16-2.12-.47a3.513 3.513 0 01-1.54-1.35 3.795 3.795 0 01-.56-2 3.204 3.204 0 011.64-2.91 6.082 6.082 0 011.69-.66c.613-.14 1.493-.3 2.64-.48l.52-.06 2.86-.4a3.356 3.356 0 00-.705-1.961 3.356 3.356 0 00-1.725-1.17 5.472 5.472 0 00-1.68-.25 4.731 4.731 0 00-1.95.41 3.721 3.721 0 00-1.47 1.171 5.223 5.223 0 00-.31.47l-.94-.4zm5.42 3.16a24.33 24.33 0 00-2.61.49 4.101 4.101 0 00-1.74.88 2.155 2.155 0 00-.71 1.71c0 .709.276 1.391.77 1.9.497.54 1.164.893 1.89 1 .186.011.373.011.56 0a5.306 5.306 0 002.6-.72 4.845 4.845 0 002.53-3.5c.084-.76.121-1.525.11-2.29l-3.4.53zM343 98.11V99a4.32 4.32 0 00-1.42-.22c-.497-.002-.99.08-1.46.24a3.076 3.076 0 00-1.17.71 3.478 3.478 0 00-1.07 1.68 9.843 9.843 0 00-.28 2.43v6.37h-.93v-12h.86v1.84c.236-.371.522-.708.85-1a4.196 4.196 0 011.46-.87 5.18 5.18 0 011.74-.3 5 5 0 011.42.23zm11.57 2.95c.325 1.086.463 2.218.41 3.35v5.84h-.93v-5.84a11.356 11.356 0 00-.33-3 3.268 3.268 0 00-1.38-1.86 4.11 4.11 0 00-2.29-.62 4.249 4.249 0 00-1.43.24 3.49 3.49 0 00-1.19.71 4.003 4.003 0 00-1.2 2.31c-.103.49-.153.989-.15 1.49v6.59h-.93v-12h.85v2c.226-.364.495-.7.8-1 .39-.371.853-.657 1.36-.84.51-.19 1.046-.3 1.59-.33.15-.013.3-.013.45 0a4.61 4.61 0 012.64.78 4.253 4.253 0 011.73 2.18zm4.23-6.57v1.42h-.93v-1.42h.93zm0 3.77v12h-.93v-12h.93zm12.76 2.8a10.31 10.31 0 01.41 3.35v5.84H371v-5.84a10.873 10.873 0 00-.34-3 3.3 3.3 0 00-1.37-1.86 4.14 4.14 0 00-2.29-.62 4.249 4.249 0 00-1.43.24 3.49 3.49 0 00-1.19.71 4.002 4.002 0 00-1.2 2.31c-.103.49-.153.989-.15 1.49v6.59h-.94v-12h.91v2c.223-.366.492-.702.8-1a3.75 3.75 0 011.35-.84 5.499 5.499 0 011.6-.33c.15-.013.3-.013.45 0a4.61 4.61 0 012.64.78 4.295 4.295 0 011.72 2.18zm13.2-2.8v11.33a11.66 11.66 0 01-.32 3.12 4.066 4.066 0 01-1.26 1.87 5 5 0 01-1.83 1 6.991 6.991 0 01-2.14.32 5.874 5.874 0 01-2.42-.49 4.67 4.67 0 01-1.84-1.48 4.17 4.17 0 01-.45-.69l.87-.42c.088.189.199.367.33.53.39.523.911.933 1.51 1.19a5 5 0 002 .41 6.137 6.137 0 001.84-.27 4.01 4.01 0 001.51-.82 2.997 2.997 0 001-1.55c.19-.897.27-1.814.24-2.73V108l-.34.53a4.569 4.569 0 01-1.74 1.53 5.01 5.01 0 01-2.32.54 5.523 5.523 0 01-2.34-.5 5.097 5.097 0 01-1.84-1.46 7.086 7.086 0 01-1.26-4.39 7 7 0 011.26-4.38 5.056 5.056 0 014-1.93 5.61 5.61 0 012.41.52c.73.333 1.36.85 1.83 1.5.161.23.302.475.42.73v-2.43h.88zm-.87 6a6.13 6.13 0 00-1-3.8 3.462 3.462 0 00-1.48-1.18 4.81 4.81 0 00-2-.4 4.63 4.63 0 00-1.92.41 3.884 3.884 0 00-1.48 1.17 7.442 7.442 0 000 7.59c.385.517.894.93 1.48 1.2.601.28 1.257.424 1.92.42a4.584 4.584 0 001.95-.41 3.635 3.635 0 001.49-1.19 6.138 6.138 0 001.04-3.83v.02z" fill="#fff"/></g><defs><clipPath id="clip0_1002_711"><path fill="#fff" d="M0 0h403.79v115.91H0z"/></clipPath></defs></svg>