<svg width="276" height="40" fill="none" xmlns="http://www.w3.org/2000/svg"><path d="M77.303.337H62.584v39.326h4.158V27.247h10.561c10 0 16.068-5.056 16.068-13.427C93.37 5.393 87.303.337 77.303.337zm-.112 23.259h-10.45V3.933h10.45c7.865 0 12.022 3.595 12.022 9.887 0 6.18-4.157 9.776-12.022 9.776zM126.792 40c10.056 0 16.123-5.843 16.123-17.135V.337h-4.045v22.36c0 9.326-4.382 13.595-12.078 13.595-7.641 0-12.023-4.27-12.023-13.595V.337h-4.157v22.528c0 11.292 6.123 17.135 16.18 17.135zm36.965-.337h26.18v-3.596h-22.022V.337h-4.158v39.326zm51.801.337c10.056 0 14.663-4.944 14.663-10.73 0-14.326-24.213-7.81-24.213-18.596 0-3.932 3.202-7.135 10.393-7.135 3.483 0 7.416 1.068 10.787 3.259l1.404-3.315C225.446 1.293 220.839 0 216.401 0c-10 0-14.494 5-14.494 10.787 0 14.55 24.213 7.92 24.213 18.707 0 3.877-3.202 6.967-10.562 6.967-5.168 0-10.168-2.023-12.977-4.776l-1.629 3.203C203.873 37.92 209.659 40 215.558 40zm36.193-3.933V21.461h20.337v-3.54h-20.337V3.933h22.809V.337h-26.966v39.326h27.809v-3.596h-23.652z" fill="#fff"/><path d="M34.664.217H0v39.446L34.664.217z" fill="#E9623E"/></svg>