<svg width="333" height="40" fill="none" xmlns="http://www.w3.org/2000/svg"><path d="M73.427 40c10.056 0 14.663-4.944 14.663-10.73 0-14.326-24.214-7.81-24.214-18.596 0-3.932 3.203-7.135 10.393-7.135 3.484 0 7.416 1.068 10.787 3.259l1.404-3.315C83.316 1.293 78.709 0 74.27 0c-10 0-14.495 5-14.495 10.787 0 14.55 24.214 7.92 24.214 18.707 0 3.877-3.203 6.967-10.562 6.967-5.169 0-10.169-2.023-12.978-4.776l-1.629 3.203C61.741 37.92 67.528 40 73.427 40zm49.114 0c5.787 0 10.955-1.966 14.438-5.786l-2.64-2.641c-3.202 3.315-7.135 4.72-11.629 4.72-9.495 0-16.63-6.967-16.63-16.293s7.135-16.292 16.63-16.292c4.494 0 8.427 1.404 11.629 4.663l2.64-2.64C133.496 1.91 128.328 0 122.597 0c-11.854 0-20.618 8.483-20.618 20s8.764 20 20.562 20zm47.983 0c11.798 0 20.618-8.483 20.618-20s-8.82-20-20.618-20c-11.91 0-20.674 8.54-20.674 20s8.764 20 20.674 20zm0-3.708c-9.494 0-16.573-6.91-16.573-16.292 0-9.382 7.079-16.292 16.573-16.292 9.439 0 16.461 6.91 16.461 16.292 0 9.382-7.022 16.292-16.461 16.292zm69.656 3.371l-9.607-13.483c5.73-1.854 8.989-6.18 8.989-12.36 0-8.427-6.068-13.483-16.068-13.483h-14.719v39.326h4.158V27.19h10.561a28 28 0 003.146-.168l8.989 12.64h4.551zm-16.798-16.011h-10.449V3.932h10.449c7.865 0 12.022 3.596 12.022 9.888 0 6.18-4.157 9.832-12.022 9.832zm38.464 12.415V21.461h20.337v-3.54h-20.337V3.933h22.809V.337h-26.966v39.326h27.809v-3.596h-23.652z" fill="#fff"/><path d="M34.664.217H0v39.446L34.664.217z" fill="#E9623E"/><path d="M309.395 13.605h1.894V1.88h4.59V.217h-11.074v1.664h4.59v11.724zm22.815 0L332.191.217h-1.569l-5.508 9.41-5.584-9.41h-1.568v13.388h1.836V3.908l4.838 8.071h.88l4.839-8.128.019 9.754h1.836z" fill="#fff"/></svg>