<svg width="146" height="40" fill="none" xmlns="http://www.w3.org/2000/svg"><path d="M17.29 19.494a5.394 5.394 0 00-2.003-2.073 13.116 13.116 0 00-2.473-1.196 25.17 25.17 0 00-2.74-.764 13.474 13.474 0 01-3.15-1.24A1.94 1.94 0 015.84 12.53a2.004 2.004 0 01.922-1.758 4.082 4.082 0 012.369-.623c2.068 0 3.477.856 4.226 2.57l4.09-2.299A8.442 8.442 0 0014.1 6.962a9.892 9.892 0 00-4.968-1.24c-2.34 0-4.3.63-5.879 1.889a6.108 6.108 0 00-2.336 5.001 5.61 5.61 0 00.651 2.932 5.26 5.26 0 002.025 2.026 15.95 15.95 0 002.426 1.174c.887.323 1.79.598 2.705.826 2.847.694 4.27 1.66 4.27 2.9 0 1.691-1.274 2.537-3.822 2.537s-4.211-1.088-4.99-3.262L0 24.159a8.176 8.176 0 003.464 3.874 11.076 11.076 0 005.71 1.399c2.487 0 4.57-.616 6.25-1.849a5.968 5.968 0 002.532-5.073 5.876 5.876 0 00-.665-3.016zM42.854 9.195c-2.22-2.318-4.859-3.475-7.915-3.472-3.416 0-6.038 1.278-7.868 3.834V6.295h-4.856V40h4.856V25.645c1.854 2.524 4.476 3.787 7.868 3.787a10.56 10.56 0 007.915-3.425 11.714 11.714 0 003.283-8.43 11.672 11.672 0 00-3.283-8.382zM39.238 22.76a6.895 6.895 0 01-5.062 2.03 6.885 6.885 0 01-5.084-2.03 7.218 7.218 0 01-2.02-5.183 6.984 6.984 0 012.02-5.139 6.807 6.807 0 015.084-2.073 6.792 6.792 0 015.062 2.073 6.975 6.975 0 012.025 5.14 7.135 7.135 0 01-2.007 5.182h-.018zm59.728 1.214h5.572v4.874H94.103V10.996h-7.01v17.852h-4.857V10.996H78.1V6.31h4.136V1.442L87.092 0v6.31h7.011V1.442L98.966 0v6.31h5.572v4.686h-5.572v12.978zm30.98-6.35a11.974 11.974 0 00-3.193-8.43c-2.128-2.317-4.827-3.474-8.095-3.471-3.507 0-6.355 1.142-8.544 3.428a11.616 11.616 0 00-3.327 8.426c0 3.426 1.125 6.266 3.374 8.52 2.249 2.255 5.202 3.366 8.858 3.335 4.378 0 7.66-1.638 9.846-4.915l-3.999-2.34c-1.319 1.857-3.247 2.789-5.785 2.794a7.83 7.83 0 01-4.762-1.414 6.38 6.38 0 01-2.448-3.961l17.894-.026c.112-.642.172-1.293.181-1.946zm-18.122-2.04a6.48 6.48 0 012.292-3.954 6.826 6.826 0 014.498-1.482 6.361 6.361 0 014.206 1.45 6.46 6.46 0 012.223 3.986h-13.219zm27.252-5.487V6.31h-4.86v22.535h4.86V17.487c0-2.313.689-3.965 2.068-4.958A7.344 7.344 0 01146 10.996V5.723c-3.388 0-5.709 1.58-6.924 4.374z" fill="#fff"/><path d="M50.392 26.163l2.387-2.392c.248-.25.578-.4.93-.424l2.892-.149-.148 2.9a1.452 1.452 0 01-.41.942l-2.386 2.392-3.264-3.27zm3.262-20.44l2.39 2.395c.25.252.4.587.42.942l.148 2.9-2.893-.145a1.445 1.445 0 01-.93-.428l-2.386-2.392 3.25-3.272zm20.393 3.272l-2.387 2.392c-.248.25-.578.4-.929.424l-2.893.145.145-2.9c.024-.35.175-.68.423-.927l2.386-2.396 3.255 3.262zm-3.265 20.437l-2.387-2.392c-.25-.253-.4-.59-.42-.946l-.144-2.9 2.893.15c.35.023.681.173.929.423l2.386 2.392-3.257 3.273zm3.265-9.862h-5.102a1.556 1.556 0 01-.958-.31l-2.17-1.693 2.17-1.693c.276-.206.614-.314.958-.308h5.102v4.005zm-23.655-3.986h5.102c.344-.006.68.103.955.308l2.17 1.692-2.17 1.693c-.275.207-.61.316-.955.312h-5.102v-4.005zm13.824-9.861v5.113c.006.346-.102.683-.308.96l-1.688 2.175-1.689-2.174a1.565 1.565 0 01-.31-.96V5.722h3.995zM60.22 29.432v-5.114c-.004-.344.105-.68.311-.957l1.689-2.174 1.688 2.174c.206.277.314.613.308.957v5.114H60.22z" fill="#E74F3D"/></svg>