<svg width="1015" height="433" fill="none" xmlns="http://www.w3.org/2000/svg"><path d="M477.999 218.5c-6.9-10.4-16.1-20-27-30.9-20.1-20-50.4-43.8-80.5-43.8a74.7 74.7 0 100 149.4c16.8 0 44.6-7.8 81.4-44.8 7.1-7.1 13.4-14.2 18.8-20.7m41.8 62.2c-3 3.2-6 6.4-9.2 9.6-43.7 43.9-88.4 66.1-132.8 66.1-81.2 0-147.2-66-147.2-147.1s66-147.2 147.2-147.2c44.4 0 89.1 22.3 132.8 66.2 30.2 30.3 61.7 81 61.7 81l-52.5 71.4z" stroke="#EA5B2B" stroke-width="5" stroke-miterlimit="10"/><path d="M565 218.4a329.336 329.336 0 0027 30.9c20.1 20 50.4 43.8 80.6 43.8a74.7 74.7 0 100-149.4c-30.2 0-60.5 23.8-80.6 43.8-6.8 6.9-13.1 13.8-18.4 20.2m-44.7-59l10.8-11.3c43.7-43.9 88.4-66.2 132.9-66.2a147.197 147.197 0 01147.1 147.2c0 81.1-66 147.1-147.1 147.1-44.5 0-89.2-22.2-132.9-66.1-6.4-6.5-13-14-19.3-21.6-22.9-28.1-42.4-59.4-42.4-59.4l50.9-69.7z" stroke="#6C6C6C" stroke-width="5" stroke-miterlimit="10"/><path d="M651.1 223.9v16.3m12.3-20.1v20.1m12.2-25.9v25.9m12.199-30.7v30.7m-43-22.7s29-7.3 48.3-25.3" stroke="#6C6C6C" stroke-width="4" stroke-linecap="round" stroke-linejoin="round"/><path d="M684.799 190.4h10v10" stroke="#626262" stroke-width="4" stroke-linecap="round" stroke-linejoin="round"/><path d="M392.399 220.1l-4.6-7.5v-1a23 23 0 10-36.3 18.8v16.2a2.8 2.8 0 002.8 2.8h18.6a2.801 2.801 0 002.8-2.8v-9.7h8.7a1.813 1.813 0 001.273-.527 1.813 1.813 0 00.527-1.273v-12.2h4.7a1.798 1.798 0 001.801-1.888 1.803 1.803 0 00-.301-.912z" stroke="#EA5B2B" stroke-width="3" stroke-miterlimit="10"/><path d="M364.5 201.9v23.3" stroke="#EA5B2B" stroke-width="2" stroke-miterlimit="10"/><path d="M365.393 203.393a2.799 2.799 0 10-2.098-5.192 2.8 2.8 0 002.098 5.192zm.027 24.887a2.8 2.8 0 10-2.097-5.193 2.8 2.8 0 002.097 5.193z" fill="#EA5B2B"/><path d="M354.5 202.7v4.7h4.1v10.8h-4.1v4.7m-2.9-10h7.2" stroke="#EA5B2B" stroke-width="2" stroke-miterlimit="10"/><path d="M355.582 204.167a2.8 2.8 0 10-2.19-5.156 2.8 2.8 0 002.19 5.156zm-.027 22.235a2.8 2.8 0 10-2.189-5.154 2.8 2.8 0 002.189 5.154zm-3.94-10.871a2.8 2.8 0 10-2.188-5.155 2.8 2.8 0 002.188 5.155z" fill="#EA5B2B"/><path d="M374.899 202.7v4.7h-4.2v10.8h4.2v4.7m2.801-10h-7.2" stroke="#EA5B2B" stroke-width="2" stroke-miterlimit="10"/><path d="M377.355 202.593a2.8 2.8 0 10-5.215-2.043 2.8 2.8 0 005.215 2.043zm.068 22.2a2.8 2.8 0 10-5.215-2.044 2.8 2.8 0 005.215 2.044zm4.012-10.901a2.8 2.8 0 10-5.215-2.043 2.8 2.8 0 005.215 2.043z" fill="#EA5B2B"/><path d="M491.201 408v-9.9a2.699 2.699 0 001.6-2.5 2.703 2.703 0 00-2.6-2.7c-.541 0-1.068.175-1.5.5l-8.6-4.9c0-.2.1-.3.1-.4a2.69 2.69 0 00-.791-1.909 2.701 2.701 0 00-2.943-.586 2.697 2.697 0 00-1.461 1.462 2.707 2.707 0 00-.205 1.033.394.394 0 00.1.3l-8.7 5a2.7 2.7 0 00-4.2 2.2 2.699 2.699 0 001.7 2.5v9.7a2.597 2.597 0 00-1.7 2.5 2.698 2.698 0 002.7 2.6 2.698 2.698 0 001.7-.6l8.4 4.9a2.697 2.697 0 002.7 2.7 2.7 2.7 0 002.7-2.7.1.1 0 00-.008-.038.099.099 0 00-.054-.054.084.084 0 00-.038-.008l8.2-4.8c.415.356.954.535 1.5.5a2.6 2.6 0 001.4-4.9v.1zm-1.4 3.4a1.1 1.1 0 01-1.1-1.1 1.1 1.1 0 011.1-1.2 1.199 1.199 0 011.2 1.2 1.098 1.098 0 01-1.2 1.1zm-11.1 5.9a1.197 1.197 0 01-1.2 1.1 1.1 1.1 0 01-1.2-1.1 1.201 1.201 0 012.048-.849c.225.225.352.531.352.849zm-14-5.9a1.1 1.1 0 01-1.2-1.1 1.201 1.201 0 011.2-1.2 1.098 1.098 0 011.1 1.2 1.102 1.102 0 01-1.1 1.1zm1.7-3.1a2.301 2.301 0 00-1.2-.6v-9.4l4.7 8.1-3.5 1.9zm-1.7-13.9a1.199 1.199 0 110 2.398 1.199 1.199 0 010-2.398zm25.5 2.4a1.2 1.2 0 110-2.4 1.2 1.2 0 010 2.4zm-2.7-.8c0 .1.1.2.1.3l-8.2 4.6a2.301 2.301 0 00-1.2-.6V396h9.3zm-8.8 6.9a1.102 1.102 0 01-1.1 1.1 1.1 1.1 0 01-1.2-1.1 1.201 1.201 0 011.2-1.2 1.098 1.098 0 011.1 1.2zm-2-2.6l-1 .7-8.4-4.8v-.2h9.4v4.3zm-10.2-2.7l8.5 4.8c-.13.389-.13.81 0 1.2l-3.8 2.1-4.7-8.1zm9.2 7.2l1 .6v9.3h-.2l-4.6-7.9 3.8-2zm2.6 9.9h-.1v-9.3a2 2 0 001.1-.6l3.6 2.1-4.6 7.8zm1.8-11.1a2.03 2.03 0 00.1-.7v-.7l8.2-4.6h.1l-4.8 8-3.6-2zm9.6-5.1v9.1a1.99 1.99 0 00-1.5.6l-3.2-1.8 4.7-7.9zm-2.1-4h-9.4v-3.8a2.996 2.996 0 001.3-.9l8.1 4.7zm-10.1-7.6a1.208 1.208 0 01.848.351c.112.112.2.244.26.39a1.183 1.183 0 010 .918 1.194 1.194 0 01-1.957.389 1.191 1.191 0 01-.351-.848 1.2 1.2 0 011.2-1.2zm-.8 3.8v3.8h-9.4l8.2-4.7c.307.407.723.719 1.2.9zm-9.5 20.4c.076-.26.11-.53.1-.8a1.507 1.507 0 00-.1-.7l3.4-1.9 4.7 8-8.1-4.6zm12.3 4.5l4.7-8 3.1 1.8a2.787 2.787 0 00-.1.9c-.031.346.038.693.2 1l-7.8 4.4a.1.1 0 00-.03-.071.097.097 0 00-.07-.029zm56.699-77.9v-10a2.595 2.595 0 001.7-2.4 2.697 2.697 0 00-2.7-2.7c-.541 0-1.067.175-1.5.5l-8.5-5v-.3a2.701 2.701 0 00-5.267-1.18 2.701 2.701 0 00-.033 1.18v.3l-8.7 5a2.497 2.497 0 00-1.5-.5 2.697 2.697 0 00-2.7 2.7 2.507 2.507 0 001.7 2.4v9.8a2.605 2.605 0 00-1.7 2.4 2.706 2.706 0 001.537 2.439A2.7 2.7 0 00511.4 342l8.5 4.9a2.701 2.701 0 005.267 1.18c.098-.386.109-.789.033-1.18l8.1-4.7a3 3 0 001.6.5 2.702 2.702 0 002.6-2.7 2.496 2.496 0 00-1.3-2.3zm-1.3 3.4a1.199 1.199 0 01-1.2-1.2 1.098 1.098 0 011.2-1.1 1.09 1.09 0 011.016.679c.056.133.084.277.084.421a1.101 1.101 0 01-1.1 1.2zm-11.2 5.8a1.201 1.201 0 01-1.2 1.2 1.098 1.098 0 01-1.1-1.2 1.106 1.106 0 01.679-1.016 1.09 1.09 0 01.421-.084 1.1 1.1 0 011.2 1.1zm-14-5.8a1.199 1.199 0 01-1.2-1.2 1.098 1.098 0 011.2-1.1 1.202 1.202 0 011.2 1.1 1.201 1.201 0 01-1.2 1.2zm1.8-3.1a3.29 3.29 0 00-1.3-.7V328l4.7 8-3.4 2zm-1.8-13.9a1.201 1.201 0 011.2 1.2 1.197 1.197 0 01-1.2 1.1 1.103 1.103 0 01-1.108-.655 1.115 1.115 0 01-.092-.445 1.202 1.202 0 011.2-1.2zm25.5 2.3a1.103 1.103 0 01-1.108-.655 1.115 1.115 0 01-.092-.445 1.202 1.202 0 012.049-.849c.225.225.351.531.351.849a1.197 1.197 0 01-1.2 1.1zm-2.6-.7v.3l-8.1 4.6-1.2-.7v-4.2h9.3zm-8.8 6.8a1.201 1.201 0 01-2.4 0 1.202 1.202 0 011.2-1.1 1.1 1.1 0 011.2 1.1zm-2-2.5c-.42.136-.799.377-1.1.7l-8.4-4.9h9.5v4.2zm-10.3-2.8a.103.103 0 00.071-.029.1.1 0 00.029-.071l8.4 4.9c0 .2-.1.3-.1.5s.1.4.1.6l-3.8 2.2-4.7-8.1zm9.3 7.2a1.7 1.7 0 001 .6v9.4h-.3l-4.5-7.9 3.8-2.1zm2.5 10v-9.3a2.395 2.395 0 001.1-.6l3.6 2.1-4.7 7.8zm1.9-11.2c0-.2.1-.4.1-.7 0-.3-.1-.4-.1-.6l8.2-4.7c0 .027.011.052.029.071a.105.105 0 00.071.029l-4.8 8-3.5-2.1zm9.5-5.1v9.2a2.695 2.695 0 00-1.5.5L530 336l4.7-7.9zm-2.1-3.9h-9.3v-3.9a1.995 1.995 0 001.2-.8l8.1 4.7zm-10.1-7.6a1.201 1.201 0 011.2 1.2 1.098 1.098 0 01-1.2 1.1 1.102 1.102 0 01-1.1-1.1 1.1 1.1 0 011.1-1.2zm-.7 3.7v3.9h-9.5l8.2-4.7c.324.413.785.697 1.3.8zm-9.6 20.4c.125-.249.193-.522.2-.8 0-.2-.1-.4-.1-.7l3.4-1.9 4.7 8.1h-.1l-8.1-4.7zm12.4 4.5l4.7-7.9 3 1.8c0 .2-.1.5-.1.8.009.342.077.681.2 1l-7.7 4.5c-.1-.1-.1-.1-.1-.2zM638.8 55v-9.9a2.903 2.903 0 001.6-2.5 2.694 2.694 0 00-.791-1.91 2.7 2.7 0 00-1.909-.79 2.998 2.998 0 00-1.5.5l-8.5-4.9v-.4a2.702 2.702 0 00-2.65-3.217 2.696 2.696 0 00-2.617 2.037c-.098.386-.11.789-.033 1.18v.3l-8.6 5a3 3 0 00-1.6-.5 2.7 2.7 0 00-2.6 2.7 2.794 2.794 0 001.6 2.5v9.7a2.704 2.704 0 00-1.6 2.5 2.602 2.602 0 002.6 2.6 2.4 2.4 0 001.7-.6l8.5 4.9a2.702 2.702 0 002.65 2.183 2.698 2.698 0 002.65-2.183l8.2-4.7a2.4 2.4 0 001.5.4 2.702 2.702 0 002.7-2.6 2.9 2.9 0 00-1.3-2.3zm-1.4 3.4a1.1 1.1 0 01-1.2-1.1 1.2 1.2 0 112.4 0 1.201 1.201 0 01-1.2 1.1zm-11.2 5.9a1.105 1.105 0 01-.679 1.016 1.105 1.105 0 01-.421.084 1.1 1.1 0 01-1.2-1.1 1.2 1.2 0 011.2-1.2 1.099 1.099 0 011.1 1.2zm-14-5.9a1.1 1.1 0 01-1.1-1.1 1.099 1.099 0 011.1-1.2 1.199 1.199 0 011.2 1.2 1.109 1.109 0 01-.748 1.047c-.146.049-.3.067-.452.053zm1.8-3.1a2.601 2.601 0 00-1.3-.6v-9.4l4.7 8.1-3.4 1.9zm-1.8-13.9a1.199 1.199 0 110 2.398 1.199 1.199 0 010-2.398zm25.5 2.4a1.201 1.201 0 01-.849-2.049 1.201 1.201 0 012.049.849 1.2 1.2 0 01-1.2 1.2zm-2.6-.8a.396.396 0 00.1.3l-8.2 4.6a2.301 2.301 0 00-1.2-.6V43h9.3zm-8.8 6.9a1.109 1.109 0 01-.748 1.047c-.146.049-.3.067-.452.053a1.1 1.1 0 01-1.1-1.1 1.099 1.099 0 011.1-1.2 1.199 1.199 0 011.2 1.2zm-2-2.6c-.402.173-.773.41-1.1.7l-8.4-4.8V43h9.5v4.3zM614 44.6h.1l8.4 4.8v1.2l-3.8 2.1-4.7-8.1zm9.3 7.2l1 .6v9.3h-.2l-4.6-7.9 3.8-2zm2.5 9.9v-9.3c.413-.1.793-.306 1.1-.6l3.6 2.1-4.7 7.8zm1.9-11.1a2.03 2.03 0 00.1-.7 1.507 1.507 0 00-.1-.7l8.2-4.6h.1l-4.7 8-3.6-2zm9.6-5.1v9.1a1.998 1.998 0 00-1.5.6l-3.2-1.8 4.7-7.9zm-2.1-4h-9.4v-3.8a3.812 3.812 0 001.3-.9l8.1 4.7zm-10.1-7.6a1.199 1.199 0 110 2.398 1.199 1.199 0 010-2.398zm-.8 3.8v3.8h-9.4l8.1-4.7c.365.388.808.694 1.3.9zm-9.5 20.4c0-.3.1-.6.1-.8 0-.2-.1-.5-.1-.7l3.4-1.9 4.7 8-8.1-4.6zm12.3 4.5l4.7-8 3.1 1.8a2.9 2.9 0 00-.2.9c.019.341.086.678.2 1l-7.7 4.4-.1-.1zM582.599 80v-9.9a2.704 2.704 0 001.6-2.5 2.697 2.697 0 00-2.6-2.7 2.5 2.5 0 00-1.5.5l-8.6-4.9c0-.2.1-.3.1-.4a2.698 2.698 0 00-2.7-2.7 2.7 2.7 0 00-2.7 2.7.4.4 0 00.1.3l-8.7 5a2.7 2.7 0 00-4.2 2.2 2.703 2.703 0 001.7 2.5v9.7a2.605 2.605 0 00-1.7 2.5 2.703 2.703 0 004.4 2l8.4 4.9a2.702 2.702 0 004.609 1.91 2.698 2.698 0 00.791-1.91h-.1l8.2-4.8a2.1 2.1 0 001.5.5 2.598 2.598 0 002.59-3.621 2.595 2.595 0 00-1.19-1.28zm-1.4 3.4a1.101 1.101 0 01-1.1-1.1 1.099 1.099 0 011.1-1.2 1.201 1.201 0 011.2 1.2 1.1 1.1 0 01-1.2 1.1zm-11.1 5.9a1.197 1.197 0 01-1.2 1.1 1.105 1.105 0 01-1.108-.655 1.118 1.118 0 01-.092-.445 1.2 1.2 0 012.4 0zm-14-5.9a1.105 1.105 0 01-1.108-.655 1.118 1.118 0 01-.092-.445 1.2 1.2 0 011.2-1.2 1.107 1.107 0 01.816.357 1.108 1.108 0 01.284.843 1.101 1.101 0 01-1.1 1.1zm1.7-3.1a2.297 2.297 0 00-1.2-.6v-9.4l4.7 8.1-3.5 1.9zm-1.7-13.9a1.201 1.201 0 01.849 2.048 1.201 1.201 0 01-2.049-.848 1.2 1.2 0 011.2-1.2zm25.5 2.4a1.199 1.199 0 110-2.398 1.199 1.199 0 010 2.398zm-2.7-.8c0 .1.1.2.1.3l-8.2 4.6a2.297 2.297 0 00-1.2-.6V68h9.3zm-8.8 6.9a1.101 1.101 0 01-1.1 1.1 1.105 1.105 0 01-1.108-.655 1.118 1.118 0 01-.092-.445 1.2 1.2 0 011.2-1.2 1.107 1.107 0 01.816.357 1.108 1.108 0 01.284.843zm-2-2.6l-1 .7-8.4-4.8V68h9.4v4.3zm-10.2-2.7l8.5 4.8a1.803 1.803 0 000 1.2l-3.8 2.1-4.7-8.1zm9.2 7.2l1 .6v9.3h-.2l-4.6-7.9 3.8-2zm2.6 9.9h-.1v-9.3a1.998 1.998 0 001.1-.6l3.6 2.1-4.6 7.8zm1.8-11.1a1.98 1.98 0 00.1-.7v-.7l8.2-4.6h.1l-4.8 8-3.6-2zm9.6-5.1v9.1a1.998 1.998 0 00-1.5.6l-3.2-1.8 4.7-7.9zm-2.1-4h-9.4v-3.8c.506-.178.955-.49 1.3-.9l8.1 4.7zm-10.1-7.6a1.201 1.201 0 01.849 2.048 1.201 1.201 0 01-2.049-.848 1.2 1.2 0 011.2-1.2zm-.8 3.8v3.8h-9.4l8.2-4.7a2.7 2.7 0 001.2.9zm-9.5 20.4c.077-.26.11-.53.1-.8a1.494 1.494 0 00-.1-.7l3.4-1.9 4.7 8-8.1-4.6zm12.3 4.5l4.7-8 3.1 1.8a2.79 2.79 0 00-.1.9c-.031.346.038.693.2 1l-7.8 4.4-.1-.1zM518.3 112.5v-10a2.7 2.7 0 001.6-2.4 2.702 2.702 0 00-2.7-2.7 2.998 2.998 0 00-1.5.5l-8.5-5v-.3a2.702 2.702 0 00-2.65-3.217 2.696 2.696 0 00-2.617 2.037c-.098.386-.11.789-.033 1.18v.3l-8.6 5a3 3 0 00-1.6-.5 2.7 2.7 0 00-2.6 2.7 2.791 2.791 0 001.6 2.5v9.7a2.701 2.701 0 00-1.6 2.5 2.598 2.598 0 002.6 2.6 2.404 2.404 0 001.7-.6l8.5 4.9a2.7 2.7 0 005.3 0v-.2l8.2-4.7c.433.324.959.5 1.5.5a2.703 2.703 0 002.7-2.6 2.901 2.901 0 00-1.3-2.2zm-1.4 3.4a1.1 1.1 0 01-1.2-1.1 1.201 1.201 0 012.048-.849c.225.225.352.531.352.849a1.197 1.197 0 01-1.2 1.1zm-11.2 5.9a1.11 1.11 0 01-.322.778 1.1 1.1 0 01-.778.322 1.1 1.1 0 01-1.2-1.1 1.201 1.201 0 011.2-1.2 1.098 1.098 0 011.1 1.2zm-14-5.9a1.1 1.1 0 01-1.1-1.1 1.1 1.1 0 011.1-1.2 1.199 1.199 0 011.2 1.2 1.098 1.098 0 01-1.2 1.1zm1.8-3.1c-.36-.35-.81-.592-1.3-.7v-9.3l4.7 8-3.4 2zm-1.8-13.9a1.199 1.199 0 010 2.4 1.202 1.202 0 01-1.1-1.2 1.1 1.1 0 011.1-1.2zm25.5 2.4a1.202 1.202 0 01-1.1-1.2 1.1 1.1 0 011.1-1.2 1.199 1.199 0 010 2.4zm-2.6-.8a.394.394 0 00.1.3l-8.2 4.6a2.297 2.297 0 00-1.2-.6v-4.3h9.3zm-8.8 6.8a1.2 1.2 0 01-1.2 1.2 1.107 1.107 0 01-.816-.357 1.107 1.107 0 01-.284-.843 1.09 1.09 0 01.679-1.016c.133-.056.276-.084.421-.084a1.103 1.103 0 011.108.654c.061.141.092.293.092.446zm-2-2.5a4.08 4.08 0 00-1.1.7l-8.4-4.9h9.5v4.2zm-10.3-2.8h.1l8.4 4.8v1.1l-3.8 2.2-4.7-8.1zm9.3 7.2l1 .7v9.3h-.2l-4.6-7.9 3.8-2.1zm2.5 10v-9.3a2.4 2.4 0 001.1-.6l3.6 2.1-4.7 7.8zm1.9-11.2c.088-.222.123-.462.1-.7a1.311 1.311 0 00-.1-.6l8.2-4.6h.1l-4.7 8-3.6-2.1zm9.6-5v9.1a1.983 1.983 0 00-.813.142 1.982 1.982 0 00-.687.458l-3.2-1.9 4.7-7.8zm-2.1-4h-9.4v-3.9c.503-.13.956-.41 1.3-.8l8.1 4.7zm-10.1-7.6a1.099 1.099 0 011.1 1.2 1.2 1.2 0 01-1.1 1.2 1.201 1.201 0 01-.849-2.049c.225-.225.531-.351.849-.351zm-.8 3.7V99h-9.4l8.1-4.7c.343.39.796.67 1.3.8zm-9.5 20.4c0-.2.1-.5.1-.7 0-.2-.1-.5-.1-.7l3.4-2 4.7 8.1-8.1-4.7zm12.3 4.5l4.7-7.9 3.1 1.8c-.124.284-.192.59-.2.9.018.309.086.612.2.9l-7.7 4.5-.1-.2z" fill="#6C6C6C"/><path d="M394.5 396.2H454l43.5-62" stroke="#6C6C6C" stroke-width="3" stroke-miterlimit="10"/><path d="M389.599 401.7a5.4 5.4 0 100-10.8 5.4 5.4 0 000 10.8zM795 378v-32.57L774 333" stroke="#6C6C6C" stroke-width="3" stroke-miterlimit="10"/><path d="M797.506 388.261a5.39 5.39 0 10-4.427-9.828 5.39 5.39 0 004.427 9.828z" stroke="#6C6C6C" stroke-width="2.994" stroke-miterlimit="10"/><path d="M693.3 11.3h-59.5l-47.7 52.6" stroke="#6C6C6C" stroke-width="3" stroke-miterlimit="10"/><path d="M698.199 16.6a5.4 5.4 0 100-10.8 5.4 5.4 0 000 10.8zM244.299 53v43.5l14.1 13.7" stroke="#6C6C6C" stroke-width="3" stroke-miterlimit="10"/><path d="M244.237 53.573a5.4 5.4 0 10-.395-10.793 5.4 5.4 0 00.395 10.793z" stroke="#6C6C6C" stroke-width="3" stroke-miterlimit="10"/><path d="M275.26 404.6h3.24v-14h-3.24v14zm22.342 0l-.04-14h-2.66l-5.16 8.7-5.24-8.7h-2.68v14h3.04v-8.22l4.1 6.74h1.46l4.12-6.92.02 8.4h3.04zm9.382-14h-6.06v14h3.24v-3.86h2.82c3.74 0 6.08-1.94 6.08-5.06 0-3.14-2.34-5.08-6.08-5.08zm-.18 7.5h-2.64v-4.86h2.64c1.98 0 2.98.9 2.98 2.44 0 1.52-1 2.42-2.98 2.42zm20.973 6.5l-3.14-4.5c1.82-.78 2.88-2.32 2.88-4.42 0-3.14-2.34-5.08-6.08-5.08h-6.06v14h3.24v-3.9h2.98l2.7 3.9h3.48zm-3.54-8.92c0 1.52-1 2.44-2.98 2.44h-2.64v-4.88h2.64c1.98 0 2.98.9 2.98 2.44zm12.627 9.16c4.4 0 7.66-3.06 7.66-7.24s-3.26-7.24-7.66-7.24c-4.42 0-7.66 3.08-7.66 7.24s3.24 7.24 7.66 7.24zm0-2.76c-2.5 0-4.38-1.82-4.38-4.48s1.88-4.48 4.38-4.48 4.38 1.82 4.38 4.48-1.88 4.48-4.38 4.48zm19.866-11.48l-4.32 10-4.26-10h-3.5l6.04 14h3.2l6.06-14h-3.22zm7.609 11.4v-3.24h6.5v-2.52h-6.5v-3.04h7.36v-2.6h-10.58v14h10.84V402h-7.62zm450.441-15.6v-3.24h6.5v-2.52h-6.5v-3.04h7.36V375h-10.58v14h10.84v-2.6h-7.62zm22.622 2.6l-5.22-7.24 4.88-6.76h-3.5l-3.16 4.54-3.22-4.54h-3.68l4.92 6.88-5.18 7.12h3.72l3.32-4.86 3.38 4.86h3.74zm4.488-2.6v-3.24h6.5v-2.52h-6.5v-3.04h7.36V375h-10.58v14h10.84v-2.6h-7.62zm16.859 2.84c2.44 0 4.46-.88 5.78-2.5l-2.08-1.92c-.94 1.1-2.12 1.66-3.52 1.66-2.62 0-4.48-1.84-4.48-4.48 0-2.64 1.86-4.48 4.48-4.48 1.4 0 2.58.56 3.52 1.64l2.08-1.92c-1.32-1.6-3.34-2.48-5.76-2.48-4.36 0-7.6 3.02-7.6 7.24 0 4.22 3.24 7.24 7.58 7.24zm14.07 0c3.98 0 6.34-2.28 6.34-6.4V375h-3.2v7.72c0 2.66-1.14 3.76-3.12 3.76-1.96 0-3.12-1.1-3.12-3.76V375h-3.24v7.84c0 4.12 2.36 6.4 6.34 6.4zm12.208-.24h3.24v-11.36h4.48V375h-12.2v2.64h4.48V389zm12.683-2.6v-3.24h6.5v-2.52h-6.5v-3.04h7.36V375h-10.58v14h10.84v-2.6h-7.62zM829.62 399l-3.26 9.92-3.2-9.92h-3l-3.3 9.84-3.16-9.84h-3.36l4.6 14h3.46l3.18-9.48 3.08 9.48h3.48l4.58-14h-3.1zm4.909 14h3.24v-14h-3.24v14zm9.463 0h3.24v-11.36h4.48V399h-12.2v2.64h4.48V413zm19.063-14v5.52h-6.36V399h-3.24v14h3.24v-5.74h6.36V413h3.24v-14h-3.24zm18.916 14.24c2.44 0 4.46-.88 5.78-2.5l-2.08-1.92c-.94 1.1-2.12 1.66-3.52 1.66-2.62 0-4.48-1.84-4.48-4.48 0-2.64 1.86-4.48 4.48-4.48 1.4 0 2.58.56 3.52 1.64l2.08-1.92c-1.32-1.6-3.34-2.48-5.76-2.48-4.36 0-7.6 3.02-7.6 7.24 0 4.22 3.24 7.24 7.58 7.24zm14.455 0c4.4 0 7.66-3.06 7.66-7.24s-3.26-7.24-7.66-7.24c-4.42 0-7.66 3.08-7.66 7.24s3.24 7.24 7.66 7.24zm0-2.76c-2.5 0-4.38-1.82-4.38-4.48s1.88-4.48 4.38-4.48 4.38 1.82 4.38 4.48-1.88 4.48-4.38 4.48zM916.161 399v8.5l-6.96-8.5h-2.68v14h3.2v-8.5l6.98 8.5h2.66v-14h-3.2zm17.093 2.6V399h-10.58v14h3.24v-5.1h6.48v-2.6h-6.48v-3.7h7.34zm2.193 11.4h3.24v-14h-3.24v14zm6.563 0h6.36c4.58 0 7.72-2.76 7.72-7s-3.14-7-7.72-7h-6.36v14zm3.24-2.66v-8.68h2.96c2.78 0 4.6 1.66 4.6 4.34 0 2.68-1.82 4.34-4.6 4.34h-2.96zm16.503.06v-3.24h6.5v-2.52h-6.5v-3.04h7.36V399h-10.58v14h10.84v-2.6h-7.62zm19.838-11.4v8.5l-6.96-8.5h-2.68v14h3.2v-8.5l6.98 8.5h2.66v-14h-3.2zm13.212 14.24c2.44 0 4.46-.88 5.777-2.5l-2.077-1.92c-.94 1.1-2.12 1.66-3.52 1.66-2.62 0-4.48-1.84-4.48-4.48 0-2.64 1.86-4.48 4.48-4.48 1.4 0 2.58.56 3.52 1.64l2.077-1.92c-1.317-1.6-3.337-2.48-5.757-2.48-4.36 0-7.6 3.02-7.6 7.24 0 4.22 3.24 7.24 7.58 7.24zm11.187-2.84v-3.24h6.5v-2.52h-6.5v-3.04h7.36V399h-10.58v14h10.84v-2.6h-7.62zm-827.774 12.792c.88-.432 1.504-1.28 1.504-2.496 0-1.808-1.44-2.896-4.016-2.896h-5.024V429h5.344c2.832 0 4.288-1.104 4.288-3.024 0-1.488-.832-2.432-2.096-2.784zm-2.656-4.096c1.632 0 2.56.608 2.56 1.792 0 1.184-.928 1.792-2.56 1.792h-3.28v-3.584h3.28zm.4 8.608h-3.68v-3.728h3.68c1.776 0 2.736.576 2.736 1.872 0 1.296-.96 1.856-2.736 1.856zm14.269-2.896c0-2.608-1.744-4.368-4.192-4.368-2.448 0-4.256 1.808-4.256 4.32 0 2.528 1.824 4.336 4.56 4.336 1.408 0 2.576-.48 3.344-1.376l-.848-.992c-.624.688-1.456 1.024-2.448 1.024-1.68 0-2.88-.992-3.072-2.48h6.88c.016-.144.032-.336.032-.464zm-4.192-3.072c1.488 0 2.56 1.008 2.72 2.432h-5.44c.16-1.44 1.248-2.432 2.72-2.432zm10.853-1.296c-1.344 0-2.432.496-3.056 1.36v-1.28h-1.472V429h1.536v-4.368c0-1.84 1.056-2.816 2.688-2.816 1.456 0 2.288.816 2.288 2.48V429h1.536v-4.88c0-2.496-1.456-3.68-3.52-3.68zm10.106 8.656c1.52 0 2.784-.64 3.456-1.824l-1.168-.736c-.544.832-1.376 1.216-2.304 1.216-1.664 0-2.912-1.152-2.912-2.992 0-1.808 1.248-2.976 2.912-2.976.928 0 1.76.384 2.304 1.216l1.168-.752c-.672-1.184-1.936-1.808-3.456-1.808-2.608 0-4.48 1.792-4.48 4.32 0 2.528 1.872 4.336 4.48 4.336zm9.863-8.656c-1.296 0-2.352.464-2.992 1.28v-4.592h-1.536V429h1.536v-4.368c0-1.84 1.056-2.816 2.688-2.816 1.456 0 2.288.816 2.288 2.48V429h1.536v-4.88c0-2.496-1.456-3.68-3.52-3.68zm16.971 0c-1.44 0-2.624.608-3.264 1.568-.56-1.056-1.648-1.568-2.944-1.568-1.28 0-2.32.48-2.928 1.344v-1.264h-1.472V429h1.536v-4.368c0-1.84 1.008-2.816 2.544-2.816 1.392 0 2.192.816 2.192 2.48V429h1.536v-4.368c0-1.84 1.008-2.816 2.544-2.816 1.392 0 2.192.816 2.192 2.48V429h1.536v-4.88c0-2.496-1.408-3.68-3.472-3.68zm9.386 0c-1.36 0-2.624.384-3.504 1.088l.64 1.152c.656-.56 1.68-.912 2.688-.912 1.52 0 2.272.752 2.272 2.048v.304h-2.432c-2.528 0-3.408 1.12-3.408 2.48 0 1.472 1.216 2.496 3.136 2.496 1.328 0 2.272-.448 2.784-1.216V429h1.456v-5.12c0-2.32-1.312-3.44-3.632-3.44zm-.352 7.472c-1.168 0-1.872-.528-1.872-1.376 0-.72.432-1.312 1.952-1.312h2.368v1.184c-.384.976-1.296 1.504-2.448 1.504zm8.298-5.968v-1.424h-1.472V429h1.536v-4.224c0-1.856 1.024-2.864 2.672-2.864.112 0 .224 0 .352.016v-1.488c-1.488 0-2.544.512-3.088 1.504zM262.624 429h1.888l-3.92-4.976 3.568-3.504h-1.856l-4.624 4.224v-7.616h-1.536V429h1.536v-2.32l1.76-1.632 3.184 3.952zm12.172-8.56c-1.248 0-2.336.48-3.024 1.424v-1.344H270.3v11.584h1.536v-4.384c.704.912 1.76 1.376 2.96 1.376 2.48 0 4.288-1.728 4.288-4.336 0-2.592-1.808-4.32-4.288-4.32zm-.128 7.312c-1.616 0-2.848-1.184-2.848-2.992 0-1.792 1.232-2.976 2.848-2.976 1.632 0 2.864 1.184 2.864 2.976 0 1.808-1.232 2.992-2.864 2.992zm14.202-2.944c0-2.608-1.744-4.368-4.192-4.368-2.448 0-4.256 1.808-4.256 4.32 0 2.528 1.824 4.336 4.56 4.336 1.408 0 2.576-.48 3.344-1.376l-.848-.992c-.624.688-1.456 1.024-2.448 1.024-1.68 0-2.88-.992-3.072-2.48h6.88c.016-.144.032-.336.032-.464zm-4.192-3.072c1.488 0 2.56 1.008 2.72 2.432h-5.44c.16-1.44 1.248-2.432 2.72-2.432zm7.797.208v-1.424h-1.472V429h1.536v-4.224c0-1.856 1.024-2.864 2.672-2.864.112 0 .224 0 .352.016v-1.488c-1.488 0-2.544.512-3.088 1.504zm8.194-3.648c.448 0 .864.16 1.184.4l.464-1.168c-.432-.336-1.072-.496-1.728-.496-1.808 0-2.8 1.088-2.8 2.736v.752h-1.44v1.264h1.44V429h1.536v-7.216h2.432v-1.264h-2.464v-.736c0-.976.464-1.488 1.376-1.488zm6.044 10.8c2.544 0 4.4-1.808 4.4-4.336 0-2.528-1.856-4.32-4.4-4.32-2.544 0-4.416 1.792-4.416 4.32 0 2.528 1.872 4.336 4.416 4.336zm0-1.344c-1.632 0-2.864-1.184-2.864-2.992s1.232-2.976 2.864-2.976 2.848 1.168 2.848 2.976-1.216 2.992-2.848 2.992zm7.996-5.808v-1.424h-1.472V429h1.536v-4.224c0-1.856 1.024-2.864 2.672-2.864.112 0 .224 0 .352.016v-1.488c-1.488 0-2.544.512-3.088 1.504zm15.589-1.504c-1.44 0-2.624.608-3.264 1.568-.56-1.056-1.648-1.568-2.944-1.568-1.28 0-2.32.48-2.928 1.344v-1.264h-1.472V429h1.536v-4.368c0-1.84 1.008-2.816 2.544-2.816 1.392 0 2.192.816 2.192 2.48V429h1.536v-4.368c0-1.84 1.008-2.816 2.544-2.816 1.392 0 2.192.816 2.192 2.48V429h1.536v-4.88c0-2.496-1.408-3.68-3.472-3.68zm9.387 0c-1.36 0-2.624.384-3.504 1.088l.64 1.152c.656-.56 1.68-.912 2.688-.912 1.52 0 2.272.752 2.272 2.048v.304h-2.432c-2.528 0-3.408 1.12-3.408 2.48 0 1.472 1.216 2.496 3.136 2.496 1.328 0 2.272-.448 2.784-1.216V429h1.456v-5.12c0-2.32-1.312-3.44-3.632-3.44zm-.352 7.472c-1.168 0-1.872-.528-1.872-1.376 0-.72.432-1.312 1.952-1.312h2.368v1.184c-.384.976-1.296 1.504-2.448 1.504zm11.354-7.472c-1.344 0-2.432.496-3.056 1.36v-1.28h-1.472V429h1.536v-4.368c0-1.84 1.056-2.816 2.688-2.816 1.456 0 2.288.816 2.288 2.48V429h1.536v-4.88c0-2.496-1.456-3.68-3.52-3.68zm10.106 8.656c1.52 0 2.784-.64 3.456-1.824l-1.168-.736c-.544.832-1.376 1.216-2.304 1.216-1.664 0-2.912-1.152-2.912-2.992 0-1.808 1.248-2.976 2.912-2.976.928 0 1.76.384 2.304 1.216l1.168-.752c-.672-1.184-1.936-1.808-3.456-1.808-2.608 0-4.48 1.792-4.48 4.32 0 2.528 1.872 4.336 4.48 4.336zm12.983-4.288c0-2.608-1.744-4.368-4.192-4.368-2.448 0-4.256 1.808-4.256 4.32 0 2.528 1.824 4.336 4.56 4.336 1.408 0 2.576-.48 3.344-1.376l-.848-.992c-.624.688-1.456 1.024-2.448 1.024-1.68 0-2.88-.992-3.072-2.48h6.88c.016-.144.032-.336.032-.464zm-4.192-3.072c1.488 0 2.56 1.008 2.72 2.432h-5.44c.16-1.44 1.248-2.432 2.72-2.432zM725.319 19.9h3.4l-6.26-14h-3.2l-6.24 14h3.32l1.24-3h6.5l1.24 3zm-6.7-5.46l2.22-5.36 2.22 5.36h-4.44zm21.193-8.54v8.5l-6.96-8.5h-2.68v14h3.2v-8.5l6.98 8.5h2.66v-14h-3.2zm16.972 14h3.4l-6.26-14h-3.2l-6.24 14h3.32l1.24-3h6.5l1.24 3zm-6.7-5.46l2.22-5.36 2.22 5.36h-4.44zm11.553 5.46h10.26v-2.64h-7.02V5.9h-3.24v14zm22.785-14h-3.18l-3.74 6.22-3.74-6.22h-3.44l5.42 9v5h3.24v-4.96l5.44-9.04zm4.735 11.36l7.66-9.26V5.9h-11.78v2.64h7.52l-7.68 9.26v2.1h12.24v-2.64h-7.96zm13.258.04v-3.24h6.5v-2.52h-6.5V8.5h7.36V5.9h-10.58v14h10.84v-2.6h-7.62zm-83.227 26.028c1.744 0 3.248-.608 4.272-1.76l-1.04-1.008c-.864.912-1.92 1.344-3.152 1.344-2.528 0-4.4-1.824-4.4-4.304 0-2.48 1.872-4.304 4.4-4.304 1.232 0 2.288.416 3.152 1.328l1.04-1.008c-1.024-1.152-2.528-1.744-4.256-1.744-3.408 0-5.936 2.416-5.936 5.728s2.528 5.728 5.92 5.728zm9.603-.032c2.544 0 4.4-1.808 4.4-4.336 0-2.528-1.856-4.32-4.4-4.32-2.544 0-4.416 1.792-4.416 4.32 0 2.528 1.872 4.336 4.416 4.336zm0-1.344c-1.632 0-2.864-1.184-2.864-2.992s1.232-2.976 2.864-2.976 2.848 1.168 2.848 2.976-1.216 2.992-2.848 2.992zm11.052-7.312c-1.344 0-2.432.496-3.056 1.36v-1.28h-1.472v8.48h1.536v-4.368c0-1.84 1.056-2.816 2.688-2.816 1.456 0 2.288.816 2.288 2.48V43.2h1.536v-4.88c0-2.496-1.456-3.68-3.52-3.68zm10.651 6.96c-.32.256-.752.4-1.2.4-.848 0-1.328-.512-1.328-1.424v-4.592h2.432V34.72h-2.432v-1.856h-1.536v1.856h-1.44v1.264h1.44v4.656c0 1.712.976 2.656 2.688 2.656.688 0 1.392-.192 1.856-.592l-.48-1.104zm3.105-8.512c.608 0 1.04-.448 1.04-1.024 0-.544-.448-.976-1.04-.976-.592 0-1.04.448-1.04 1.008s.448.992 1.04.992zm-.768 10.112h1.536v-8.48h-1.536v8.48zm8.997-8.56c-1.344 0-2.432.496-3.056 1.36v-1.28H757.3v8.48h1.536v-4.368c0-1.84 1.056-2.816 2.688-2.816 1.456 0 2.288.816 2.288 2.48V43.2h1.536v-4.88c0-2.496-1.456-3.68-3.52-3.68zm10.041 8.656c2.544 0 4.4-1.808 4.4-4.336 0-2.528-1.856-4.32-4.4-4.32-2.544 0-4.416 1.792-4.416 4.32 0 2.528 1.872 4.336 4.416 4.336zm0-1.344c-1.632 0-2.864-1.184-2.864-2.992s1.232-2.976 2.864-2.976 2.848 1.168 2.848 2.976-1.216 2.992-2.848 2.992zm12.893-7.232v4.384c0 1.824-1.024 2.816-2.624 2.816-1.456 0-2.288-.832-2.288-2.496V34.72h-1.536v4.88c0 2.496 1.456 3.696 3.648 3.696 1.2 0 2.256-.496 2.88-1.376v1.28h1.456v-8.48h-1.536zm6.892 8.576c2.256 0 3.664-.976 3.664-2.512 0-3.296-5.376-1.664-5.376-3.664 0-.672.656-1.168 2-1.168.832 0 1.68.176 2.448.672l.656-1.216c-.736-.48-1.984-.768-3.088-.768-2.176 0-3.536 1.024-3.536 2.544 0 3.376 5.36 1.728 5.36 3.632 0 .72-.592 1.152-2.016 1.152-1.104 0-2.256-.368-2.976-.88l-.64 1.216c.704.56 2.096.992 3.504.992zm10.648-10.208c.608 0 1.04-.448 1.04-1.024 0-.544-.448-.976-1.04-.976-.592 0-1.04.448-1.04 1.008s.448.992 1.04.992zm-.768 10.112h1.536v-8.48h-1.536v8.48zm15.077-8.56c-1.44 0-2.624.608-3.264 1.568-.56-1.056-1.648-1.568-2.944-1.568-1.28 0-2.32.48-2.928 1.344V34.72h-1.472v8.48h1.536v-4.368c0-1.84 1.008-2.816 2.544-2.816 1.392 0 2.192.816 2.192 2.48V43.2h1.536v-4.368c0-1.84 1.008-2.816 2.544-2.816 1.392 0 2.192.816 2.192 2.48V43.2h1.536v-4.88c0-2.496-1.408-3.68-3.472-3.68zm10.794 0c-1.248 0-2.336.48-3.024 1.424V34.72h-1.472v11.584h1.536V41.92c.704.912 1.76 1.376 2.96 1.376 2.48 0 4.288-1.728 4.288-4.336 0-2.592-1.808-4.32-4.288-4.32zm-.128 7.312c-1.616 0-2.848-1.184-2.848-2.992 0-1.792 1.232-2.976 2.848-2.976 1.632 0 2.864 1.184 2.864 2.976 0 1.808-1.232 2.992-2.864 2.992zm8.01-5.808V34.72h-1.472v8.48h1.536v-4.224c0-1.856 1.024-2.864 2.672-2.864.112 0 .224 0 .352.016V34.64c-1.488 0-2.544.512-3.088 1.504zm8.535 7.152c2.544 0 4.4-1.808 4.4-4.336 0-2.528-1.856-4.32-4.4-4.32-2.544 0-4.416 1.792-4.416 4.32 0 2.528 1.872 4.336 4.416 4.336zm0-1.344c-1.632 0-2.864-1.184-2.864-2.992s1.232-2.976 2.864-2.976 2.848 1.168 2.848 2.976-1.216 2.992-2.848 2.992zm12.29-7.232l-2.976 6.8-2.912-6.8h-1.6l3.712 8.48h1.568l3.712-8.48h-1.504zm10.367 4.288c0-2.608-1.744-4.368-4.192-4.368-2.448 0-4.256 1.808-4.256 4.32 0 2.528 1.824 4.336 4.56 4.336 1.408 0 2.576-.48 3.344-1.376l-.848-.992c-.624.688-1.456 1.024-2.448 1.024-1.68 0-2.88-.992-3.072-2.48h6.88c.016-.144.032-.336.032-.464zm-4.192-3.072c1.488 0 2.56 1.008 2.72 2.432h-5.44c.16-1.44 1.248-2.432 2.72-2.432z" fill="#A5A4A5"/><path d="M67.178 53.24c4 0 5.94-2 5.94-4.34 0-5.14-8.14-3.36-8.14-5.94 0-.88.74-1.6 2.66-1.6 1.24 0 2.58.36 3.88 1.1l1-2.46c-1.3-.82-3.1-1.24-4.86-1.24-3.98 0-5.9 1.98-5.9 4.36 0 5.2 8.14 3.4 8.14 6.02 0 .86-.78 1.5-2.7 1.5-1.68 0-3.44-.6-4.62-1.46l-1.1 2.44c1.24.96 3.48 1.62 5.7 1.62zM78.037 53h3.24V41.64h4.48V39h-12.2v2.64h4.48V53zm19.22 0h3.4l-6.26-14h-3.2l-6.24 14h3.32l1.24-3h6.5l1.24 3zm-6.7-5.46l2.22-5.36 2.22 5.36h-4.44zM113.41 39h-3.18l-3.74 6.22-3.74-6.22h-3.44l5.42 9v5h3.24v-4.96l5.44-9.04zm13.72 14.24c2.44 0 4.46-.88 5.78-2.5l-2.08-1.92c-.94 1.1-2.12 1.66-3.52 1.66-2.62 0-4.48-1.84-4.48-4.48 0-2.64 1.86-4.48 4.48-4.48 1.4 0 2.58.56 3.52 1.64l2.08-1.92c-1.32-1.6-3.34-2.48-5.76-2.48-4.36 0-7.6 3.02-7.6 7.24 0 4.22 3.24 7.24 7.58 7.24zm14.07 0c3.98 0 6.34-2.28 6.34-6.4V39h-3.2v7.72c0 2.66-1.14 3.76-3.12 3.76-1.96 0-3.12-1.1-3.12-3.76V39h-3.24v7.84c0 4.12 2.36 6.4 6.34 6.4zm21.942-.24l-3.14-4.5c1.82-.78 2.88-2.32 2.88-4.42 0-3.14-2.34-5.08-6.08-5.08h-6.06v14h3.24v-3.9h2.98l2.7 3.9h3.48zm-3.54-8.92c0 1.52-1 2.44-2.98 2.44h-2.64v-4.88h2.64c1.98 0 2.98.9 2.98 2.44zM177.849 53l-3.14-4.5c1.82-.78 2.88-2.32 2.88-4.42 0-3.14-2.34-5.08-6.08-5.08h-6.06v14h3.24v-3.9h2.98l2.7 3.9h3.48zm-3.54-8.92c0 1.52-1 2.44-2.98 2.44h-2.64v-4.88h2.64c1.98 0 2.98.9 2.98 2.44zm9.067 6.32v-3.24h6.5v-2.52h-6.5V41.6h7.36V39h-10.58v14h10.84v-2.6h-7.62zM203.214 39v8.5l-6.96-8.5h-2.68v14h3.2v-8.5l6.98 8.5h2.66V39h-3.2zm9.412 14h3.24V41.64h4.48V39h-12.2v2.64h4.48V53zm9.76.16c1.08 0 1.94-.82 1.94-1.96 0-1.16-.86-1.92-1.94-1.92s-1.94.76-1.94 1.92c0 1.14.86 1.96 1.94 1.96zM7.041 77.24c4 0 5.94-2 5.94-4.34 0-5.14-8.14-3.36-8.14-5.94 0-.88.74-1.6 2.66-1.6 1.24 0 2.58.36 3.88 1.1l1-2.46c-1.3-.82-3.1-1.24-4.86-1.24-3.98 0-5.9 1.98-5.9 4.36 0 5.2 8.14 3.4 8.14 6.02 0 .86-.78 1.5-2.7 1.5-1.68 0-3.44-.6-4.62-1.46l-1.1 2.44c1.24.96 3.48 1.62 5.7 1.62zM25.655 77h3.4l-6.26-14h-3.2l-6.24 14h3.32l1.24-3h6.5l1.24 3zm-6.7-5.46l2.22-5.36 2.22 5.36h-4.44zM39.985 63l-4.32 10-4.26-10h-3.5l6.04 14h3.2l6.06-14h-3.22zm7.61 11.4v-3.24h6.5v-2.52h-6.5V65.6h7.36V63h-10.58v14h10.84v-2.6h-7.62zM66.357 77h3.24V65.64h4.48V63h-12.2v2.64h4.48V77zm9.463 0h3.24V63h-3.24v14zm22.343 0l-.04-14h-2.66l-5.16 8.7-5.24-8.7h-2.68v14h3.04v-8.22l4.1 6.74h1.46l4.12-6.92.02 8.4h3.04zm6.541-2.6v-3.24h6.5v-2.52h-6.5V65.6h7.36V63h-10.58v14h10.84v-2.6h-7.62zm26.322 2.6h3.4l-6.26-14h-3.2l-6.24 14h3.32l1.24-3h6.5l1.24 3zm-6.7-5.46l2.22-5.36 2.22 5.36h-4.44zM145.519 63v8.5l-6.96-8.5h-2.68v14h3.2v-8.5l6.98 8.5h2.66V63h-3.2zm6.512 14h6.36c4.58 0 7.72-2.76 7.72-7s-3.14-7-7.72-7h-6.36v14zm3.24-2.66v-8.68h2.96c2.78 0 4.6 1.66 4.6 4.34 0 2.68-1.82 4.34-4.6 4.34h-2.96zM174.615 63h-6.06v14h3.24v-3.86h2.82c3.74 0 6.08-1.94 6.08-5.06 0-3.14-2.34-5.08-6.08-5.08zm-.18 7.5h-2.64v-4.86h2.64c1.98 0 2.98.9 2.98 2.44 0 1.52-1 2.42-2.98 2.42zm8.573 6.5h10.26v-2.64h-7.02V63h-3.24v14zm22.647 0h3.4l-6.26-14h-3.2l-6.24 14h3.32l1.24-3h6.5l1.24 3zm-6.7-5.46l2.22-5.36 2.22 5.36h-4.44zM220.148 63v8.5l-6.96-8.5h-2.68v14h3.2v-8.5l6.98 8.5h2.66V63h-3.2zM92.575 98.4v-3.24h6.5v-2.52h-6.5V89.6h7.36V87h-10.58v14h10.84v-2.6h-7.62zm20.778-8.8V87h-10.58v14h3.24v-5.1h6.48v-2.6h-6.48v-3.7h7.34zm12.774 0V87h-10.58v14h3.24v-5.1h6.48v-2.6h-6.48v-3.7h7.34zm2.193 11.4h3.24V87h-3.24v14zm13.263.24c2.44 0 4.46-.88 5.78-2.5l-2.08-1.92c-.94 1.1-2.12 1.66-3.52 1.66-2.62 0-4.48-1.84-4.48-4.48 0-2.64 1.86-4.48 4.48-4.48 1.4 0 2.58.56 3.52 1.64l2.08-1.92c-1.32-1.6-3.34-2.48-5.76-2.48-4.36 0-7.6 3.02-7.6 7.24 0 4.22 3.24 7.24 7.58 7.24zm7.968-.24h3.24V87h-3.24v14zm9.782-2.6v-3.24h6.5v-2.52h-6.5V89.6h7.36V87h-10.58v14h10.84v-2.6h-7.62zM179.171 87v8.5l-6.96-8.5h-2.68v14h3.2v-8.5l6.98 8.5h2.66V87h-3.2zm9.412 14h3.24V89.64h4.48V87h-12.2v2.64h4.48V101zm9.464 0h10.26v-2.64h-7.02V87h-3.24v14zm22.785-14h-3.18l-3.74 6.22-3.74-6.22h-3.44l5.42 9v5h3.24v-4.96l5.44-9.04zm1.554 14.16c1.08 0 1.94-.82 1.94-1.96 0-1.16-.86-1.92-1.94-1.92s-1.94.76-1.94 1.92c0 1.14.86 1.96 1.94 1.96z" fill="#EA5B2B"/><path d="M507.983 68.7l-.032-11.2h-2.128l-4.128 6.96-4.192-6.96h-2.144v11.2h2.432v-6.576l3.28 5.392h1.168l3.296-5.536.016 6.72h2.432zm2.658 0h8.208v-2.112h-5.616V57.5h-2.592v11.2zm-24.158 5.264c-1.376 0-2.768.368-3.712 1.04l.896 1.744c.624-.496 1.568-.8 2.48-.8 1.344 0 1.984.624 1.984 1.696h-1.984c-2.624 0-3.696 1.056-3.696 2.576 0 1.488 1.2 2.608 3.216 2.608 1.264 0 2.16-.416 2.624-1.2V82.7h2.336v-4.912c0-2.608-1.52-3.824-4.144-3.824zm-.192 7.184c-.88 0-1.408-.416-1.408-1.04 0-.576.368-1.008 1.536-1.008h1.712v.88c-.288.784-1.008 1.168-1.84 1.168zm13.201-7.056v1.104c-.656-.832-1.648-1.232-2.848-1.232-2.384 0-4.304 1.648-4.304 4.16 0 2.512 1.92 4.16 4.304 4.16 1.12 0 2.064-.352 2.72-1.072v.368c0 1.552-.768 2.352-2.528 2.352-1.104 0-2.304-.384-3.04-.976l-.992 1.792c1.008.784 2.592 1.184 4.224 1.184 3.104 0 4.832-1.472 4.832-4.672v-7.168h-2.368zm-2.352 6.144c-1.312 0-2.272-.848-2.272-2.112 0-1.264.96-2.112 2.272-2.112 1.312 0 2.256.848 2.256 2.112 0 1.264-.944 2.112-2.256 2.112zm15.475-1.808c0-2.768-1.952-4.464-4.48-4.464-2.624 0-4.592 1.856-4.592 4.432 0 2.56 1.936 4.432 4.912 4.432 1.552 0 2.752-.48 3.552-1.392l-1.328-1.44c-.592.56-1.248.832-2.16.832-1.312 0-2.224-.656-2.464-1.728h6.512c.016-.208.048-.48.048-.672zm-4.464-2.576c1.12 0 1.936.704 2.112 1.792h-4.24c.176-1.104.992-1.792 2.128-1.792zm11.358-1.888c-1.168 0-2.176.4-2.848 1.136v-1.008h-2.384V82.7h2.496v-4.256c0-1.584.864-2.32 2.064-2.32 1.104 0 1.744.64 1.744 2.032V82.7h2.496v-4.928c0-2.624-1.536-3.808-3.568-3.808zm10.711 6.56c-.272.208-.64.32-1.008.32-.672 0-1.072-.4-1.072-1.136v-3.504h2.144v-1.92h-2.144v-2.096h-2.496v2.096h-1.328v1.92h1.328v3.536c0 2.048 1.184 3.088 3.216 3.088.768 0 1.52-.176 2.032-.544l-.672-1.76zM566.083 33.2l-.032-11.2h-2.128l-4.128 6.96-4.192-6.96h-2.144v11.2h2.432v-6.576l3.28 5.392h1.168l3.296-5.536.016 6.72h2.432zm2.657 0h8.208v-2.112h-5.616V22h-2.592v11.2zm-24.157 5.264c-1.376 0-2.768.368-3.712 1.04l.896 1.744c.624-.496 1.568-.8 2.48-.8 1.344 0 1.984.624 1.984 1.696h-1.984c-2.624 0-3.696 1.056-3.696 2.576 0 1.488 1.2 2.608 3.216 2.608 1.264 0 2.16-.416 2.624-1.2V47.2h2.336v-4.912c0-2.608-1.52-3.824-4.144-3.824zm-.192 7.184c-.88 0-1.408-.416-1.408-1.04 0-.576.368-1.008 1.536-1.008h1.712v.88c-.288.784-1.008 1.168-1.84 1.168zm13.201-7.056v1.104c-.656-.832-1.648-1.232-2.848-1.232-2.384 0-4.304 1.648-4.304 4.16 0 2.512 1.92 4.16 4.304 4.16 1.12 0 2.064-.352 2.72-1.072v.368c0 1.552-.768 2.352-2.528 2.352-1.104 0-2.304-.384-3.04-.976l-.992 1.792c1.008.784 2.592 1.184 4.224 1.184 3.104 0 4.832-1.472 4.832-4.672v-7.168h-2.368zm-2.352 6.144c-1.312 0-2.272-.848-2.272-2.112 0-1.264.96-2.112 2.272-2.112 1.312 0 2.256.848 2.256 2.112 0 1.264-.944 2.112-2.256 2.112zm15.475-1.808c0-2.768-1.952-4.464-4.48-4.464-2.624 0-4.592 1.856-4.592 4.432 0 2.56 1.936 4.432 4.912 4.432 1.552 0 2.752-.48 3.552-1.392l-1.328-1.44c-.592.56-1.248.832-2.16.832-1.312 0-2.224-.656-2.464-1.728h6.512c.016-.208.048-.48.048-.672zm-4.464-2.576c1.12 0 1.936.704 2.112 1.792h-4.24c.176-1.104.992-1.792 2.128-1.792zm11.358-1.888c-1.168 0-2.176.4-2.848 1.136v-1.008h-2.384V47.2h2.496v-4.256c0-1.584.864-2.32 2.064-2.32 1.104 0 1.744.64 1.744 2.032V47.2h2.496v-4.928c0-2.624-1.536-3.808-3.568-3.808zm10.71 6.56c-.272.208-.64.32-1.008.32-.672 0-1.072-.4-1.072-1.136v-3.504h2.144v-1.92h-2.144v-2.096h-2.496v2.096h-1.328v1.92h1.328v3.536c0 2.048 1.184 3.088 3.216 3.088.768 0 1.52-.176 2.032-.544l-.672-1.76zM524.483 368.7l-.032-11.2h-2.128l-4.128 6.96-4.192-6.96h-2.144v11.2h2.432v-6.576l3.28 5.392h1.168l3.296-5.536.016 6.72h2.432zm2.658 0h8.208v-2.112h-5.616V357.5h-2.592v11.2zm-24.158 5.264c-1.376 0-2.768.368-3.712 1.04l.896 1.744c.624-.496 1.568-.8 2.48-.8 1.344 0 1.984.624 1.984 1.696h-1.984c-2.624 0-3.696 1.056-3.696 2.576 0 1.488 1.2 2.608 3.216 2.608 1.264 0 2.16-.416 2.624-1.2v1.072h2.336v-4.912c0-2.608-1.52-3.824-4.144-3.824zm-.192 7.184c-.88 0-1.408-.416-1.408-1.04 0-.576.368-1.008 1.536-1.008h1.712v.88c-.288.784-1.008 1.168-1.84 1.168zm13.201-7.056v1.104c-.656-.832-1.648-1.232-2.848-1.232-2.384 0-4.304 1.648-4.304 4.16 0 2.512 1.92 4.16 4.304 4.16 1.12 0 2.064-.352 2.72-1.072v.368c0 1.552-.768 2.352-2.528 2.352-1.104 0-2.304-.384-3.04-.976l-.992 1.792c1.008.784 2.592 1.184 4.224 1.184 3.104 0 4.832-1.472 4.832-4.672v-7.168h-2.368zm-2.352 6.144c-1.312 0-2.272-.848-2.272-2.112 0-1.264.96-2.112 2.272-2.112 1.312 0 2.256.848 2.256 2.112 0 1.264-.944 2.112-2.256 2.112zm15.475-1.808c0-2.768-1.952-4.464-4.48-4.464-2.624 0-4.592 1.856-4.592 4.432 0 2.56 1.936 4.432 4.912 4.432 1.552 0 2.752-.48 3.552-1.392l-1.328-1.44c-.592.56-1.248.832-2.16.832-1.312 0-2.224-.656-2.464-1.728h6.512c.016-.208.048-.48.048-.672zm-4.464-2.576c1.12 0 1.936.704 2.112 1.792h-4.24c.176-1.104.992-1.792 2.128-1.792zm11.358-1.888c-1.168 0-2.176.4-2.848 1.136v-1.008h-2.384v8.608h2.496v-4.256c0-1.584.864-2.32 2.064-2.32 1.104 0 1.744.64 1.744 2.032v4.544h2.496v-4.928c0-2.624-1.536-3.808-3.568-3.808zm10.711 6.56c-.272.208-.64.32-1.008.32-.672 0-1.072-.4-1.072-1.136v-3.504h2.144v-1.92h-2.144v-2.096h-2.496v2.096h-1.328v1.92h1.328v3.536c0 2.048 1.184 3.088 3.216 3.088.768 0 1.52-.176 2.032-.544l-.672-1.76zM259.277 200.046c-.779-1.769-2.319-2.959-4.414-3.106-3.262-.228-5.635 2.312-6.002 7.55l-.716 10.235 20.948 1.466.759-10.833c.385-5.507-1.509-8.527-5.13-8.78-2.633-.184-4.534 1.186-5.445 3.468zm-6.807 5.298c.166-2.364 1.064-3.595 2.71-3.48 1.646.116 2.394 1.461 2.228 3.825l-.337 4.819-4.938-.346.337-4.818zm13.705.117l-.395 5.656-5.178-.362.396-5.656c.176-2.514 1.108-3.802 2.874-3.679 1.796.126 2.479 1.527 2.303 4.041zm9.334-24.12c2.03-5.614.018-10.106-5.793-12.208l-11.059-4-1.633 4.514 10.89 3.938c3.752 1.358 4.722 3.527 3.712 6.32-1 2.764-3.144 3.839-6.896 2.482l-10.889-3.938-1.653 4.57 11.058 4c5.812 2.102 10.232-.064 12.263-5.678zm7.162-16.383l2.575-4.121-17.809-11.128-2.575 4.121 17.809 11.128zm7.582-11.366l10.437-11.311-2.91-2.685-7.141 7.739-12.523-11.556-3.296 3.571 15.433 14.242zm15.173-15.431l8.095-5.048c5.829-3.635 7.636-9.64 4.271-15.037s-9.553-6.418-15.382-2.783l-8.096 5.048 11.112 17.82zm2.012-5.957l-6.888-11.049 3.767-2.349c3.539-2.206 7.173-1.538 9.3 1.873 2.127 3.412 1.128 6.969-2.411 9.175l-3.768 2.35zm396.957 198.097l-5.488-6.134c2.569-1.49 3.87-3.974 3.491-7.101-.567-4.676-4.402-7.143-9.971-6.468l-9.024 1.094 2.527 20.848 4.825-.585-.704-5.808 4.199-.509.239-.029 4.724 5.321 5.182-.629zm-6.881-12.643c.274 2.263-1.049 3.814-3.997 4.171l-3.932.476-.88-7.266 3.931-.477c2.948-.357 4.6.802 4.878 3.096zm26.237 6.895c5.567-2.155 7.634-6.622 5.403-12.386l-4.245-10.967-4.477 1.733 4.181 10.799c1.44 3.721.441 5.877-2.329 6.95-2.742 1.061-4.96.15-6.4-3.571l-4.181-10.799-4.532 1.755 4.245 10.967c2.231 5.763 6.767 7.674 12.335 5.519zm18.879-35.363l7.65 10.2-16.002-3.936-3.216 2.412 12.6 16.8 3.84-2.88-7.65-10.2 16.026 3.918 3.192-2.394-12.6-16.8-3.84 2.88zM332.6 102.1a8.4 8.4 0 00-2.548 13.715 8.428 8.428 0 0011.912-.118 8.41 8.41 0 002.409-5.98 8.407 8.407 0 00-5.306-7.733 8.397 8.397 0 00-6.467.116zm2.2 14.1l-4.2-9.8 11.3.9-7.1 8.9zm425.699 160.6a8.395 8.395 0 00-3.015 8.824 8.403 8.403 0 006.99 6.171 8.405 8.405 0 004.811-.773 8.407 8.407 0 004.703-8.052 8.399 8.399 0 00-13.489-6.17zm5.5 13.1l-6.4-8.5 11.2-1.8-4.8 10.3z" fill="#A5A4A5"/></svg>