<svg width="1015" height="433" viewBox="0 0 1015 433" fill="none" xmlns="http://www.w3.org/2000/svg">
<path d="M477.999 218.5C471.099 208.1 461.899 198.5 450.999 187.6C430.899 167.6 400.599 143.8 370.499 143.8C350.687 143.8 331.687 151.67 317.678 165.679C303.669 179.688 295.799 198.688 295.799 218.5C295.799 238.312 303.669 257.312 317.678 271.321C331.687 285.33 350.687 293.2 370.499 293.2C387.299 293.2 415.099 285.4 451.899 248.4C458.999 241.3 465.299 234.2 470.699 227.7M512.499 289.9C509.499 293.1 506.499 296.3 503.299 299.5C459.599 343.4 414.899 365.6 370.499 365.6C289.299 365.6 223.299 299.6 223.299 218.5C223.299 137.4 289.299 71.2999 370.499 71.2999C414.899 71.2999 459.599 93.5999 503.299 137.5C533.499 167.8 564.999 218.5 564.999 218.5L512.499 289.9Z" stroke="#EA5B2B" stroke-width="5" stroke-miterlimit="10"/>
<path d="M565 218.4C573.349 229.251 582.366 239.571 592 249.3C612.1 269.3 642.4 293.1 672.6 293.1C692.412 293.1 711.412 285.23 725.421 271.221C739.43 257.212 747.3 238.212 747.3 218.4C747.3 198.588 739.43 179.588 725.421 165.579C711.412 151.57 692.412 143.7 672.6 143.7C642.4 143.7 612.1 167.5 592 187.5C585.2 194.4 578.9 201.3 573.6 207.7M528.9 148.7L539.7 137.4C583.4 93.4999 628.1 71.2 672.6 71.2C711.623 71.2265 749.038 86.7467 776.621 114.349C804.205 141.952 819.7 179.377 819.7 218.4C819.7 299.5 753.7 365.5 672.6 365.5C628.1 365.5 583.4 343.3 539.7 299.4C533.3 292.9 526.7 285.4 520.4 277.8C497.5 249.7 478 218.4 478 218.4L528.9 148.7Z" stroke="#6C6C6C" stroke-width="5" stroke-miterlimit="10"/>
<path d="M651.1 223.9V240.2" stroke="#6C6C6C" stroke-width="4" stroke-linecap="round" stroke-linejoin="round"/>
<path d="M663.4 220.1V240.2" stroke="#6C6C6C" stroke-width="4" stroke-linecap="round" stroke-linejoin="round"/>
<path d="M675.6 214.3V240.2" stroke="#6C6C6C" stroke-width="4" stroke-linecap="round" stroke-linejoin="round"/>
<path d="M687.799 209.5V240.2" stroke="#6C6C6C" stroke-width="4" stroke-linecap="round" stroke-linejoin="round"/>
<path d="M644.799 217.5C644.799 217.5 673.799 210.2 693.099 192.2" stroke="#6C6C6C" stroke-width="4" stroke-linecap="round" stroke-linejoin="round"/>
<path d="M684.799 190.4H694.799V200.4" stroke="#626262" stroke-width="4" stroke-linecap="round" stroke-linejoin="round"/>
<path d="M392.399 220.1L387.799 212.6V211.6C387.793 207.655 386.772 203.777 384.835 200.341C382.897 196.904 380.108 194.023 376.736 191.976C373.364 189.928 369.522 188.782 365.579 188.649C361.636 188.515 357.725 189.398 354.221 191.212C350.718 193.026 347.74 195.711 345.575 199.009C343.409 202.306 342.128 206.106 341.854 210.041C341.581 213.977 342.324 217.917 344.013 221.482C345.702 225.048 348.28 228.119 351.499 230.4V246.6C351.499 247.343 351.794 248.055 352.319 248.58C352.844 249.105 353.556 249.4 354.299 249.4H372.899C373.641 249.4 374.354 249.105 374.879 248.58C375.404 248.055 375.699 247.343 375.699 246.6V236.9H384.399C384.635 236.9 384.869 236.853 385.088 236.763C385.306 236.672 385.504 236.54 385.672 236.373C385.839 236.206 385.971 236.007 386.062 235.789C386.152 235.57 386.199 235.336 386.199 235.1V222.9H390.899C391.225 222.901 391.545 222.812 391.825 222.645C392.105 222.478 392.335 222.238 392.489 221.95C392.643 221.662 392.716 221.338 392.7 221.012C392.684 220.687 392.58 220.371 392.399 220.1Z" stroke="#EA5B2B" stroke-width="3" stroke-miterlimit="10"/>
<path d="M364.5 201.9V225.2" stroke="#EA5B2B" stroke-width="2" stroke-miterlimit="10"/>
<path d="M365.393 203.393C366.827 202.814 367.52 201.182 366.94 199.748C366.361 198.314 364.729 197.622 363.295 198.201C361.862 198.78 361.169 200.412 361.748 201.846C362.327 203.28 363.959 203.973 365.393 203.393Z" fill="#EA5B2B"/>
<path d="M365.42 228.28C366.854 227.701 367.547 226.069 366.968 224.635C366.388 223.201 364.756 222.509 363.323 223.088C361.889 223.667 361.196 225.299 361.775 226.733C362.355 228.167 363.987 228.859 365.42 228.28Z" fill="#EA5B2B"/>
<path d="M354.5 202.7V207.4H358.6V218.2H354.5V222.9" stroke="#EA5B2B" stroke-width="2" stroke-miterlimit="10"/>
<path d="M351.6 212.9H358.8" stroke="#EA5B2B" stroke-width="2" stroke-miterlimit="10"/>
<path d="M355.582 204.167C357.005 203.563 357.669 201.919 357.065 200.495C356.461 199.072 354.817 198.408 353.394 199.012C351.97 199.616 351.306 201.26 351.91 202.683C352.515 204.107 354.158 204.771 355.582 204.167Z" fill="#EA5B2B"/>
<path d="M355.555 226.402C356.978 225.798 357.642 224.154 357.038 222.731C356.434 221.307 354.79 220.643 353.366 221.247C351.943 221.851 351.279 223.495 351.883 224.919C352.487 226.342 354.131 227.006 355.555 226.402Z" fill="#EA5B2B"/>
<path d="M351.615 215.531C353.039 214.927 353.703 213.283 353.098 211.86C352.494 210.437 350.85 209.772 349.427 210.377C348.004 210.981 347.339 212.625 347.944 214.048C348.548 215.472 350.192 216.136 351.615 215.531Z" fill="#EA5B2B"/>
<path d="M374.899 202.7V207.4H370.699V218.2H374.899V222.9" stroke="#EA5B2B" stroke-width="2" stroke-miterlimit="10"/>
<path d="M377.7 212.9H370.5" stroke="#EA5B2B" stroke-width="2" stroke-miterlimit="10"/>
<path d="M377.355 202.593C377.919 201.153 377.209 199.528 375.769 198.964C374.33 198.4 372.705 199.11 372.141 200.55C371.577 201.989 372.286 203.614 373.726 204.178C375.166 204.742 376.79 204.033 377.355 202.593Z" fill="#EA5B2B"/>
<path d="M377.423 224.793C377.987 223.353 377.278 221.729 375.838 221.164C374.398 220.6 372.773 221.31 372.209 222.75C371.645 224.19 372.355 225.814 373.794 226.378C375.234 226.943 376.859 226.233 377.423 224.793Z" fill="#EA5B2B"/>
<path d="M381.435 213.892C381.999 212.452 381.289 210.827 379.849 210.263C378.41 209.699 376.785 210.409 376.221 211.848C375.657 213.288 376.366 214.913 377.806 215.477C379.246 216.041 380.871 215.331 381.435 213.892Z" fill="#EA5B2B"/>
<path d="M491.201 408V398.1C491.682 397.885 492.091 397.534 492.375 397.089C492.659 396.645 492.807 396.127 492.801 395.6C492.801 394.901 492.531 394.229 492.046 393.725C491.561 393.222 490.899 392.926 490.201 392.9C489.66 392.9 489.133 393.075 488.701 393.4L480.101 388.5C480.101 388.3 480.201 388.2 480.201 388.1C480.201 387.745 480.131 387.394 479.995 387.067C479.859 386.739 479.661 386.441 479.41 386.191C479.159 385.94 478.862 385.741 478.534 385.605C478.206 385.47 477.855 385.4 477.501 385.4C477.146 385.4 476.795 385.47 476.467 385.605C476.14 385.741 475.842 385.94 475.592 386.191C475.341 386.441 475.142 386.739 475.006 387.067C474.871 387.394 474.801 387.745 474.801 388.1C474.796 388.154 474.803 388.209 474.82 388.26C474.837 388.312 474.865 388.359 474.901 388.4L466.201 393.4C465.797 393.13 465.329 392.974 464.844 392.948C464.36 392.923 463.877 393.028 463.448 393.253C463.018 393.478 462.657 393.815 462.402 394.228C462.147 394.641 462.009 395.115 462.001 395.6C462.002 396.139 462.165 396.665 462.468 397.11C462.771 397.556 463.2 397.9 463.701 398.1V407.8C463.192 407.987 462.755 408.329 462.45 408.777C462.145 409.226 461.988 409.758 462.001 410.3C462.027 410.999 462.322 411.66 462.826 412.145C463.33 412.63 464.002 412.9 464.701 412.9C465.319 412.901 465.92 412.689 466.401 412.3L474.801 417.2C474.801 417.916 475.085 418.603 475.592 419.109C476.098 419.615 476.785 419.9 477.501 419.9C478.217 419.9 478.904 419.615 479.41 419.109C479.916 418.603 480.201 417.916 480.201 417.2C480.201 417.187 480.198 417.174 480.193 417.162C480.188 417.149 480.181 417.138 480.171 417.129C480.162 417.12 480.151 417.113 480.139 417.108C480.127 417.102 480.114 417.1 480.101 417.1L488.301 412.3C488.716 412.656 489.255 412.835 489.801 412.8C490.399 412.847 490.994 412.685 491.487 412.343C491.98 412.001 492.339 411.499 492.503 410.922C492.668 410.345 492.628 409.729 492.391 409.179C492.154 408.628 491.733 408.176 491.201 407.9V408ZM489.801 411.4C489.509 411.4 489.229 411.284 489.023 411.078C488.817 410.871 488.701 410.592 488.701 410.3C488.687 410.147 488.705 409.993 488.754 409.848C488.803 409.703 488.882 409.57 488.985 409.457C489.089 409.344 489.215 409.254 489.355 409.192C489.496 409.131 489.647 409.099 489.801 409.1C490.119 409.1 490.424 409.226 490.649 409.451C490.874 409.676 491.001 409.982 491.001 410.3C491.001 410.453 490.97 410.605 490.909 410.745C490.847 410.886 490.757 411.012 490.644 411.115C490.531 411.219 490.398 411.298 490.252 411.347C490.107 411.396 489.953 411.414 489.801 411.4ZM478.701 417.3C478.676 417.601 478.538 417.881 478.316 418.084C478.093 418.288 477.802 418.401 477.501 418.4C477.348 418.414 477.194 418.396 477.049 418.347C476.904 418.298 476.77 418.219 476.657 418.115C476.544 418.012 476.454 417.886 476.393 417.745C476.331 417.605 476.3 417.453 476.301 417.3C476.301 416.982 476.427 416.676 476.652 416.451C476.877 416.226 477.182 416.1 477.501 416.1C477.819 416.1 478.124 416.226 478.349 416.451C478.574 416.676 478.701 416.982 478.701 417.3ZM464.701 411.4C464.548 411.414 464.394 411.396 464.249 411.347C464.104 411.298 463.97 411.219 463.857 411.115C463.744 411.012 463.654 410.886 463.593 410.745C463.531 410.605 463.5 410.453 463.501 410.3C463.501 409.982 463.627 409.676 463.852 409.451C464.077 409.226 464.382 409.1 464.701 409.1C464.854 409.099 465.006 409.131 465.146 409.192C465.287 409.254 465.413 409.344 465.516 409.457C465.62 409.57 465.699 409.703 465.748 409.848C465.797 409.993 465.815 410.147 465.801 410.3C465.801 410.592 465.685 410.871 465.479 411.078C465.272 411.284 464.992 411.4 464.701 411.4ZM466.401 408.3C466.069 407.985 465.651 407.776 465.201 407.7V398.3L469.901 406.4L466.401 408.3ZM464.701 394.4C465.019 394.4 465.324 394.526 465.549 394.751C465.774 394.976 465.901 395.282 465.901 395.6C465.901 395.918 465.774 396.223 465.549 396.448C465.324 396.673 465.019 396.8 464.701 396.8C464.382 396.8 464.077 396.673 463.852 396.448C463.627 396.223 463.501 395.918 463.501 395.6C463.501 395.282 463.627 394.976 463.852 394.751C464.077 394.526 464.382 394.4 464.701 394.4ZM490.201 396.8C489.882 396.8 489.577 396.673 489.352 396.448C489.127 396.223 489.001 395.918 489.001 395.6C489.001 395.282 489.127 394.976 489.352 394.751C489.577 394.526 489.882 394.4 490.201 394.4C490.519 394.4 490.824 394.526 491.049 394.751C491.274 394.976 491.401 395.282 491.401 395.6C491.401 395.918 491.274 396.223 491.049 396.448C490.824 396.673 490.519 396.8 490.201 396.8ZM487.501 396C487.501 396.1 487.601 396.2 487.601 396.3L479.401 400.9C479.069 400.585 478.651 400.376 478.201 400.3V396H487.501ZM478.701 402.9C478.701 403.192 478.585 403.471 478.379 403.678C478.172 403.884 477.892 404 477.601 404C477.448 404.014 477.294 403.996 477.149 403.947C477.004 403.898 476.87 403.819 476.757 403.715C476.644 403.612 476.554 403.486 476.493 403.345C476.431 403.205 476.4 403.053 476.401 402.9C476.401 402.582 476.527 402.276 476.752 402.051C476.977 401.826 477.282 401.7 477.601 401.7C477.754 401.699 477.906 401.731 478.046 401.792C478.187 401.854 478.313 401.944 478.416 402.057C478.52 402.17 478.599 402.303 478.648 402.448C478.697 402.593 478.715 402.747 478.701 402.9ZM476.701 400.3L475.701 401L467.301 396.2V396H476.701V400.3ZM466.501 397.6L475.001 402.4C474.871 402.789 474.871 403.21 475.001 403.6L471.201 405.7L466.501 397.6ZM475.701 404.8L476.701 405.4V414.7H476.501L471.901 406.8L475.701 404.8ZM478.301 414.7H478.201V405.4C478.622 405.323 479.008 405.113 479.301 404.8L482.901 406.9L478.301 414.7ZM480.101 403.6C480.175 403.374 480.209 403.137 480.201 402.9V402.2L488.401 397.6H488.501L483.701 405.6L480.101 403.6ZM489.701 398.5V407.6C489.423 407.59 489.146 407.638 488.887 407.742C488.629 407.845 488.395 408.001 488.201 408.2L485.001 406.4L489.701 398.5ZM487.601 394.5H478.201V390.7C478.707 390.522 479.156 390.211 479.501 389.8L487.601 394.5ZM477.501 386.9C477.658 386.9 477.814 386.931 477.96 386.991C478.106 387.052 478.238 387.14 478.349 387.251C478.461 387.363 478.549 387.495 478.609 387.641C478.67 387.786 478.701 387.942 478.701 388.1C478.701 388.257 478.67 388.414 478.609 388.559C478.549 388.705 478.461 388.837 478.349 388.948C478.238 389.06 478.106 389.148 477.96 389.209C477.814 389.269 477.658 389.3 477.501 389.3C477.343 389.3 477.187 389.269 477.042 389.209C476.896 389.148 476.764 389.06 476.652 388.948C476.541 388.837 476.452 388.705 476.392 388.559C476.332 388.414 476.301 388.257 476.301 388.1C476.301 387.942 476.332 387.786 476.392 387.641C476.452 387.495 476.541 387.363 476.652 387.251C476.764 387.14 476.896 387.052 477.042 386.991C477.187 386.931 477.343 386.9 477.501 386.9ZM476.701 390.7V394.5H467.301L475.501 389.8C475.808 390.207 476.224 390.519 476.701 390.7ZM467.201 411.1C467.277 410.84 467.311 410.57 467.301 410.3C467.324 410.062 467.289 409.822 467.201 409.6L470.601 407.7L475.301 415.7L467.201 411.1ZM479.501 415.6L484.201 407.6L487.301 409.4C487.219 409.692 487.185 409.996 487.201 410.3C487.17 410.646 487.239 410.993 487.401 411.3L479.601 415.7C479.601 415.673 479.59 415.648 479.571 415.629C479.553 415.61 479.527 415.6 479.501 415.6Z" fill="#6C6C6C"/>
<path d="M536.2 337.7V327.7C536.693 327.518 537.119 327.192 537.422 326.763C537.726 326.335 537.892 325.825 537.9 325.3C537.9 324.584 537.616 323.897 537.109 323.391C536.603 322.884 535.916 322.6 535.2 322.6C534.659 322.6 534.133 322.775 533.7 323.1L525.2 318.1V317.8C525.276 317.409 525.265 317.006 525.167 316.62C525.07 316.233 524.888 315.874 524.634 315.566C524.381 315.259 524.063 315.011 523.702 314.841C523.342 314.671 522.949 314.583 522.55 314.583C522.152 314.583 521.758 314.671 521.398 314.841C521.038 315.011 520.719 315.259 520.466 315.566C520.213 315.874 520.031 316.233 519.933 316.62C519.835 317.006 519.824 317.409 519.9 317.8V318.1L511.2 323.1C510.767 322.775 510.241 322.6 509.7 322.6C508.984 322.6 508.297 322.884 507.791 323.391C507.285 323.897 507 324.584 507 325.3C506.994 325.828 507.155 326.345 507.46 326.776C507.765 327.208 508.2 327.531 508.7 327.7V337.5C508.208 337.682 507.782 338.008 507.478 338.437C507.175 338.865 507.008 339.375 507 339.9C507 340.41 507.144 340.91 507.416 341.342C507.688 341.774 508.077 342.119 508.537 342.339C508.998 342.559 509.511 342.644 510.018 342.584C510.524 342.524 511.004 342.321 511.4 342L519.9 346.9C519.824 347.291 519.835 347.694 519.933 348.08C520.031 348.466 520.213 348.826 520.466 349.134C520.719 349.441 521.038 349.689 521.398 349.859C521.758 350.029 522.152 350.117 522.55 350.117C522.949 350.117 523.342 350.029 523.702 349.859C524.063 349.689 524.381 349.441 524.634 349.134C524.888 348.826 525.07 348.466 525.167 348.08C525.265 347.694 525.276 347.291 525.2 346.9L533.3 342.2C533.775 342.515 534.33 342.689 534.9 342.7C535.599 342.674 536.26 342.378 536.745 341.875C537.23 341.371 537.501 340.699 537.5 340C537.52 339.533 537.409 339.071 537.179 338.664C536.949 338.258 536.61 337.924 536.2 337.7ZM534.9 341.1C534.582 341.1 534.277 340.974 534.052 340.749C533.827 340.523 533.7 340.218 533.7 339.9C533.7 339.747 533.731 339.595 533.792 339.455C533.854 339.314 533.944 339.188 534.057 339.085C534.17 338.981 534.303 338.902 534.448 338.853C534.594 338.804 534.748 338.786 534.9 338.8C535.045 338.8 535.188 338.828 535.321 338.884C535.455 338.939 535.576 339.02 535.678 339.122C535.78 339.224 535.861 339.346 535.916 339.479C535.972 339.612 536 339.756 536 339.9C536.014 340.053 535.996 340.206 535.947 340.352C535.898 340.497 535.819 340.63 535.716 340.743C535.612 340.856 535.486 340.946 535.346 341.008C535.205 341.069 535.053 341.101 534.9 341.1ZM523.7 346.9C523.7 347.218 523.574 347.523 523.349 347.749C523.124 347.974 522.818 348.1 522.5 348.1C522.347 348.101 522.195 348.069 522.055 348.008C521.914 347.946 521.788 347.856 521.685 347.743C521.581 347.63 521.502 347.497 521.453 347.352C521.404 347.206 521.386 347.053 521.4 346.9C521.4 346.756 521.429 346.612 521.484 346.479C521.539 346.346 521.62 346.224 521.722 346.122C521.825 346.02 521.946 345.939 522.079 345.884C522.213 345.828 522.356 345.8 522.5 345.8C522.653 345.786 522.807 345.804 522.952 345.853C523.097 345.902 523.231 345.981 523.343 346.085C523.456 346.188 523.547 346.314 523.608 346.455C523.669 346.595 523.701 346.747 523.7 346.9ZM509.7 341.1C509.382 341.1 509.077 340.974 508.852 340.749C508.627 340.523 508.5 340.218 508.5 339.9C508.5 339.747 508.531 339.595 508.592 339.455C508.654 339.314 508.744 339.188 508.857 339.085C508.97 338.981 509.103 338.902 509.248 338.853C509.394 338.804 509.548 338.786 509.7 338.8C510.002 338.799 510.293 338.912 510.515 339.115C510.738 339.319 510.875 339.599 510.9 339.9C510.9 340.218 510.774 340.523 510.549 340.749C510.324 340.974 510.018 341.1 509.7 341.1ZM511.5 338C511.125 337.671 510.681 337.432 510.2 337.3V328L514.9 336L511.5 338ZM509.7 324.1C510.018 324.1 510.324 324.226 510.549 324.451C510.774 324.676 510.9 324.982 510.9 325.3C510.875 325.601 510.738 325.881 510.515 326.085C510.293 326.288 510.002 326.401 509.7 326.4C509.548 326.414 509.394 326.396 509.248 326.347C509.103 326.298 508.97 326.219 508.857 326.115C508.744 326.012 508.654 325.886 508.592 325.745C508.531 325.605 508.5 325.453 508.5 325.3C508.5 324.982 508.627 324.676 508.852 324.451C509.077 324.226 509.382 324.1 509.7 324.1ZM535.2 326.4C535.048 326.414 534.894 326.396 534.748 326.347C534.603 326.298 534.47 326.219 534.357 326.115C534.244 326.012 534.154 325.886 534.092 325.745C534.031 325.605 534 325.453 534 325.3C534 324.982 534.127 324.676 534.352 324.451C534.577 324.226 534.882 324.1 535.2 324.1C535.518 324.1 535.824 324.226 536.049 324.451C536.274 324.676 536.4 324.982 536.4 325.3C536.375 325.601 536.238 325.881 536.015 326.085C535.793 326.288 535.502 326.401 535.2 326.4ZM532.6 325.7V326L524.5 330.6L523.3 329.9V325.7H532.6ZM523.8 332.5C523.8 332.818 523.674 333.123 523.449 333.349C523.224 333.574 522.918 333.7 522.6 333.7C522.282 333.7 521.977 333.574 521.752 333.349C521.527 333.123 521.4 332.818 521.4 332.5C521.425 332.199 521.563 331.919 521.785 331.715C522.008 331.512 522.299 331.399 522.6 331.4C522.753 331.386 522.907 331.404 523.052 331.453C523.197 331.502 523.331 331.581 523.443 331.685C523.556 331.788 523.647 331.914 523.708 332.055C523.769 332.195 523.801 332.347 523.8 332.5ZM521.8 330C521.38 330.136 521.001 330.377 520.7 330.7L512.3 325.8H521.8V330ZM511.5 327.2C511.527 327.2 511.552 327.189 511.571 327.171C511.59 327.152 511.6 327.126 511.6 327.1L520 332C520 332.2 519.9 332.3 519.9 332.5C519.9 332.7 520 332.9 520 333.1L516.2 335.3L511.5 327.2ZM520.8 334.4C521.052 334.712 521.407 334.924 521.8 335V344.4H521.5L517 336.5L520.8 334.4ZM523.3 344.4V335.1C523.714 335.001 524.093 334.794 524.4 334.5L528 336.6L523.3 344.4ZM525.2 333.2C525.2 333 525.3 332.8 525.3 332.5C525.3 332.2 525.2 332.1 525.2 331.9L533.4 327.2C533.4 327.227 533.411 327.252 533.429 327.271C533.448 327.289 533.474 327.3 533.5 327.3L528.7 335.3L525.2 333.2ZM534.7 328.1V337.3C534.161 337.313 533.639 337.487 533.2 337.8L530 336L534.7 328.1ZM532.6 324.2H523.3V320.3C523.786 320.192 524.214 319.907 524.5 319.5L532.6 324.2ZM522.5 316.6C522.818 316.6 523.124 316.726 523.349 316.951C523.574 317.176 523.7 317.482 523.7 317.8C523.701 317.953 523.669 318.105 523.608 318.245C523.547 318.386 523.456 318.512 523.343 318.615C523.231 318.719 523.097 318.798 522.952 318.847C522.807 318.896 522.653 318.914 522.5 318.9C522.208 318.9 521.929 318.784 521.722 318.578C521.516 318.371 521.4 318.092 521.4 317.8C521.386 317.647 521.404 317.493 521.453 317.348C521.502 317.203 521.581 317.07 521.685 316.957C521.788 316.844 521.914 316.754 522.055 316.692C522.195 316.631 522.347 316.599 522.5 316.6ZM521.8 320.3V324.2H512.3L520.5 319.5C520.824 319.913 521.285 320.197 521.8 320.3ZM512.2 340.7C512.325 340.451 512.393 340.178 512.4 339.9C512.4 339.7 512.3 339.5 512.3 339.2L515.7 337.3L520.4 345.4H520.3L512.2 340.7ZM524.6 345.2L529.3 337.3L532.3 339.1C532.3 339.3 532.2 339.6 532.2 339.9C532.209 340.242 532.277 340.581 532.4 340.9L524.7 345.4C524.6 345.3 524.6 345.3 524.6 345.2Z" fill="#6C6C6C"/>
<path d="M638.8 54.9999V45.0999C639.267 44.866 639.662 44.5102 639.944 44.0701C640.226 43.6301 640.383 43.1221 640.4 42.5999C640.4 42.2453 640.33 41.8942 640.194 41.5667C640.059 41.2391 639.86 40.9414 639.609 40.6907C639.358 40.44 639.061 40.2411 638.733 40.1054C638.405 39.9697 638.054 39.8999 637.7 39.8999C637.164 39.9294 636.646 40.1021 636.2 40.3999L627.7 35.4999V35.0999C627.776 34.7089 627.765 34.3058 627.667 33.9196C627.569 33.5334 627.387 33.1736 627.134 32.8661C626.881 32.5586 626.562 32.3109 626.202 32.1409C625.842 31.9709 625.448 31.8827 625.05 31.8827C624.651 31.8827 624.258 31.9709 623.898 32.1409C623.537 32.3109 623.219 32.5586 622.966 32.8661C622.712 33.1736 622.53 33.5334 622.433 33.9196C622.335 34.3058 622.323 34.7089 622.4 35.0999V35.3999L613.8 40.3999C613.325 40.0846 612.77 39.9111 612.2 39.8999C611.501 39.9258 610.84 40.2216 610.355 40.7252C609.87 41.2288 609.599 41.9008 609.6 42.5999C609.605 43.1247 609.758 43.6373 610.041 44.0794C610.324 44.5214 610.726 44.875 611.2 45.0999V54.7999C610.718 55.0148 610.31 55.366 610.025 55.8103C609.741 56.2546 609.593 56.7724 609.6 57.2999C609.6 57.9895 609.874 58.6508 610.361 59.1384C610.849 59.626 611.51 59.8999 612.2 59.8999C612.823 59.9284 613.433 59.7132 613.9 59.2999L622.4 64.1999C622.52 64.8146 622.85 65.3685 623.333 65.7667C623.817 66.1649 624.424 66.3827 625.05 66.3827C625.676 66.3827 626.283 66.1649 626.766 65.7667C627.25 65.3685 627.58 64.8146 627.7 64.1999L635.9 59.4999C636.342 59.7957 636.869 59.9364 637.4 59.8999C638.099 59.9004 638.771 59.6297 639.275 59.1448C639.778 58.6598 640.074 57.9985 640.1 57.2999C640.081 56.841 639.953 56.3931 639.727 55.9933C639.501 55.5934 639.183 55.2529 638.8 54.9999ZM637.4 58.3999C637.247 58.4138 637.093 58.3957 636.948 58.3467C636.803 58.2977 636.669 58.2189 636.556 58.1153C636.444 58.0118 636.353 57.8857 636.292 57.7453C636.231 57.6049 636.199 57.4532 636.2 57.2999C636.2 56.9816 636.326 56.6764 636.551 56.4514C636.776 56.2263 637.082 56.0999 637.4 56.0999C637.557 56.0999 637.713 56.1309 637.859 56.1912C638.005 56.2516 638.137 56.3399 638.248 56.4514C638.36 56.5628 638.448 56.6951 638.508 56.8407C638.569 56.9863 638.6 57.1423 638.6 57.2999C638.575 57.6005 638.437 57.8806 638.215 58.0845C637.992 58.2883 637.701 58.4009 637.4 58.3999ZM626.2 64.2999C626.2 64.4444 626.171 64.5874 626.116 64.7208C626.061 64.8543 625.98 64.9756 625.878 65.0777C625.776 65.1799 625.654 65.2609 625.521 65.3162C625.387 65.3714 625.244 65.3999 625.1 65.3999C624.947 65.4138 624.793 65.3957 624.648 65.3467C624.503 65.2977 624.37 65.2189 624.257 65.1153C624.144 65.0118 624.053 64.8857 623.992 64.7453C623.931 64.6049 623.899 64.4532 623.9 64.2999C623.9 63.9816 624.026 63.6764 624.251 63.4514C624.476 63.2263 624.782 63.0999 625.1 63.0999C625.253 63.0993 625.405 63.1307 625.545 63.1921C625.686 63.2535 625.812 63.3436 625.915 63.4566C626.019 63.5696 626.098 63.703 626.147 63.8482C626.196 63.9934 626.214 64.1473 626.2 64.2999ZM612.2 58.3999C611.908 58.3999 611.628 58.284 611.422 58.0777C611.216 57.8714 611.1 57.5916 611.1 57.2999C611.086 57.1473 611.104 56.9934 611.153 56.8482C611.202 56.703 611.281 56.5696 611.384 56.4566C611.488 56.3436 611.614 56.2535 611.754 56.1921C611.895 56.1307 612.047 56.0993 612.2 56.0999C612.518 56.0999 612.823 56.2263 613.048 56.4514C613.273 56.6764 613.4 56.9816 613.4 57.2999C613.4 57.4532 613.369 57.6049 613.308 57.7453C613.246 57.8857 613.156 58.0118 613.043 58.1153C612.93 58.2189 612.797 58.2977 612.652 58.3467C612.506 58.3957 612.352 58.4138 612.2 58.3999ZM614 55.2999C613.631 54.9822 613.181 54.7743 612.7 54.6999V45.2999L617.4 53.3999L614 55.2999ZM612.2 41.3999C612.518 41.3999 612.823 41.5263 613.048 41.7514C613.273 41.9764 613.4 42.2816 613.4 42.5999C613.4 42.9182 613.273 43.2234 613.048 43.4484C612.823 43.6735 612.518 43.7999 612.2 43.7999C611.882 43.7999 611.576 43.6735 611.351 43.4484C611.126 43.2234 611 42.9182 611 42.5999C611 42.2816 611.126 41.9764 611.351 41.7514C611.576 41.5263 611.882 41.3999 612.2 41.3999ZM637.7 43.7999C637.382 43.7999 637.076 43.6735 636.851 43.4484C636.626 43.2234 636.5 42.9182 636.5 42.5999C636.5 42.2816 636.626 41.9764 636.851 41.7514C637.076 41.5263 637.382 41.3999 637.7 41.3999C638.018 41.3999 638.323 41.5263 638.548 41.7514C638.773 41.9764 638.9 42.2816 638.9 42.5999C638.9 42.9182 638.773 43.2234 638.548 43.4484C638.323 43.6735 638.018 43.7999 637.7 43.7999ZM635.1 42.9999C635.095 43.0541 635.102 43.1086 635.119 43.1602C635.136 43.2118 635.164 43.2593 635.2 43.2999L627 47.8999C626.668 47.5851 626.251 47.3762 625.8 47.2999V42.9999H635.1ZM626.3 49.8999C626.3 50.0532 626.269 50.2049 626.208 50.3453C626.146 50.4857 626.056 50.6118 625.943 50.7153C625.83 50.8189 625.697 50.8977 625.552 50.9467C625.406 50.9957 625.252 51.0138 625.1 50.9999C624.808 50.9999 624.528 50.884 624.322 50.6777C624.116 50.4714 624 50.1916 624 49.8999C623.986 49.7473 624.004 49.5934 624.053 49.4482C624.102 49.303 624.181 49.1696 624.284 49.0566C624.388 48.9436 624.514 48.8535 624.654 48.7921C624.795 48.7307 624.947 48.6993 625.1 48.6999C625.418 48.6999 625.723 48.8263 625.948 49.0514C626.173 49.2764 626.3 49.5816 626.3 49.8999ZM624.3 47.2999C623.898 47.4731 623.527 47.7094 623.2 47.9999L614.8 43.1999V42.9999H624.3V47.2999ZM614 44.5999H614.1L622.5 49.3999V50.5999L618.7 52.6999L614 44.5999ZM623.3 51.7999L624.3 52.3999V61.6999H624.1L619.5 53.7999L623.3 51.7999ZM625.8 61.6999V52.3999C626.213 52.3008 626.593 52.0938 626.9 51.7999L630.5 53.8999L625.8 61.6999ZM627.7 50.5999C627.774 50.3744 627.808 50.1373 627.8 49.8999C627.823 49.6619 627.788 49.4219 627.7 49.1999L635.9 44.5999H636L631.3 52.5999L627.7 50.5999ZM637.3 45.4999V54.5999C637.022 54.5901 636.745 54.6384 636.487 54.7417C636.228 54.845 635.994 55.0011 635.8 55.1999L632.6 53.3999L637.3 45.4999ZM635.2 41.4999H625.8V37.6999C626.291 37.4944 626.734 37.1877 627.1 36.7999L635.2 41.4999ZM625.1 33.8999C625.418 33.8999 625.723 34.0263 625.948 34.2514C626.173 34.4764 626.3 34.7816 626.3 35.0999C626.3 35.4182 626.173 35.7234 625.948 35.9484C625.723 36.1735 625.418 36.2999 625.1 36.2999C624.782 36.2999 624.476 36.1735 624.251 35.9484C624.026 35.7234 623.9 35.4182 623.9 35.0999C623.9 34.7816 624.026 34.4764 624.251 34.2514C624.476 34.0263 624.782 33.8999 625.1 33.8999ZM624.3 37.6999V41.4999H614.9L623 36.7999C623.365 37.1877 623.808 37.4944 624.3 37.6999ZM614.8 58.0999C614.8 57.7999 614.9 57.4999 614.9 57.2999C614.9 57.0999 614.8 56.7999 614.8 56.5999L618.2 54.6999L622.9 62.6999L614.8 58.0999ZM627.1 62.5999L631.8 54.5999L634.9 56.3999C634.786 56.6873 634.718 56.9911 634.7 57.2999C634.719 57.641 634.786 57.9777 634.9 58.2999L627.2 62.6999L627.1 62.5999Z" fill="#6C6C6C"/>
<path d="M582.599 79.9999V70.0999C583.081 69.885 583.489 69.5338 583.774 69.0895C584.058 68.6452 584.206 68.1274 584.199 67.5999C584.2 66.9008 583.929 66.2288 583.444 65.7252C582.959 65.2217 582.298 64.9258 581.599 64.8999C581.058 64.8999 580.532 65.0753 580.099 65.3999L571.499 60.4999C571.499 60.2999 571.599 60.1999 571.599 60.0999C571.599 59.3838 571.315 58.6971 570.808 58.1907C570.302 57.6844 569.615 57.3999 568.899 57.3999C568.183 57.3999 567.496 57.6844 566.99 58.1907C566.484 58.6971 566.199 59.3838 566.199 60.0999C566.195 60.1541 566.201 60.2086 566.218 60.2602C566.235 60.3118 566.263 60.3593 566.299 60.3999L557.599 65.3999C557.196 65.1303 556.727 64.9744 556.243 64.9485C555.758 64.9226 555.276 65.0278 554.846 65.2529C554.416 65.478 554.055 65.8148 553.8 66.2278C553.546 66.6408 553.407 67.1148 553.399 67.5999C553.401 68.1387 553.563 68.6646 553.866 69.1102C554.169 69.5557 554.599 69.9004 555.099 70.0999V79.7999C554.591 79.9874 554.153 80.3292 553.848 80.7774C553.544 81.2257 553.387 81.758 553.399 82.2999C553.425 82.9985 553.721 83.6598 554.224 84.1448C554.728 84.6297 555.4 84.9004 556.099 84.8999C556.718 84.9006 557.318 84.6888 557.799 84.2999L566.199 89.1999C566.199 89.916 566.484 90.6027 566.99 91.1091C567.496 91.6154 568.183 91.8999 568.899 91.8999C569.615 91.8999 570.302 91.6154 570.808 91.1091C571.315 90.6027 571.599 89.916 571.599 89.1999H571.499L579.699 84.3999C580.115 84.7556 580.653 84.935 581.199 84.8999C581.797 84.9467 582.393 84.7853 582.885 84.443C583.378 84.1008 583.737 83.5988 583.902 83.0221C584.067 82.4454 584.027 81.8295 583.789 81.2787C583.552 80.7279 583.132 80.2761 582.599 79.9999ZM581.199 83.3999C580.907 83.3999 580.628 83.284 580.421 83.0777C580.215 82.8714 580.099 82.5916 580.099 82.2999C580.085 82.1473 580.103 81.9934 580.152 81.8482C580.201 81.703 580.28 81.5696 580.384 81.4566C580.487 81.3436 580.613 81.2535 580.754 81.1921C580.894 81.1307 581.046 81.0993 581.199 81.0999C581.517 81.0999 581.823 81.2263 582.048 81.4514C582.273 81.6764 582.399 81.9816 582.399 82.2999C582.4 82.4532 582.368 82.6049 582.307 82.7453C582.246 82.8857 582.155 83.0118 582.042 83.1153C581.929 83.2189 581.796 83.2977 581.651 83.3467C581.506 83.3957 581.352 83.4138 581.199 83.3999ZM570.099 89.2999C570.074 89.6005 569.937 89.8806 569.714 90.0845C569.492 90.2883 569.201 90.401 568.899 90.3999C568.747 90.4138 568.593 90.3957 568.447 90.3467C568.302 90.2977 568.169 90.2189 568.056 90.1153C567.943 90.0118 567.853 89.8857 567.791 89.7453C567.73 89.6049 567.699 89.4532 567.699 89.2999C567.699 88.9816 567.826 88.6764 568.051 88.4514C568.276 88.2263 568.581 88.0999 568.899 88.0999C569.217 88.0999 569.523 88.2263 569.748 88.4514C569.973 88.6764 570.099 88.9816 570.099 89.2999ZM556.099 83.3999C555.947 83.4138 555.793 83.3957 555.647 83.3467C555.502 83.2977 555.369 83.2189 555.256 83.1153C555.143 83.0118 555.053 82.8857 554.991 82.7453C554.93 82.6049 554.899 82.4532 554.899 82.2999C554.899 81.9816 555.026 81.6764 555.251 81.4514C555.476 81.2263 555.781 81.0999 556.099 81.0999C556.252 81.0993 556.404 81.1307 556.545 81.1921C556.685 81.2535 556.811 81.3436 556.915 81.4566C557.018 81.5696 557.097 81.703 557.146 81.8482C557.195 81.9934 557.213 82.1473 557.199 82.2999C557.199 82.5916 557.083 82.8714 556.877 83.0777C556.671 83.284 556.391 83.3999 556.099 83.3999ZM557.799 80.2999C557.468 79.9851 557.05 79.7762 556.599 79.6999V70.2999L561.299 78.3999L557.799 80.2999ZM556.099 66.3999C556.417 66.3999 556.723 66.5263 556.948 66.7514C557.173 66.9764 557.299 67.2816 557.299 67.5999C557.299 67.9182 557.173 68.2234 556.948 68.4484C556.723 68.6735 556.417 68.7999 556.099 68.7999C555.781 68.7999 555.476 68.6735 555.251 68.4484C555.026 68.2234 554.899 67.9182 554.899 67.5999C554.899 67.2816 555.026 66.9764 555.251 66.7514C555.476 66.5263 555.781 66.3999 556.099 66.3999ZM581.599 68.7999C581.281 68.7999 580.976 68.6735 580.751 68.4484C580.526 68.2234 580.399 67.9182 580.399 67.5999C580.399 67.2816 580.526 66.9764 580.751 66.7514C580.976 66.5263 581.281 66.3999 581.599 66.3999C581.917 66.3999 582.223 66.5263 582.448 66.7514C582.673 66.9764 582.799 67.2816 582.799 67.5999C582.799 67.9182 582.673 68.2234 582.448 68.4484C582.223 68.6735 581.917 68.7999 581.599 68.7999ZM578.899 67.9999C578.899 68.0999 578.999 68.1999 578.999 68.2999L570.799 72.8999C570.468 72.5851 570.05 72.3762 569.599 72.2999V67.9999H578.899ZM570.099 74.8999C570.099 75.1916 569.983 75.4714 569.777 75.6777C569.571 75.884 569.291 75.9999 568.999 75.9999C568.847 76.0138 568.693 75.9957 568.547 75.9467C568.402 75.8977 568.269 75.8189 568.156 75.7153C568.043 75.6118 567.953 75.4857 567.891 75.3453C567.83 75.2049 567.799 75.0532 567.799 74.8999C567.799 74.5816 567.926 74.2764 568.151 74.0514C568.376 73.8263 568.681 73.6999 568.999 73.6999C569.152 73.6993 569.304 73.7307 569.445 73.7921C569.585 73.8535 569.711 73.9436 569.815 74.0566C569.918 74.1696 569.997 74.303 570.046 74.4482C570.095 74.5934 570.113 74.7473 570.099 74.8999ZM568.099 72.2999L567.099 72.9999L558.699 68.1999V67.9999H568.099V72.2999ZM557.899 69.5999L566.399 74.3999C566.262 74.7881 566.262 75.2117 566.399 75.5999L562.599 77.6999L557.899 69.5999ZM567.099 76.7999L568.099 77.3999V86.6999H567.899L563.299 78.7999L567.099 76.7999ZM569.699 86.6999H569.599V77.3999C570.021 77.3229 570.406 77.1126 570.699 76.7999L574.299 78.8999L569.699 86.6999ZM571.499 75.5999C571.574 75.3744 571.608 75.1373 571.599 74.8999V74.1999L579.799 69.5999H579.899L575.099 77.5999L571.499 75.5999ZM581.099 70.4999V79.5999C580.821 79.5901 580.544 79.6384 580.286 79.7417C580.028 79.845 579.794 80.0011 579.599 80.1999L576.399 78.3999L581.099 70.4999ZM578.999 66.4999H569.599V62.6999C570.105 62.5216 570.554 62.2108 570.899 61.7999L578.999 66.4999ZM568.899 58.8999C569.217 58.8999 569.523 59.0263 569.748 59.2514C569.973 59.4764 570.099 59.7816 570.099 60.0999C570.099 60.4182 569.973 60.7234 569.748 60.9484C569.523 61.1735 569.217 61.2999 568.899 61.2999C568.581 61.2999 568.276 61.1735 568.051 60.9484C567.826 60.7234 567.699 60.4182 567.699 60.0999C567.699 59.7816 567.826 59.4764 568.051 59.2514C568.276 59.0263 568.581 58.8999 568.899 58.8999ZM568.099 62.6999V66.4999H558.699L566.899 61.7999C567.206 62.2072 567.622 62.5193 568.099 62.6999ZM558.599 83.0999C558.676 82.8404 558.709 82.5702 558.699 82.2999C558.722 82.0619 558.688 81.8219 558.599 81.5999L561.999 79.6999L566.699 87.6999L558.599 83.0999ZM570.899 87.5999L575.599 79.5999L578.699 81.3999C578.617 81.6925 578.583 81.9965 578.599 82.2999C578.568 82.6455 578.637 82.9928 578.799 83.2999L570.999 87.6999L570.899 87.5999Z" fill="#6C6C6C"/>
<path d="M518.3 112.5V102.5C518.766 102.292 519.164 101.956 519.447 101.531C519.73 101.107 519.887 100.61 519.9 100.1C519.9 99.3838 519.615 98.6971 519.109 98.1907C518.603 97.6844 517.916 97.3999 517.2 97.3999C516.664 97.4294 516.146 97.6021 515.7 97.8999L507.2 92.8999V92.5999C507.276 92.2089 507.265 91.8058 507.167 91.4196C507.069 91.0334 506.887 90.6736 506.634 90.3661C506.381 90.0586 506.062 89.8109 505.702 89.6409C505.342 89.4709 504.948 89.3827 504.55 89.3827C504.151 89.3827 503.758 89.4709 503.398 89.6409C503.037 89.8109 502.719 90.0586 502.466 90.3661C502.212 90.6736 502.03 91.0334 501.933 91.4196C501.835 91.8058 501.823 92.2089 501.9 92.5999V92.8999L493.3 97.8999C492.825 97.5846 492.27 97.4111 491.7 97.3999C491.001 97.4258 490.34 97.7216 489.855 98.2252C489.37 98.7288 489.099 99.4008 489.1 100.1C489.105 100.625 489.258 101.137 489.541 101.579C489.824 102.021 490.226 102.375 490.7 102.6V112.3C490.218 112.515 489.81 112.866 489.525 113.31C489.241 113.755 489.093 114.272 489.1 114.8C489.1 115.141 489.167 115.479 489.298 115.795C489.428 116.11 489.62 116.397 489.861 116.638C490.103 116.88 490.389 117.071 490.705 117.202C491.02 117.333 491.358 117.4 491.7 117.4C492.323 117.428 492.933 117.213 493.4 116.8L501.9 121.7C502.02 122.315 502.35 122.869 502.833 123.267C503.317 123.665 503.924 123.883 504.55 123.883C505.176 123.883 505.783 123.665 506.266 123.267C506.75 122.869 507.08 122.315 507.2 121.7V121.5L515.4 116.8C515.833 117.124 516.359 117.3 516.9 117.3C517.599 117.3 518.271 117.03 518.775 116.545C519.278 116.06 519.574 115.399 519.6 114.7C519.566 114.258 519.431 113.83 519.205 113.449C518.98 113.068 518.67 112.743 518.3 112.5ZM516.9 115.9C516.747 115.914 516.593 115.896 516.448 115.847C516.303 115.798 516.17 115.719 516.057 115.615C515.944 115.512 515.853 115.386 515.792 115.245C515.731 115.105 515.699 114.953 515.7 114.8C515.7 114.482 515.826 114.176 516.051 113.951C516.276 113.726 516.582 113.6 516.9 113.6C517.218 113.6 517.523 113.726 517.748 113.951C517.973 114.176 518.1 114.482 518.1 114.8C518.075 115.101 517.937 115.381 517.715 115.584C517.492 115.788 517.201 115.901 516.9 115.9ZM505.7 121.8C505.7 121.944 505.671 122.087 505.616 122.221C505.561 122.354 505.48 122.476 505.378 122.578C505.276 122.68 505.154 122.761 505.021 122.816C504.887 122.871 504.744 122.9 504.6 122.9C504.447 122.914 504.293 122.896 504.148 122.847C504.003 122.798 503.87 122.719 503.757 122.615C503.644 122.512 503.553 122.386 503.492 122.245C503.431 122.105 503.399 121.953 503.4 121.8C503.4 121.482 503.526 121.176 503.751 120.951C503.976 120.726 504.282 120.6 504.6 120.6C504.753 120.599 504.905 120.631 505.045 120.692C505.186 120.754 505.312 120.844 505.415 120.957C505.519 121.07 505.598 121.203 505.647 121.348C505.696 121.493 505.714 121.647 505.7 121.8ZM491.7 115.9C491.408 115.9 491.128 115.784 490.922 115.578C490.716 115.371 490.6 115.092 490.6 114.8C490.586 114.647 490.604 114.493 490.653 114.348C490.702 114.203 490.781 114.07 490.884 113.957C490.988 113.844 491.114 113.754 491.254 113.692C491.395 113.631 491.547 113.599 491.7 113.6C492.018 113.6 492.323 113.726 492.548 113.951C492.773 114.176 492.9 114.482 492.9 114.8C492.9 114.953 492.869 115.105 492.808 115.245C492.746 115.386 492.656 115.512 492.543 115.615C492.43 115.719 492.297 115.798 492.152 115.847C492.006 115.896 491.852 115.914 491.7 115.9ZM493.5 112.8C493.14 112.45 492.69 112.208 492.2 112.1V102.8L496.9 110.8L493.5 112.8ZM491.7 98.8999C492.018 98.8999 492.323 99.0263 492.548 99.2514C492.773 99.4764 492.9 99.7816 492.9 100.1C492.9 100.418 492.773 100.723 492.548 100.948C492.323 101.173 492.018 101.3 491.7 101.3C491.399 101.275 491.119 101.137 490.915 100.915C490.711 100.693 490.599 100.402 490.6 100.1C490.586 99.9473 490.604 99.7934 490.653 99.6482C490.702 99.503 490.781 99.3696 490.884 99.2566C490.988 99.1436 491.114 99.0535 491.254 98.9921C491.395 98.9307 491.547 98.8993 491.7 98.8999ZM517.2 101.3C516.899 101.275 516.619 101.137 516.415 100.915C516.211 100.693 516.099 100.402 516.1 100.1C516.086 99.9473 516.104 99.7934 516.153 99.6482C516.202 99.503 516.281 99.3696 516.384 99.2566C516.488 99.1436 516.614 99.0535 516.754 98.9921C516.895 98.9307 517.047 98.8993 517.2 98.8999C517.518 98.8999 517.823 99.0263 518.048 99.2514C518.273 99.4764 518.4 99.7816 518.4 100.1C518.4 100.418 518.273 100.723 518.048 100.948C517.823 101.173 517.518 101.3 517.2 101.3ZM514.6 100.5C514.595 100.554 514.602 100.609 514.619 100.66C514.636 100.712 514.664 100.759 514.7 100.8L506.5 105.4C506.168 105.085 505.751 104.876 505.3 104.8V100.5H514.6ZM505.8 107.3C505.8 107.618 505.673 107.923 505.448 108.148C505.223 108.373 504.918 108.5 504.6 108.5C504.447 108.501 504.295 108.469 504.154 108.408C504.014 108.346 503.888 108.256 503.784 108.143C503.681 108.03 503.602 107.897 503.553 107.752C503.504 107.606 503.486 107.453 503.5 107.3C503.5 107.155 503.528 107.012 503.584 106.879C503.639 106.745 503.72 106.624 503.822 106.522C503.924 106.42 504.045 106.339 504.179 106.284C504.312 106.228 504.455 106.2 504.6 106.2C504.752 106.186 504.906 106.204 505.052 106.253C505.197 106.302 505.33 106.381 505.443 106.484C505.556 106.588 505.646 106.714 505.708 106.854C505.769 106.995 505.8 107.147 505.8 107.3ZM503.8 104.8C503.398 104.973 503.027 105.209 502.7 105.5L494.3 100.6H503.8V104.8ZM493.5 102H493.6L502 106.8V107.9L498.2 110.1L493.5 102ZM502.8 109.2L503.8 109.9V119.2H503.6L499 111.3L502.8 109.2ZM505.3 119.2V109.9C505.713 109.801 506.093 109.594 506.4 109.3L510 111.4L505.3 119.2ZM507.2 108C507.288 107.778 507.323 107.538 507.3 107.3C507.314 107.095 507.28 106.889 507.2 106.7L515.4 102.1H515.5L510.8 110.1L507.2 108ZM516.8 103V112.1C516.522 112.09 516.245 112.138 515.987 112.242C515.728 112.345 515.494 112.501 515.3 112.7L512.1 110.8L516.8 103ZM514.7 98.9999H505.3V95.0999C505.803 94.9693 506.256 94.6906 506.6 94.2999L514.7 98.9999ZM504.6 91.3999C504.753 91.3993 504.905 91.4307 505.045 91.4921C505.186 91.5535 505.312 91.6436 505.415 91.7566C505.519 91.8696 505.598 92.003 505.647 92.1482C505.696 92.2934 505.714 92.4473 505.7 92.5999C505.701 92.9016 505.588 93.1926 505.384 93.4149C505.181 93.6373 504.9 93.7748 504.6 93.7999C504.282 93.7999 503.976 93.6735 503.751 93.4484C503.526 93.2234 503.4 92.9182 503.4 92.5999C503.4 92.2816 503.526 91.9764 503.751 91.7514C503.976 91.5263 504.282 91.3999 504.6 91.3999ZM503.8 95.0999V98.9999H494.4L502.5 94.2999C502.843 94.6906 503.296 94.9693 503.8 95.0999ZM494.3 115.5C494.3 115.3 494.4 115 494.4 114.8C494.4 114.6 494.3 114.3 494.3 114.1L497.7 112.1L502.4 120.2L494.3 115.5ZM506.6 120L511.3 112.1L514.4 113.9C514.276 114.184 514.208 114.49 514.2 114.8C514.218 115.109 514.286 115.412 514.4 115.7L506.7 120.2L506.6 120Z" fill="#6C6C6C"/>
<path d="M394.5 396.2H454L497.5 334.2" stroke="#6C6C6C" stroke-width="3" stroke-miterlimit="10"/>
<path d="M389.599 401.7C392.582 401.7 394.999 399.282 394.999 396.3C394.999 393.318 392.582 390.9 389.599 390.9C386.617 390.9 384.199 393.318 384.199 396.3C384.199 399.282 386.617 401.7 389.599 401.7Z" stroke="#6C6C6C" stroke-width="3" stroke-miterlimit="10"/>
<path d="M795 378V345.43L774 333" stroke="#6C6C6C" stroke-width="3" stroke-miterlimit="10"/>
<path d="M797.506 388.261C800.22 387.038 801.429 383.847 800.206 381.133C798.983 378.419 795.792 377.21 793.078 378.433C790.364 379.656 789.155 382.847 790.378 385.561C791.601 388.275 794.792 389.484 797.506 388.261Z" stroke="#6C6C6C" stroke-width="2.99429" stroke-miterlimit="10"/>
<path d="M693.3 11.2999H633.8L586.1 63.8999" stroke="#6C6C6C" stroke-width="3" stroke-miterlimit="10"/>
<path d="M698.199 16.5999C701.181 16.5999 703.599 14.1823 703.599 11.1999C703.599 8.21759 701.181 5.79993 698.199 5.79993C695.216 5.79993 692.799 8.21759 692.799 11.1999C692.799 14.1823 695.216 16.5999 698.199 16.5999Z" stroke="#6C6C6C" stroke-width="3" stroke-miterlimit="10"/>
<path d="M244.299 53V96.5L258.399 110.2" stroke="#6C6C6C" stroke-width="3" stroke-miterlimit="10"/>
<path d="M244.237 53.5734C247.218 53.4641 249.545 50.9595 249.436 47.9791C249.327 44.9988 246.822 42.6714 243.842 42.7806C240.861 42.8899 238.534 45.3946 238.643 48.3749C238.752 51.3552 241.257 53.6827 244.237 53.5734Z" stroke="#6C6C6C" stroke-width="3" stroke-miterlimit="10"/>
<path d="M275.26 404.6H278.5V390.6H275.26V404.6ZM297.602 404.6L297.562 390.6H294.902L289.742 399.3L284.502 390.6H281.822V404.6H284.862V396.38L288.962 403.12H290.422L294.542 396.2L294.562 404.6H297.602ZM306.984 390.6H300.924V404.6H304.164V400.74H306.984C310.724 400.74 313.064 398.8 313.064 395.68C313.064 392.54 310.724 390.6 306.984 390.6ZM306.804 398.1H304.164V393.24H306.804C308.784 393.24 309.784 394.14 309.784 395.68C309.784 397.2 308.784 398.1 306.804 398.1ZM327.777 404.6L324.637 400.1C326.457 399.32 327.517 397.78 327.517 395.68C327.517 392.54 325.177 390.6 321.437 390.6H315.377V404.6H318.617V400.7H321.437H321.597L324.297 404.6H327.777ZM324.237 395.68C324.237 397.2 323.237 398.12 321.257 398.12H318.617V393.24H321.257C323.237 393.24 324.237 394.14 324.237 395.68ZM336.864 404.84C341.264 404.84 344.524 401.78 344.524 397.6C344.524 393.42 341.264 390.36 336.864 390.36C332.444 390.36 329.204 393.44 329.204 397.6C329.204 401.76 332.444 404.84 336.864 404.84ZM336.864 402.08C334.364 402.08 332.484 400.26 332.484 397.6C332.484 394.94 334.364 393.12 336.864 393.12C339.364 393.12 341.244 394.94 341.244 397.6C341.244 400.26 339.364 402.08 336.864 402.08ZM356.73 390.6L352.41 400.6L348.15 390.6H344.65L350.69 404.6H353.89L359.95 390.6H356.73ZM364.339 402V398.76H370.839V396.24H364.339V393.2H371.699V390.6H361.119V404.6H371.959V402H364.339Z" fill="#A5A4A5"/>
<path d="M814.78 386.4V383.16H821.28V380.64H814.78V377.6H822.14V375H811.56V389H822.4V386.4H814.78ZM837.402 389L832.182 381.76L837.062 375H833.562L830.402 379.54L827.182 375H823.502L828.422 381.88L823.242 389H826.962L830.282 384.14L833.662 389H837.402ZM841.89 386.4V383.16H848.39V380.64H841.89V377.6H849.25V375H838.67V389H849.51V386.4H841.89ZM858.749 389.24C861.189 389.24 863.209 388.36 864.529 386.74L862.449 384.82C861.509 385.92 860.329 386.48 858.929 386.48C856.309 386.48 854.449 384.64 854.449 382C854.449 379.36 856.309 377.52 858.929 377.52C860.329 377.52 861.509 378.08 862.449 379.16L864.529 377.24C863.209 375.64 861.189 374.76 858.769 374.76C854.409 374.76 851.169 377.78 851.169 382C851.169 386.22 854.409 389.24 858.749 389.24ZM872.819 389.24C876.799 389.24 879.159 386.96 879.159 382.84V375H875.959V382.72C875.959 385.38 874.819 386.48 872.839 386.48C870.879 386.48 869.719 385.38 869.719 382.72V375H866.479V382.84C866.479 386.96 868.839 389.24 872.819 389.24ZM885.027 389H888.267V377.64H892.747V375H880.547V377.64H885.027V389ZM897.71 386.4V383.16H904.21V380.64H897.71V377.6H905.07V375H894.49V389H905.33V386.4H897.71ZM829.62 399L826.36 408.92L823.16 399H820.16L816.86 408.84L813.7 399H810.34L814.94 413H818.4L821.58 403.52L824.66 413H828.14L832.72 399H829.62ZM834.529 413H837.769V399H834.529V413ZM843.992 413H847.232V401.64H851.712V399H839.512V401.64H843.992V413ZM863.055 399V404.52H856.695V399H853.455V413H856.695V407.26H863.055V413H866.295V399H863.055ZM881.971 413.24C884.411 413.24 886.431 412.36 887.751 410.74L885.671 408.82C884.731 409.92 883.551 410.48 882.151 410.48C879.531 410.48 877.671 408.64 877.671 406C877.671 403.36 879.531 401.52 882.151 401.52C883.551 401.52 884.731 402.08 885.671 403.16L887.751 401.24C886.431 399.64 884.411 398.76 881.991 398.76C877.631 398.76 874.391 401.78 874.391 406C874.391 410.22 877.631 413.24 881.971 413.24ZM896.426 413.24C900.826 413.24 904.086 410.18 904.086 406C904.086 401.82 900.826 398.76 896.426 398.76C892.006 398.76 888.766 401.84 888.766 406C888.766 410.16 892.006 413.24 896.426 413.24ZM896.426 410.48C893.926 410.48 892.046 408.66 892.046 406C892.046 403.34 893.926 401.52 896.426 401.52C898.926 401.52 900.806 403.34 900.806 406C900.806 408.66 898.926 410.48 896.426 410.48ZM916.161 399V407.5L909.201 399H906.521V413H909.721V404.5L916.701 413H919.361V399H916.161ZM933.254 401.6V399H922.674V413H925.914V407.9H932.394V405.3H925.914V401.6H933.254ZM935.447 413H938.687V399H935.447V413ZM942.01 413H948.37C952.95 413 956.09 410.24 956.09 406C956.09 401.76 952.95 399 948.37 399H942.01V413ZM945.25 410.34V401.66H948.21C950.99 401.66 952.81 403.32 952.81 406C952.81 408.68 950.99 410.34 948.21 410.34H945.25ZM961.753 410.4V407.16H968.253V404.64H961.753V401.6H969.113V399H958.533V413H969.373V410.4H961.753ZM981.591 399V407.5L974.631 399H971.951V413H975.151V404.5L982.131 413H984.791V399H981.591ZM994.803 413.24C997.243 413.24 999.263 412.36 1000.58 410.74L998.503 408.82C997.563 409.92 996.383 410.48 994.983 410.48C992.363 410.48 990.503 408.64 990.503 406C990.503 403.36 992.363 401.52 994.983 401.52C996.383 401.52 997.563 402.08 998.503 403.16L1000.58 401.24C999.263 399.64 997.243 398.76 994.823 398.76C990.463 398.76 987.223 401.78 987.223 406C987.223 410.22 990.463 413.24 994.803 413.24ZM1005.99 410.4V407.16H1012.49V404.64H1005.99V401.6H1013.35V399H1002.77V413H1013.61V410.4H1005.99Z" fill="#A5A4A5"/>
<path d="M178.216 423.192C179.096 422.76 179.72 421.912 179.72 420.696C179.72 418.888 178.28 417.8 175.704 417.8H170.68V429H176.024C178.856 429 180.312 427.896 180.312 425.976C180.312 424.488 179.48 423.544 178.216 423.192ZM175.56 419.096C177.192 419.096 178.12 419.704 178.12 420.888C178.12 422.072 177.192 422.68 175.56 422.68H172.28V419.096H175.56ZM175.96 427.704H172.28V423.976H175.96C177.736 423.976 178.696 424.552 178.696 425.848C178.696 427.144 177.736 427.704 175.96 427.704ZM190.229 424.808C190.229 422.2 188.485 420.44 186.037 420.44C183.589 420.44 181.781 422.248 181.781 424.76C181.781 427.288 183.605 429.096 186.341 429.096C187.749 429.096 188.917 428.616 189.685 427.72L188.837 426.728C188.213 427.416 187.381 427.752 186.389 427.752C184.709 427.752 183.509 426.76 183.317 425.272H190.197C190.213 425.128 190.229 424.936 190.229 424.808ZM186.037 421.736C187.525 421.736 188.597 422.744 188.757 424.168H183.317C183.477 422.728 184.565 421.736 186.037 421.736ZM196.89 420.44C195.546 420.44 194.458 420.936 193.834 421.8V420.52H192.362V429H193.898V424.632C193.898 422.792 194.954 421.816 196.586 421.816C198.042 421.816 198.874 422.632 198.874 424.296V429H200.41V424.12C200.41 421.624 198.954 420.44 196.89 420.44ZM206.996 429.096C208.516 429.096 209.78 428.456 210.452 427.272L209.284 426.536C208.74 427.368 207.908 427.752 206.98 427.752C205.316 427.752 204.068 426.6 204.068 424.76C204.068 422.952 205.316 421.784 206.98 421.784C207.908 421.784 208.74 422.168 209.284 423L210.452 422.248C209.78 421.064 208.516 420.44 206.996 420.44C204.388 420.44 202.516 422.232 202.516 424.76C202.516 427.288 204.388 429.096 206.996 429.096ZM216.859 420.44C215.563 420.44 214.507 420.904 213.867 421.72V417.128H212.331V429H213.867V424.632C213.867 422.792 214.923 421.816 216.555 421.816C218.011 421.816 218.843 422.632 218.843 424.296V429H220.379V424.12C220.379 421.624 218.923 420.44 216.859 420.44ZM233.83 420.44C232.39 420.44 231.206 421.048 230.566 422.008C230.006 420.952 228.918 420.44 227.622 420.44C226.342 420.44 225.302 420.92 224.694 421.784V420.52H223.222V429H224.758V424.632C224.758 422.792 225.766 421.816 227.302 421.816C228.694 421.816 229.494 422.632 229.494 424.296V429H231.03V424.632C231.03 422.792 232.038 421.816 233.574 421.816C234.966 421.816 235.766 422.632 235.766 424.296V429H237.302V424.12C237.302 421.624 235.894 420.44 233.83 420.44ZM243.216 420.44C241.856 420.44 240.592 420.824 239.712 421.528L240.352 422.68C241.008 422.12 242.032 421.768 243.04 421.768C244.56 421.768 245.312 422.52 245.312 423.816V424.12H242.88C240.352 424.12 239.472 425.24 239.472 426.6C239.472 428.072 240.688 429.096 242.608 429.096C243.936 429.096 244.88 428.648 245.392 427.88V429H246.848V423.88C246.848 421.56 245.536 420.44 243.216 420.44ZM242.864 427.912C241.696 427.912 240.992 427.384 240.992 426.536C240.992 425.816 241.424 425.224 242.944 425.224H245.312V426.408C244.928 427.384 244.016 427.912 242.864 427.912ZM251.162 421.944V420.52H249.69V429H251.226V424.776C251.226 422.92 252.25 421.912 253.898 421.912C254.01 421.912 254.122 421.912 254.25 421.928V420.44C252.762 420.44 251.706 420.952 251.162 421.944ZM262.624 429H264.512L260.592 424.024L264.16 420.52H262.304L257.68 424.744V417.128H256.144V429H257.68V426.68L259.44 425.048L262.624 429ZM274.796 420.44C273.548 420.44 272.46 420.92 271.772 421.864V420.52H270.3V432.104H271.836V427.72C272.54 428.632 273.596 429.096 274.796 429.096C277.276 429.096 279.084 427.368 279.084 424.76C279.084 422.168 277.276 420.44 274.796 420.44ZM274.668 427.752C273.052 427.752 271.82 426.568 271.82 424.76C271.82 422.968 273.052 421.784 274.668 421.784C276.3 421.784 277.532 422.968 277.532 424.76C277.532 426.568 276.3 427.752 274.668 427.752ZM288.87 424.808C288.87 422.2 287.126 420.44 284.678 420.44C282.23 420.44 280.422 422.248 280.422 424.76C280.422 427.288 282.246 429.096 284.982 429.096C286.39 429.096 287.558 428.616 288.326 427.72L287.478 426.728C286.854 427.416 286.022 427.752 285.03 427.752C283.35 427.752 282.15 426.76 281.958 425.272H288.838C288.854 425.128 288.87 424.936 288.87 424.808ZM284.678 421.736C286.166 421.736 287.238 422.744 287.398 424.168H281.958C282.118 422.728 283.206 421.736 284.678 421.736ZM292.475 421.944V420.52H291.003V429H292.539V424.776C292.539 422.92 293.563 421.912 295.211 421.912C295.323 421.912 295.435 421.912 295.563 421.928V420.44C294.075 420.44 293.019 420.952 292.475 421.944ZM300.669 418.296C301.117 418.296 301.533 418.456 301.853 418.696L302.317 417.528C301.885 417.192 301.245 417.032 300.589 417.032C298.781 417.032 297.789 418.12 297.789 419.768V420.52H296.349V421.784H297.789V429H299.325V421.784H301.757V420.52H299.293V419.784C299.293 418.808 299.757 418.296 300.669 418.296ZM306.713 429.096C309.257 429.096 311.113 427.288 311.113 424.76C311.113 422.232 309.257 420.44 306.713 420.44C304.169 420.44 302.297 422.232 302.297 424.76C302.297 427.288 304.169 429.096 306.713 429.096ZM306.713 427.752C305.081 427.752 303.849 426.568 303.849 424.76C303.849 422.952 305.081 421.784 306.713 421.784C308.345 421.784 309.561 422.952 309.561 424.76C309.561 426.568 308.345 427.752 306.713 427.752ZM314.709 421.944V420.52H313.237V429H314.773V424.776C314.773 422.92 315.797 421.912 317.445 421.912C317.557 421.912 317.669 421.912 317.797 421.928V420.44C316.309 420.44 315.253 420.952 314.709 421.944ZM330.298 420.44C328.858 420.44 327.674 421.048 327.034 422.008C326.474 420.952 325.386 420.44 324.09 420.44C322.81 420.44 321.77 420.92 321.162 421.784V420.52H319.69V429H321.226V424.632C321.226 422.792 322.234 421.816 323.77 421.816C325.162 421.816 325.962 422.632 325.962 424.296V429H327.498V424.632C327.498 422.792 328.506 421.816 330.042 421.816C331.434 421.816 332.234 422.632 332.234 424.296V429H333.77V424.12C333.77 421.624 332.362 420.44 330.298 420.44ZM339.685 420.44C338.325 420.44 337.061 420.824 336.181 421.528L336.821 422.68C337.477 422.12 338.501 421.768 339.509 421.768C341.029 421.768 341.781 422.52 341.781 423.816V424.12H339.349C336.821 424.12 335.941 425.24 335.941 426.6C335.941 428.072 337.157 429.096 339.077 429.096C340.405 429.096 341.349 428.648 341.861 427.88V429H343.317V423.88C343.317 421.56 342.005 420.44 339.685 420.44ZM339.333 427.912C338.165 427.912 337.461 427.384 337.461 426.536C337.461 425.816 337.893 425.224 339.413 425.224H341.781V426.408C341.397 427.384 340.485 427.912 339.333 427.912ZM350.687 420.44C349.343 420.44 348.255 420.936 347.631 421.8V420.52H346.159V429H347.695V424.632C347.695 422.792 348.751 421.816 350.383 421.816C351.839 421.816 352.671 422.632 352.671 424.296V429H354.207V424.12C354.207 421.624 352.751 420.44 350.687 420.44ZM360.793 429.096C362.313 429.096 363.577 428.456 364.249 427.272L363.081 426.536C362.537 427.368 361.705 427.752 360.777 427.752C359.113 427.752 357.865 426.6 357.865 424.76C357.865 422.952 359.113 421.784 360.777 421.784C361.705 421.784 362.537 422.168 363.081 423L364.249 422.248C363.577 421.064 362.313 420.44 360.793 420.44C358.185 420.44 356.313 422.232 356.313 424.76C356.313 427.288 358.185 429.096 360.793 429.096ZM373.776 424.808C373.776 422.2 372.032 420.44 369.584 420.44C367.136 420.44 365.328 422.248 365.328 424.76C365.328 427.288 367.152 429.096 369.888 429.096C371.296 429.096 372.464 428.616 373.232 427.72L372.384 426.728C371.76 427.416 370.928 427.752 369.936 427.752C368.256 427.752 367.056 426.76 366.864 425.272H373.744C373.76 425.128 373.776 424.936 373.776 424.808ZM369.584 421.736C371.072 421.736 372.144 422.744 372.304 424.168H366.864C367.024 422.728 368.112 421.736 369.584 421.736Z" fill="#A5A4A5"/>
<path d="M725.319 19.8999H728.719L722.459 5.8999H719.259L713.019 19.8999H716.339L717.579 16.8999H724.079L725.319 19.8999ZM718.619 14.4399L720.839 9.0799L723.059 14.4399H718.619ZM739.812 5.8999V14.3999L732.852 5.8999H730.172V19.8999H733.372V11.3999L740.352 19.8999H743.012V5.8999H739.812ZM756.784 19.8999H760.184L753.924 5.8999H750.724L744.484 19.8999H747.804L749.044 16.8999H755.544L756.784 19.8999ZM750.084 14.4399L752.304 9.0799L754.524 14.4399H750.084ZM761.637 19.8999H771.897V17.2599H764.877V5.8999H761.637V19.8999ZM784.422 5.8999H781.242L777.502 12.1199L773.762 5.8999H770.322L775.742 14.8999V19.8999H778.982V14.9399L784.422 5.8999ZM789.157 17.2599L796.817 7.9999V5.8999H785.037V8.5399H792.557L784.877 17.7999V19.8999H797.117V17.2599H789.157ZM802.415 17.2999V14.0599H808.915V11.5399H802.415V8.4999H809.775V5.8999H799.195V19.8999H810.035V17.2999H802.415Z" fill="#A5A4A5"/>
<path d="M719.188 43.328C720.932 43.328 722.436 42.72 723.46 41.568L722.42 40.56C721.556 41.472 720.5 41.904 719.268 41.904C716.74 41.904 714.868 40.08 714.868 37.6C714.868 35.12 716.74 33.296 719.268 33.296C720.5 33.296 721.556 33.712 722.42 34.624L723.46 33.616C722.436 32.464 720.932 31.872 719.204 31.872C715.796 31.872 713.268 34.288 713.268 37.6C713.268 40.912 715.796 43.328 719.188 43.328ZM728.791 43.296C731.335 43.296 733.191 41.488 733.191 38.96C733.191 36.432 731.335 34.64 728.791 34.64C726.247 34.64 724.375 36.432 724.375 38.96C724.375 41.488 726.247 43.296 728.791 43.296ZM728.791 41.952C727.159 41.952 725.927 40.768 725.927 38.96C725.927 37.152 727.159 35.984 728.791 35.984C730.423 35.984 731.639 37.152 731.639 38.96C731.639 40.768 730.423 41.952 728.791 41.952ZM739.843 34.64C738.499 34.64 737.411 35.136 736.787 36V34.72H735.315V43.2H736.851V38.832C736.851 36.992 737.907 36.016 739.539 36.016C740.995 36.016 741.827 36.832 741.827 38.496V43.2H743.363V38.32C743.363 35.824 741.907 34.64 739.843 34.64ZM750.494 41.6C750.174 41.856 749.742 42 749.294 42C748.446 42 747.966 41.488 747.966 40.576V35.984H750.398V34.72H747.966V32.864H746.43V34.72H744.99V35.984H746.43V40.64C746.43 42.352 747.406 43.296 749.118 43.296C749.806 43.296 750.51 43.104 750.974 42.704L750.494 41.6ZM753.599 33.088C754.207 33.088 754.639 32.64 754.639 32.064C754.639 31.52 754.191 31.088 753.599 31.088C753.007 31.088 752.559 31.536 752.559 32.096C752.559 32.656 753.007 33.088 753.599 33.088ZM752.831 43.2H754.367V34.72H752.831V43.2ZM761.828 34.64C760.484 34.64 759.396 35.136 758.772 36V34.72H757.3V43.2H758.836V38.832C758.836 36.992 759.892 36.016 761.524 36.016C762.98 36.016 763.812 36.832 763.812 38.496V43.2H765.348V38.32C765.348 35.824 763.892 34.64 761.828 34.64ZM771.869 43.296C774.413 43.296 776.269 41.488 776.269 38.96C776.269 36.432 774.413 34.64 771.869 34.64C769.325 34.64 767.453 36.432 767.453 38.96C767.453 41.488 769.325 43.296 771.869 43.296ZM771.869 41.952C770.237 41.952 769.005 40.768 769.005 38.96C769.005 37.152 770.237 35.984 771.869 35.984C773.501 35.984 774.717 37.152 774.717 38.96C774.717 40.768 773.501 41.952 771.869 41.952ZM784.762 34.72V39.104C784.762 40.928 783.738 41.92 782.138 41.92C780.682 41.92 779.85 41.088 779.85 39.424V34.72H778.314V39.6C778.314 42.096 779.77 43.296 781.962 43.296C783.162 43.296 784.218 42.8 784.842 41.92V43.2H786.298V34.72H784.762ZM791.654 43.296C793.91 43.296 795.318 42.32 795.318 40.784C795.318 37.488 789.942 39.12 789.942 37.12C789.942 36.448 790.598 35.952 791.942 35.952C792.774 35.952 793.622 36.128 794.39 36.624L795.046 35.408C794.31 34.928 793.062 34.64 791.958 34.64C789.782 34.64 788.422 35.664 788.422 37.184C788.422 40.56 793.782 38.912 793.782 40.816C793.782 41.536 793.19 41.968 791.766 41.968C790.662 41.968 789.51 41.6 788.79 41.088L788.15 42.304C788.854 42.864 790.246 43.296 791.654 43.296ZM802.302 33.088C802.91 33.088 803.342 32.64 803.342 32.064C803.342 31.52 802.894 31.088 802.302 31.088C801.71 31.088 801.262 31.536 801.262 32.096C801.262 32.656 801.71 33.088 802.302 33.088ZM801.534 43.2H803.07V34.72H801.534V43.2ZM816.611 34.64C815.171 34.64 813.987 35.248 813.347 36.208C812.787 35.152 811.699 34.64 810.403 34.64C809.123 34.64 808.083 35.12 807.475 35.984V34.72H806.003V43.2H807.539V38.832C807.539 36.992 808.547 36.016 810.083 36.016C811.475 36.016 812.275 36.832 812.275 38.496V43.2H813.811V38.832C813.811 36.992 814.819 36.016 816.355 36.016C817.747 36.016 818.547 36.832 818.547 38.496V43.2H820.083V38.32C820.083 35.824 818.675 34.64 816.611 34.64ZM827.405 34.64C826.157 34.64 825.069 35.12 824.381 36.064V34.72H822.909V46.304H824.445V41.92C825.149 42.832 826.205 43.296 827.405 43.296C829.885 43.296 831.693 41.568 831.693 38.96C831.693 36.368 829.885 34.64 827.405 34.64ZM827.277 41.952C825.661 41.952 824.429 40.768 824.429 38.96C824.429 37.168 825.661 35.984 827.277 35.984C828.909 35.984 830.141 37.168 830.141 38.96C830.141 40.768 828.909 41.952 827.277 41.952ZM835.287 36.144V34.72H833.815V43.2H835.351V38.976C835.351 37.12 836.375 36.112 838.023 36.112C838.135 36.112 838.247 36.112 838.375 36.128V34.64C836.887 34.64 835.831 35.152 835.287 36.144ZM843.822 43.296C846.366 43.296 848.222 41.488 848.222 38.96C848.222 36.432 846.366 34.64 843.822 34.64C841.278 34.64 839.406 36.432 839.406 38.96C839.406 41.488 841.278 43.296 843.822 43.296ZM843.822 41.952C842.19 41.952 840.958 40.768 840.958 38.96C840.958 37.152 842.19 35.984 843.822 35.984C845.454 35.984 846.67 37.152 846.67 38.96C846.67 40.768 845.454 41.952 843.822 41.952ZM856.112 34.72L853.136 41.52L850.224 34.72H848.624L852.336 43.2H853.904L857.616 34.72H856.112ZM866.479 39.008C866.479 36.4 864.735 34.64 862.287 34.64C859.839 34.64 858.031 36.448 858.031 38.96C858.031 41.488 859.855 43.296 862.591 43.296C863.999 43.296 865.167 42.816 865.935 41.92L865.087 40.928C864.463 41.616 863.631 41.952 862.639 41.952C860.959 41.952 859.759 40.96 859.567 39.472H866.447C866.463 39.328 866.479 39.136 866.479 39.008ZM862.287 35.936C863.775 35.936 864.847 36.944 865.007 38.368H859.567C859.727 36.928 860.815 35.936 862.287 35.936Z" fill="#A5A4A5"/>
<path d="M67.178 53.24C71.178 53.24 73.118 51.24 73.118 48.9C73.118 43.76 64.978 45.54 64.978 42.96C64.978 42.08 65.718 41.36 67.638 41.36C68.878 41.36 70.218 41.72 71.518 42.46L72.518 40C71.218 39.18 69.418 38.76 67.658 38.76C63.678 38.76 61.758 40.74 61.758 43.12C61.758 48.32 69.898 46.52 69.898 49.14C69.898 50 69.118 50.64 67.198 50.64C65.518 50.64 63.758 50.04 62.578 49.18L61.478 51.62C62.718 52.58 64.958 53.24 67.178 53.24ZM78.0366 53H81.2766V41.64H85.7566V39H73.5566V41.64H78.0366V53ZM97.2567 53H100.657L94.3967 39H91.1967L84.9567 53H88.2767L89.5167 50H96.0167L97.2567 53ZM90.5567 47.54L92.7767 42.18L94.9967 47.54H90.5567ZM113.41 39H110.23L106.49 45.22L102.75 39H99.3098L104.73 48V53H107.97V48.04L113.41 39ZM127.13 53.24C129.57 53.24 131.59 52.36 132.91 50.74L130.83 48.82C129.89 49.92 128.71 50.48 127.31 50.48C124.69 50.48 122.83 48.64 122.83 46C122.83 43.36 124.69 41.52 127.31 41.52C128.71 41.52 129.89 42.08 130.83 43.16L132.91 41.24C131.59 39.64 129.57 38.76 127.15 38.76C122.79 38.76 119.55 41.78 119.55 46C119.55 50.22 122.79 53.24 127.13 53.24ZM141.2 53.24C145.18 53.24 147.54 50.96 147.54 46.84V39H144.34V46.72C144.34 49.38 143.2 50.48 141.22 50.48C139.26 50.48 138.1 49.38 138.1 46.72V39H134.86V46.84C134.86 50.96 137.22 53.24 141.2 53.24ZM163.142 53L160.002 48.5C161.822 47.72 162.882 46.18 162.882 44.08C162.882 40.94 160.542 39 156.802 39H150.742V53H153.982V49.1H156.802H156.962L159.662 53H163.142ZM159.602 44.08C159.602 45.6 158.602 46.52 156.622 46.52H153.982V41.64H156.622C158.602 41.64 159.602 42.54 159.602 44.08ZM177.849 53L174.709 48.5C176.529 47.72 177.589 46.18 177.589 44.08C177.589 40.94 175.249 39 171.509 39H165.449V53H168.689V49.1H171.509H171.669L174.369 53H177.849ZM174.309 44.08C174.309 45.6 173.309 46.52 171.329 46.52H168.689V41.64H171.329C173.309 41.64 174.309 42.54 174.309 44.08ZM183.376 50.4V47.16H189.876V44.64H183.376V41.6H190.736V39H180.156V53H190.996V50.4H183.376ZM203.214 39V47.5L196.254 39H193.574V53H196.774V44.5L203.754 53H206.414V39H203.214ZM212.626 53H215.866V41.64H220.346V39H208.146V41.64H212.626V53ZM222.386 53.16C223.466 53.16 224.326 52.34 224.326 51.2C224.326 50.04 223.466 49.28 222.386 49.28C221.306 49.28 220.446 50.04 220.446 51.2C220.446 52.34 221.306 53.16 222.386 53.16ZM7.04125 77.24C11.0413 77.24 12.9813 75.24 12.9813 72.9C12.9813 67.76 4.84125 69.54 4.84125 66.96C4.84125 66.08 5.58125 65.36 7.50125 65.36C8.74125 65.36 10.0813 65.72 11.3813 66.46L12.3813 64C11.0813 63.18 9.28125 62.76 7.52125 62.76C3.54125 62.76 1.62125 64.74 1.62125 67.12C1.62125 72.32 9.76125 70.52 9.76125 73.14C9.76125 74 8.98125 74.64 7.06125 74.64C5.38125 74.64 3.62125 74.04 2.44125 73.18L1.34125 75.62C2.58125 76.58 4.82125 77.24 7.04125 77.24ZM25.6552 77H29.0552L22.7952 63H19.5952L13.3552 77H16.6752L17.9152 74H24.4152L25.6552 77ZM18.9552 71.54L21.1752 66.18L23.3952 71.54H18.9552ZM39.9859 63L35.6659 73L31.4059 63H27.9059L33.9459 77H37.1459L43.2059 63H39.9859ZM47.5948 74.4V71.16H54.0948V68.64H47.5948V65.6H54.9548V63H44.3748V77H55.2148V74.4H47.5948ZM66.3569 77H69.5969V65.64H74.0769V63H61.8769V65.64H66.3569V77ZM75.8202 77H79.0602V63H75.8202V77ZM98.1627 77L98.1227 63H95.4627L90.3027 71.7L85.0627 63H82.3827V77H85.4227V68.78L89.5227 75.52H90.9827L95.1027 68.6L95.1227 77H98.1627ZM104.704 74.4V71.16H111.204V68.64H104.704V65.6H112.064V63H101.484V77H112.324V74.4H104.704ZM131.026 77H134.426L128.166 63H124.966L118.726 77H122.046L123.286 74H129.786L131.026 77ZM124.326 71.54L126.546 66.18L128.766 71.54H124.326ZM145.519 63V71.5L138.559 63H135.879V77H139.079V68.5L146.059 77H148.719V63H145.519ZM152.031 77H158.391C162.971 77 166.111 74.24 166.111 70C166.111 65.76 162.971 63 158.391 63H152.031V77ZM155.271 74.34V65.66H158.231C161.011 65.66 162.831 67.32 162.831 70C162.831 72.68 161.011 74.34 158.231 74.34H155.271ZM174.615 63H168.555V77H171.795V73.14H174.615C178.355 73.14 180.695 71.2 180.695 68.08C180.695 64.94 178.355 63 174.615 63ZM174.435 70.5H171.795V65.64H174.435C176.415 65.64 177.415 66.54 177.415 68.08C177.415 69.6 176.415 70.5 174.435 70.5ZM183.008 77H193.268V74.36H186.248V63H183.008V77ZM205.655 77H209.055L202.795 63H199.595L193.355 77H196.675L197.915 74H204.415L205.655 77ZM198.955 71.54L201.175 66.18L203.395 71.54H198.955ZM220.148 63V71.5L213.188 63H210.508V77H213.708V68.5L220.688 77H223.348V63H220.148ZM92.5753 98.4V95.16H99.0753V92.64H92.5753V89.6H99.9353V87H89.3553V101H100.195V98.4H92.5753ZM113.353 89.6V87H102.773V101H106.013V95.9H112.493V93.3H106.013V89.6H113.353ZM126.127 89.6V87H115.547V101H118.787V95.9H125.267V93.3H118.787V89.6H126.127ZM128.32 101H131.56V87H128.32V101ZM141.583 101.24C144.023 101.24 146.043 100.36 147.363 98.74L145.283 96.82C144.343 97.92 143.163 98.48 141.763 98.48C139.143 98.48 137.283 96.64 137.283 94C137.283 91.36 139.143 89.52 141.763 89.52C143.163 89.52 144.343 90.08 145.283 91.16L147.363 89.24C146.043 87.64 144.023 86.76 141.603 86.76C137.243 86.76 134.003 89.78 134.003 94C134.003 98.22 137.243 101.24 141.583 101.24ZM149.551 101H152.791V87H149.551V101ZM159.333 98.4V95.16H165.833V92.64H159.333V89.6H166.693V87H156.113V101H166.953V98.4H159.333ZM179.171 87V95.5L172.211 87H169.531V101H172.731V92.5L179.711 101H182.371V87H179.171ZM188.583 101H191.823V89.64H196.303V87H184.103V89.64H188.583V101ZM198.047 101H208.307V98.36H201.287V87H198.047V101ZM220.832 87H217.652L213.912 93.22L210.172 87H206.732L212.152 96V101H215.392V96.04L220.832 87ZM222.386 101.16C223.466 101.16 224.326 100.34 224.326 99.2C224.326 98.04 223.466 97.28 222.386 97.28C221.306 97.28 220.446 98.04 220.446 99.2C220.446 100.34 221.306 101.16 222.386 101.16Z" fill="#EA5B2B"/>
<path d="M507.983 68.7L507.951 57.5H505.823L501.695 64.46L497.503 57.5H495.359V68.7H497.791V62.124L501.071 67.516H502.239L505.535 61.98L505.551 68.7H507.983ZM510.641 68.7H518.849V66.588H513.233V57.5H510.641V68.7ZM486.483 73.964C485.107 73.964 483.715 74.332 482.771 75.004L483.667 76.748C484.291 76.252 485.235 75.948 486.147 75.948C487.491 75.948 488.131 76.572 488.131 77.644H486.147C483.523 77.644 482.451 78.7 482.451 80.22C482.451 81.708 483.651 82.828 485.667 82.828C486.931 82.828 487.827 82.412 488.291 81.628V82.7H490.627V77.788C490.627 75.18 489.107 73.964 486.483 73.964ZM486.291 81.148C485.411 81.148 484.883 80.732 484.883 80.108C484.883 79.532 485.251 79.1 486.419 79.1H488.131V79.98C487.843 80.764 487.123 81.148 486.291 81.148ZM499.492 74.092V75.196C498.836 74.364 497.844 73.964 496.644 73.964C494.26 73.964 492.34 75.612 492.34 78.124C492.34 80.636 494.26 82.284 496.644 82.284C497.764 82.284 498.708 81.932 499.364 81.212V81.58C499.364 83.132 498.596 83.932 496.836 83.932C495.732 83.932 494.532 83.548 493.796 82.956L492.804 84.748C493.812 85.532 495.396 85.932 497.028 85.932C500.132 85.932 501.86 84.46 501.86 81.26V74.092H499.492ZM497.14 80.236C495.828 80.236 494.868 79.388 494.868 78.124C494.868 76.86 495.828 76.012 497.14 76.012C498.452 76.012 499.396 76.86 499.396 78.124C499.396 79.388 498.452 80.236 497.14 80.236ZM512.615 78.428C512.615 75.66 510.663 73.964 508.135 73.964C505.511 73.964 503.543 75.82 503.543 78.396C503.543 80.956 505.479 82.828 508.455 82.828C510.007 82.828 511.207 82.348 512.007 81.436L510.679 79.996C510.087 80.556 509.431 80.828 508.519 80.828C507.207 80.828 506.295 80.172 506.055 79.1H512.567C512.583 78.892 512.615 78.62 512.615 78.428ZM508.151 75.852C509.271 75.852 510.087 76.556 510.263 77.644H506.023C506.199 76.54 507.015 75.852 508.151 75.852ZM519.509 73.964C518.341 73.964 517.333 74.364 516.661 75.1V74.092H514.277V82.7H516.773V78.444C516.773 76.86 517.637 76.124 518.837 76.124C519.941 76.124 520.581 76.764 520.581 78.156V82.7H523.077V77.772C523.077 75.148 521.541 73.964 519.509 73.964ZM530.22 80.524C529.948 80.732 529.58 80.844 529.212 80.844C528.54 80.844 528.14 80.444 528.14 79.708V76.204H530.284V74.284H528.14V72.188H525.644V74.284H524.316V76.204H525.644V79.74C525.644 81.788 526.828 82.828 528.86 82.828C529.628 82.828 530.38 82.652 530.892 82.284L530.22 80.524Z" fill="#A5A4A5"/>
<path d="M566.083 33.2L566.051 22H563.923L559.795 28.96L555.603 22H553.459V33.2H555.891V26.624L559.171 32.016H560.339L563.635 26.48L563.651 33.2H566.083ZM568.74 33.2H576.948V31.088H571.332V22H568.74V33.2ZM544.583 38.464C543.207 38.464 541.815 38.832 540.871 39.504L541.767 41.248C542.391 40.752 543.335 40.448 544.247 40.448C545.591 40.448 546.231 41.072 546.231 42.144H544.247C541.623 42.144 540.551 43.2 540.551 44.72C540.551 46.208 541.751 47.328 543.767 47.328C545.031 47.328 545.927 46.912 546.391 46.128V47.2H548.727V42.288C548.727 39.68 547.207 38.464 544.583 38.464ZM544.391 45.648C543.511 45.648 542.983 45.232 542.983 44.608C542.983 44.032 543.351 43.6 544.519 43.6H546.231V44.48C545.943 45.264 545.223 45.648 544.391 45.648ZM557.592 38.592V39.696C556.936 38.864 555.944 38.464 554.744 38.464C552.36 38.464 550.44 40.112 550.44 42.624C550.44 45.136 552.36 46.784 554.744 46.784C555.864 46.784 556.808 46.432 557.464 45.712V46.08C557.464 47.632 556.696 48.432 554.936 48.432C553.832 48.432 552.632 48.048 551.896 47.456L550.904 49.248C551.912 50.032 553.496 50.432 555.128 50.432C558.232 50.432 559.96 48.96 559.96 45.76V38.592H557.592ZM555.24 44.736C553.928 44.736 552.968 43.888 552.968 42.624C552.968 41.36 553.928 40.512 555.24 40.512C556.552 40.512 557.496 41.36 557.496 42.624C557.496 43.888 556.552 44.736 555.24 44.736ZM570.715 42.928C570.715 40.16 568.763 38.464 566.235 38.464C563.611 38.464 561.643 40.32 561.643 42.896C561.643 45.456 563.579 47.328 566.555 47.328C568.107 47.328 569.307 46.848 570.107 45.936L568.779 44.496C568.187 45.056 567.531 45.328 566.619 45.328C565.307 45.328 564.395 44.672 564.155 43.6H570.667C570.683 43.392 570.715 43.12 570.715 42.928ZM566.251 40.352C567.371 40.352 568.187 41.056 568.363 42.144H564.123C564.299 41.04 565.115 40.352 566.251 40.352ZM577.609 38.464C576.441 38.464 575.433 38.864 574.761 39.6V38.592H572.377V47.2H574.873V42.944C574.873 41.36 575.737 40.624 576.937 40.624C578.041 40.624 578.681 41.264 578.681 42.656V47.2H581.177V42.272C581.177 39.648 579.641 38.464 577.609 38.464ZM588.319 45.024C588.047 45.232 587.679 45.344 587.311 45.344C586.639 45.344 586.239 44.944 586.239 44.208V40.704H588.383V38.784H586.239V36.688H583.743V38.784H582.415V40.704H583.743V44.24C583.743 46.288 584.927 47.328 586.959 47.328C587.727 47.328 588.479 47.152 588.991 46.784L588.319 45.024Z" fill="#A5A4A5"/>
<path d="M524.483 368.7L524.451 357.5H522.323L518.195 364.46L514.003 357.5H511.859V368.7H514.291V362.124L517.571 367.516H518.739L522.035 361.98L522.051 368.7H524.483ZM527.141 368.7H535.349V366.588H529.733V357.5H527.141V368.7ZM502.983 373.964C501.607 373.964 500.215 374.332 499.271 375.004L500.167 376.748C500.791 376.252 501.735 375.948 502.647 375.948C503.991 375.948 504.631 376.572 504.631 377.644H502.647C500.023 377.644 498.951 378.7 498.951 380.22C498.951 381.708 500.151 382.828 502.167 382.828C503.431 382.828 504.327 382.412 504.791 381.628V382.7H507.127V377.788C507.127 375.18 505.607 373.964 502.983 373.964ZM502.791 381.148C501.911 381.148 501.383 380.732 501.383 380.108C501.383 379.532 501.751 379.1 502.919 379.1H504.631V379.98C504.343 380.764 503.623 381.148 502.791 381.148ZM515.992 374.092V375.196C515.336 374.364 514.344 373.964 513.144 373.964C510.76 373.964 508.84 375.612 508.84 378.124C508.84 380.636 510.76 382.284 513.144 382.284C514.264 382.284 515.208 381.932 515.864 381.212V381.58C515.864 383.132 515.096 383.932 513.336 383.932C512.232 383.932 511.032 383.548 510.296 382.956L509.304 384.748C510.312 385.532 511.896 385.932 513.528 385.932C516.632 385.932 518.36 384.46 518.36 381.26V374.092H515.992ZM513.64 380.236C512.328 380.236 511.368 379.388 511.368 378.124C511.368 376.86 512.328 376.012 513.64 376.012C514.952 376.012 515.896 376.86 515.896 378.124C515.896 379.388 514.952 380.236 513.64 380.236ZM529.115 378.428C529.115 375.66 527.163 373.964 524.635 373.964C522.011 373.964 520.043 375.82 520.043 378.396C520.043 380.956 521.979 382.828 524.955 382.828C526.507 382.828 527.707 382.348 528.507 381.436L527.179 379.996C526.587 380.556 525.931 380.828 525.019 380.828C523.707 380.828 522.795 380.172 522.555 379.1H529.067C529.083 378.892 529.115 378.62 529.115 378.428ZM524.651 375.852C525.771 375.852 526.587 376.556 526.763 377.644H522.523C522.699 376.54 523.515 375.852 524.651 375.852ZM536.009 373.964C534.841 373.964 533.833 374.364 533.161 375.1V374.092H530.777V382.7H533.273V378.444C533.273 376.86 534.137 376.124 535.337 376.124C536.441 376.124 537.081 376.764 537.081 378.156V382.7H539.577V377.772C539.577 375.148 538.041 373.964 536.009 373.964ZM546.72 380.524C546.448 380.732 546.08 380.844 545.712 380.844C545.04 380.844 544.64 380.444 544.64 379.708V376.204H546.784V374.284H544.64V372.188H542.144V374.284H540.816V376.204H542.144V379.74C542.144 381.788 543.328 382.828 545.36 382.828C546.128 382.828 546.88 382.652 547.392 382.284L546.72 380.524Z" fill="#A5A4A5"/>
<path d="M259.277 200.046C258.498 198.277 256.958 197.087 254.863 196.94C251.601 196.712 249.228 199.252 248.861 204.49L248.145 214.725L269.093 216.191L269.852 205.358C270.237 199.851 268.343 196.831 264.722 196.578C262.089 196.394 260.188 197.764 259.277 200.046ZM252.47 205.344C252.636 202.98 253.534 201.749 255.18 201.864C256.826 201.98 257.574 203.325 257.408 205.689L257.071 210.508L252.133 210.162L252.47 205.344ZM266.175 205.461L265.78 211.117L260.602 210.755L260.998 205.099C261.174 202.585 262.106 201.297 263.872 201.42C265.668 201.546 266.351 202.947 266.175 205.461Z" fill="#A5A4A5"/>
<path d="M275.509 181.341C277.539 175.727 275.527 171.235 269.716 169.133L258.657 165.133L257.024 169.647L267.914 173.585C271.666 174.943 272.636 177.112 271.626 179.905C270.626 182.669 268.482 183.744 264.73 182.387L253.841 178.449L252.188 183.019L263.246 187.019C269.058 189.121 273.478 186.955 275.509 181.341Z" fill="#A5A4A5"/>
<path d="M282.671 164.958L285.246 160.837L267.437 149.709L264.862 153.83L282.671 164.958Z" fill="#A5A4A5"/>
<path d="M290.253 153.592L300.69 142.281L297.78 139.596L290.639 147.335L278.116 135.779L274.82 139.35L290.253 153.592Z" fill="#A5A4A5"/>
<path d="M305.426 138.161L313.521 133.113C319.35 129.478 321.157 123.473 317.792 118.076C314.427 112.679 308.239 111.658 302.41 115.293L294.314 120.341L305.426 138.161ZM307.438 132.204L300.55 121.155L304.317 118.806C307.856 116.6 311.49 117.268 313.617 120.679C315.744 124.091 314.745 127.648 311.206 129.854L307.438 132.204Z" fill="#A5A4A5"/>
<path d="M704.395 330.301L698.907 324.167C701.476 322.677 702.777 320.193 702.398 317.066C701.831 312.39 697.996 309.923 692.427 310.598L683.403 311.692L685.93 332.54L690.755 331.955L690.051 326.147L694.25 325.638L694.489 325.609L699.213 330.93L704.395 330.301ZM697.514 317.658C697.788 319.921 696.465 321.472 693.517 321.829L689.585 322.305L688.705 315.039L692.636 314.562C695.584 314.205 697.236 315.364 697.514 317.658Z" fill="#A5A4A5"/>
<path d="M723.751 324.553C729.318 322.398 731.385 317.931 729.154 312.167L724.909 301.2L720.432 302.933L724.613 313.732C726.053 317.453 725.054 319.609 722.284 320.682C719.542 321.743 717.324 320.832 715.884 317.111L711.703 306.312L707.171 308.067L711.416 319.034C713.647 324.797 718.183 326.708 723.751 324.553Z" fill="#A5A4A5"/>
<path d="M742.63 289.19L750.28 299.39L734.278 295.454L731.062 297.866L743.662 314.666L747.502 311.786L739.852 301.586L755.878 305.504L759.07 303.11L746.47 286.31L742.63 289.19Z" fill="#A5A4A5"/>
<path d="M332.6 102.1C330.561 102.98 328.955 104.631 328.13 106.692C327.306 108.753 327.331 111.057 328.2 113.1C328.633 114.118 329.263 115.04 330.052 115.815C330.842 116.589 331.777 117.2 332.803 117.613C333.829 118.027 334.926 118.234 336.033 118.223C337.139 118.212 338.232 117.983 339.25 117.55C340.267 117.117 341.19 116.487 341.964 115.697C342.739 114.907 343.35 113.973 343.763 112.947C344.176 111.92 344.383 110.823 344.373 109.717C344.362 108.611 344.133 107.518 343.7 106.5C343.264 105.478 342.631 104.553 341.836 103.778C341.041 103.003 340.1 102.393 339.067 101.984C338.035 101.575 336.932 101.375 335.822 101.395C334.712 101.414 333.617 101.654 332.6 102.1ZM334.8 116.2L330.6 106.4L341.9 107.3L334.8 116.2Z" fill="#A5A4A5"/>
<path d="M760.499 276.8C759.181 277.808 758.191 279.185 757.655 280.755C757.118 282.325 757.058 284.02 757.484 285.624C757.909 287.228 758.8 288.67 760.044 289.769C761.288 290.867 762.83 291.572 764.474 291.795C766.119 292.018 767.793 291.749 769.285 291.022C770.776 290.294 772.019 289.141 772.856 287.708C773.693 286.275 774.087 284.626 773.988 282.97C773.889 281.313 773.301 279.723 772.299 278.4C771.631 277.518 770.795 276.776 769.84 276.218C768.885 275.66 767.828 275.296 766.732 275.148C765.635 274.999 764.52 275.068 763.451 275.352C762.381 275.636 761.378 276.128 760.499 276.8ZM765.999 289.9L759.599 281.4L770.799 279.6L765.999 289.9Z" fill="#A5A4A5"/>
</svg>
