<svg width="431" height="207" viewBox="0 0 431 207" fill="none" xmlns="http://www.w3.org/2000/svg">
<g clip-path="url(#clip0_280_503)">
<path d="M315.145 63.7569C309.722 63.7662 304.327 64.539 299.119 66.0525C294.332 51.0161 285.106 37.7804 272.656 28.0855C260.205 18.3907 245.112 12.6905 229.361 11.7345C213.609 10.7784 197.938 14.6113 184.406 22.7291C170.874 30.8469 160.115 42.8696 153.544 57.2166C146.462 55.7001 139.137 55.7168 132.061 57.2655C124.986 58.8143 118.324 61.8592 112.523 66.1958C106.721 70.5324 101.915 76.0602 98.4272 82.408C94.9391 88.7557 92.8499 95.7764 92.2997 102.998C82.5692 103.461 73.4083 107.722 66.7849 114.865C60.1614 122.008 56.6037 131.464 56.8759 141.202C57.1481 150.94 61.2286 160.182 68.2408 166.944C75.253 173.706 84.6376 177.449 94.3787 177.367L315.145 177.454C322.743 177.663 330.305 176.348 337.386 173.585C344.466 170.823 350.921 166.669 356.369 161.369C361.817 156.07 366.147 149.732 369.104 142.73C372.061 135.729 373.585 128.206 373.585 120.605C373.585 113.005 372.061 105.482 369.104 98.48C366.147 91.4785 361.817 85.1406 356.369 79.841C350.921 74.5414 344.466 70.3876 337.386 67.625C330.305 64.8624 322.743 63.5471 315.145 63.7569V63.7569Z" stroke="#EA5B2B" stroke-width="5" stroke-miterlimit="10"/>
<path d="M407.922 21.6565L406.796 24.1254L410.391 26.6375L412.297 24.7751C413.122 25.1056 413.978 25.3522 414.852 25.5114L415.632 28.1102L420.007 27.7203L420.223 25.0782C421.091 24.8105 421.921 24.432 422.692 23.9521L424.901 25.4681L428.02 22.3928L426.504 20.1839C426.988 19.4244 427.38 18.6102 427.673 17.7583L430.358 17.4985L430.748 13.1238L428.193 12.4308C428.064 11.5406 427.831 10.6684 427.5 9.83206L429.406 7.88297L426.893 4.28799L424.468 5.41413C423.796 4.82817 423.071 4.30616 422.302 3.85486L422.475 1.12614L418.231 0L417.105 2.42553C416.206 2.37532 415.304 2.43349 414.419 2.59878L412.817 0.43313L408.875 2.29559L409.525 4.85106C409.143 5.14387 408.781 5.46222 408.442 5.80395L407.619 6.71352L404.977 6.06383L403.158 10.0486L405.323 11.5646C405.106 12.4423 405.019 13.347 405.064 14.25L402.595 15.4194L403.764 19.6641L406.406 19.4476C406.816 20.2452 407.325 20.9875 407.922 21.6565ZM412.124 9.48556C413.022 8.59333 414.164 7.98705 415.406 7.74316C416.649 7.49928 417.935 7.62871 419.104 8.11515C420.273 8.60158 421.272 9.42323 421.974 10.4765C422.677 11.5297 423.052 12.7674 423.052 14.0334C423.052 15.2994 422.677 16.5371 421.974 17.5904C421.272 18.6436 420.273 19.4653 419.104 19.9517C417.935 20.4381 416.649 20.5676 415.406 20.3237C414.164 20.0798 413.022 19.4735 412.124 18.5813C411.524 17.9855 411.048 17.2769 410.723 16.4964C410.398 15.7159 410.231 14.8788 410.231 14.0334C410.231 13.188 410.398 12.351 410.723 11.5704C411.048 10.7899 411.524 10.0814 412.124 9.48556Z" fill="#EA5B2B"/>
<path d="M389.948 33.7409L389.082 35.7333L391.983 37.769L393.499 36.2531C394.166 36.5261 394.865 36.7152 395.578 36.8161L396.185 38.9385L399.736 38.6353L399.91 36.5129C400.597 36.2987 401.253 35.9928 401.859 35.6034L403.678 36.8161L406.19 34.304L404.977 32.5714C405.351 31.957 405.656 31.3034 405.887 30.6224L408.096 30.3625L408.399 26.8541L406.32 26.2911C406.229 25.566 406.055 24.8538 405.8 24.1687L407.316 22.6094L405.28 19.7075L403.331 20.617C402.786 20.1359 402.191 19.7147 401.556 19.361L401.729 17.152L398.307 16.2424L397.398 18.1915C396.672 18.1829 395.947 18.2409 395.232 18.3648L393.933 16.5889L390.727 18.1049L391.29 20.1406L390.381 20.9202L389.731 21.6999L387.609 21.1368L386.093 24.3853L387.869 25.598C387.709 26.3085 387.636 27.0357 387.652 27.7637L385.703 28.7166L386.613 32.1383L388.735 31.9651C389.084 32.5929 389.49 33.1873 389.948 33.7409ZM392.027 22.5661C393.015 21.5817 394.273 20.9123 395.642 20.6423C397.011 20.3723 398.429 20.5138 399.717 21.049C401.005 21.5842 402.106 22.4892 402.881 23.6495C403.655 24.8099 404.068 26.1737 404.068 27.5688C404.068 28.9639 403.655 30.3277 402.881 31.4881C402.106 32.6484 401.005 33.5533 399.717 34.0886C398.429 34.6238 397.011 34.7653 395.642 34.4953C394.273 34.2253 393.015 33.5558 392.027 32.5714C391.368 31.9155 390.845 31.1359 390.489 30.2774C390.132 29.4189 389.948 28.4984 389.948 27.5688C389.948 26.6392 390.132 25.7187 390.489 24.8602C390.845 24.0017 391.368 23.2221 392.027 22.5661Z" fill="#EA5B2B"/>
<path d="M408.008 35.82L406.579 36.1665L406.752 38.5487L408.182 38.7219C408.305 39.1937 408.495 39.6457 408.745 40.0646L407.878 41.2774L409.524 43.0099L410.737 42.187C411.141 42.4688 411.577 42.7015 412.037 42.88L412.123 44.3526L414.505 44.6125L414.938 43.2265C415.415 43.1776 415.881 43.0609 416.324 42.88L417.364 43.9628L419.356 42.6201L418.793 41.3207C419.13 40.9685 419.421 40.5756 419.66 40.1513L421.132 40.2812L421.825 37.9856L420.526 37.3792C420.563 36.8867 420.534 36.3914 420.439 35.9066L421.652 35.0836L420.699 32.8747L419.313 33.2212C419.004 32.8399 418.671 32.4783 418.317 32.1383L418.707 30.7523L416.584 29.6695L415.718 30.839C415.467 30.7541 415.204 30.7102 414.938 30.709H414.289L413.639 29.323L411.344 29.8861L411.43 31.3154C410.995 31.5239 410.588 31.7858 410.217 32.095L408.875 31.4453L407.445 33.3944L408.442 34.4339C408.252 34.8806 408.107 35.3448 408.008 35.82ZM414.765 32.225C415.7 32.3336 416.583 32.7168 417.3 33.3264C418.018 33.9359 418.539 34.7444 418.797 35.6498C419.056 36.5551 419.04 37.5168 418.752 38.4133C418.465 39.3098 417.918 40.101 417.181 40.687C416.444 41.2729 415.55 41.6274 414.612 41.7056C413.673 41.7838 412.733 41.5823 411.909 41.1264C411.085 40.6706 410.415 39.9808 409.983 39.1443C409.551 38.3078 409.376 37.362 409.481 36.4263C409.633 35.1722 410.273 34.0284 411.262 33.2422C412.251 32.456 413.509 32.0906 414.765 32.225Z" fill="#EA5B2B"/>
<path d="M14.4232 187.935C18.2506 187.935 21.3533 184.833 21.3533 181.005C21.3533 177.178 18.2506 174.075 14.4232 174.075C10.5959 174.075 7.49316 177.178 7.49316 181.005C7.49316 184.833 10.5959 187.935 14.4232 187.935Z" fill="#EA5B2B"/>
<path d="M16.8921 192.007H12.2576C5.54407 192.007 0 194.909 0 201.665V205.693H29.1497V201.665C29.1497 194.909 23.6489 192.007 16.8921 192.007Z" fill="#EA5B2B"/>
<path d="M32.0512 187.805C35.8786 187.805 38.9813 184.703 38.9813 180.875C38.9813 177.048 35.8786 173.945 32.0512 173.945C28.2238 173.945 25.1211 177.048 25.1211 180.875C25.1211 184.703 28.2238 187.805 32.0512 187.805Z" fill="#EA5B2B"/>
<path d="M47.2114 201.536C47.2114 194.779 41.6673 191.833 34.9538 191.833H29.583C31.0623 193.04 32.2566 194.559 33.0802 196.281C33.9039 198.003 34.3366 199.887 34.3474 201.796V205.52H47.2114V201.536Z" fill="#EA5B2B"/>
<path d="M46.2168 8.08134L29.9336 28.998L32.5619 31.0441L48.8451 10.1274L46.2168 8.08134Z" fill="#EA5B2B"/>
<path d="M31.9653 31.7484L28.5869 33.3943L29.3665 29.7126L31.9653 31.7484Z" fill="#EA5B2B"/>
<path d="M47.4277 6.62681L46.8213 7.44976L49.3334 9.39885L49.9831 8.5759C50.2416 8.23702 50.3549 7.80935 50.298 7.38697C50.2412 6.96458 50.0188 6.58209 49.68 6.32362C49.3411 6.06516 48.9134 5.9519 48.491 6.00876C48.0686 6.06562 47.6861 6.28794 47.4277 6.62681Z" fill="#EA5B2B"/>
<path d="M19.3174 12.9072H36.5126" stroke="#EA5B2B" stroke-width="3" stroke-miterlimit="10"/>
<path d="M19.3174 16.3723H36.5126" stroke="#EA5B2B" stroke-width="3" stroke-miterlimit="10"/>
<path d="M19.3174 19.8374H31.7482" stroke="#EA5B2B" stroke-width="3" stroke-miterlimit="10"/>
<path d="M39.1117 25.9012V36.7294H17.0221V6.62688H19.1877V8.74922C19.1877 9.09383 19.3246 9.42434 19.5683 9.66802C19.812 9.91171 20.1425 10.0486 20.4871 10.0486C20.8283 10.0378 21.1526 9.89739 21.3939 9.65601C21.6353 9.41464 21.7757 9.0904 21.7865 8.74922V6.62688H26.6809V8.57596C26.6809 8.92058 26.8178 9.25109 27.0615 9.49477C27.3052 9.73845 27.6357 9.87535 27.9803 9.87535C28.1526 9.8814 28.3242 9.85193 28.4846 9.78877C28.645 9.72561 28.7907 9.63012 28.9126 9.50823C29.0344 9.38634 29.1299 9.24067 29.1931 9.08029C29.2563 8.9199 29.2857 8.74823 29.2797 8.57596V6.62688H34.3473V8.57596C34.3413 8.74823 34.3707 8.9199 34.4339 9.08029C34.497 9.24067 34.5925 9.38634 34.7144 9.50823C34.8363 9.63012 34.982 9.72561 35.1424 9.78877C35.3028 9.85193 35.4744 9.8814 35.6467 9.87535C35.9913 9.87535 36.3218 9.73845 36.5655 9.49477C36.8092 9.25109 36.9461 8.92058 36.9461 8.57596V6.62688H39.1117V14.0767L41.2774 11.4779V4.46122H36.9461V2.3822C36.9461 2.03758 36.8092 1.70707 36.5655 1.46339C36.3218 1.21971 35.9913 1.08281 35.6467 1.08281C35.4744 1.07676 35.3028 1.10623 35.1424 1.16939C34.982 1.23255 34.8363 1.32804 34.7144 1.44993C34.5925 1.57182 34.497 1.71749 34.4339 1.87787C34.3707 2.03826 34.3413 2.20993 34.3473 2.3822V4.46122H29.2797V2.3822C29.2857 2.20993 29.2563 2.03826 29.1931 1.87787C29.1299 1.71749 29.0344 1.57182 28.9126 1.44993C28.7907 1.32804 28.645 1.23255 28.4846 1.16939C28.3242 1.10623 28.1526 1.07676 27.9803 1.08281C27.6357 1.08281 27.3052 1.21971 27.0615 1.46339C26.8178 1.70707 26.6809 2.03758 26.6809 2.3822V4.46122H21.7865V2.51214C21.7757 2.17095 21.6353 1.84671 21.3939 1.60534C21.1526 1.36396 20.8283 1.22358 20.4871 1.21274C20.1425 1.21274 19.812 1.34964 19.5683 1.59333C19.3246 1.83701 19.1877 2.16752 19.1877 2.51214V4.46122H14.8564V38.8951H41.2774V23.2591L39.1117 25.9012Z" fill="#EA5B2B"/>
<path d="M165.239 185.163C154.576 194.19 141.052 199.133 127.081 199.11H60.1621" stroke="#EA5B2B" stroke-width="7" stroke-linecap="round" stroke-linejoin="round" stroke-dasharray="3 15"/>
<path d="M62.0671 205.304L55.96 199.153L62.0671 193.003" stroke="#EA5B2B" stroke-width="4.68" stroke-linecap="round" stroke-linejoin="round"/>
<path d="M272.223 184.297C282.998 193.731 296.839 198.92 311.161 198.894H376.347" stroke="#EA5B2B" stroke-width="7" stroke-linecap="round" stroke-linejoin="round" stroke-dasharray="3 15"/>
<path d="M373.099 205.087L379.249 198.937L373.099 192.786" stroke="#EA5B2B" stroke-width="4.68" stroke-linecap="round" stroke-linejoin="round"/>
<path d="M272.959 28.8031C281.795 23.6055 291.627 21.05 302.585 21.05H369.504" stroke="#EA5B2B" stroke-width="7" stroke-linecap="round" stroke-linejoin="round" stroke-dasharray="3 15"/>
<path d="M367.555 14.8564L373.705 21.0069L367.555 27.1574" stroke="#EA5B2B" stroke-width="4.68" stroke-linecap="round" stroke-linejoin="round"/>
<path d="M166.582 36.5129C155.729 26.6769 141.598 21.2408 126.951 21.2667H61.7646" stroke="#EA5B2B" stroke-width="7" stroke-linecap="round" stroke-linejoin="round" stroke-dasharray="3 15"/>
<path d="M66.2686 15.073L60.1182 21.2234L66.2686 27.3739" stroke="#EA5B2B" stroke-width="4.68" stroke-linecap="round" stroke-linejoin="round"/>
<path d="M424.381 167.448H394.712C393.506 167.448 392.349 167.927 391.496 168.78C390.643 169.633 390.164 170.79 390.164 171.996V194.086C390.164 195.292 390.643 196.449 391.496 197.302C392.349 198.154 393.506 198.634 394.712 198.634H403.981L401.945 203.485H401.209C400.922 203.485 400.646 203.599 400.443 203.802C400.24 204.005 400.126 204.28 400.126 204.567C400.126 204.855 400.24 205.13 400.443 205.333C400.646 205.536 400.922 205.65 401.209 205.65H417.235C417.522 205.65 417.797 205.536 418 205.333C418.203 205.13 418.318 204.855 418.318 204.567C418.318 204.28 418.203 204.005 418 203.802C417.797 203.599 417.522 203.485 417.235 203.485H416.715L414.679 198.634H424.381C425.588 198.634 426.744 198.154 427.597 197.302C428.45 196.449 428.929 195.292 428.929 194.086V171.996C428.929 170.79 428.45 169.633 427.597 168.78C426.744 167.927 425.588 167.448 424.381 167.448ZM409.308 195.515C409.021 195.515 408.746 195.401 408.543 195.198C408.34 194.995 408.226 194.719 408.226 194.432C408.226 194.145 408.34 193.87 408.543 193.667C408.746 193.464 409.021 193.349 409.308 193.349C409.596 193.349 409.871 193.464 410.074 193.667C410.277 193.87 410.391 194.145 410.391 194.432C410.391 194.719 410.277 194.995 410.074 195.198C409.871 195.401 409.596 195.515 409.308 195.515ZM427.197 190.621H391.897V171.996C391.908 171.253 392.208 170.543 392.734 170.018C393.259 169.492 393.969 169.192 394.712 169.181H424.381C425.128 169.181 425.844 169.477 426.372 170.005C426.9 170.533 427.197 171.249 427.197 171.996V190.621Z" fill="#EA5B2B"/>
<path d="M176.65 132.6C186.65 132.6 191.5 127.6 191.5 121.75C191.5 108.9 171.15 113.35 171.15 106.9C171.15 104.7 173 102.9 177.8 102.9C180.9 102.9 184.25 103.8 187.5 105.65L190 99.4999C186.75 97.4499 182.25 96.3999 177.85 96.3999C167.9 96.3999 163.1 101.35 163.1 107.3C163.1 120.3 183.45 115.8 183.45 122.35C183.45 124.5 181.5 126.1 176.7 126.1C172.5 126.1 168.1 124.6 165.15 122.45L162.4 128.55C165.5 130.95 171.1 132.6 176.65 132.6Z" fill="#EA5B2B"/>
<path d="M207.335 104.7C203.035 104.7 198.685 105.85 195.735 107.95L198.535 113.4C200.485 111.85 203.435 110.9 206.285 110.9C210.485 110.9 212.485 112.85 212.485 116.2H206.285C198.085 116.2 194.735 119.5 194.735 124.25C194.735 128.9 198.485 132.4 204.785 132.4C208.735 132.4 211.535 131.1 212.985 128.65V132H220.285V116.65C220.285 108.5 215.535 104.7 207.335 104.7ZM206.735 127.15C203.985 127.15 202.335 125.85 202.335 123.9C202.335 122.1 203.485 120.75 207.135 120.75H212.485V123.5C211.585 125.95 209.335 127.15 206.735 127.15Z" fill="#EA5B2B"/>
<path d="M238.195 104.7C233.895 104.7 229.545 105.85 226.595 107.95L229.395 113.4C231.345 111.85 234.295 110.9 237.145 110.9C241.345 110.9 243.345 112.85 243.345 116.2H237.145C228.945 116.2 225.595 119.5 225.595 124.25C225.595 128.9 229.345 132.4 235.645 132.4C239.595 132.4 242.395 131.1 243.845 128.65V132H251.145V116.65C251.145 108.5 246.395 104.7 238.195 104.7ZM237.595 127.15C234.845 127.15 233.195 125.85 233.195 123.9C233.195 122.1 234.345 120.75 237.995 120.75H243.345V123.5C242.445 125.95 240.195 127.15 237.595 127.15Z" fill="#EA5B2B"/>
<path d="M270.254 132.6C280.254 132.6 285.104 127.6 285.104 121.75C285.104 108.9 264.754 113.35 264.754 106.9C264.754 104.7 266.604 102.9 271.404 102.9C274.504 102.9 277.854 103.8 281.104 105.65L283.604 99.4999C280.354 97.4499 275.854 96.3999 271.454 96.3999C261.504 96.3999 256.704 101.35 256.704 107.3C256.704 120.3 277.054 115.8 277.054 122.35C277.054 124.5 275.104 126.1 270.304 126.1C266.104 126.1 261.704 124.6 258.754 122.45L256.004 128.55C259.104 130.95 264.704 132.6 270.254 132.6Z" fill="#EA5B2B"/>
</g>
<defs>
<clipPath id="clip0_280_503">
<rect width="430.748" height="206.3" fill="white"/>
</clipPath>
</defs>
</svg>
