<svg width="46" height="58" viewBox="0 0 46 58" fill="none" xmlns="http://www.w3.org/2000/svg">
<path d="M13.8125 45.2H23M41.375 2H4.625C3.92881 2 3.26113 2.28446 2.76885 2.79081C2.27656 3.29716 2 3.98392 2 4.7V53.3C2 54.0161 2.27656 54.7028 2.76885 55.2092C3.26113 55.7155 3.92881 56 4.625 56H41.375C42.0712 56 42.7389 55.7155 43.2312 55.2092C43.7234 54.7028 44 54.0161 44 53.3V4.7C44 3.98392 43.7234 3.29716 43.2312 2.79081C42.7389 2.28446 42.0712 2 41.375 2V2ZM13.8125 37.1H32.1875H13.8125Z" stroke="#E9623E" stroke-width="4" stroke-linecap="round" stroke-linejoin="round"/>
<path d="M30.875 14.1499L20.375 24.9499L15.125 19.5499" stroke="#E9623E" stroke-width="4" stroke-linecap="round" stroke-linejoin="round"/>
</svg>
