<svg width="46" height="58" fill="none" xmlns="http://www.w3.org/2000/svg"><path d="M13.813 45.2H23M41.375 2H4.625c-.696 0-1.364.284-1.856.79A2.74 2.74 0 002 4.7v48.6c0 .716.277 1.403.769 1.91.492.505 1.16.79 1.856.79h36.75c.696 0 1.364-.285 1.856-.79A2.74 2.74 0 0044 53.3V4.7a2.74 2.74 0 00-.769-1.91A2.589 2.589 0 0041.375 2v0zM13.812 37.1h18.376-18.376z" stroke="#E9623E" stroke-width="4" stroke-linecap="round" stroke-linejoin="round"/><path d="M30.875 14.15l-10.5 10.8-5.25-5.4" stroke="#E9623E" stroke-width="4" stroke-linecap="round" stroke-linejoin="round"/></svg>