<svg width="355" height="406" viewBox="0 0 355 406" fill="none" xmlns="http://www.w3.org/2000/svg">
<g clip-path="url(#clip0_276_496)">
<path d="M188.6 78.2V72.1H203.5C208.107 63.9612 210.487 54.7518 210.4 45.4C210.4 21.2 195.5 1.5 177.2 1.5C158.9 1.5 144.1 21.2 144.1 45.4C144.014 54.7518 146.394 63.9612 151 72.1H165.9V78.2C149 80.6 135.6 88.1 130.4 97.7C136.443 104.044 143.712 109.095 151.765 112.547C159.818 115.998 168.489 117.777 177.25 117.777C186.012 117.777 194.683 115.998 202.736 112.547C210.789 109.095 218.058 104.044 224.1 97.7C218.9 88.1 205.4 80.6 188.6 78.2Z" stroke="#E8623D" stroke-width="3" stroke-linecap="round" stroke-linejoin="round"/>
<path d="M67.7998 154.7C67.4998 152.9 67.2999 151.2 66.8999 149.4C66.2436 150.169 65.3734 150.726 64.3999 151V146.8C69.6999 142.9 73.7998 136.6 75.7998 129.1C77.7998 129.1 80.2999 126.5 81.5999 122.7C82.8999 118.9 82.4998 114.5 80.2998 113.7C78.0998 112.9 78.1 113.8 77 114.7C75.9 115.6 76.8998 113.6 76.7998 113C78.3998 110.8 79.9 108.5 81.5 106.2H78.8999C80.4402 105.83 81.8621 105.077 83.0334 104.011C84.2048 102.944 85.0875 101.599 85.5999 100.1H81.5C83.9186 99.1575 86.0056 97.5226 87.5 95.4001L82.2998 95.1001C84.6347 94.187 86.5792 92.49 87.7998 90.3001C85.7694 91.0335 83.5526 91.0687 81.5 90.4001C83.7366 89.5527 85.586 87.9166 86.7 85.8001C84.0255 87.3374 81.0185 88.2042 77.936 88.3261C74.8536 88.448 71.7875 87.8215 69 86.5001C66 85.1001 63.3998 82.9001 60.2998 81.7001C57.8112 80.7112 55.1133 80.3668 52.4561 80.699C49.7988 81.0311 47.2685 82.029 45.0999 83.6001C43.1999 85.0001 41.4999 87.0001 39.0999 87.3001C37.9325 87.3681 36.7614 87.3347 35.5999 87.2001C28.7999 86.9001 23.5999 94.1001 23.3999 100.9C23.2999 105.6 24.9 110.1 27 114.4C27 114.5 26.8999 114.7 26.8999 114.8C26.8999 114.9 24.5999 113.4 23.5999 113.8C22.5999 114.2 20.8998 118.6 22.2998 122.8C23.6998 127 26.0999 129.2 28.0999 129.2C30.1999 136.7 34.2 143 39.5 146.9V151.1C38.5379 150.801 37.6742 150.249 37 149.5C36.6358 151.251 36.3687 153.02 36.2 154.8C21.8 157.1 9.5 162.5 1.5 169.8C7.58409 177.318 15.2715 183.382 24.0002 187.547C32.729 191.712 42.2784 193.874 51.95 193.874C61.6215 193.874 71.1709 191.712 79.8997 187.547C88.6284 183.382 96.3158 177.318 102.4 169.8C94.3999 162.4 82.0998 157 67.7998 154.7Z" stroke="#E8623D" stroke-width="3" stroke-linecap="round" stroke-linejoin="round"/>
<path d="M315.3 295.1V292.3C323.9 291.7 332.8 290.1 340.8 293C337.592 283.525 335.61 273.678 334.9 263.7C334.3 255.6 334.6 247.4 332 239.8C329.4 232.2 322.4 223.8 313.9 220.7C309.647 219.093 305.055 218.598 300.557 219.263C296.06 219.929 291.806 221.731 288.2 224.5C285.7 226.4 283.5 229.3 283.7 232.4C279.4 231 274.6 234 272.6 238.1C270.6 242.2 270.7 247 271 251.5C271.8 264.8 273.8 278.4 270.2 291.3L292.6 291.9V295.1C277.1 297.3 263.8 303.8 255.4 312.8C261.481 319.679 268.954 325.186 277.324 328.959C285.694 332.731 294.77 334.682 303.95 334.682C313.131 334.682 322.207 332.731 330.577 328.959C338.947 325.186 346.42 319.679 352.5 312.8C344.1 303.8 330.8 297.3 315.3 295.1Z" stroke="#E8623D" stroke-width="3" stroke-linecap="round" stroke-linejoin="round"/>
<path d="M314 153.2V149.3C318.5 145.3 322 139.4 324 132.4L324.5 132.6C326.8 133 329.3 128.8 330 123.2C330.7 117.6 329.5 112.7 327.2 112.3C326.829 112.283 326.458 112.345 326.113 112.483C325.768 112.621 325.457 112.831 325.2 113.1C325.2 112.8 325.1 112.4 325.1 112.1C325.1 111.8 325.6 109.6 325.9 108.4C326.7 104.4 327.5 100.3 326.2 96.3999C325.527 94.4235 324.436 92.6156 323 91.0999C318.349 86.2625 312.164 83.1878 305.5 82.3999C298.869 81.7423 292.175 82.5619 285.9 84.7999C282.2 86.0999 277.9 88.9999 278.6 92.8999C276.7 92.0999 274.5 93.6999 273.8 95.5999C273.1 97.4999 273.4 99.5999 273.7 101.7C274.2 105.4 274.8 109.1 275.3 112.8C274.874 112.461 274.343 112.284 273.8 112.3C271.5 112.7 270.3 117.6 271 123.2C271.7 128.8 274.2 133 276.5 132.6L277 132.4C279 139.4 282.5 145.3 287.1 149.3V153.1C271.3 154.7 257.5 159.2 247.6 165.4C253.562 173.824 261.45 180.702 270.607 185.462C279.765 190.221 289.926 192.725 300.247 192.764C310.567 192.803 320.748 190.377 329.941 185.687C339.134 180.997 347.074 174.178 353.1 165.8C343.4 159.5 329.7 154.9 314 153.2Z" stroke="#E8623D" stroke-width="3" stroke-linecap="round" stroke-linejoin="round"/>
<path d="M199.301 365.8L198.801 364.9C198.329 364.049 198.134 363.072 198.241 362.105C198.349 361.137 198.754 360.227 199.401 359.5H192.701C197.301 354.4 200.601 347.2 201.901 338.9C203.701 338.3 205.701 335.9 206.901 332.6C208.101 329.3 207.701 324.4 205.601 323.6C205.035 323.473 204.446 323.489 203.887 323.646C203.329 323.803 202.818 324.097 202.401 324.5V300.8C202.401 299.04 201.709 297.351 200.474 296.097C199.239 294.844 197.56 294.126 195.801 294.1H158.701C157.826 294.1 156.959 294.274 156.152 294.612C155.345 294.95 154.612 295.445 153.998 296.068C153.384 296.692 152.9 297.431 152.574 298.244C152.248 299.056 152.088 299.925 152.101 300.8V324.5C151.684 324.097 151.173 323.803 150.615 323.646C150.056 323.489 149.467 323.473 148.901 323.6C146.701 324.4 146.101 328.4 147.601 332.6C149.101 336.8 150.701 338.3 152.601 338.9C153.901 347.2 157.201 354.4 161.801 359.5H155.101C155.748 360.227 156.153 361.137 156.26 362.105C156.368 363.072 156.172 364.049 155.701 364.9L155.201 365.8C143.501 368.6 133.601 373.4 126.801 379.6C132.885 387.118 140.573 393.182 149.301 397.347C158.03 401.512 167.579 403.674 177.251 403.674C186.923 403.674 196.472 401.512 205.2 397.347C213.929 393.182 221.617 387.118 227.701 379.6C220.901 373.4 211.001 368.6 199.301 365.8Z" stroke="#E8623D" stroke-width="3" stroke-linecap="round" stroke-linejoin="round"/>
<path d="M62.8999 301.5V291.7C68.4999 287.9 72.8999 281.3 75.0999 273.3L75.5999 273.5C77.7999 273.9 80.2999 270.6 81.0999 266.2C81.2606 265.007 81.3274 263.803 81.2998 262.6C81.6257 262.933 82.0148 263.197 82.4441 263.377C82.8734 263.558 83.3342 263.651 83.7998 263.651C84.2654 263.651 84.7265 263.558 85.1558 263.377C85.585 263.197 85.9739 262.933 86.2998 262.6C86.6217 262.21 86.8578 261.757 86.9927 261.269C87.1276 260.782 87.1582 260.272 87.0828 259.772C87.0073 259.271 86.8274 258.793 86.5547 258.367C86.2819 257.941 85.9226 257.578 85.5 257.3C86.2537 257.037 86.8983 256.53 87.3328 255.861C87.7672 255.191 87.9668 254.396 87.8999 253.6C87.8216 252.784 87.4746 252.018 86.9136 251.421C86.3525 250.823 85.609 250.429 84.7998 250.3C86.1998 248.9 87.6 247.2 87.7 245.2C87.8 243.2 86 241 84 241.4C85.2 240.4 84.6999 238.4 83.5999 237.5C82.3285 236.635 80.837 236.149 79.2998 236.1C80.5998 236.1 81.4 234.4 81 233.1C80.6921 232.506 80.2527 231.991 79.7156 231.592C79.1784 231.193 78.5575 230.923 77.8999 230.8C74.4999 230 70.4 231.1 68 228.7C67.5514 228.151 67.0489 227.649 66.5 227.2C65.5 226.6 64.1999 226.8 63.0999 226.7C61.9999 226.6 60.7 225.4 61.2 224.4C59.582 224.917 57.8541 224.986 56.2 224.6C55.6151 224.434 55.0068 224.367 54.3999 224.4C53.8939 224.578 53.4449 224.889 53.0999 225.3C52.4883 225.937 51.9517 226.641 51.5 227.4C51.1169 226.624 50.6104 225.914 50 225.3C49.6151 224.889 49.1339 224.579 48.5999 224.4C47.9929 224.367 47.3846 224.434 46.7998 224.6C45.1794 224.988 43.4832 224.919 41.8999 224.4C42.3999 225.4 41.0999 226.5 39.8999 226.7C38.6999 226.9 37.5 226.6 36.5 227.2C35.9511 227.649 35.4486 228.151 35 228.7C32.6 231.1 28.5 230 25.2 230.8C24.5424 230.923 23.9214 231.193 23.3843 231.592C22.8471 231.991 22.4078 232.506 22.0999 233.1C21.5999 234.4 22.3998 236.1 23.7998 236.1C22.1998 236.3 20.6 236.5 19.5 237.5C18.4 238.5 17.9 240.4 19 241.4C17.1 241 15.2999 243.1 15.3999 245.2C15.4999 247.3 16.8 248.9 18.2 250.3C17.3976 250.445 16.663 250.844 16.1047 251.438C15.5465 252.032 15.1942 252.79 15.0999 253.6C15.0498 254.393 15.2563 255.18 15.6885 255.847C16.1207 256.513 16.7558 257.023 17.5 257.3C17.0283 257.532 16.615 257.868 16.2908 258.282C15.9665 258.695 15.7398 259.177 15.6272 259.691C15.5146 260.204 15.5191 260.736 15.6404 261.248C15.7617 261.759 15.9967 262.237 16.3279 262.645C16.6591 263.054 17.0782 263.382 17.5537 263.606C18.0293 263.83 18.549 263.944 19.0747 263.94C19.6004 263.936 20.1186 263.813 20.5903 263.581C21.0621 263.349 21.4754 263.014 21.7998 262.6C21.6716 263.803 21.7393 265.019 22 266.2C22.7 270.6 25.2 273.9 27.5 273.5L27.8999 273.3C30.0999 281.3 34.4999 287.9 40.0999 291.7V301.5C23.5999 303.1 10.1 308.3 4 315C10.0655 321.537 17.4148 326.751 25.5881 330.317C33.7614 333.883 42.5828 335.723 51.5 335.723C60.4172 335.723 69.2383 333.883 77.4116 330.317C85.5849 326.751 92.9345 321.537 99 315C92.9 308.3 79.4999 303.1 62.8999 301.5Z" stroke="#E8623D" stroke-width="3" stroke-linecap="round" stroke-linejoin="round"/>
<path fill-rule="evenodd" clip-rule="evenodd" d="M135.301 184.9V180.4H160.601C163.926 180.386 167.232 180.892 170.401 181.9C173.056 182.781 175.605 183.955 178.001 185.4C180.397 183.955 182.945 182.781 185.601 181.9C188.769 180.892 192.076 180.386 195.401 180.4H220.601V225.1H195.401C192.516 225.068 189.645 225.507 186.901 226.4C184.166 227.216 181.595 228.502 179.301 230.2L178.001 231.1L176.701 230.2C174.382 228.483 171.774 227.195 169.001 226.4C166.293 225.5 163.454 225.06 160.601 225.1H135.301V184.9V184.9Z" stroke="#6C6C6C" stroke-width="3" stroke-miterlimit="10"/>
<path d="M221.101 187.4H226.601V232.1H195.401C192.519 232.117 189.656 232.555 186.901 233.4C184.179 234.295 181.615 235.611 179.301 237.3L178.001 238.2L176.701 237.3C174.364 235.589 171.763 234.272 169.001 233.4C166.282 232.548 163.45 232.109 160.601 232.1H129.301V187.4H134.901" stroke="#6C6C6C" stroke-width="3" stroke-miterlimit="10"/>
<path d="M228.2 194H232.8V238.7H195.5C192.651 238.709 189.819 239.148 187.1 240C184.368 240.9 181.776 242.179 179.4 243.8L178.1 244.8L176.8 243.8C174.46 242.179 171.901 240.9 169.2 240C166.479 239.155 163.649 238.717 160.8 238.7H123.5V194H128" stroke="#6C6C6C" stroke-width="3" stroke-miterlimit="10"/>
<path d="M177.801 185.8V230.8" stroke="#6C6C6C" stroke-width="3" stroke-miterlimit="10"/>
<path d="M145.6 189.8H165.1" stroke="#E8623D" stroke-width="2" stroke-linecap="round" stroke-linejoin="round"/>
<path d="M145.5 198.1H165" stroke="#E8623D" stroke-width="2" stroke-linecap="round" stroke-linejoin="round"/>
<path d="M145.4 206.5H164.9" stroke="#E8623D" stroke-width="2" stroke-linecap="round" stroke-linejoin="round"/>
<path d="M145.4 214.8H164.9" stroke="#E8623D" stroke-width="2" stroke-linecap="round" stroke-linejoin="round"/>
<path d="M190.1 189.8H209.6" stroke="#E8623D" stroke-width="2" stroke-linecap="round" stroke-linejoin="round"/>
<path d="M190 198.1H209.5" stroke="#E8623D" stroke-width="2" stroke-linecap="round" stroke-linejoin="round"/>
<path d="M189.9 206.5H209.4" stroke="#E8623D" stroke-width="2" stroke-linecap="round" stroke-linejoin="round"/>
<path d="M189.9 214.8H209.4" stroke="#E8623D" stroke-width="2" stroke-linecap="round" stroke-linejoin="round"/>
</g>
<defs>
<clipPath id="clip0_276_496">
<rect width="354.6" height="405.2" fill="white"/>
</clipPath>
</defs>
</svg>
