<svg width="470" height="390" fill="none" xmlns="http://www.w3.org/2000/svg"><g clip-path="url(#clip0_276_558)"><path d="M133.006 37.212V2.844m11.619 0v34.368" stroke="#6C6C6C" stroke-width="3" stroke-miterlimit="10"/><path d="M145.682 254.394h-14.625v133.599h14.625V254.394z" fill="#A5A4A5"/><path d="M113.994.406l-22.75 168.188" stroke="#EA5B2B" stroke-width="7" stroke-miterlimit="8"/><path d="M139.182 54.844v321.75" stroke="#EA5B2B" stroke-width="4" stroke-miterlimit="8"/><path d="M74.75 168.269h67.194" stroke="#EA5B2B" stroke-width="7" stroke-miterlimit="8"/><path d="M101.887 168.269H80.193v85.044h21.694v-85.044zm-.08 45.5h37.943m-14.625-.488l-22.75 24.863" stroke="#EA5B2B" stroke-width="5" stroke-miterlimit="8"/><path d="M140.806 256.831h-5.931v119.706h5.931V256.831z" fill="#6C6C6C"/><path d="M139.1 55.9a4.954 4.954 0 01-4.875-4.144l-2.032-13.487a4.876 4.876 0 012.519-5.119l2.356-1.219a5.12 5.12 0 014.713.082l1.869 1.056a5.036 5.036 0 012.356 5.037l-2.113 13.65A4.877 4.877 0 01139.1 55.9z" fill="#EA5B2B"/><path d="M143.081 95.875s.975 39.406 9.669 39.406 5.85-73.694 23.319-73.694c27.625 0 14.625 124.069 53.056 156 24.294 20.15 145.681 14.625 145.681 14.625M0 258.781h113.75v17.875h16.494v112.125h15.762V276.656h17.063v-17.875h44.362v22.181h129.513v-20.881h132.681" stroke="#6C6C6C" stroke-width="3" stroke-miterlimit="10"/><path d="M143.65 271.375h13.813v-21.531h55.656v27.625m118.219.243v-25.431h43.469" stroke="#A5A4A5" stroke-width="4" stroke-miterlimit="10"/><path d="M146.494 80.519h-13.812v15.705h13.812V80.52z" fill="#EA5B2B"/><path d="M143 222.462c0 1.3-8.938 1.3-8.938 2.6s8.938 1.382 8.938 2.682-8.938 1.3-8.938 2.6 8.938 1.381 8.938 2.681-8.938 1.3-8.938 2.681 8.938 1.3 8.938 2.6-8.938 1.3-8.938 2.681c0 1.382 8.938 1.3 8.938 2.6s-8.938 1.3-8.938 2.682c0 1.381 8.938 1.3 8.938 2.6s-8.938 1.381-8.938 2.681 8.938 1.3 8.938 2.681-8.938 1.3-8.938 2.6" stroke="#6C6C6C" stroke-width="4" stroke-miterlimit="10"/><path d="M73.693 254.394h65.975M163.719.406l22.75 168.188m16.493-.325H135.85m68.25 86.125h-66.056" stroke="#EA5B2B" stroke-width="7" stroke-miterlimit="8"/><path d="M175.906 253.337H197.6v-85.044h-21.694v85.044zm.001-39.568h-37.944m14.625-.488l22.75 24.863" stroke="#EA5B2B" stroke-width="5" stroke-miterlimit="8"/><path d="M146.006 212.469h-13.813v10.294h13.813v-10.294z" fill="#EA5B2B"/><path d="M460.444 224.087H377v32.5h83.444v-32.5z" stroke="#EA5B2B" stroke-width="5" stroke-miterlimit="8"/><path d="M451.994 212.469h-23.156v7.719h23.156v-7.719zm-.812 33.719v-17.876h-21.938v12.838h-7.719v4.956l-22.1-.081v-4.712h-9.343v4.712h-8.775v6.256l74.587.163v-6.256h-4.712z" fill="#EA5B2B"/><path d="M209.869 263.006c7.719 0 7.719 4.632 15.519 4.632s7.8-4.632 15.519-4.632c7.718 0 7.8 4.632 15.6 4.632s7.718-4.632 15.518-4.632c7.8 0 7.719 4.632 15.519 4.632s7.8-4.632 15.519-4.632 7.8 4.632 15.6 4.632 7.719-4.632 15.519-4.632" stroke="#A5A4A5" stroke-width="2" stroke-miterlimit="10"/></g><defs><clipPath id="clip0_276_558"><path fill="#fff" d="M0 0h469.625v390H0z"/></clipPath></defs></svg>