<svg width="338" height="426" fill="none" xmlns="http://www.w3.org/2000/svg"><g clip-path="url(#clip0_276_539)"><path d="M210 12.2h-82.7v72.67H210V12.2zm-12.8 73.5v57.5c-20 10.5-36-14-55 0V85.7m54.3 130.6v-57.5c-19 14-35-10.5-55 0v57.5h55zm-5.5 114h23.7v-96.5l-17.9-17.9" stroke="#EA5B2B" stroke-width="4" stroke-miterlimit="8"/><path d="M141.5 216.2l-18.8 17.6v96.5h21.6" stroke="#EA5B2B" stroke-width="4" stroke-miterlimit="8"/><path d="M206.5 267.5v-13.3h-76.3v13.3l15 10.4v30.6h46.6v-30.6l14.7-10.4zM124 359.2v13.3h89.3v-13.3l-22-10.3v-30.7h-46.6v30.7L124 359.2zm2.7-116.3v70.6m83.8-70.5v70.7m-68.8 60.8a7.702 7.702 0 01-13.145 5.445 7.7 7.7 0 01-2.255-5.445m38.6-.2a7.7 7.7 0 11-15.4 0m38.4.1a7.7 7.7 0 11-15.4 0m38.8-.1a7.69 7.69 0 01-1.904 6.002 7.704 7.704 0 01-8.894 1.901 7.714 7.714 0 01-2.598-1.901A7.71 7.71 0 01196 374.3" stroke="#A5A4A5" stroke-width="4" stroke-miterlimit="10"/><path d="M0 164.2h109.3v222h118v-222h110" stroke="#6C6C6C" stroke-width="3" stroke-miterlimit="10"/><path d="M168.7 0v3" stroke="#6C6C6C" stroke-miterlimit="10"/><path d="M168.7 9.1v410.2" stroke="#6C6C6C" stroke-miterlimit="10" stroke-dasharray="6.08 6.08"/><path d="M168.7 422.3v3" stroke="#6C6C6C" stroke-miterlimit="10"/><path d="M227 389c0 1.9-25.5 4.9-58.1 4.4s-60.1-4.5-60.1-6.3" stroke="#6C6C6C" stroke-width="1.01" stroke-miterlimit="10" stroke-dasharray="6.07 6.07"/></g><defs><clipPath id="clip0_276_539"><path fill="#fff" d="M0 0h337.3v425.3H0z"/></clipPath></defs></svg>