<svg width="431" height="207" fill="none" xmlns="http://www.w3.org/2000/svg"><g clip-path="url(#clip0_280_503)"><path d="M315.145 63.757a57.783 57.783 0 00-16.026 2.295A78.181 78.181 0 00184.406 22.73a78.182 78.182 0 00-30.862 34.488 50.764 50.764 0 00-61.244 45.78 37.208 37.208 0 00-24.06 63.946 37.204 37.204 0 0026.139 10.423l220.766.087a56.88 56.88 0 0041.224-16.085 56.859 56.859 0 0017.216-40.764 56.87 56.87 0 00-58.44-56.848v0z" stroke="#EA5B2B" stroke-width="5" stroke-miterlimit="10"/><path d="M407.922 21.657l-1.126 2.468 3.595 2.512 1.906-1.862c.825.33 1.681.577 2.555.736l.78 2.6 4.375-.39.216-2.643a10.564 10.564 0 002.469-1.126l2.209 1.516 3.119-3.075-1.516-2.21a11.43 11.43 0 001.169-2.425l2.685-.26.39-4.374-2.555-.693a11.573 11.573 0 00-.693-2.599l1.906-1.949-2.513-3.595-2.425 1.126a14.338 14.338 0 00-2.166-1.56l.173-2.728L418.231 0l-1.126 2.426c-.899-.05-1.801.007-2.686.173L412.817.433l-3.942 1.863.65 2.555c-.382.293-.744.611-1.083.953l-.823.91-2.642-.65-1.819 3.985 2.165 1.516a9.267 9.267 0 00-.259 2.685l-2.469 1.17 1.169 4.244 2.642-.216a10.6 10.6 0 001.516 2.209zm4.202-12.171a6.408 6.408 0 019.85.99 6.407 6.407 0 01-2.87 9.476 6.41 6.41 0 01-6.98-10.466z" fill="#EA5B2B"/><path d="M389.948 33.74l-.866 1.993 2.901 2.036 1.516-1.516a8.714 8.714 0 002.079.563l.607 2.122 3.551-.303.174-2.122a8.025 8.025 0 001.949-.91l1.819 1.213 2.512-2.512-1.213-1.733a9.806 9.806 0 00.91-1.949l2.209-.26.303-3.508-2.079-.563a9.46 9.46 0 00-.52-2.122l1.516-1.56-2.036-2.902-1.949.91a10.133 10.133 0 00-1.775-1.256l.173-2.209-3.422-.91-.909 1.95a11.73 11.73 0 00-2.166.173l-1.299-1.776-3.206 1.516.563 2.036-.909.78-.65.779-2.122-.563-1.516 3.248 1.776 1.213a8.961 8.961 0 00-.217 2.166l-1.949.953.91 3.421 2.122-.173c.349.628.755 1.222 1.213 1.776zm2.079-11.174a7.056 7.056 0 017.69-1.517 7.063 7.063 0 010 13.04 7.06 7.06 0 01-7.69-11.523zm15.981 13.254l-1.429.346.173 2.383 1.43.173c.123.472.313.924.563 1.343l-.867 1.212 1.646 1.733 1.213-.823c.404.282.84.515 1.3.693l.086 1.473 2.382.26.433-1.386a5.017 5.017 0 001.386-.347l1.04 1.083 1.992-1.343-.563-1.3c.337-.352.628-.744.867-1.169l1.472.13.693-2.295-1.299-.607a5.51 5.51 0 00-.087-1.472l1.213-.823-.953-2.21-1.386.347a11.825 11.825 0 00-.996-1.083l.39-1.386-2.123-1.082-.866 1.169a2.467 2.467 0 00-.78-.13h-.649l-.65-1.386-2.295.563.086 1.43a5.83 5.83 0 00-1.213.779l-1.342-.65-1.43 1.95.997 1.039a7.38 7.38 0 00-.434 1.386zm6.757-3.595a4.763 4.763 0 012.416 8.462 4.765 4.765 0 01-7.7-4.26 4.807 4.807 0 015.284-4.202zM14.423 187.935a6.93 6.93 0 100-13.86 6.93 6.93 0 000 13.86zm2.469 4.072h-4.634C5.544 192.007 0 194.909 0 201.665v4.028h29.15v-4.028c0-6.756-5.501-9.658-12.258-9.658zm15.159-4.202a6.93 6.93 0 100-13.86 6.93 6.93 0 000 13.86zm15.16 13.731c0-6.757-5.544-9.703-12.257-9.703h-5.371a12.956 12.956 0 014.764 9.963v3.724h12.864v-3.984zM46.217 8.081L29.934 28.998l2.628 2.046 16.283-20.917-2.628-2.046zM31.965 31.748l-3.378 1.646.78-3.681 2.598 2.035zM47.428 6.627l-.607.823 2.512 1.949.65-.823a1.607 1.607 0 10-2.555-1.95z" fill="#EA5B2B"/><path d="M19.317 12.907h17.196m-17.196 3.465h17.196m-17.196 3.465h12.431" stroke="#EA5B2B" stroke-width="3" stroke-miterlimit="10"/><path d="M39.112 25.901V36.73h-22.09V6.627h2.166v2.122a1.3 1.3 0 001.3 1.3 1.342 1.342 0 001.299-1.3V6.627h4.894v1.949a1.3 1.3 0 001.3 1.3 1.256 1.256 0 001.299-1.3v-1.95h5.067v1.95a1.256 1.256 0 001.3 1.3 1.3 1.3 0 001.3-1.3v-1.95h2.165v7.45l2.165-2.598V4.46h-4.33V2.382a1.3 1.3 0 00-1.3-1.3 1.256 1.256 0 00-1.3 1.3v2.08H29.28v-2.08a1.256 1.256 0 00-1.3-1.3 1.3 1.3 0 00-1.3 1.3v2.08h-4.893v-1.95a1.342 1.342 0 00-1.3-1.3 1.3 1.3 0 00-1.3 1.3v1.95h-4.33v34.433h26.42V23.26l-2.165 2.642z" fill="#EA5B2B"/><path d="M165.239 185.163a58.906 58.906 0 01-38.158 13.947H60.162" stroke="#EA5B2B" stroke-width="7" stroke-linecap="round" stroke-linejoin="round" stroke-dasharray="3 15"/><path d="M62.067 205.304l-6.107-6.151 6.107-6.15" stroke="#EA5B2B" stroke-width="4.68" stroke-linecap="round" stroke-linejoin="round"/><path d="M272.223 184.297a58.947 58.947 0 0038.938 14.597h65.186" stroke="#EA5B2B" stroke-width="7" stroke-linecap="round" stroke-linejoin="round" stroke-dasharray="3 15"/><path d="M373.099 205.087l6.15-6.15-6.15-6.151" stroke="#EA5B2B" stroke-width="4.68" stroke-linecap="round" stroke-linejoin="round"/><path d="M272.959 28.803c8.836-5.198 18.668-7.753 29.626-7.753h66.919" stroke="#EA5B2B" stroke-width="7" stroke-linecap="round" stroke-linejoin="round" stroke-dasharray="3 15"/><path d="M367.555 14.856l6.15 6.15-6.15 6.151" stroke="#EA5B2B" stroke-width="4.68" stroke-linecap="round" stroke-linejoin="round"/><path d="M166.582 36.513a58.86 58.86 0 00-39.631-15.246H61.765" stroke="#EA5B2B" stroke-width="7" stroke-linecap="round" stroke-linejoin="round" stroke-dasharray="3 15"/><path d="M66.269 15.073l-6.15 6.15 6.15 6.15" stroke="#EA5B2B" stroke-width="4.68" stroke-linecap="round" stroke-linejoin="round"/><path d="M424.381 167.448h-29.669a4.548 4.548 0 00-4.548 4.548v22.09a4.548 4.548 0 004.548 4.548h9.269l-2.036 4.851h-.736a1.084 1.084 0 00-.766 1.848c.203.203.479.317.766.317h16.026a1.082 1.082 0 000-2.165h-.52l-2.036-4.851h9.702a4.55 4.55 0 004.548-4.548v-22.09a4.548 4.548 0 00-4.548-4.548zm-15.073 28.067a1.082 1.082 0 01-.765-1.848 1.083 1.083 0 11.765 1.848zm17.889-4.894h-35.3v-18.625a2.854 2.854 0 012.815-2.815h29.669a2.815 2.815 0 012.816 2.815v18.625zM176.65 132.6c10 0 14.85-5 14.85-10.85 0-12.85-20.35-8.4-20.35-14.85 0-2.2 1.85-4 6.65-4 3.1 0 6.45.9 9.7 2.75l2.5-6.15c-3.25-2.05-7.75-3.1-12.15-3.1-9.95 0-14.75 4.95-14.75 10.9 0 13 20.35 8.5 20.35 15.05 0 2.15-1.95 3.75-6.75 3.75-4.2 0-8.6-1.5-11.55-3.65l-2.75 6.1c3.1 2.4 8.7 4.05 14.25 4.05zm30.685-27.9c-4.3 0-8.65 1.15-11.6 3.25l2.8 5.45c1.95-1.55 4.9-2.5 7.75-2.5 4.2 0 6.2 1.95 6.2 5.3h-6.2c-8.2 0-11.55 3.3-11.55 8.05 0 4.65 3.75 8.15 10.05 8.15 3.95 0 6.75-1.3 8.2-3.75V132h7.3v-15.35c0-8.15-4.75-11.95-12.95-11.95zm-.6 22.45c-2.75 0-4.4-1.3-4.4-3.25 0-1.8 1.15-3.15 4.8-3.15h5.35v2.75c-.9 2.45-3.15 3.65-5.75 3.65zm31.46-22.45c-4.3 0-8.65 1.15-11.6 3.25l2.8 5.45c1.95-1.55 4.9-2.5 7.75-2.5 4.2 0 6.2 1.95 6.2 5.3h-6.2c-8.2 0-11.55 3.3-11.55 8.05 0 4.65 3.75 8.15 10.05 8.15 3.95 0 6.75-1.3 8.2-3.75V132h7.3v-15.35c0-8.15-4.75-11.95-12.95-11.95zm-.6 22.45c-2.75 0-4.4-1.3-4.4-3.25 0-1.8 1.15-3.15 4.8-3.15h5.35v2.75c-.9 2.45-3.15 3.65-5.75 3.65zm32.659 5.45c10 0 14.85-5 14.85-10.85 0-12.85-20.35-8.4-20.35-14.85 0-2.2 1.85-4 6.65-4 3.1 0 6.45.9 9.7 2.75l2.5-6.15c-3.25-2.05-7.75-3.1-12.15-3.1-9.95 0-14.75 4.95-14.75 10.9 0 13 20.35 8.5 20.35 15.05 0 2.15-1.95 3.75-6.75 3.75-4.2 0-8.6-1.5-11.55-3.65l-2.75 6.1c3.1 2.4 8.7 4.05 14.25 4.05z" fill="#EA5B2B"/></g><defs><clipPath id="clip0_280_503"><path fill="#fff" d="M0 0h430.748v206.3H0z"/></clipPath></defs></svg>