<svg width="50" height="50" viewBox="0 0 50 50" fill="none" xmlns="http://www.w3.org/2000/svg">
<path fill-rule="evenodd" clip-rule="evenodd" d="M24.9999 23.5714C27.4549 23.5714 29.2856 21.7271 29.2856 19.6428C29.2856 17.5585 27.4549 15.7142 24.9999 15.7142C22.5449 15.7142 20.7142 17.5585 20.7142 19.6428C20.7142 21.7271 22.5449 23.5714 24.9999 23.5714ZM24.9999 24.9999C28.1556 24.9999 30.7142 22.6014 30.7142 19.6428C30.7142 16.6842 28.1556 14.2856 24.9999 14.2856C21.8442 14.2856 19.2856 16.6842 19.2856 19.6428C19.2856 22.6014 21.8442 24.9999 24.9999 24.9999Z" fill="#555555"/>
<path fill-rule="evenodd" clip-rule="evenodd" d="M25.0002 9.95923L28.3016 11.0907C29.0058 11.3321 29.6168 11.7876 30.0494 12.3933C30.482 12.9991 30.7146 13.7249 30.7145 14.4692V19.2857H29.2859V14.4692C29.2859 14.0226 29.1464 13.5871 28.8868 13.2237C28.6272 12.8602 28.2606 12.5869 27.8381 12.4421L25.0002 11.4692L22.1624 12.4428C21.74 12.5876 21.3734 12.8608 21.1138 13.2241C20.8542 13.5874 20.7146 14.0227 20.7145 14.4692V19.2857H19.2859V14.4692C19.2859 13.7249 19.5184 12.9991 19.951 12.3933C20.3836 11.7876 20.9947 11.3321 21.6988 11.0907L25.0002 9.95923ZM22.1431 32.1428C22.9008 32.1428 23.6276 31.8418 24.1634 31.306C24.6992 30.7701 25.0002 30.0434 25.0002 29.2857C25.0003 29.7816 25.1295 30.2689 25.3751 30.6997C25.6207 31.1306 25.9741 31.4901 26.4008 31.7429C26.8274 31.9957 27.3125 32.1331 27.8083 32.1416C28.3041 32.1501 28.7936 32.0295 29.2287 31.7914C29.6637 31.5534 30.0293 31.2063 30.2895 30.7841C30.5498 30.362 30.6956 29.8794 30.7128 29.3838C30.7299 28.8882 30.6178 28.3966 30.3874 27.9575C30.157 27.5184 29.8163 27.1468 29.3988 26.8792C33.4674 27.6407 37.8574 29.3728 37.8574 32.1428V35.7142H12.1431V32.1428C12.1431 29.3728 16.5331 27.6407 20.6016 26.8792C20.0812 27.2123 19.6828 27.7051 19.4662 28.2838C19.2495 28.8624 19.2263 29.4957 19.3999 30.0886C19.5736 30.6816 19.9347 31.2023 20.4293 31.5727C20.9239 31.943 21.5252 32.1431 22.1431 32.1428ZM17.8574 35.7142V31.4285H16.4288V35.7142H17.8574ZM33.5716 31.4285V35.7142H32.1431V31.4285H33.5716Z" fill="#555555"/>
<path fill-rule="evenodd" clip-rule="evenodd" d="M20.043 26.9902C20.3637 29.0916 22.4601 30.7144 25.0001 30.7144C27.5394 30.7144 29.6365 29.0916 29.9573 26.9902C29.4975 26.8946 29.0354 26.8102 28.5715 26.7373V26.7859C28.5715 28.1644 26.9773 29.2823 25.0087 29.2859H24.9915C23.023 29.2823 21.4287 28.1644 21.4287 26.7859V26.7373C20.973 26.8087 20.5087 26.893 20.043 26.9902Z" fill="#555555"/>
<circle cx="25" cy="25" r="24.5" stroke="#555555"/>
</svg>
