<svg width="66" height="53" fill="none" xmlns="http://www.w3.org/2000/svg"><path d="M21.192 53.72c6.288 0 11.845-2.456 15.817-7.1 3.961-4.633 6.279-11.362 6.279-19.82h-2c0 8.102-2.218 14.333-5.799 18.52-3.57 4.175-8.56 6.4-14.297 6.4v2zM43.288 26.8c0-8.458-2.318-15.187-6.279-19.82-3.972-4.644-9.53-7.1-15.817-7.1v2c5.736 0 10.727 2.224 14.297 6.4 3.58 4.187 5.799 10.418 5.799 18.52h2zM21.192-.12c-6.253 0-11.793 2.457-15.755 7.101C1.486 11.613-.832 18.342-.832 26.8h2c0-8.102 2.218-14.333 5.79-18.521 3.563-4.176 8.535-6.399 14.234-6.399v-2zM-.832 26.8c0 8.458 2.318 15.187 6.27 19.819 3.96 4.644 9.5 7.101 15.754 7.101v-2c-5.699 0-10.67-2.223-14.233-6.399C3.386 41.133 1.168 34.902 1.168 26.8h-2zm22.024 16.784c-3.108 0-5.693-1.256-7.541-3.902C11.77 36.99 10.6 32.776 10.6 26.8h-2c0 6.192 1.206 10.87 3.411 14.028 2.238 3.204 5.449 4.756 9.181 4.756v-2zM10.6 26.8c0-5.976 1.17-10.19 3.05-12.882 1.849-2.646 4.434-3.902 7.542-3.902v-2c-3.732 0-6.943 1.552-9.18 4.756C9.805 15.93 8.6 20.608 8.6 26.8h2zm10.592-16.784c3.147 0 5.75 1.26 7.605 3.903 1.889 2.692 3.059 6.905 3.059 12.881h2c0-6.192-1.206-10.87-3.421-14.03-2.25-3.205-5.478-4.754-9.243-4.754v2zM31.856 26.8c0 5.976-1.17 10.19-3.059 12.88-1.855 2.645-4.458 3.904-7.605 3.904v2c3.765 0 6.994-1.549 9.243-4.755 2.215-3.158 3.421-7.837 3.421-14.029h-2zM45.67 1.6v-1h-1v1h1zm0 7.848h-1v1h1v-1zm10.656 0h1v-1h-1v1zm0 42.552h-1v1h1v-1zm9.36 0v1h1v-1h-1zm0-50.4h1v-1h-1v1zm-21.016 0v7.848h2V1.6h-2zm1 8.848h10.656v-2H45.67v2zm9.656-1V52h2V9.448h-2zm1 43.552h9.36v-2h-9.36v2zm10.36-1V1.6h-2V52h2zm-1-51.4H45.67v2h20.016v-2z" fill="#555"/></svg>