<svg width="85" height="53" fill="none" xmlns="http://www.w3.org/2000/svg"><path d="M21.192 53.72c6.288 0 11.845-2.456 15.817-7.1 3.961-4.633 6.279-11.362 6.279-19.82h-2c0 8.102-2.218 14.333-5.799 18.52-3.57 4.175-8.56 6.4-14.297 6.4v2zM43.288 26.8c0-8.458-2.318-15.187-6.279-19.82-3.972-4.644-9.53-7.1-15.817-7.1v2c5.736 0 10.727 2.224 14.297 6.4 3.58 4.187 5.799 10.418 5.799 18.52h2zM21.192-.12c-6.253 0-11.793 2.457-15.755 7.101C1.486 11.613-.832 18.342-.832 26.8h2c0-8.102 2.218-14.333 5.79-18.521 3.563-4.176 8.535-6.399 14.234-6.399v-2zM-.832 26.8c0 8.458 2.318 15.187 6.27 19.819 3.96 4.644 9.5 7.101 15.754 7.101v-2c-5.699 0-10.67-2.223-14.233-6.399C3.386 41.133 1.168 34.902 1.168 26.8h-2zm22.024 16.784c-3.108 0-5.693-1.256-7.541-3.902C11.77 36.99 10.6 32.776 10.6 26.8h-2c0 6.192 1.206 10.87 3.411 14.028 2.238 3.204 5.449 4.756 9.181 4.756v-2zM10.6 26.8c0-5.976 1.17-10.19 3.05-12.882 1.849-2.646 4.434-3.902 7.542-3.902v-2c-3.732 0-6.943 1.552-9.18 4.756C9.805 15.93 8.6 20.608 8.6 26.8h2zm10.592-16.784c3.147 0 5.75 1.26 7.605 3.903 1.889 2.692 3.059 6.905 3.059 12.881h2c0-6.192-1.206-10.87-3.421-14.03-2.25-3.205-5.478-4.754-9.243-4.754v2zM31.856 26.8c0 5.976-1.17 10.19-3.059 12.88-1.855 2.645-4.458 3.904-7.605 3.904v2c3.765 0 6.994-1.549 9.243-4.755 2.215-3.158 3.421-7.837 3.421-14.029h-2zm29.15 17.28l-.69-.724-1.811 1.724h2.5v-1zM74.47 31.264l-.684-.73-.006.006.69.724zM45.67 9.232l-.804-.595-.584.79.778.598.61-.793zm6.552 5.04l-.61.793.787.605.611-.783-.788-.615zM67.63 26.728l.688.725.003-.002-.691-.723zM47.614 45.736l-.689-.725-.311.296v.429h1zm0 6.264h-1v1h1v-1zm37.152 0v1h1v-1h-1zm0-7.92h1v-1h-1v1zm-23.07.724l13.463-12.816-1.379-1.448-13.464 12.816 1.38 1.448zm13.458-12.81c3.546-3.328 5.727-6.18 7.013-8.876 1.295-2.715 1.655-5.21 1.655-7.766h-2c0 2.34-.325 4.525-1.46 6.904-1.143 2.398-3.139 5.054-6.576 8.279l1.368 1.458zm8.668-16.642c0-4.753-1.891-8.665-5.272-11.365C75.193 1.305 70.45-.12 64.822-.12v2c5.314 0 9.572 1.347 12.48 3.67 2.883 2.303 4.52 5.627 4.52 9.802h2zm-19-15.472c-8.512 0-15.834 3.185-19.956 8.757l1.608 1.19c3.654-4.94 10.3-7.947 18.348-7.947v-2zM45.06 10.025l6.552 5.04 1.22-1.586-6.553-5.04-1.219 1.586zm7.95 4.862c2.58-3.308 6.363-4.871 11.02-4.871v-2c-5.136 0-9.56 1.748-12.597 5.641l1.577 1.23zm11.02-4.871c2.973 0 5.058.642 6.38 1.691 1.286 1.02 1.98 2.526 1.98 4.581h2c0-2.553-.89-4.683-2.737-6.148-1.809-1.434-4.404-2.124-7.623-2.124v2zm8.36 6.272c0 1.28-.193 2.563-.94 4.075-.76 1.533-2.113 3.35-4.511 5.642l1.382 1.446c2.497-2.387 4.024-4.387 4.921-6.202.909-1.836 1.148-3.434 1.148-4.961h-2zm-5.449 9.715L46.925 45.01l1.377 1.45 20.016-19.008-1.377-1.45zM46.614 45.736V52h2v-6.264h-2zm1 7.264h37.152v-2H47.614v2zm38.152-1v-7.92h-2V52h2zm-1-8.92h-23.76v2h23.76v-2z" fill="#555"/></svg>