<svg width="84" height="53" fill="none" xmlns="http://www.w3.org/2000/svg"><path d="M21.192 53.72c6.288 0 11.845-2.456 15.817-7.1 3.961-4.633 6.279-11.362 6.279-19.82h-2c0 8.102-2.218 14.333-5.799 18.52-3.57 4.175-8.56 6.4-14.297 6.4v2zM43.288 26.8c0-8.458-2.318-15.187-6.279-19.82-3.972-4.644-9.53-7.1-15.817-7.1v2c5.736 0 10.727 2.224 14.297 6.4 3.58 4.187 5.799 10.418 5.799 18.52h2zM21.192-.12c-6.253 0-11.793 2.457-15.755 7.101C1.486 11.613-.832 18.342-.832 26.8h2c0-8.102 2.218-14.333 5.79-18.521 3.563-4.176 8.535-6.399 14.234-6.399v-2zM-.832 26.8c0 8.458 2.318 15.187 6.27 19.819 3.96 4.644 9.5 7.101 15.754 7.101v-2c-5.699 0-10.67-2.223-14.233-6.399C3.386 41.133 1.168 34.902 1.168 26.8h-2zm22.024 16.784c-3.108 0-5.693-1.256-7.541-3.902C11.77 36.99 10.6 32.776 10.6 26.8h-2c0 6.192 1.206 10.87 3.411 14.028 2.238 3.204 5.449 4.756 9.181 4.756v-2zM10.6 26.8c0-5.976 1.17-10.19 3.05-12.882 1.849-2.646 4.434-3.902 7.542-3.902v-2c-3.732 0-6.943 1.552-9.18 4.756C9.805 15.93 8.6 20.608 8.6 26.8h2zm10.592-16.784c3.147 0 5.75 1.26 7.605 3.903 1.889 2.692 3.059 6.905 3.059 12.881h2c0-6.192-1.206-10.87-3.421-14.03-2.25-3.205-5.478-4.754-9.243-4.754v2zM31.856 26.8c0 5.976-1.17 10.19-3.059 12.88-1.855 2.645-4.458 3.904-7.605 3.904v2c3.765 0 6.994-1.549 9.243-4.755 2.215-3.158 3.421-7.837 3.421-14.029h-2zm37.51-4.392l-.765-.644-1.18 1.402 1.817.234.128-.992zm12.24-14.544l.765.644.235-.28v-.364h-1zm0-6.264h1v-1h-1v1zm-34.344 0v-1h-1v1h1zm0 7.848h-1v1h1v-1zm22.896 0l.765.644 1.383-1.644h-2.148v1zM58.71 23.056l-.765-.644-.235.28v.364h1zm0 6.408h-1v1h1v-1zm-9.864 10.152l.643-.766-.929-.78-.588 1.061.874.485zm-4.032 7.272l-.874-.485-.414.746.67.526.618-.787zm25.317-23.836l12.24-14.544-1.53-1.288-12.24 14.544 1.53 1.288zM82.606 7.864V1.6h-2v6.264h2zm-1-7.264H47.262v2h34.344v-2zm-35.344 1v7.848h2V1.6h-2zm1 8.848h22.896v-2H47.262v2zm22.131-1.644L57.945 22.412l1.53 1.288 11.448-13.608-1.53-1.288zM57.71 23.056v6.408h2v-6.408h-2zm1 7.408h4.608v-2H58.71v2zm4.608 0c3.712 0 6.203.722 7.743 1.85 1.49 1.09 2.201 2.642 2.201 4.638h2c0-2.54-.945-4.733-3.019-6.252-2.024-1.482-5.005-2.236-8.925-2.236v2zm9.944 6.488c0 2.021-.838 3.627-2.403 4.761-1.602 1.16-4.035 1.871-7.253 1.871v2c3.479 0 6.373-.765 8.426-2.251 2.088-1.512 3.23-3.722 3.23-6.381h-2zm-9.656 6.632c-5.482 0-10.718-1.879-14.117-4.734l-1.286 1.532c3.801 3.193 9.51 5.202 15.403 5.202v-2zm-15.634-4.453l-4.032 7.272 1.749.97L49.72 40.1l-1.75-.97zm-3.775 8.544C49.09 51.514 56.45 53.72 63.75 53.72v-2c-6.956 0-13.852-2.114-18.319-5.619l-1.234 1.574zM63.75 53.72c6.945 0 12.188-1.886 15.709-4.983 3.528-3.105 5.235-7.348 5.235-11.857h-2c0 3.987-1.497 7.664-4.556 10.355-3.068 2.699-7.797 4.485-14.388 4.485v2zm20.944-16.84c0-4.001-1.281-7.57-3.875-10.3-2.587-2.724-6.401-4.53-11.325-5.164l-.255 1.984c4.58.59 7.93 2.24 10.13 4.557 2.195 2.31 3.325 5.364 3.325 8.923h2z" fill="#555"/></svg>