<svg width="60" height="60" fill="none" xmlns="http://www.w3.org/2000/svg"><g clip-path="url(#clip0_239_456)" fill="#E9623E"><path d="M32.457 0c1.033.156 2.081.281 3.114.47 6.62 1.188 12.129 4.424 16.651 9.35 3.928 4.27 6.448 9.257 7.387 14.98 1.033 6.412.094 12.557-2.786 18.359-3.74 7.553-9.546 12.87-17.652 15.387-12.27 3.815-24.601 0-32.723-10.102A29.356 29.356 0 01.407 35.246C.235 34.355.14 33.448 0 32.541v-4.675c.047-.204.094-.407.125-.626.141-1.032.22-2.08.423-3.112 1.064-5.535 3.505-10.383 7.386-14.464 4.68-4.926 10.392-7.975 17.074-9.195 1.08-.188 2.16-.313 3.24-.469h4.209zm-2.41 58.327c1.956-.266 3.96-.407 5.884-.829 7.309-1.58 13.083-5.504 17.34-11.618 2.785-4.004 4.35-8.46 4.835-13.308.33-3.377-.078-6.692-.939-9.96-2.175-8.288-7.073-14.402-14.882-18.015-5.806-2.674-11.894-3.283-18.17-2.048C18.67 3.612 13.85 5.958 10 9.945 3.114 17.075.595 25.708 2.363 35.387c2.441 13.245 14.241 22.815 27.684 22.94z"/><path d="M39.75 26.536c-.752-2.736-3.772-5.723-6.354-6.302-.485.954-1.22 1.674-2.285 2.002a3.696 3.696 0 01-4.303-1.658c-.141-.234-.22-.406-.58-.28-2.535.828-5.242 3.627-5.978 6.238 1.362.72 2.176 1.845 2.176 3.44 0 1.596-.798 2.69-2.223 3.425 1.174 3.096 3.271 5.176 6.323 6.333 1.565-3.034 5.571-2.799 6.933 0 2.566-.922 4.46-2.611 5.79-5.02l1.565.798a10.919 10.919 0 01-3.647 4.238c-.923.64-1.956 1.11-2.973 1.61-.313.157-.516.282-.595.673a3.596 3.596 0 01-3.615 2.893 3.633 3.633 0 01-3.599-2.94.672.672 0 00-.517-.594c-3.536-1.345-5.962-3.785-7.34-7.319a.827.827 0 00-.531-.469c-1.768-.39-2.973-1.86-2.958-3.643.016-1.783 1.19-3.221 2.973-3.628a.844.844 0 00.517-.438c1.361-3.58 3.818-6.051 7.418-7.396a.828.828 0 00.407-.532A3.674 3.674 0 0130 15.012c1.8-.016 3.24 1.172 3.646 2.955a.908.908 0 00.47.547c3.537 1.36 5.993 3.8 7.324 7.334a.75.75 0 00.61.516c1.862.376 3.146 2.127 2.895 3.94-.266 2.05-1.815 3.441-3.74 3.378a3.664 3.664 0 01-3.6-3.518c-.078-1.58.455-2.502 2.145-3.628zm1.502 5.333a1.912 1.912 0 001.802-2.631 1.877 1.877 0 00-1.74-1.17c-1.126-.015-1.94.767-1.94 1.877a1.844 1.844 0 001.878 1.924zM28.106 18.655c-.015 1.126.783 1.94 1.878 1.955a1.865 1.865 0 001.796-1.177 1.86 1.86 0 00.13-.747 1.907 1.907 0 00-3.238-1.364 1.892 1.892 0 00-.566 1.333zm-9.39 13.214c1.127 0 1.926-.814 1.91-1.924-.016-1.11-.814-1.892-1.94-1.876a1.862 1.862 0 00-1.863 1.908 1.875 1.875 0 001.894 1.892zm9.39 9.35a1.845 1.845 0 001.863 1.908c1.127.016 1.925-.782 1.925-1.892 0-1.11-.798-1.923-1.91-1.907a1.86 1.86 0 00-1.878 1.892zm23.067-7.349c-1.392 8.303-8.529 16.466-19.108 17.592l2.348 2.19-1.22 1.219a551.863 551.863 0 01-4.289-4.285 528.546 528.546 0 004.304-4.269l1.127 1.204-2.02 1.892c2.38.47 8.358-2.314 11.269-5.082 2.91-2.767 5.023-6.536 5.868-10.742.147 0 .293.011.438.03l1.283.251zM27.981 8.475l-2.3-2.189 1.205-1.22 4.288 4.238-4.351 4.347-1.22-1.266 1.971-1.846-.125-.156a19.458 19.458 0 00-11.002 5.207c-3.114 2.924-5.054 6.537-5.884 10.774l-1.69-.297c.892-6.661 6.933-16.106 19.108-17.592zm23.49 19.422c.798-.813 1.503-1.564 2.27-2.361.422.516.782.953 1.142 1.36l-4.226 4.19-4.303-4.3 1.236-1.204 1.847 1.97.156-.124c-.563-4.207-2.285-7.897-5.195-10.993-2.911-3.096-6.542-5.067-10.798-5.911.11-.594.203-1.157.313-1.705 7.997 1.314 16.306 8.053 17.558 19.078zm-37.809 5.238l-1.252 1.22c-.595-.657-1.22-1.314-1.831-1.97l-.172.125a19.509 19.509 0 005.195 10.993c2.927 3.111 6.542 5.05 10.799 5.895-.094.594-.204 1.157-.298 1.72-7.84-1.267-16.275-7.912-17.559-18.952l-2.206 2.267-1.252-1.36 4.257-4.238 4.319 4.3z"/><path d="M25.337 30.837V29.1h1.815v1.736h-1.816zm5.571-1.752v1.736h-1.8v-1.736h1.8zm3.755 1.767h-1.815v-1.767h1.816v1.767z"/></g><defs><clipPath id="clip0_239_456"><path fill="#fff" d="M0 0h60v60H0z"/></clipPath></defs></svg>