<svg width="44" height="30" fill="none" xmlns="http://www.w3.org/2000/svg"><g clip-path="url(#clip0_417_130)" fill="#555"><path d="M0 5.55c2.411 1.569 4.833 3.127 7.244 4.706l7.125 4.653.473.32L0 24.558V5.55zM22.01 0h19.16c1.28.01 2.324.78 2.68 1.942.085.3.01.449-.238.609a8649.88 8649.88 0 00-18.964 12.38l-2.368 1.547c-.205.15-.355.139-.56 0C14.602 11.818 7.48 7.165.355 2.518.13 2.37.075 2.242.161 1.975.506.78 1.54.011 2.841 0h19.17zM22 30.01H2.841c-1.237 0-2.238-.704-2.637-1.814-.118-.33-.096-.533.248-.747a1954.05 1954.05 0 0012.518-7.844l4.1-2.572c.205-.128.356-.139.56 0 1.12.747 2.26 1.462 3.369 2.22.689.47 1.324.47 2.013 0 1.108-.758 2.25-1.473 3.358-2.21.215-.148.355-.138.57 0l16.683 10.46c.259.16.302.299.216.576-.345 1.163-1.389 1.932-2.67 1.932H22zM44 5.528v19.008l-14.843-9.307L44 5.53z"/></g><defs><clipPath id="clip0_417_130"><path fill="#fff" d="M0 0h44v30H0z"/></clipPath></defs></svg>