<svg width="64" height="60" fill="none" xmlns="http://www.w3.org/2000/svg"><g clip-path="url(#clip0_239_507)" stroke="#E9623E"><path d="M.983 25.033v-4.05h2.734v4.534H8.2v-4.55h2.765l-.006.664c-.007.787-.015 1.581.008 2.367h0v.005c.002.055-.005.123-.02.25l-.001.005a2.277 2.277 0 00-.022.426c.012.171.059.378.204.568.083.11.187.198.305.267v.064c0 .623.004 1.244.008 1.864.007 1.235.014 2.466-.008 3.694v.001c-.015.972-.264 1.66-.732 2.176-.48.528-1.24.935-2.392 1.231l-.429.11.058.439c.922 7.089 7.025 17.153 18.471 20.515h0c12.376 3.633 25.474-1.917 31.269-13.184 5.79-11.256 2.992-25.25-6.864-33.185-9.735-7.838-25.123-8.152-35.16 1.406L13.71 8.732a27.367 27.367 0 017.796-5.343c8.673-3.892 17.378-3.952 25.815.405l.001.001c9.217 4.723 14.521 12.397 15.95 22.707v.002c.036.252.07.52.106.79.04.302.08.607.122.892v3.665a3.702 3.702 0 01-.05.203 2.322 2.322 0 00-.065.35h0v.012a27.566 27.566 0 01-2.145 8.955v.001C55.418 55.145 40.571 62.465 26.186 58.37h0C15.56 55.352 8.75 48.286 5.597 37.658c-.185-.622-.318-1.251-.46-1.919a70.369 70.369 0 00-.182-.848l-.088-.39H3.761c-1.07-.048-1.937-.418-2.523-1.227l-.001-.003a4.032 4.032 0 01-.403-.72 21.031 21.031 0 01-.153-.35c-.06-.137-.122-.281-.181-.41v-6.258h.483v-.5z"/><path d="M25.533 16.17l24.76 13.863-24.76 13.864V16.17z" fill="#E9623E"/></g><defs><clipPath id="clip0_239_507"><path fill="#fff" d="M0 0h64v60H0z"/></clipPath></defs></svg>