<svg width="30" height="42" fill="none" xmlns="http://www.w3.org/2000/svg"><g clip-path="url(#clip0_417_135)"><path d="M14.666 42.01c-.324-.267-.7-.472-.952-.78-4.001-4.714-7.637-9.684-10.483-15.208C1.965 23.556.89 21.02.334 18.288c-.77-3.779-.212-7.353 1.702-10.68s4.912-5.791 8.7-6.952c3.383-1.027 6.735-.842 9.997.534 2.896 1.212 5.206 3.194 6.907 5.884a15.15 15.15 0 012.279 6.655c.253 2.372-.152 4.672-.891 6.92-1.104 3.359-2.735 6.46-4.578 9.448-2.441 3.974-5.226 7.692-8.255 11.224-.243.277-.587.452-.881.688h-.648zm.314-19.141c4.081.03 7.505-3.389 7.535-7.527.03-4.139-3.251-7.722-7.485-7.743a7.431 7.431 0 00-5.306 2.164 7.64 7.64 0 00-2.25 5.332 7.724 7.724 0 00.53 2.96 7.641 7.641 0 001.617 2.521 7.521 7.521 0 002.452 1.693c.92.393 1.908.597 2.907.6z" fill="#555"/></g><defs><clipPath id="clip0_417_135"><path fill="#fff" d="M0 0h30v42H0z"/></clipPath></defs></svg>