<svg width="60" height="60" fill="none" xmlns="http://www.w3.org/2000/svg"><path d="M48.051 17.225l-.125.259-.217.45-.005.012-.007.012c-.123.225-.247.448-.37.669-.367.66-.727 1.307-1.045 1.977a.652.652 0 00.005.47l.002.004a72.568 72.568 0 001.559 3.698l.003.007.003.007c.06.144.17.261.31.329a44.86 44.86 0 002.862.865c.256.065.519.186.693.44.166.243.19.521.181.758-.017 1.865-.017 3.728.017 5.59v.009h0c0 .288-.048.59-.252.839-.198.241-.476.346-.72.412l-.006.001h0a25.67 25.67 0 00-1.345.395l-.08.026c-.43.135-.873.275-1.324.396l-.008.002h0c-.14.035-.198.075-.233.11-.04.04-.093.114-.155.282a56.099 56.099 0 01-1.5 3.605m1.757-21.624l-2.212 21.417m2.212-21.417l-.16-.238a3.131 3.131 0 00-.339-.418h0l-.004-.004a481.959 481.959 0 00-1.642-1.65c-.818-.821-1.637-1.642-2.447-2.473h0l-.005-.004c-.193-.193-.428-.342-.723-.357-.273-.013-.506.097-.675.19l-.003.002c-.388.22-.783.43-1.185.643l-.148.08c-.449.238-.905.483-1.355.746-.095.051-.147.055-.185.053a.853.853 0 01-.283-.09l-.004-.002a77.819 77.819 0 00-3.698-1.53l-.026-.009-.026-.007a.368.368 0 01-.27-.283l-.003-.018-.005-.018c-.12-.43-.255-.86-.387-1.283l-.049-.158a32.989 32.989 0 01-.413-1.406c-.06-.227-.161-.489-.39-.677-.236-.194-.52-.24-.79-.23-1.88.016-3.776.016-5.655 0-.288-.01-.584.04-.826.246-.229.194-.329.463-.387.693-.263.937-.54 1.883-.849 2.795a.735.735 0 01-.342.334c-1.235.534-2.46 1.063-3.7 1.543h0l-.004.001a.652.652 0 01-.469.005c-.891-.422-1.753-.91-2.633-1.408-.237-.143-.513-.25-.823-.194-.297.053-.519.24-.685.406h0l-.007.007a223.02 223.02 0 01-3.961 3.978c-.165.155-.344.366-.399.652-.057.302.044.572.184.8.252.431.489.873.728 1.322l.079.148c.212.4.428.805.654 1.204.052.096.057.15.055.188a.852.852 0 01-.09.282l-.002.002a65.39 65.39 0 00-.79 1.872v.004c-.256.623-.508 1.238-.78 1.848h0l-.002.006a.552.552 0 01-.278.284c-.919.331-1.855.614-2.804.847-.3.072-.59.205-.778.486-.176.265-.197.57-.188.829.016 1.813.016 3.61 0 5.423M48.05 17.225L9.086 34.035m37.208 4.815s0 0 0 0l-.455-.208m.455.207s0 0 0 0l-.455-.207m.455.207a.937.937 0 00-.1.321.423.423 0 00.076.236l.002.005c.256.442.493.891.725 1.331l.002.004c.234.442.462.874.706 1.297m-1.866-3.401c-.167.367-.217.651 0 1.018.25.435.485.877.718 1.32.234.442.468.885.718 1.319m.43-.256l-.004-.007-.426.263m.43-.256l.004.006-.434.25m.43-.256c.14.228.24.497.183.799-.054.286-.231.5-.393.662l-.004.005h0a177.79 177.79 0 00-3.963 3.963l-.007.007h0c-.167.166-.388.352-.685.405-.31.056-.588-.052-.825-.195m5.264-5.39c.218.35.15.568-.133.852a178.146 178.146 0 00-3.975 3.974c-.3.3-.517.367-.901.134m-.255.43l.005.003.25-.433m-.255.43l-.005-.003.26-.427m-.255.43c-.403-.232-.814-.45-1.233-.673l-.064-.034a34.822 34.822 0 01-1.316-.724m2.868 1c-.413-.237-.833-.46-1.252-.683-.462-.245-.923-.49-1.37-.753m0 0l-.24.44-.006-.004m.246-.436c-.367-.2-.618-.15-.985.017L27.186 51.4m12.458-5.578l-.254.431.008.005m0 0c-.117-.063-.178-.068-.22-.066-.058.004-.142.025-.312.102l-.004.002a64.935 64.935 0 01-1.842.776c-.614.252-1.219.504-1.81.775l-.008.004-.009.003a.636.636 0 00-.327.308m0 0l.009-.027-.475-.158.457.204a.682.682 0 01.009-.02zm0 0a42.98 42.98 0 00-.85 2.812h0c-.072.28-.201.559-.468.74-.255.172-.546.195-.793.186m0 0h.009v-.5l-.02.5h.01zm0 0h-5.56m0 0h.011l-.02-.5m.01.5c-.242.009-.527-.015-.776-.188-.257-.18-.38-.451-.451-.716v-.003a43.773 43.773 0 00-.463-1.595 54.057 54.057 0 01-.37-1.253l-.002-.003c-.034-.125-.07-.173-.096-.2-.032-.032-.094-.075-.244-.13h-.002a46.096 46.096 0 01-3.64-1.518m6.044 5.606h-.01v-.5m0 0l-6.035-5.106m0 0l.006.003.201-.458-.213.453.006.002zm0 0a.812.812 0 00-.342-.088.57.57 0 00-.282.097l-.007.004h0c-.433.246-.872.479-1.305.707l-.003.002c-.432.229-.857.454-1.273.69m3.212-1.412l-3.466.981m.254.43l.009-.005-.263-.425m.254.43l-.007.005-.247-.435m.254.43c-.227.14-.496.24-.797.183-.286-.055-.497-.235-.652-.399m1.195-.214c-.351.217-.568.15-.835-.133m-.36.347l.004.004.356-.351m-.36.347a223.02 223.02 0 00-3.978-3.961l-.007-.007h0c-.167-.167-.353-.388-.406-.685-.056-.311.053-.589.196-.826m4.195 5.479l-.005-.005.365-.342m0 0a223.554 223.554 0 00-3.992-3.975l-.563-1.157m0 0l-.002.003.432.253-.427-.26a.141.141 0 01-.003.004zm0 0a33.87 33.87 0 001.406-2.63m-1.406 2.63l.313-7.008m1.093 4.378l-.005.012.465.185-.452-.214a.814.814 0 01-.008.017zm0 0a.652.652 0 00-.005-.47l-.001-.004a91.207 91.207 0 00-1.543-3.698m0 0l.002.004.454-.21m-.456.206l-.002-.006.458-.2m-.456.206a.736.736 0 00-.335-.344m.791.138a1.236 1.236 0 00-.601-.602m-.19.464l.027.009.163-.473m-.19.464a31.371 31.371 0 00-2.73-.829m2.73.829a.734.734 0 00-.02-.01l.21-.454m0 0l-2.92-.365m0 0l.004.001.11-.487-.119.485.004.001zm0 0c-.309-.07-.614-.2-.809-.488-.184-.272-.203-.591-.194-.86m0 0v.005l.5.005-.5-.017v.007zM60 30.008A29.943 29.943 0 0029.992 0 29.942 29.942 0 000 29.942l60 .066zm0 0A29.975 29.975 0 0157.717 41.5M60 30.008L57.717 41.5m0 0a29.974 29.974 0 01-6.514 9.738m6.514-9.738l-6.514 9.738m0 0a29.974 29.974 0 01-9.75 6.498m9.75-6.498l-9.75 6.498m0 0A29.974 29.974 0 0129.959 60l11.496-2.264zM59.5 30.007v.002A29.474 29.474 0 0129.96 59.5h-.002A29.458 29.458 0 01.5 29.943v-.001A29.441 29.441 0 0129.991.5h.002A29.442 29.442 0 0159.5 30.007z" stroke="#E9623E"/><path d="M30.036 21.858h.007a8.065 8.065 0 018.082 8.193h0v.008a8.068 8.068 0 01-8.192 8.066v0h-.007a8.087 8.087 0 01-7.472-5.037 8.083 8.083 0 01-.596-3.11h0v-.005a8.085 8.085 0 018.178-8.115z" stroke="#E9623E"/><path fill="#E9623E" d="M7 48.643L48.643 7l4.19 4.19L11.19 52.833z"/></svg>