<svg width="36" height="37" fill="none" xmlns="http://www.w3.org/2000/svg"><path fill-rule="evenodd" clip-rule="evenodd" d="M18 20c3.437 0 6-2.582 6-5.5S21.437 9 18 9s-6 2.582-6 5.5 2.563 5.5 6 5.5zm0 2c4.418 0 8-3.358 8-7.5 0-4.142-3.582-7.5-8-7.5s-8 3.358-8 7.5c0 4.142 3.582 7.5 8 7.5z" fill="#555"/><path fill-rule="evenodd" clip-rule="evenodd" d="M18 .943l4.622 1.584A5 5 0 0126 7.257V14h-2V7.257a3 3 0 00-2.027-2.838L18 3.057 14.027 4.42A3 3 0 0012 7.257V14h-2V7.257a5 5 0 013.378-4.73L18 .943zM14 32a4 4 0 004-4 4 4 0 106.158-3.369C29.854 25.697 36 28.122 36 32v5H0v-5c0-3.878 6.146-6.303 11.842-7.369A4 4 0 0014 32zm-6 5v-6H6v6h2zm22-6v6h-2v-6h2z" fill="#555"/><path fill-rule="evenodd" clip-rule="evenodd" d="M11.06 24.786C11.51 27.728 14.444 30 18 30c3.555 0 6.491-2.272 6.94-5.214a40.254 40.254 0 00-1.94-.354v.068c0 1.93-2.232 3.495-4.988 3.5h-.024C15.232 27.995 13 26.43 13 24.5v-.068c-.638.1-1.288.218-1.94.354z" fill="#555"/></svg>