<svg width="40" height="40" fill="none" xmlns="http://www.w3.org/2000/svg"><g clip-path="url(#clip0_417_126)" fill="#555"><path d="M0 9.57c.13-.322.202-.692.393-.966C1.499 7.088 2.558 5.549 3.76 4.117 4.77 2.9 5.913 1.778 7.067.692 8.221-.394 8.71-.238 9.518.907a81.263 81.263 0 013.355 5.155c.714 1.193 1.285 2.47 1.928 3.711.38.752.19 1.373-.405 1.91-.88.775-1.737 1.587-2.653 2.315-.56.453-.63.907-.393 1.563 2.285 6.404 6.608 10.78 12.969 13.126 1.059.394 1.083.37 1.868-.477.583-.632 1.118-1.3 1.69-1.957.166-.203.356-.394.535-.585.523-.572 1.106-.704 1.844-.382 2.01.848 3.867 1.993 5.723 3.139.94.596 1.856 1.229 2.772 1.861.315.22.603.476.856.764.476.525.536.967.096 1.528-.44.56-1.178 1.467-1.88 2.076-1.797 1.551-3.665 3.007-5.485 4.546-1.047.884-2.166.943-3.45.657-4.01-.895-7.603-2.697-10.958-5.024-6.032-4.2-10.97-9.44-14.61-15.871-1.464-2.59-2.582-5.334-3.106-8.294-.047-.262-.083-.537-.119-.8a1.939 1.939 0 01-.012-.262L0 9.57zm21.475-6.682V.096c9.578-.37 18.703 8.174 18.465 18.508h-2.807c-.096-4.284-1.559-8.007-4.593-11.062-3.034-3.055-6.734-4.547-11.065-4.654z"/><path d="M21.475 10.036V7.23c6.104-.226 11.565 5.287 11.339 11.373h-2.796c-.084-2.327-.869-4.368-2.534-6.038-1.666-1.671-3.665-2.447-6.009-2.53z"/></g><defs><clipPath id="clip0_417_126"><path fill="#fff" d="M0 0h40v40H0z"/></clipPath></defs></svg>