<svg width="52" height="60" fill="none" xmlns="http://www.w3.org/2000/svg"><g clip-path="url(#clip0_239_662)" fill="#E9623E"><path d="M26.47 0c1.306.306 2.6.635 3.906.93l10.718 2.376c.93.2 1.212.553 1.212 1.482 0 3.836.07 7.659-.024 11.483-.164 6.964-2.94 12.752-8.058 17.435a22.459 22.459 0 01-7.518 4.541 2.1 2.1 0 01-1.341.012c-8.283-3.318-13.377-9.377-15.236-18.082-.329-1.53-.388-3.142-.411-4.718-.06-3.506-.012-7.024-.012-10.541 0-1.106.235-1.389 1.33-1.636L25.223.118c.105-.024.211-.083.317-.118h.93zM12.06 5.506c0 3.365-.035 6.67.012 9.965.023 1.305.094 2.623.34 3.894 1.483 7.8 5.93 13.282 13.2 16.459.241.098.51.102.754.011a21.719 21.719 0 0013.576-19.67c.07-3.377.012-6.765.024-10.141 0-.4-.106-.565-.518-.66C35.635 4.53 31.823 3.648 28 2.825c-.847-.177-1.659-.53-2.576-.318-2.73.647-5.471 1.223-8.2 1.835l-5.165 1.165zM9.894 39.094c.624-.882 1.412-1.518 2.494-1.718 1.47-.282 2.741.13 3.659 1.294a221.82 221.82 0 015.13 6.765c1.094 1.494 1.6 3.247 1.623 5.106.047 2.706.023 5.424.012 8.141 0 .8-.483 1.306-1.177 1.318-.694.012-1.164-.494-1.212-1.294-.011-.165 0-.318 0-.47 0-2.33-.046-4.648.012-6.977.047-2-.54-3.73-1.788-5.306-1.435-1.8-2.788-3.659-4.2-5.483a2.294 2.294 0 00-.941-.729c-.565-.224-1.153.035-1.494.506a1.34 1.34 0 00.011 1.635c.612.836 1.26 1.647 1.883 2.47.353.448.494.93.176 1.46-.459.776-1.435.788-2.047 0-1.447-1.87-2.894-3.73-4.306-5.624a5.164 5.164 0 01-.788-1.541 6.153 6.153 0 01-.223-1.741c-.012-3.236 0-6.483-.012-9.718a3.482 3.482 0 00-.094-.988C6.4 25.54 5.694 25.118 5 25.188c-.694.07-1.294.624-1.365 1.318-.223 2.082-.411 4.165-.6 6.235-.223 2.259-.412 4.506-.659 6.753-.082.788.071 1.459.553 2.082 3.224 4.189 6.436 8.389 9.683 12.577.435.565.682 1.13.635 1.87-.047.742 0 1.836-.012 2.753-.011.918-.482 1.236-1.188 1.224-.706-.012-1.13-.494-1.153-1.212v-.117c-.012-.953.188-1.989-.106-2.848-.294-.858-1.094-1.54-1.67-2.306-2.636-3.435-5.26-6.882-7.93-10.294-1.023-1.306-1.33-2.706-1.13-4.329.26-2.212.424-4.423.636-6.635.212-2.212.365-4.118.6-6.177.212-1.8 1.87-3.2 3.741-3.247 1.87-.047 3.636 1.27 3.965 3.118.07.384.106.774.106 1.165.016 3.317.016 6.635 0 9.953a2.67 2.67 0 00.788 2.023zm31.894-.024c.6-.552.8-1.258.789-2.058-.012-3.318 0-6.636 0-9.953 0-1.412.458-2.6 1.611-3.47 2.353-1.765 5.8-.377 6.188 2.552.295 2.2.471 4.424.683 6.635.212 2.212.412 4.577.612 6.871.117 1.294-.294 2.412-1.071 3.424l-9.388 12.211a1.859 1.859 0 00-.436 1.27c.036.742.024 1.483.012 2.224-.011.742-.506 1.236-1.2 1.224-.694-.012-1.14-.506-1.153-1.224-.012-1.094-.035-2.188.024-3.282a1.99 1.99 0 01.423-1.047c3.118-4.07 6.189-8.188 9.4-12.188 1.036-1.283 1.071-2.565.918-4.035-.306-2.8-.541-5.589-.812-8.389a293.88 293.88 0 00-.33-3.2c-.117-1.07-.764-1.482-1.6-1.447-.834.036-1.481.694-1.481 1.636 0 3.317-.024 6.646.011 9.964.012 1.4-.376 2.624-1.259 3.73-1.364 1.706-2.658 3.47-4.011 5.188a1.918 1.918 0 01-.86.647c-.493.165-.929-.059-1.223-.483a1.118 1.118 0 01.047-1.364c.636-.859 1.306-1.706 1.941-2.565.424-.576.424-1.153.06-1.682-.365-.53-.93-.73-1.495-.53a1.835 1.835 0 00-.835.589 669.358 669.358 0 00-4.682 6.153 6.906 6.906 0 00-1.412 4.247c.012 2.623.012 5.235 0 7.858 0 .86-.436 1.389-1.13 1.424a1.13 1.13 0 01-1.2-.906 1.565 1.565 0 01-.058-.4c.011-2.835 0-5.67.047-8.494.035-2.024.8-3.788 2.023-5.388 1.412-1.836 2.906-3.636 4.2-5.553 1.647-2.47 4.883-2.694 6.647-.188z"/><path d="M38.082 12.612c-.117 2.094-.035 4.235-.4 6.294-1.176 6.741-4.929 11.623-11.058 14.659-.342.176-.918.153-1.271-.024-5.906-2.91-9.55-7.592-10.93-14.047-.211-.976-.282-2-.352-3.012-.06-.8.423-1.329 1.117-1.353.694-.023 1.165.483 1.212 1.283.27 4.482 1.93 8.353 5.082 11.565a16.187 16.187 0 004.13 3.046.965.965 0 00.788 0c5.012-2.8 8.141-7 8.953-12.694.365-2.611.212-5.294.259-7.953.035-1.411.012-1.411-1.353-1.717-2.588-.577-5.153-1.224-7.753-1.683-.835-.152-1.765.142-2.624.33-2.706.576-5.4 1.2-8.094 1.8-1.047.235-1.753-.224-1.74-1.106.01-.6.364-1.024 1.034-1.176L21 5.506c1.412-.306 2.835-.577 4.224-.953.976-.259 1.847.082 2.753.282 2.94.624 5.882 1.306 8.823 1.965.882.2 1.165.553 1.177 1.47v4.33l.105.012z"/><path d="M23.683 19.27l4.588-4.14c.964-.871 1.93-1.765 2.906-2.636.776-.682 1.835-.376 2.047.588.117.542-.177.93-.553 1.271A1554.091 1554.091 0 0026.2 20.2l-1.695 1.518c-.718.635-1.365.6-1.965-.118-.905-1.07-1.823-2.141-2.717-3.212-.53-.647-.506-1.353.047-1.811.553-.46 1.2-.353 1.74.27l2.072 2.424z"/></g><defs><clipPath id="clip0_239_662"><path fill="#fff" d="M0 0h51.694v60H0z"/></clipPath></defs></svg>