<svg width="60" height="60" fill="none" xmlns="http://www.w3.org/2000/svg"><g clip-path="url(#clip0_239_513)" stroke="#E9623E"><path d="M29.216.87l10.58 6.111-10.58 6.113V9.403l-.528.03c-5.725.325-10.4 2.638-14.172 6.859l-3.739-3.058c4.745-5.395 10.688-8.268 17.967-8.668l.472-.026V.87z"/><path d="M.87 30.784l6.108-10.587 6.116 10.587H9.403l.03.528c.325 5.724 2.638 10.4 6.859 14.16l-3.059 3.75C7.84 44.477 4.966 38.535 4.566 31.257l-.026-.473H.87z" fill="#E9623E"/><path d="M30.797 55.933v3.2l-10.596-6.12 10.609-6.12v3.703l.53-.03c5.697-.338 10.372-2.639 14.133-6.86l3.75 3.048c-4.745 5.418-10.7 8.279-17.954 8.679l-.472.026v.473zm15.644-44.769l.314-.386c5.406 4.745 8.279 10.687 8.679 17.94l.026.472h3.674l-6.12 10.609-6.122-10.609h3.705l-.03-.53c-.338-5.697-2.638-10.371-6.857-14.143.91-1.109 1.816-2.225 2.731-3.353z"/></g><defs><clipPath id="clip0_239_513"><path fill="#fff" d="M0 0h60v60H0z"/></clipPath></defs></svg>