<svg width="60" height="75" fill="none" xmlns="http://www.w3.org/2000/svg"><g clip-path="url(#clip0_239_658)" fill="#555"><path d="M25.587 75l-3.246-.306c-5.832-.51-11.564-1.479-16.838-4.259a15.125 15.125 0 01-4.413-3.417C.203 65.998-.228 64.952.101 63.5c.71-3.239 1.496-6.426 2.942-9.436.862-1.76 2.029-3.238 3.778-4.207l12.832-7.166a1.29 1.29 0 011.547.076 14.827 14.827 0 005.58 2.729 1.697 1.697 0 011.191 1.147c.609 1.709 1.268 3.367 1.953 5.203a4.42 4.42 0 00.304-.638 164.476 164.476 0 001.699-4.514 1.7 1.7 0 011.319-1.224 14.701 14.701 0 005.376-2.626 1.416 1.416 0 011.674-.153c4.184 2.346 8.368 4.718 12.578 7.013 2.13 1.173 3.474 2.983 4.438 5.125 1.344 3.01 2.054 6.172 2.637 9.385a2.666 2.666 0 01-.558 2.04c-1.293 1.862-3.043 3.137-4.97 4.182-3.424 1.862-7.126 2.933-10.956 3.494-2.764.434-5.579.612-8.368.918l-.76.153h-8.75zm11.818-16.32H47.7v-2.066H37.405v2.065z"/><path d="M43.897 32.846c-1.141.179-2.282.408-3.449.536-1.166.127-2.333.127-3.5.178-1.166.051-2.104.128-2.992-.688a1.996 1.996 0 00-1.09-.357c-1.37-.051-2.764-.179-4.134-.051-2.282.23-3.753 1.938-3.753 4.105 0 2.168 1.47 3.877 3.753 4.106 1.395.128 2.84-.025 4.26-.076.25-.009.494-.079.71-.204 1.852-1.046 3.906-.28 5.833-.74l.127.332c-1.242.841-2.46 1.76-3.778 2.499a12.607 12.607 0 01-5.25 1.785c-2.206.178-4.21-.536-6.111-1.505a19.024 19.024 0 01-8.648-8.772c-.127-.306-.05-.714 0-1.071s.38-1.326.38-1.99c.051-3.442.026-6.86.026-10.302a4.762 4.762 0 00-.862-2.805.947.947 0 01-.229-.587c.33-2.397.837-4.743 2.207-6.809 1.37-2.065 4.057-3.62 6.796-4.207 2.739-.587 6.213-.714 9.332-.357 1.81.166 3.583.622 5.25 1.351 2.89 1.377 4.488 3.774 5.274 6.784.254 1.009.457 2.03.609 3.06a1.23 1.23 0 01-.203.79 5.07 5.07 0 00-.811 2.755c0 3.417-.026 6.834 0 10.251.042.668.127 1.332.253 1.99z"/><path d="M47.498 33.483c-1.42-.586-1.902-1.606-1.877-2.983.051-3.188.026-6.35 0-9.512 0-.995.178-1.887 1.015-2.525a.458.458 0 00.177-.383c-.405-3.085-.913-6.145-2.688-8.823-1.775-2.678-4.133-4.055-6.999-4.769a29.308 29.308 0 00-13.947-.076c-5.326 1.275-8.369 4.743-9.51 9.996a51.695 51.695 0 00-.558 3.367.976.976 0 00.279.739 2.728 2.728 0 01.887 2.091c0 3.443.026 6.86 0 10.303-.025 1.683-1.065 2.652-2.738 2.652H8.343c-1.648-.026-2.688-1.046-2.688-2.703V20.682c0-1.683 1.015-2.729 2.688-2.755 1.116-.025 1.142-.025 1.294-1.122.355-2.422.811-4.794 1.8-7.038 2.105-4.82 5.807-7.65 10.854-8.849C27.819-.357 33.348-.357 38.8 1.249c5.909 1.735 9.332 5.866 10.778 11.757.33 1.428.532 2.907.735 4.386.076.434.253.535.66.535a6.81 6.81 0 011.445.128 2.418 2.418 0 011.851 2.346v10.685a2.46 2.46 0 01-.748 1.769 2.434 2.434 0 01-1.788.68 2.122 2.122 0 00-1.724.765c-1.522 1.657-3.576 2.295-5.656 2.754-3.22.74-6.492.79-9.763.79-.355 0-.735.255-1.09.383-.355.127-.837.433-1.268.459-1.065.05-2.13.025-3.195 0-.552 0-1.08-.22-1.47-.613a2.097 2.097 0 01-.61-1.478 2.101 2.101 0 01.6-1.521 2.078 2.078 0 011.505-.621 20.542 20.542 0 013.068.025c.558.076 1.09.484 1.649.74.558.254.38.357.558.357 3.829.025 7.633 0 11.31-1.225a9.74 9.74 0 001.192-.484l.66-.383z"/></g><defs><clipPath id="clip0_239_658"><path fill="#fff" d="M0 0h60v75H0z"/></clipPath></defs></svg>