<svg width="542" height="603" fill="none" xmlns="http://www.w3.org/2000/svg"><path d="M201.535 123.261a40.125 40.125 0 01-28.19-12.22 40.575 40.575 0 01-11.412-28.656 40.584 40.584 0 0110.502-27.61 40.15 40.15 0 0126.376-13.056 44.119 44.119 0 0114.163-27.639 43.66 43.66 0 0128.791-11.34 43.19 43.19 0 0121.399 5.915 43.495 43.495 0 0115.688 15.787 40.5 40.5 0 0123.258-7.796c8.1.018 15.996 2.56 22.6 7.277a39.384 39.384 0 0114.278 19.06 33.975 33.975 0 0110.476-1.474 40.035 40.035 0 0115.364 3.24 40.224 40.224 0 0112.961 8.906 40.478 40.478 0 018.585 13.216 40.657 40.657 0 012.902 15.514" stroke="#6C6C6C" stroke-width="2.7" stroke-miterlimit="8" stroke-linecap="square"/><g clip-path="url(#clip0_638_626)"><path d="M153.862 344.874l-6.466 7.855 17.328-1.571 1.552 17.545 6.465-7.856-1.551-17.545-17.328 1.572z" fill="#E9633E"/><path d="M225.501 298c-22.508 9.176-42.605 23.519-58.707 41.898l8.017-.786.776 10.213c15.492-18.047 35.243-31.83 57.414-40.065a65.298 65.298 0 01-7.5-11.26zm-64.139 57.61l-6.983.523c-17.268 25.615-26.465 55.926-26.379 86.939v4.19a66.763 66.763 0 0112.931-5.238c.184-26.41 7.616-52.249 21.465-74.63l-1.034-11.784z" fill="#6C6C6C"/></g><g clip-path="url(#clip1_638_626)"><path d="M273.963 591.449l11.625-11.551h-9.3l-11.626 11.551L276.288 603h9.3l-11.625-11.551z" fill="#E9633E"/><path d="M190 571.171a152.048 152.048 0 0074.145 24.899l-4.908-4.621 8.008-7.957a139.069 139.069 0 01-71.303-23.872A60.9 60.9 0 01190 571.171zm97.913 11.808l-8.525 8.47 4.908 4.621c30.404-1.782 59.568-12.603 83.704-31.059A77.64 77.64 0 01359.733 555c-20.782 15.91-45.692 25.614-71.82 27.979z" fill="#6C6C6C"/></g><g clip-path="url(#clip2_638_626)"><path d="M383.553 350.724l-17.202-3.588 5.473 8.458 17.202 3.332 3.649-16.916-5.473-8.202-3.649 16.916z" fill="#E9633E"/><path d="M329.34 301a62.687 62.687 0 01-8.34 10.252c17.519 7.582 33.3 18.567 46.394 32.296l13.292 2.563 1.303-5.895C367.451 323.635 349.508 310.27 329.34 301zm62.814 62.54l-10.165-2.051c14.579 21.208 22.963 45.943 24.24 71.511h13.032c-1.143-27.536-9.981-54.23-25.543-77.15l-1.564 7.69z" fill="#6C6C6C"/></g><path d="M179.772 568.112c7.143-2.607 11.906-5.734 11.906-9.905 0-38.313-14.551-19.547-35.981-35.707-.265 3.388-7.408 8.862-16.932 8.862-9.524 0-17.461-5.474-17.461-8.862-21.694 15.899-35.98-2.867-36.245 35.447 0 2.867 5.555 5.994 11.376 8.34" stroke="#EB5C2B" stroke-width=".9" stroke-miterlimit="8"/><path d="M111.514 495.133c.794 4.17 2.646 7.298 4.233 7.558a40.107 40.107 0 0011.905 17.724 17.605 17.605 0 0011.112 4.431 17.075 17.075 0 0010.847-4.171 40.096 40.096 0 0011.905-17.723c1.588-.521 3.44-3.649 3.969-7.298.529-3.649.264-5.734.264-5.734h-54.235a14.916 14.916 0 000 5.213v0zm-1.058-9.904h56.087c.982 0 1.925-.385 2.619-1.069a3.619 3.619 0 001.085-2.58c0-.968-.39-1.896-1.085-2.58a3.729 3.729 0 00-2.619-1.069h-.794a25.002 25.002 0 00-4.082-13.446 25.553 25.553 0 00-10.733-9.23l-2.381 11.729c0 1.043-.794 1.564-1.852 1.564h-.529a1.606 1.606 0 01-1.362-.623 1.547 1.547 0 01-.226-1.462l2.381-13.814a5.26 5.26 0 00-1.943-1.74 5.357 5.357 0 00-2.554-.606h-7.672c-.95.019-1.88.266-2.71.721a5.79 5.79 0 00-2.053 1.886l2.646 13.553a2.056 2.056 0 01-.33 1.477 2.123 2.123 0 01-1.257.869h-.529c-.492 0-.963-.193-1.31-.535a1.811 1.811 0 01-.542-1.29l-2.381-11.729a25.541 25.541 0 00-10.733 9.23 25.003 25.003 0 00-4.083 13.446h-1.058a4.007 4.007 0 00-2.717 1.051 3.892 3.892 0 00-1.252 2.598c.068.991.515 1.92 1.252 2.597a4.003 4.003 0 002.717 1.052v0z" stroke="#EB5C2B" stroke-width=".9" stroke-miterlimit="8"/><path clip-rule="evenodd" d="M173.421 545.958h-69.844c-1.123 0-2.2.439-2.993 1.221a4.138 4.138 0 00-1.24 2.949l2.381 40.659a4.135 4.135 0 001.145 2.861 4.26 4.26 0 002.823 1.31h65.083c1.122 0 2.199-.44 2.993-1.222a4.139 4.139 0 001.24-2.949l2.381-40.659a4.14 4.14 0 00-1.145-2.861 4.255 4.255 0 00-2.824-1.309v0z" stroke="#A6A6A6" stroke-width=".9" stroke-miterlimit="10"/><path d="M170.248 590.266l-61.379-.261" stroke="#A6A6A6" stroke-width=".9" stroke-miterlimit="10"/><path d="M445.123 501.233h27.588v-58.952H369.578v58.952h24.494" stroke="#A6A6A6" stroke-miterlimit="10"/><path d="M419.597 461.505c15.213.513 19.596 10.252 20.885 17.429v1.538c.297 1 .47 2.033.515 3.076h-.257v2.306c0 .513 0 1.026.257 1.026.258 0 1.29 3.332 1.29 3.332a32.63 32.63 0 00.257 4.87c-.773 3.588-2.062 6.151-3.609 6.407a36.145 36.145 0 01-10.313 14.866 13.45 13.45 0 01-9.153 3.59c-3.399 0-6.67-1.283-9.153-3.59a33.828 33.828 0 01-10.314-14.866c-1.547-.256-3.094-2.819-3.609-6.407a32.498 32.498 0 01-.258-4.87s.515-3.076 1.289-3.332c.773-.257-2.321-24.606 22.173-25.375z" stroke="#E9633E" stroke-miterlimit="8"/><path d="M448.217 568.643c13.149-2.563 23.205-7.177 23.205-13.585 0-39.984-14.181-20.248-35.065-37.165 0 3.589-6.962 9.227-16.244 9.227s-16.759-5.638-17.017-9.227c-20.884 16.917-34.807-2.819-34.807 37.165 0 6.408 22.947 13.328 22.947 13.328s23.463 7.433 56.981.257z" stroke="#E9633E" stroke-miterlimit="8"/><path d="M299.512 223.985c15.253 1.8 25.853 5.914 25.853 10.798 0 4.885-20.683 12.341-46.536 12.341-25.854 0-46.537-5.399-46.537-12.341 0-6.941 8.015-7.97 20.424-10.027" stroke="#EB5C2B" stroke-linejoin="bevel"/><path d="M263.317 180.277h38.781m-38.781 10.285H284m-20.683-20.569h38.781m-38.781-7.713h38.781" stroke="#91A1AA" stroke-linecap="round" stroke-linejoin="bevel"/><path d="M255.561 205.988v-56.563h54.292v57.591l-13.444 14.398h-8.79" stroke="#EB5C2B" stroke-linejoin="round"/><path d="M296.927 221.414v-15.426h12.927" stroke="#EB5C2B" stroke-linecap="round" stroke-linejoin="round"/><path d="M273.658 203.417v5.142m0 2.571v2.571" stroke="#EB5C2B" stroke-linejoin="bevel"/><path d="M263.317 208.559v2.571" stroke="#91A1AA" stroke-linejoin="bevel"/><path d="M263.317 213.701v5.142m0 2.571v2.571" stroke="#EB5C2B" stroke-linejoin="bevel"/><path d="M273.658 216.272v5.142" stroke="#91A1AA" stroke-linejoin="bevel"/><path d="M273.658 223.985v2.571" stroke="#EB5C2B" stroke-linejoin="bevel"/><path d="M273.658 229.127v5.142m7.756-28.281v5.142" stroke="#91A1AA" stroke-linejoin="bevel"/><path d="M281.414 213.701v2.571m0 2.571v5.142" stroke="#EB5C2B" stroke-linejoin="bevel"/><path d="M263.317 229.127v2.571" stroke="#91A1AA" stroke-linejoin="bevel"/><path d="M255.561 208.559v5.142" stroke="#EB5C2B" stroke-linejoin="bevel"/><path d="M255.561 216.272v2.571m18.097 17.997v5.142" stroke="#91A1AA" stroke-linejoin="bevel"/><path d="M281.414 226.556v5.142" stroke="#EB5C2B" stroke-linejoin="bevel"/><path d="M240.049 149.425h7.756m-7.756-7.713h25.853m-25.853-7.713h25.853" stroke="#91A1AA" stroke-linecap="round" stroke-linejoin="bevel"/><path d="M249.615 177.706h-14.737v-51.421h36.195v16.712" stroke="#EB5C2B" stroke-linejoin="round"/><path d="M317.609 162.28h10.342m-10.342-5.142h10.342m-10.342-7.713h10.342" stroke="#91A1AA" stroke-linecap="round" stroke-linejoin="bevel"/><path d="M299.513 144.283v-5.142h36.195v34.966l-11.376 11.312h-8.014" stroke="#EB5C2B" stroke-linejoin="round"/><path d="M322.781 185.42v-12.856h12.927" stroke="#EB5C2B" stroke-linecap="round" stroke-linejoin="round"/><path d="M241.342 299.831a24.147 24.147 0 01-5.171-2.057v-3.085a19.73 19.73 0 005.171 2.057v3.085zm12.151 3.856l-7.756-1.285v-3.857l7.756 1.543v3.599zm10.858 2.057l-7.756-.514v-2.057h7.756v2.571zm-21.975-24.939a19.695 19.695 0 01-5.171-2.057v-3.085l5.171 2.314v2.828zm12.151 3.343l-7.756-1.543v-3.6l7.756 1.286v3.857zm11.376 1.028l-7.756-.514v-2.057h7.756v2.571zm-24.045-25.453a34.074 34.074 0 01-5.17-3.086v-4.627a24.89 24.89 0 005.17 3.085v4.628zm12.669 2.571l-7.757-1.543v-3.599l7.757 1.285v3.857zm10.6 1.542l-7.757-.771v-4.371l7.757.772v4.37z" fill="#A6A6A6"/><path d="M325.365 235.041v66.847s-12.151 12.084-47.571 11.827c-35.419-.258-45.502-12.599-45.502-12.599v-66.332" stroke="#EB5C2B" stroke-width=".99" stroke-linejoin="bevel"/><path d="M325.365 283.119s-12.151 10.284-47.571 10.027c-35.419-.257-45.502-11.055-45.502-11.055m93.073-22.111s-12.151 10.284-47.571 10.027c-35.419-.257-45.502-11.056-45.502-11.056" stroke="#EB5C2B" stroke-width=".92" stroke-linejoin="bevel"/><path d="M42.33 396l-2.736-3.84c1.633-.528 2.56-1.76 2.56-3.52 0-2.4-1.728-3.84-4.576-3.84h-4.192V396h1.184v-3.552h3.008c.32 0 .608-.016.896-.048l2.56 3.6h1.297zm-4.783-4.56H34.57v-5.616h2.976c2.24 0 3.424 1.024 3.424 2.816 0 1.76-1.184 2.8-3.424 2.8zm14.506.352c0-2.528-1.712-4.272-4.08-4.272-2.368 0-4.112 1.776-4.112 4.272 0 2.496 1.792 4.288 4.416 4.288 1.328 0 2.496-.48 3.248-1.376l-.64-.736c-.64.736-1.552 1.104-2.576 1.104-1.84 0-3.184-1.168-3.312-2.928h7.04c0-.128.016-.256.016-.352zm-4.08-3.296c1.648 0 2.848 1.152 2.992 2.8h-5.968c.144-1.648 1.344-2.8 2.976-2.8zm9.102-.976c-1.328 0-2.576.416-3.424 1.136l.512.848c.688-.608 1.712-.992 2.8-.992 1.568 0 2.384.784 2.384 2.224v.512h-2.672c-2.416 0-3.248 1.088-3.248 2.384 0 1.456 1.168 2.448 3.072 2.448 1.392 0 2.384-.528 2.896-1.392V396h1.088v-5.216c0-2.176-1.232-3.264-3.408-3.264zm-.4 7.664c-1.344 0-2.128-.608-2.128-1.584 0-.864.528-1.504 2.16-1.504h2.64v1.376c-.448 1.104-1.392 1.712-2.672 1.712zm6.893.816h1.136v-11.872h-1.136V396zm3.673-3.84h4.192v-.992h-4.192v.992zm10.922 2.512c-.32.288-.784.432-1.248.432-.944 0-1.456-.544-1.456-1.536v-5.024h2.56v-.96h-2.56v-1.84h-1.136v1.84h-1.504v.96h1.504v5.088c0 1.552.88 2.448 2.464 2.448.656 0 1.328-.192 1.776-.592l-.4-.816zm3.044-8.928c.48 0 .832-.368.832-.832 0-.432-.368-.784-.832-.784-.464 0-.832.368-.832.8 0 .448.368.816.832.816zM80.63 396h1.136v-8.416H80.63V396zm14.793-8.48c-1.52 0-2.72.688-3.328 1.776-.512-1.184-1.6-1.776-2.992-1.776-1.408 0-2.496.592-3.088 1.6v-1.536h-1.088V396h1.136v-4.416c0-1.92 1.104-3.04 2.816-3.04 1.536 0 2.432.912 2.432 2.688V396h1.136v-4.416c0-1.92 1.088-3.04 2.816-3.04 1.52 0 2.416.912 2.416 2.688V396h1.136v-4.88c0-2.416-1.344-3.6-3.392-3.6zm13.848 4.272c0-2.528-1.712-4.272-4.08-4.272-2.368 0-4.112 1.776-4.112 4.272 0 2.496 1.792 4.288 4.416 4.288 1.328 0 2.496-.48 3.248-1.376l-.64-.736c-.64.736-1.552 1.104-2.576 1.104-1.84 0-3.184-1.168-3.312-2.928h7.04c0-.128.016-.256.016-.352zm-4.08-3.296c1.648 0 2.848 1.152 2.992 2.8h-5.968c.144-1.648 1.344-2.8 2.976-2.8zM20.84 416.08c2.192 0 3.472-.944 3.472-2.4 0-3.232-5.456-1.52-5.456-3.792 0-.8.672-1.392 2.192-1.392.864 0 1.744.208 2.48.72l.496-.912c-.704-.48-1.888-.784-2.976-.784-2.144 0-3.328 1.024-3.328 2.4 0 3.328 5.456 1.6 5.456 3.792 0 .832-.656 1.376-2.256 1.376-1.184 0-2.32-.416-2.992-.944l-.512.896c.688.592 2.032 1.04 3.424 1.04zm12.916-4.288c0-2.528-1.712-4.272-4.08-4.272-2.368 0-4.112 1.776-4.112 4.272 0 2.496 1.792 4.288 4.416 4.288 1.328 0 2.496-.48 3.248-1.376l-.64-.736c-.64.736-1.552 1.104-2.576 1.104-1.84 0-3.184-1.168-3.312-2.928h7.04c0-.128.016-.256.016-.352zm-4.08-3.296c1.648 0 2.848 1.152 2.992 2.8H26.7c.144-1.648 1.344-2.8 2.976-2.8zm10.68-.976c-1.456 0-2.592.592-3.2 1.616v-1.552h-1.088V416h1.136v-4.416c0-1.92 1.136-3.04 2.944-3.04 1.6 0 2.528.912 2.528 2.688V416h1.136v-4.88c0-2.416-1.408-3.6-3.456-3.6zm8.797 8.56c2.191 0 3.471-.944 3.471-2.4 0-3.232-5.456-1.52-5.456-3.792 0-.8.672-1.392 2.193-1.392.864 0 1.744.208 2.48.72l.495-.912c-.703-.48-1.887-.784-2.975-.784-2.144 0-3.328 1.024-3.328 2.4 0 3.328 5.456 1.6 5.456 3.792 0 .832-.656 1.376-2.256 1.376-1.184 0-2.32-.416-2.992-.944l-.513.896c.688.592 2.032 1.04 3.425 1.04zm9.012 0c2.464 0 4.272-1.792 4.272-4.288 0-2.496-1.808-4.272-4.272-4.272-2.464 0-4.288 1.776-4.288 4.272 0 2.496 1.824 4.288 4.288 4.288zm0-1.008c-1.792 0-3.136-1.312-3.136-3.28 0-1.968 1.344-3.28 3.136-3.28s3.12 1.312 3.12 3.28c0 1.968-1.328 3.28-3.12 3.28zm7.679-5.84v-1.648h-1.088V416h1.136v-4.288c0-1.984 1.072-3.104 2.832-3.104.08 0 .176.016.272.016v-1.104c-1.552 0-2.624.592-3.152 1.712zm16.065-5.104v5.056c-.704-1.088-1.856-1.664-3.2-1.664-2.4 0-4.192 1.728-4.192 4.272 0 2.544 1.792 4.288 4.192 4.288 1.392 0 2.56-.608 3.248-1.744V416h1.088v-11.872H81.91zm-3.104 10.944c-1.792 0-3.136-1.312-3.136-3.28 0-1.968 1.344-3.28 3.136-3.28 1.776 0 3.12 1.312 3.12 3.28 0 1.968-1.344 3.28-3.12 3.28zm10.348-7.552c-1.328 0-2.576.416-3.424 1.136l.512.848c.688-.608 1.712-.992 2.8-.992 1.568 0 2.384.784 2.384 2.224v.512h-2.672c-2.416 0-3.248 1.088-3.248 2.384 0 1.456 1.168 2.448 3.072 2.448 1.392 0 2.384-.528 2.896-1.392V416h1.088v-5.216c0-2.176-1.232-3.264-3.408-3.264zm-.4 7.664c-1.344 0-2.128-.608-2.128-1.584 0-.864.528-1.504 2.16-1.504h2.64v1.376c-.448 1.104-1.392 1.712-2.672 1.712zm10.925-.512c-.32.288-.784.432-1.248.432-.944 0-1.456-.544-1.456-1.536v-5.024h2.56v-.96h-2.56v-1.84h-1.136v1.84h-1.503v.96h1.504v5.088c0 1.552.88 2.448 2.463 2.448.656 0 1.328-.192 1.777-.592l-.4-.816zm5.413-7.152c-1.328 0-2.576.416-3.424 1.136l.512.848c.688-.608 1.712-.992 2.8-.992 1.568 0 2.384.784 2.384 2.224v.512h-2.672c-2.416 0-3.248 1.088-3.248 2.384 0 1.456 1.168 2.448 3.072 2.448 1.392 0 2.384-.528 2.896-1.392V416h1.088v-5.216c0-2.176-1.232-3.264-3.408-3.264zm-.4 7.664c-1.344 0-2.129-.608-2.129-1.584 0-.864.529-1.504 2.161-1.504h2.64v1.376c-.448 1.104-1.392 1.712-2.672 1.712zM352.768 220l-2.736-3.84c1.632-.528 2.56-1.76 2.56-3.52 0-2.4-1.728-3.84-4.576-3.84h-4.192V220h1.184v-3.552h3.008c.32 0 .608-.016.896-.048l2.56 3.6h1.296zm-4.784-4.56h-2.976v-5.616h2.976c2.24 0 3.424 1.024 3.424 2.816 0 1.76-1.184 2.8-3.424 2.8zm14.507.352c0-2.528-1.712-4.272-4.08-4.272-2.368 0-4.112 1.776-4.112 4.272 0 2.496 1.792 4.288 4.416 4.288 1.328 0 2.496-.48 3.248-1.376l-.64-.736c-.64.736-1.552 1.104-2.576 1.104-1.84 0-3.185-1.168-3.312-2.928h7.04c0-.128.016-.256.016-.352zm-4.08-3.296c1.648 0 2.848 1.152 2.992 2.8h-5.968c.144-1.648 1.344-2.8 2.976-2.8zm9.101-.976c-1.328 0-2.576.416-3.424 1.136l.512.848c.688-.608 1.712-.992 2.8-.992 1.568 0 2.384.784 2.384 2.224v.512h-2.672c-2.416 0-3.248 1.088-3.248 2.384 0 1.456 1.168 2.448 3.072 2.448 1.392 0 2.384-.528 2.896-1.392V220h1.088v-5.216c0-2.176-1.232-3.264-3.408-3.264zm-.4 7.664c-1.344 0-2.128-.608-2.128-1.584 0-.864.528-1.504 2.16-1.504h2.64v1.376c-.448 1.104-1.392 1.712-2.672 1.712zm6.894.816h1.136v-11.872h-1.136V220zm3.673-3.84h4.192v-.992h-4.192v.992zm10.921 2.512c-.32.288-.784.432-1.248.432-.944 0-1.456-.544-1.456-1.536v-5.024h2.56v-.96h-2.56v-1.84h-1.136v1.84h-1.504v.96h1.504v5.088c0 1.552.88 2.448 2.464 2.448.656 0 1.328-.192 1.776-.592l-.4-.816zm3.044-8.928c.48 0 .832-.368.832-.832 0-.432-.368-.784-.832-.784-.464 0-.832.368-.832.8 0 .448.368.816.832.816zM391.068 220h1.136v-8.416h-1.136V220zm14.793-8.48c-1.52 0-2.72.688-3.328 1.776-.512-1.184-1.6-1.776-2.992-1.776-1.408 0-2.496.592-3.088 1.6v-1.536h-1.088V220h1.136v-4.416c0-1.92 1.104-3.04 2.816-3.04 1.536 0 2.432.912 2.432 2.688V220h1.136v-4.416c0-1.92 1.088-3.04 2.816-3.04 1.52 0 2.416.912 2.416 2.688V220h1.136v-4.88c0-2.416-1.344-3.6-3.392-3.6zm13.848 4.272c0-2.528-1.712-4.272-4.08-4.272-2.368 0-4.112 1.776-4.112 4.272 0 2.496 1.792 4.288 4.416 4.288 1.328 0 2.496-.48 3.248-1.376l-.64-.736c-.64.736-1.552 1.104-2.576 1.104-1.84 0-3.184-1.168-3.312-2.928h7.04c0-.128.016-.256.016-.352zm-4.08-3.296c1.648 0 2.848 1.152 2.992 2.8h-5.968c.144-1.648 1.344-2.8 2.976-2.8zM347.92 231.52c-1.392 0-2.56.608-3.248 1.728v-1.664h-1.088v11.52h1.136v-4.688c.704 1.088 1.856 1.664 3.2 1.664 2.4 0 4.192-1.728 4.192-4.288 0-2.544-1.792-4.272-4.192-4.272zm-.08 7.552c-1.792 0-3.136-1.312-3.136-3.28 0-1.952 1.344-3.28 3.136-3.28 1.776 0 3.136 1.328 3.136 3.28 0 1.968-1.36 3.28-3.136 3.28zm7.676-5.84v-1.648h-1.088V240h1.136v-4.288c0-1.984 1.072-3.104 2.832-3.104.08 0 .176.016.272.016v-1.104c-1.552 0-2.624.592-3.152 1.712zm12.475 2.56c0-2.528-1.712-4.272-4.08-4.272-2.368 0-4.112 1.776-4.112 4.272 0 2.496 1.792 4.288 4.416 4.288 1.328 0 2.496-.48 3.248-1.376l-.64-.736c-.64.736-1.552 1.104-2.576 1.104-1.84 0-3.185-1.168-3.312-2.928h7.04c0-.128.016-.256.016-.352zm-4.08-3.296c1.648 0 2.848 1.152 2.992 2.8h-5.968c.144-1.648 1.344-2.8 2.976-2.8zm12.936-4.368v5.056c-.704-1.088-1.856-1.664-3.2-1.664-2.4 0-4.192 1.728-4.192 4.272 0 2.544 1.792 4.288 4.192 4.288 1.392 0 2.56-.608 3.248-1.744V240h1.088v-11.872h-1.136zm-3.104 10.944c-1.792 0-3.136-1.312-3.136-3.28 0-1.968 1.344-3.28 3.136-3.28 1.776 0 3.12 1.312 3.12 3.28 0 1.968-1.344 3.28-3.12 3.28zm7.98-9.328c.48 0 .832-.368.832-.832 0-.432-.368-.784-.832-.784-.464 0-.832.368-.832.8 0 .448.368.816.832.816zM381.147 240h1.136v-8.416h-1.136V240zm7.784.08c1.424 0 2.624-.576 3.296-1.664l-.848-.576c-.576.848-1.472 1.232-2.448 1.232-1.84 0-3.184-1.296-3.184-3.28 0-1.968 1.344-3.28 3.184-3.28.976 0 1.872.4 2.448 1.248l.848-.576c-.672-1.104-1.872-1.664-3.296-1.664-2.512 0-4.336 1.76-4.336 4.272 0 2.512 1.824 4.288 4.336 4.288zm9.654-1.408c-.32.288-.784.432-1.248.432-.944 0-1.456-.544-1.456-1.536v-5.024h2.56v-.96h-2.56v-1.84h-1.136v1.84h-1.504v.96h1.504v5.088c0 1.552.88 2.448 2.464 2.448.656 0 1.328-.192 1.776-.592l-.4-.816zm3.044-8.928c.48 0 .832-.368.832-.832 0-.432-.368-.784-.832-.784-.464 0-.832.368-.832.8 0 .448.368.816.832.816zM401.053 240h1.136v-8.416h-1.136V240zm7.737.08c2.464 0 4.272-1.792 4.272-4.288 0-2.496-1.808-4.272-4.272-4.272-2.464 0-4.288 1.776-4.288 4.272 0 2.496 1.824 4.288 4.288 4.288zm0-1.008c-1.792 0-3.136-1.312-3.136-3.28 0-1.968 1.344-3.28 3.136-3.28s3.12 1.312 3.12 3.28c0 1.968-1.328 3.28-3.12 3.28zm10.879-7.552c-1.456 0-2.592.592-3.2 1.616v-1.552h-1.088V240h1.136v-4.416c0-1.92 1.136-3.04 2.944-3.04 1.6 0 2.528.912 2.528 2.688V240h1.136v-4.88c0-2.416-1.408-3.6-3.456-3.6zm8.796 8.56c2.192 0 3.472-.944 3.472-2.4 0-3.232-5.456-1.52-5.456-3.792 0-.8.672-1.392 2.192-1.392.864 0 1.744.208 2.48.72l.496-.912c-.704-.48-1.888-.784-2.976-.784-2.144 0-3.328 1.024-3.328 2.4 0 3.328 5.456 1.6 5.456 3.792 0 .832-.656 1.376-2.256 1.376-1.184 0-2.32-.416-2.992-.944l-.512.896c.688.592 2.032 1.04 3.424 1.04zm-75.969 19.344l-1.6-1.648c.448-.704.784-1.568.992-2.576l-.928-.288c-.16.848-.416 1.568-.752 2.16l-3.072-3.168c1.824-1.056 2.496-1.84 2.496-2.96 0-1.392-1.024-2.224-2.608-2.224-1.728 0-2.832.96-2.832 2.384 0 .864.32 1.536 1.408 2.656-2.048 1.184-2.816 2.16-2.816 3.488 0 1.696 1.568 2.848 3.76 2.848 1.52 0 2.8-.512 3.744-1.52l1.552 1.6.656-.752zm-5.472-9.856c1.04 0 1.632.56 1.632 1.392 0 .8-.528 1.36-2.144 2.288-1.024-1.04-1.264-1.504-1.264-2.16 0-.896.656-1.52 1.776-1.52zm-.416 9.584c-1.616 0-2.704-.8-2.704-2.016 0-.992.544-1.696 2.336-2.72l3.376 3.472c-.768.848-1.792 1.264-3.008 1.264zm15.307.928c2.464 0 4.272-1.792 4.272-4.288 0-2.496-1.808-4.272-4.272-4.272-2.464 0-4.288 1.776-4.288 4.272 0 2.496 1.824 4.288 4.288 4.288zm0-1.008c-1.792 0-3.136-1.312-3.136-3.28 0-1.968 1.344-3.28 3.136-3.28s3.12 1.312 3.12 3.28c0 1.968-1.328 3.28-3.12 3.28zm10.927-7.552c-1.392 0-2.56.608-3.248 1.728v-1.664h-1.088v11.52h1.136v-4.688c.704 1.088 1.856 1.664 3.2 1.664 2.4 0 4.192-1.728 4.192-4.288 0-2.544-1.792-4.272-4.192-4.272zm-.08 7.552c-1.792 0-3.136-1.312-3.136-3.28 0-1.952 1.344-3.28 3.136-3.28 1.776 0 3.136 1.328 3.136 3.28 0 1.968-1.36 3.28-3.136 3.28zm10.62-.4c-.32.288-.784.432-1.248.432-.944 0-1.456-.544-1.456-1.536v-5.024h2.56v-.96h-2.56v-1.84h-1.136v1.84h-1.504v.96h1.504v5.088c0 1.552.88 2.448 2.464 2.448.656 0 1.328-.192 1.776-.592l-.4-.816zm3.044-8.928c.48 0 .832-.368.832-.832 0-.432-.368-.784-.832-.784-.464 0-.832.368-.832.8 0 .448.368.816.832.816zM385.85 260h1.136v-8.416h-1.136V260zm14.793-8.48c-1.52 0-2.72.688-3.328 1.776-.512-1.184-1.6-1.776-2.992-1.776-1.408 0-2.496.592-3.088 1.6v-1.536h-1.088V260h1.136v-4.416c0-1.92 1.104-3.04 2.816-3.04 1.536 0 2.432.912 2.432 2.688V260h1.136v-4.416c0-1.92 1.088-3.04 2.816-3.04 1.52 0 2.416.912 2.416 2.688V260h1.136v-4.88c0-2.416-1.344-3.6-3.392-3.6zm7.048-1.776c.48 0 .832-.368.832-.832 0-.432-.368-.784-.832-.784-.464 0-.832.368-.832.8 0 .448.368.816.832.816zM407.115 260h1.136v-8.416h-1.136V260zm4.841-.944l5.296-6.72v-.752h-6.656v.96h5.2l-5.296 6.704V260h6.848v-.944h-5.392zm10.572-7.536c-1.328 0-2.576.416-3.424 1.136l.512.848c.688-.608 1.712-.992 2.8-.992 1.568 0 2.384.784 2.384 2.224v.512h-2.672c-2.416 0-3.248 1.088-3.248 2.384 0 1.456 1.168 2.448 3.072 2.448 1.392 0 2.384-.528 2.896-1.392V260h1.088v-5.216c0-2.176-1.232-3.264-3.408-3.264zm-.4 7.664c-1.344 0-2.128-.608-2.128-1.584 0-.864.528-1.504 2.16-1.504h2.64v1.376c-.448 1.104-1.392 1.712-2.672 1.712zm10.926-.512c-.32.288-.784.432-1.248.432-.944 0-1.456-.544-1.456-1.536v-5.024h2.56v-.96h-2.56v-1.84h-1.136v1.84h-1.504v.96h1.504v5.088c0 1.552.88 2.448 2.464 2.448.656 0 1.328-.192 1.776-.592l-.4-.816zm3.044-8.928c.48 0 .832-.368.832-.832 0-.432-.368-.784-.832-.784-.464 0-.832.368-.832.8 0 .448.368.816.832.816zM435.522 260h1.136v-8.416h-1.136V260zm7.736.08c2.464 0 4.272-1.792 4.272-4.288 0-2.496-1.808-4.272-4.272-4.272-2.464 0-4.288 1.776-4.288 4.272 0 2.496 1.824 4.288 4.288 4.288zm0-1.008c-1.792 0-3.136-1.312-3.136-3.28 0-1.968 1.344-3.28 3.136-3.28s3.12 1.312 3.12 3.28c0 1.968-1.328 3.28-3.12 3.28zm10.88-7.552c-1.456 0-2.592.592-3.2 1.616v-1.552h-1.088V260h1.136v-4.416c0-1.92 1.136-3.04 2.944-3.04 1.6 0 2.528.912 2.528 2.688V260h1.136v-4.88c0-2.416-1.408-3.6-3.456-3.6zM445.48 384.8l-4.816 8.304-4.864-8.304h-.976V396h1.136v-8.912l4.4 7.488h.56l4.4-7.536V396h1.136v-11.2h-.976zm7.825 11.28c2.464 0 4.272-1.792 4.272-4.288 0-2.496-1.808-4.272-4.272-4.272-2.464 0-4.288 1.776-4.288 4.272 0 2.496 1.824 4.288 4.288 4.288zm0-1.008c-1.792 0-3.136-1.312-3.136-3.28 0-1.968 1.344-3.28 3.136-3.28s3.12 1.312 3.12 3.28c0 1.968-1.328 3.28-3.12 3.28zm10.88-7.552c-1.456 0-2.592.592-3.2 1.616v-1.552h-1.088V396h1.136v-4.416c0-1.92 1.136-3.04 2.944-3.04 1.6 0 2.528.912 2.528 2.688V396h1.136v-4.88c0-2.416-1.408-3.6-3.456-3.6zm7.116-1.776c.48 0 .832-.368.832-.832 0-.432-.368-.784-.832-.784-.464 0-.832.368-.832.8 0 .448.368.816.832.816zM470.725 396h1.136v-8.416h-1.136V396zm8.329-1.328c-.32.288-.784.432-1.248.432-.944 0-1.456-.544-1.456-1.536v-5.024h2.56v-.96h-2.56v-1.84h-1.136v1.84h-1.504v.96h1.504v5.088c0 1.552.88 2.448 2.464 2.448.656 0 1.328-.192 1.776-.592l-.4-.816zm5.611 1.408c2.464 0 4.272-1.792 4.272-4.288 0-2.496-1.808-4.272-4.272-4.272-2.464 0-4.288 1.776-4.288 4.272 0 2.496 1.824 4.288 4.288 4.288zm0-1.008c-1.792 0-3.136-1.312-3.136-3.28 0-1.968 1.344-3.28 3.136-3.28s3.12 1.312 3.12 3.28c0 1.968-1.328 3.28-3.12 3.28zm7.679-5.84v-1.648h-1.088V396h1.136v-4.288c0-1.984 1.072-3.104 2.832-3.104.08 0 .176.016.272.016v-1.104c-1.552 0-2.624.592-3.152 1.712zm5.785-3.488c.48 0 .832-.368.832-.832 0-.432-.368-.784-.832-.784-.464 0-.832.368-.832.8 0 .448.368.816.832.816zM497.553 396h1.136v-8.416h-1.136V396zm8.585-8.48c-1.456 0-2.592.592-3.2 1.616v-1.552h-1.088V396h1.136v-4.416c0-1.92 1.136-3.04 2.944-3.04 1.6 0 2.528.912 2.528 2.688V396h1.136v-4.88c0-2.416-1.408-3.6-3.456-3.6zm13.275.064v1.616c-.704-1.104-1.92-1.68-3.328-1.68-2.4 0-4.224 1.648-4.224 4.064 0 2.416 1.824 4.096 4.224 4.096 1.376 0 2.576-.56 3.28-1.632v1.072c0 2.08-.976 3.056-3.104 3.056-1.296 0-2.512-.432-3.312-1.152l-.576.864c.88.832 2.384 1.296 3.92 1.296 2.784 0 4.208-1.312 4.208-4.208v-7.392h-1.088zm-3.216 7.088c-1.856 0-3.184-1.264-3.184-3.088s1.328-3.072 3.184-3.072 3.2 1.248 3.2 3.072-1.344 3.088-3.2 3.088zm-72.701 20.752l-1.6-1.648c.448-.704.784-1.568.992-2.576l-.928-.288c-.16.848-.416 1.568-.752 2.16l-3.072-3.168c1.824-1.056 2.496-1.84 2.496-2.96 0-1.392-1.024-2.224-2.608-2.224-1.728 0-2.832.96-2.832 2.384 0 .864.32 1.536 1.408 2.656-2.048 1.184-2.816 2.16-2.816 3.488 0 1.696 1.568 2.848 3.76 2.848 1.52 0 2.8-.512 3.744-1.52l1.552 1.6.656-.752zm-5.472-9.856c1.04 0 1.632.56 1.632 1.392 0 .8-.528 1.36-2.144 2.288-1.024-1.04-1.264-1.504-1.264-2.16 0-.896.656-1.52 1.776-1.52zm-.416 9.584c-1.616 0-2.704-.8-2.704-2.016 0-.992.544-1.696 2.336-2.72l3.376 3.472c-.768.848-1.792 1.264-3.008 1.264zm19.211-3.36c0-2.528-1.712-4.272-4.08-4.272-2.368 0-4.112 1.776-4.112 4.272 0 2.496 1.792 4.288 4.416 4.288 1.328 0 2.496-.48 3.248-1.376l-.64-.736c-.64.736-1.552 1.104-2.576 1.104-1.84 0-3.184-1.168-3.312-2.928h7.04c0-.128.016-.256.016-.352zm-4.08-3.296c1.648 0 2.848 1.152 2.992 2.8h-5.968c.144-1.648 1.344-2.8 2.976-2.8zm12.188-.912l-3.184 7.168-3.152-7.168h-1.184l3.728 8.416h1.168l3.744-8.416h-1.12zm5.414-.064c-1.328 0-2.576.416-3.424 1.136l.512.848c.688-.608 1.712-.992 2.8-.992 1.568 0 2.384.784 2.384 2.224v.512h-2.672c-2.416 0-3.248 1.088-3.248 2.384 0 1.456 1.168 2.448 3.072 2.448 1.392 0 2.384-.528 2.896-1.392V416h1.088v-5.216c0-2.176-1.232-3.264-3.408-3.264zm-.4 7.664c-1.344 0-2.129-.608-2.129-1.584 0-.864.529-1.504 2.161-1.504h2.64v1.376c-.448 1.104-1.392 1.712-2.672 1.712zm6.893.816h1.136v-11.872h-1.136V416zm10.745-8.416V412c0 1.92-1.104 3.056-2.864 3.056-1.6 0-2.528-.912-2.528-2.704v-4.768h-1.136v4.88c0 2.416 1.408 3.616 3.552 3.616 1.344 0 2.432-.592 3.024-1.616V416h1.088v-8.416h-1.136zm7.262-.064c-1.328 0-2.576.416-3.424 1.136l.512.848c.688-.608 1.712-.992 2.8-.992 1.568 0 2.384.784 2.384 2.224v.512h-2.672c-2.416 0-3.248 1.088-3.248 2.384 0 1.456 1.168 2.448 3.072 2.448 1.392 0 2.384-.528 2.896-1.392V416h1.088v-5.216c0-2.176-1.232-3.264-3.408-3.264zm-.4 7.664c-1.344 0-2.129-.608-2.129-1.584 0-.864.529-1.504 2.161-1.504h2.64v1.376c-.448 1.104-1.392 1.712-2.672 1.712zm10.925-.512c-.32.288-.784.432-1.248.432-.944 0-1.456-.544-1.456-1.536v-5.024h2.56v-.96h-2.56v-1.84h-1.136v1.84h-1.504v.96h1.504v5.088c0 1.552.88 2.448 2.464 2.448.656 0 1.328-.192 1.776-.592l-.4-.816zm3.044-8.928c.48 0 .832-.368.832-.832 0-.432-.368-.784-.832-.784-.464 0-.832.368-.832.8 0 .448.368.816.832.816zM507.834 416h1.136v-8.416h-1.136V416zm7.737.08c2.464 0 4.272-1.792 4.272-4.288 0-2.496-1.808-4.272-4.272-4.272-2.464 0-4.288 1.776-4.288 4.272 0 2.496 1.824 4.288 4.288 4.288zm0-1.008c-1.792 0-3.136-1.312-3.136-3.28 0-1.968 1.344-3.28 3.136-3.28s3.12 1.312 3.12 3.28c0 1.968-1.328 3.28-3.12 3.28zm10.879-7.552c-1.456 0-2.592.592-3.2 1.616v-1.552h-1.088V416h1.136v-4.416c0-1.92 1.136-3.04 2.944-3.04 1.6 0 2.528.912 2.528 2.688V416h1.136v-4.88c0-2.416-1.408-3.6-3.456-3.6zM215.857 106.561c2.204 0 4.172-.749 5.499-2.204l-1.006-1.005c-1.219 1.262-2.717 1.797-4.429 1.797-3.616 0-6.334-2.653-6.334-6.205s2.718-6.206 6.334-6.206c1.712 0 3.21.535 4.429 1.776l1.006-1.005c-1.327-1.455-3.295-2.183-5.478-2.183-4.515 0-7.853 3.231-7.853 7.618 0 4.386 3.338 7.617 7.832 7.617zm18.033 0c3.83 0 6.141-2.225 6.141-6.526v-8.58h-1.54v8.516c0 3.552-1.669 5.178-4.601 5.178-2.91 0-4.579-1.626-4.579-5.178v-8.516h-1.583v8.58c0 4.301 2.332 6.526 6.162 6.526zm26.041-.128l-3.659-5.136c2.182-.706 3.423-2.353 3.423-4.707 0-3.21-2.311-5.135-6.119-5.135h-5.606v14.978h1.583v-4.75h4.023c.428 0 .813-.022 1.198-.065l3.424 4.815h1.733zm-6.398-6.098h-3.98v-7.51h3.98c2.996 0 4.579 1.368 4.579 3.765 0 2.354-1.583 3.745-4.579 3.745zm25.027 6.098l-3.659-5.136c2.183-.706 3.424-2.353 3.424-4.707 0-3.21-2.311-5.135-6.12-5.135h-5.606v14.978h1.584v-4.75h4.022c.428 0 .813-.022 1.199-.065l3.423 4.815h1.733zm-6.397-6.098h-3.98v-7.51h3.98c2.995 0 4.579 1.368 4.579 3.765 0 2.354-1.584 3.745-4.579 3.745zm14.649 4.728V99.5h7.746v-1.348h-7.746v-5.328h8.688v-1.37h-10.271v14.979h10.592v-1.37h-9.009zm26.853-13.608v12.153l-9.65-12.153h-1.306v14.978h1.584V94.279l9.629 12.154h1.305V91.455h-1.562zm12.527 14.978h1.584V92.824h5.264v-1.37h-12.111v1.37h5.263v13.609z" fill="#fff"/><path d="M362 91.454l-6.441 11.106-6.505-11.106h-1.305v14.979h1.519V94.514l5.884 10.014h.749l5.885-10.078v11.983h1.519V91.454H362zm9.352 14.979h9.971v-1.37h-8.388V91.454h-1.583v14.979zM198.716 91.409h-13.202v15.023l13.202-15.023z" fill="#E9623E"/><path d="M382.599 96.417h.721V91.95h1.748v-.633h-4.217v.633h1.748v4.466zm8.689 0l-.007-5.1h-.597l-2.098 3.585-2.127-3.584h-.598v5.099h.7v-3.693l1.843 3.073h.335l1.843-3.095.007 3.715h.699z" fill="#fff"/><defs><clipPath id="clip0_638_626"><path fill="#fff" transform="translate(128 298)" d="M0 0h105v149H0z"/></clipPath><clipPath id="clip1_638_626"><path fill="#fff" transform="translate(190 555)" d="M0 0h178v48H0z"/></clipPath><clipPath id="clip2_638_626"><path fill="#fff" transform="translate(321 301)" d="M0 0h98v132H0z"/></clipPath></defs></svg>