<svg width="199" height="429" fill="none" xmlns="http://www.w3.org/2000/svg"><path d="M114.374 427.832s-61.496.467-92.011-1.869a327.595 327.595 0 0145.423-.234 288.125 288.125 0 01-47.054-3.738h37.27l-37.037-3.037 42.162-1.869-41.23-.701 66.854-4.205s-44.958-1.401-67.32.234l24.459-2.336-24.226-6.074a293.152 293.152 0 0134.941-2.804 221.31 221.31 0 01-37.27-1.635l38.202-2.57-37.27-2.803 31.912-4.906c-9.975.316-19.958-.31-29.816-1.869l31.68-2.337a187.548 187.548 0 00-32.38-.467c31.448.701 93.643-5.607 93.643-5.607s-58.235 2.103-87.353 1.869c5.59 2.103 11.647 1.636 17.47 1.168 47.288-3.504 142.095-7.242 142.095-7.242l-158.167-7.242 104.591-4.439-107.153.935 104.823-5.607c-34.941-.234-69.882.233-104.59.934a783.133 783.133 0 0193.642-4.439H38.669l69.416-2.569c-28.652-2.103-57.536-3.037-86.421-2.337 41.23-6.541 82.694-13.082 124.158-12.381H20.965a2276.462 2276.462 0 0198.068-5.607l-90.38-1.636 98.3-4.906-97.602-1.168 142.793-7.709-143.725-4.439a709.388 709.388 0 0173.843-5.84l-62.429.934c15.142-1.635 30.283-2.803 45.657-3.037l-55.207-.935c39.833-1.635 119.499.234 119.499.234s-78.735-3.271-118.102-2.803a616.14 616.14 0 0162.196-3.271l-69.883-1.168 51.713-6.308a150.74 150.74 0 01-25.157 0 118.037 118.037 0 0132.378-7.008c-7.996.547-16.024.391-23.993-.468 21.198.701 63.36.468 63.36.468l-65.689-4.439 17.937-1.168-45.424-.701 43.327-1.869c-8.728.278-17.463-.27-26.09-1.635l68.252-1.636-90.614-1.168a169.994 169.994 0 0134.476-2.102 337.239 337.239 0 00-37.504-5.607l20.499-.468-22.362-2.569 25.623-2.57c-8.584.317-17.176-.31-25.623-1.869l33.31-.935-27.953-1.869a182.007 182.007 0 0125.158-1.635l-20.499-2.57h4.659M26.09 2.644a57.145 57.145 0 0112.345-1.402L25.391 5.681c4.15-.203 8.307.19 12.346 1.168l-12.113 3.504 8.152.701-10.016 2.103 12.579 1.635a36.951 36.951 0 00-12.113 3.037l11.647.467a27.662 27.662 0 01-7.454 2.337c3.399.07 6.77.62 10.016 1.635a44.88 44.88 0 00-14.675 5.84h12.113a46.252 46.252 0 00-11.414 3.505l12.579 1.168-11.647 2.57a28.805 28.805 0 0110.948 1.401L21.897 40.49a58.538 58.538 0 0120.032 2.103l-14.675 1.402 25.624 3.27-23.76 2.804h39.134a282.25 282.25 0 00-28.186 3.971c11.47.005 22.922.943 34.242 2.804a359.74 359.74 0 00-31.913 2.102l48.685 2.57-49.15 3.27 98.767 3.271-73.377 2.337a744.344 744.344 0 0067.087 3.504L30.748 75.3a461.536 461.536 0 0159.633 3.27 530.306 530.306 0 00-54.508 0 541.903 541.903 0 0158.235 3.972 230.877 230.877 0 00-47.52 2.803c44.26-.934 144.191.234 144.191.234l-109.25 5.14 109.483 3.738L87.586 92.12l108.318 8.878h-92.711c-31.447 1.869-45.19 12.849-76.405 16.587a254.477 254.477 0 0037.737 3.037l-20.965 2.57c47.054-.701 141.395.701 141.395.701s-39.367 2.569-58.934 2.336l-43.56-.467 97.603 8.176-79.666.935c30.981-1.402 92.244 5.84 92.244 5.84s-58.002-.701-87.12.234L198 147.722l-94.108-.467 93.409 5.373s-67.786-3.037-101.562.934l18.169 3.271-18.635 3.971a115.01 115.01 0 0126.788 1.869 139.881 139.881 0 00-36.805 3.738c33.078-1.168 99.233 1.402 99.233 1.402h-96.67c22.362.234 44.957 1.402 67.087 3.504-25.391 1.402-50.781 1.636-76.405.935 13.67-.742 27.376-.43 40.998.934l-52.878 4.439 21.43 1.168a340.34 340.34 0 00-46.355 1.402 358.867 358.867 0 0152.412 3.271l-52.412 2.569 47.288 2.103c-21.431 1.402-43.095 3.271-64.525 5.84l14.442-.7-11.414 3.971h11.181l-11.88 4.906 9.085.935a18.392 18.392 0 01-5.358 3.27l8.62.935a10.002 10.002 0 01-5.591 2.336 55.28 55.28 0 0117.47 2.336l-24.925 6.074 21.664-2.102a49.066 49.066 0 00-17.005 6.775h20.5l-23.062 4.672h31.447l-32.379 4.439 14.675 2.336a18.146 18.146 0 01-10.482 3.972l16.539 1.401a118.032 118.032 0 01-21.897 4.673h17.704a57.645 57.645 0 00-15.374 2.803l-.699-3.504" stroke="#555" stroke-miterlimit="8"/><path d="M34.908 1l6.07 2.574-6.07 2.106 6.07 1.404-6.07 2.808 8.638 1.405-5.37 1.404c-.11.578-4.728 8.233-5.135 8.658a9.786 9.786 0 016.303 1.638l-14.24 2.808c1.4 1.17 5.836 3.043 7.704 2.574a7.221 7.221 0 016.069 1.872 18.657 18.657 0 01-6.77 3.51l6.303.469a11.662 11.662 0 01-6.303 3.276l6.303 1.404-12.606 3.276a59.846 59.846 0 0115.874.702l-6.77 2.808 9.572.468-6.537 2.106h8.637a28.196 28.196 0 00-8.87 2.809h10.738L37.71 54.12l14.006.936-11.438 2.808a61.483 61.483 0 0119.608 1.872L47.514 62.78a174.885 174.885 0 0146.921.702 293.226 293.226 0 01-40.385 5.617 214.195 214.195 0 0138.751 2.34l-67.697 1.404c25.912.468 52.057 2.34 77.969 5.148l-54.158 2.34c21.71.702 43.653 2.34 65.129 4.68A914.253 914.253 0 0016 90.393c36.65 2.34 86.139 2.808 123.022 1.17l-62.095 4.212a363.719 363.719 0 0157.66 4.212 15.841 15.841 0 01-9.805 2.34L164 105.603c-18.909 1.171-37.817 1.405-56.959 1.171l14.94 2.574c-31.981-.936-86.139 8.892-86.139 8.892s68.398 4.446 107.382 4.68c-30.347 0-91.041 3.043-91.041 3.043s32.448 1.404 48.322 3.744l-12.84 3.978 22.177 2.808-7.47.702a27.742 27.742 0 0114.707 5.616l-9.338.936 19.142 5.383-17.041 3.276a246.845 246.845 0 0141.552 1.404 233.138 233.138 0 00-69.798 5.85l34.549 3.042-31.514 2.107 23.577 3.744a118.55 118.55 0 00-24.044 4.914l11.205 1.17c-17.508-.234-52.524 3.978-52.524 3.978l14.474 3.978a89.166 89.166 0 00-14.94 1.639 83.818 83.818 0 0116.34 3.978c-11.905 1.404-28.48 4.446-28.48 4.446a117.232 117.232 0 0017.275 2.106l-18.208 4.914a83.205 83.205 0 0113.306 5.617l-13.306 4.212 10.038 1.638-8.404 2.574c3.175.245 6.27 1.12 9.104 2.574a16.306 16.306 0 01-6.536 2.808 25.87 25.87 0 0110.038 3.511l-13.54 3.978a43.55 43.55 0 0114.474 2.34l-17.975 3.744a90.343 90.343 0 0117.508 2.574 53.285 53.285 0 01-11.906 3.51l16.808 1.171a33.817 33.817 0 01-8.637 2.574l8.637 1.404-15.64 5.616 9.57 1.638a51.942 51.942 0 01-14.706 3.51 43.133 43.133 0 0113.54 2.106l-14.007 5.149 27.546 1.404-18.675 2.574a190.274 190.274 0 0032.68.702m-.521.396a39.627 39.627 0 00-11.418 3.287l12.816.704-10.02 4.695 12.584.704-13.283 3.521h19.574l-15.612 5.399 13.981 2.113-9.554 1.878a54.38 54.38 0 0112.35 2.113c-17.01 1.878-34.021 2.817-51.265 3.286a376.848 376.848 0 0158.722 1.644l-9.787 2.582a70.54 70.54 0 0115.613 1.643l-9.554 1.878c3.71-.48 7.48.005 10.952 1.409l-13.05 4.695a51.82 51.82 0 0113.516.939l-9.321 2.347c27.963 5.165 85.054 5.165 85.054 5.165s-69.907 1.173-104.861 2.582l14.214 1.643-59.887 1.878a533.094 533.094 0 0161.285 2.817l-13.049 3.287 19.807 1.878a23.855 23.855 0 01-10.719 2.347l10.486.939a32.696 32.696 0 01-13.05 4.93l-27.962 5.399 13.515.939c-11.418 0-29.594 3.052-40.779 4.226 14.215.234 35.42-1.409 49.634-.47a42.607 42.607 0 01-14.214 3.756c8.439.073 16.857.858 25.166 2.348l-11.65 1.643a31.51 31.51 0 0114.68 3.521l-10.02 3.991a32.178 32.178 0 0113.981 2.582l-6.525 2.113a62.46 62.46 0 0113.283 1.878l-36.818 8.451-9.088 2.817a30.343 30.343 0 0114.215 3.521l-5.593 1.643 5.36 1.174-6.06 1.174a28.56 28.56 0 007.225 3.286l-6.991 1.174c2.082-.084 10.214 4.778 12.117 5.634l-32.623 5.165 7.922.704c-6.058.235-17.942 1.408-17.942 1.408 2.547.211 5.055.763 7.456 1.644l-4.427 1.408s20.04 1.643 29.594 4.695a15.848 15.848 0 01-6.059 4.226h10.72l-3.729 1.878 6.758 4.225-4.194 1.643 11.59.901" stroke="#fff" stroke-miterlimit="10"/><path fill="#E9623E" d="M0 0h3v429H0z"/></svg>