<svg width="206" height="429" fill="none" xmlns="http://www.w3.org/2000/svg"><path fill="#E9623E" d="M.314 0h3v429h-3z"/><path d="M83.912.23v25.86l-21.26.694h18.526V44.33l-12.452 1.386 13.363 4.156 45.556.462V85.66" stroke="#E9623E" stroke-width="1.76" stroke-miterlimit="10"/><path d="M127.644 50.335h-23.993v15.608h23.993V50.335zM104.26 83.583h24.296l-1.215-11.775h-23.992l.911 11.775zm87.162 10.621h-33.407v12.169h33.407V94.204zm-20.955 62.111l27.941-.462v-27.245l-27.941.461v27.246zm1.215 37.636l26.118-.231v-25.63l-26.118.231v25.63zm0 16.162l.303 19.857h25.208l-.304-19.857h-25.207zm11.843 32.556v18.241l13.667.23v-18.471h-13.667zm.912 27.938v18.241h13.666v-18.241h-13.666zm0 28.4v18.241l13.666.23v-18.471h-13.666zm-.912 27.014v18.472h13.667v-18.241l-13.667-.231zm.912 29.324v18.241h13.666v-18.241h-13.666z" fill="#E9623E"/><path d="M191.119 91.203v23.089h8.808m-3.646 12.007v33.248m-1.822 6.234v30.478m1.822 11.545v25.629m1.823 5.542v25.86m-.912 27.014v-24.474m.912 113.368v-29.092m-2.734-4.849v-20.55m1.822-30.939v25.629" stroke="#E9623E" stroke-width="1.76" stroke-miterlimit="10"/><path d="M83 0v27.015H29.548l43.734 2.078s-69.549 1.385-66.815.692c2.733-.692 75.622 2.771 75.622 2.771l-1.822 12.7L4.645 46.64l67.726 1.385-54.363 2.078h88.074l-.912 33.018-32.8.692 29.156 2.078-95.06 6.004s83.52-3.926 78.356-3.233c-5.163.693-80.177 6.696-77.444 6.696l144.867.693s-14.274 2.54-11.541 2.54c2.733 0 16.096 1.385 16.096 1.385l-1.822 9.005s17.007 1.847 13.363 1.847c-3.645 0-15.185 1.385-15.185 1.385l17.007 3.464-58.615-.693-2.733 2.771-82.911-.693.911 6.003 24.904.693-4.252 2.078 66.511-1.385v4.156l51.629-.693-1.822 5.311 4.556 1.385v24.475L134.63 157.7l-2.734 3.925H11.326l-2.733 5.08H146.17l5.163 1.385h17.919v24.937l13.363 2.078-5.467 2.078 10.022 1.847-181.614 2.078.91 4.156h63.171l4.252 3.233h95.363v23.089h-50.719l-4.555 2.771H11.63l-5.163 3.925 9.718 1.385 7.897 2.771h162.177v6.003l-5.466 1.386v11.544l-68.637.693v3.463H6.466l13.364 1.848h160.963v10.852l-1.822 4.156 1.822 12.237h-80.178l-5.163 1.847H6.467l89.896 2.771h86.252v18.702H59.008l1.822 2.771-54.363-.693v2.771l53.452.693.91 3.232h123.608v18.933H50.807l-3.34 2.771H5.556v4.156H127.34l4.555 3.233h55.274v18.933H9.808l.91 2.771.912 1.385h137.274v4.618h38.266v3.463h14.275v16.856H10.719l.91 2.77-1.214 3.464h65.296l2.734 3.232h122.088V429" stroke="#A6A6A6" stroke-width="1.76" stroke-miterlimit="10"/></svg>