<svg width="542" height="603" viewBox="0 0 542 603" fill="none" xmlns="http://www.w3.org/2000/svg">
<path d="M201.535 123.261C190.901 123.094 180.766 118.701 173.345 111.041C165.924 103.381 161.821 93.0782 161.933 82.3847C161.845 72.1785 165.596 62.316 172.435 54.7744C179.275 47.2327 188.696 42.5694 198.811 41.7192C200.033 31.0808 205.068 21.2547 212.974 14.08C220.881 6.90521 231.116 2.87347 241.765 2.73926C249.287 2.81173 256.662 4.85054 263.164 8.65544C269.666 12.4603 275.073 17.9005 278.852 24.4416C285.622 19.4979 293.744 16.7754 302.11 16.6456C310.21 16.664 318.106 19.2065 324.71 23.9231C331.314 28.6397 336.302 35.2986 338.988 42.9834C342.383 41.9476 345.917 41.45 349.464 41.5085C354.748 41.5635 359.968 42.6645 364.828 44.7486C369.688 46.8327 374.092 49.859 377.789 53.6548C381.486 57.4505 384.403 61.9414 386.374 66.8709C388.345 71.8004 389.331 77.0721 389.276 82.3847" stroke="#6C6C6C" stroke-width="2.7" stroke-miterlimit="8" stroke-linecap="square"/>
<g clip-path="url(#clip0_638_626)">
<path d="M153.862 344.874L147.396 352.729L164.724 351.158L166.276 368.703L172.741 360.847L171.19 343.302L153.862 344.874Z" fill="#E9633E"/>
<path d="M225.501 298C202.993 307.176 182.896 321.519 166.794 339.898L174.811 339.112L175.587 349.325C191.079 331.278 210.83 317.495 233.001 309.26C230.121 305.781 227.607 302.007 225.501 298Z" fill="#6C6C6C"/>
<path d="M161.362 355.61L154.379 356.133C137.111 381.748 127.914 412.059 128 443.072V447.262C132.119 445.068 136.453 443.312 140.931 442.024C141.115 415.614 148.547 389.775 162.396 367.394L161.362 355.61Z" fill="#6C6C6C"/>
</g>
<g clip-path="url(#clip1_638_626)">
<path d="M273.963 591.449L285.588 579.898H276.288L264.662 591.449L276.288 603H285.588L273.963 591.449Z" fill="#E9633E"/>
<path d="M190 571.171C212.091 585.784 237.661 594.371 264.145 596.07L259.237 591.449L267.245 583.492C241.716 582.226 217.037 573.964 195.942 559.62C194.38 563.669 192.388 567.541 190 571.171Z" fill="#6C6C6C"/>
<path d="M287.913 582.979L279.388 591.449L284.296 596.07C314.7 594.288 343.864 583.467 368 565.011C364.968 561.909 362.203 558.56 359.733 555C338.951 570.91 314.041 580.614 287.913 582.979Z" fill="#6C6C6C"/>
</g>
<g clip-path="url(#clip2_638_626)">
<path d="M383.553 350.724L366.351 347.136L371.824 355.594L389.026 358.926L392.675 342.01L387.202 333.808L383.553 350.724Z" fill="#E9633E"/>
<path d="M329.34 301C326.934 304.696 324.138 308.132 321 311.252C338.519 318.834 354.3 329.819 367.394 343.548L380.686 346.111L381.989 340.216C367.451 323.635 349.508 310.27 329.34 301Z" fill="#6C6C6C"/>
<path d="M392.154 363.54L381.989 361.489C396.568 382.697 404.952 407.432 406.229 433H419.261C418.118 405.464 409.28 378.77 393.718 355.85L392.154 363.54Z" fill="#6C6C6C"/>
</g>
<path d="M179.772 568.112C186.915 565.505 191.678 562.378 191.678 558.207C191.678 519.894 177.127 538.66 155.697 522.5C155.432 525.888 148.289 531.362 138.765 531.362C129.241 531.362 121.304 525.888 121.304 522.5C99.6096 538.399 85.3232 519.633 85.0586 557.947C85.0586 560.814 90.6144 563.941 96.4348 566.287" stroke="#EB5C2B" stroke-width="0.9" stroke-miterlimit="8"/>
<path d="M111.514 495.133C112.308 499.303 114.16 502.431 115.747 502.691C118.027 509.546 122.14 515.668 127.652 520.415C130.709 523.137 134.645 524.707 138.764 524.846C142.766 524.763 146.609 523.285 149.611 520.675C155.124 515.929 159.236 509.806 161.516 502.952C163.104 502.431 164.956 499.303 165.485 495.654C166.014 492.005 165.749 489.92 165.749 489.92H111.514C111.208 491.645 111.208 493.408 111.514 495.133V495.133Z" stroke="#EB5C2B" stroke-width="0.9" stroke-miterlimit="8"/>
<path d="M110.456 485.229H166.543C167.525 485.229 168.468 484.844 169.162 484.16C169.857 483.476 170.247 482.548 170.247 481.58C170.247 480.612 169.857 479.684 169.162 479C168.468 478.315 167.525 477.931 166.543 477.931H165.749C165.704 473.159 164.289 468.497 161.667 464.485C159.045 460.472 155.324 457.272 150.934 455.255L148.553 466.984C148.553 468.027 147.759 468.548 146.701 468.548H146.172C145.91 468.563 145.649 468.514 145.411 468.405C145.174 468.296 144.967 468.132 144.81 467.925C144.653 467.719 144.55 467.477 144.511 467.222C144.471 466.967 144.497 466.706 144.584 466.463L146.965 452.649C146.476 451.917 145.808 451.319 145.022 450.909C144.236 450.499 143.357 450.29 142.468 450.303H134.796C133.846 450.322 132.916 450.569 132.086 451.024C131.256 451.478 130.551 452.126 130.033 452.91L132.679 466.463C132.761 466.979 132.643 467.506 132.349 467.94C132.055 468.374 131.606 468.684 131.092 468.809H130.563C130.071 468.809 129.6 468.616 129.253 468.274C128.906 467.932 128.711 467.468 128.711 466.984L126.33 455.255C121.939 457.272 118.218 460.472 115.597 464.485C112.975 468.497 111.559 473.159 111.514 477.931H110.456C109.448 477.929 108.476 478.305 107.739 478.982C107.002 479.66 106.555 480.589 106.487 481.58C106.555 482.571 107.002 483.5 107.739 484.177C108.476 484.855 109.448 485.231 110.456 485.229V485.229Z" stroke="#EB5C2B" stroke-width="0.9" stroke-miterlimit="8"/>
<path fill-rule="evenodd" clip-rule="evenodd" d="M173.421 545.958H103.577C102.454 545.958 101.377 546.397 100.584 547.179C99.7897 547.961 99.3438 549.022 99.3438 550.128L101.725 590.787C101.723 591.85 102.132 592.873 102.87 593.648C103.607 594.423 104.617 594.891 105.693 594.958H170.776C171.898 594.958 172.975 594.518 173.769 593.736C174.563 592.954 175.009 591.893 175.009 590.787L177.39 550.128C177.392 549.065 176.982 548.042 176.245 547.267C175.508 546.492 174.498 546.024 173.421 545.958V545.958Z" stroke="#A6A6A6" stroke-width="0.9" stroke-miterlimit="10"/>
<path d="M170.248 590.266L108.869 590.005" stroke="#A6A6A6" stroke-width="0.9" stroke-miterlimit="10"/>
<path d="M445.123 501.233H472.711V442.281H369.578V501.233H394.072" stroke="#A6A6A6" stroke-miterlimit="10"/>
<path d="M419.597 461.505C434.81 462.018 439.193 471.757 440.482 478.934V480.472C440.779 481.472 440.952 482.505 440.997 483.548H440.74V485.854C440.74 486.367 440.74 486.88 440.997 486.88C441.255 486.88 442.287 490.212 442.287 490.212C442.251 491.839 442.337 493.467 442.544 495.082C441.771 498.67 440.482 501.233 438.935 501.489C436.818 507.232 433.269 512.347 428.622 516.355C426.138 518.662 422.867 519.945 419.469 519.945C416.07 519.945 412.799 518.662 410.316 516.355C405.586 512.42 402.022 507.282 400.002 501.489C398.455 501.233 396.908 498.67 396.393 495.082C396.185 493.467 396.099 491.839 396.135 490.212C396.135 490.212 396.65 487.136 397.424 486.88C398.197 486.623 395.103 462.274 419.597 461.505Z" stroke="#E9633E" stroke-miterlimit="8"/>
<path d="M448.217 568.643C461.366 566.08 471.422 561.466 471.422 555.058C471.422 515.074 457.241 534.81 436.357 517.893C436.357 521.482 429.395 527.12 420.113 527.12C410.831 527.12 403.354 521.482 403.096 517.893C382.212 534.81 368.289 515.074 368.289 555.058C368.289 561.466 391.236 568.386 391.236 568.386C391.236 568.386 414.699 575.819 448.217 568.643Z" stroke="#E9633E" stroke-miterlimit="8"/>
<path d="M299.512 223.985C314.765 225.785 325.365 229.899 325.365 234.783C325.365 239.668 304.682 247.124 278.829 247.124C252.975 247.124 232.292 241.725 232.292 234.783C232.292 227.842 240.307 226.813 252.716 224.756" stroke="#EB5C2B" stroke-linejoin="bevel"/>
<path d="M263.317 180.277H302.098" stroke="#91A1AA" stroke-linecap="round" stroke-linejoin="bevel"/>
<path d="M263.317 190.562H284" stroke="#91A1AA" stroke-linecap="round" stroke-linejoin="bevel"/>
<path d="M263.317 169.993H302.098" stroke="#91A1AA" stroke-linecap="round" stroke-linejoin="bevel"/>
<path d="M263.317 162.28H302.098" stroke="#91A1AA" stroke-linecap="round" stroke-linejoin="bevel"/>
<path d="M255.561 205.988V149.425H309.853V207.016L296.409 221.414H287.619" stroke="#EB5C2B" stroke-linejoin="round"/>
<path d="M296.927 221.414V205.988H309.854" stroke="#EB5C2B" stroke-linecap="round" stroke-linejoin="round"/>
<path d="M273.658 203.417V208.559" stroke="#EB5C2B" stroke-linejoin="bevel"/>
<path d="M273.658 211.13V213.701" stroke="#EB5C2B" stroke-linejoin="bevel"/>
<path d="M263.317 208.559V211.13" stroke="#91A1AA" stroke-linejoin="bevel"/>
<path d="M263.317 213.701V218.843" stroke="#EB5C2B" stroke-linejoin="bevel"/>
<path d="M263.317 221.414V223.985" stroke="#EB5C2B" stroke-linejoin="bevel"/>
<path d="M273.658 216.272V221.414" stroke="#91A1AA" stroke-linejoin="bevel"/>
<path d="M273.658 223.985V226.556" stroke="#EB5C2B" stroke-linejoin="bevel"/>
<path d="M273.658 229.127V234.269" stroke="#91A1AA" stroke-linejoin="bevel"/>
<path d="M281.414 205.988V211.13" stroke="#91A1AA" stroke-linejoin="bevel"/>
<path d="M281.414 213.701V216.272" stroke="#EB5C2B" stroke-linejoin="bevel"/>
<path d="M281.414 218.843V223.985" stroke="#EB5C2B" stroke-linejoin="bevel"/>
<path d="M263.317 229.127V231.698" stroke="#91A1AA" stroke-linejoin="bevel"/>
<path d="M255.561 208.559V213.701" stroke="#EB5C2B" stroke-linejoin="bevel"/>
<path d="M255.561 216.272V218.843" stroke="#91A1AA" stroke-linejoin="bevel"/>
<path d="M273.658 236.84V241.982" stroke="#91A1AA" stroke-linejoin="bevel"/>
<path d="M281.414 226.556V231.698" stroke="#EB5C2B" stroke-linejoin="bevel"/>
<path d="M240.049 149.425H247.805" stroke="#91A1AA" stroke-linecap="round" stroke-linejoin="bevel"/>
<path d="M240.049 141.712H265.902" stroke="#91A1AA" stroke-linecap="round" stroke-linejoin="bevel"/>
<path d="M240.049 133.999H265.902" stroke="#91A1AA" stroke-linecap="round" stroke-linejoin="bevel"/>
<path d="M249.615 177.706H234.878V126.285H271.073V142.997" stroke="#EB5C2B" stroke-linejoin="round"/>
<path d="M317.609 162.28H327.951" stroke="#91A1AA" stroke-linecap="round" stroke-linejoin="bevel"/>
<path d="M317.609 157.138H327.951" stroke="#91A1AA" stroke-linecap="round" stroke-linejoin="bevel"/>
<path d="M317.609 149.425H327.951" stroke="#91A1AA" stroke-linecap="round" stroke-linejoin="bevel"/>
<path d="M299.513 144.283V139.141H335.708V174.107L324.332 185.419H316.318" stroke="#EB5C2B" stroke-linejoin="round"/>
<path d="M322.781 185.42V172.564H335.708" stroke="#EB5C2B" stroke-linecap="round" stroke-linejoin="round"/>
<path d="M241.342 299.831C239.544 299.347 237.809 298.656 236.171 297.774V294.689C237.788 295.615 239.529 296.308 241.342 296.746V299.831ZM253.493 303.687L245.737 302.402V298.545L253.493 300.088V303.687ZM264.351 305.744L256.595 305.23V303.173H264.351V305.744Z" fill="#A6A6A6"/>
<path d="M242.376 280.805C240.563 280.367 238.822 279.675 237.205 278.748V275.663L242.376 277.977V280.805ZM254.527 284.148L246.771 282.605V279.005L254.527 280.291V284.148ZM265.903 285.176L258.147 284.662V282.605H265.903V285.176Z" fill="#A6A6A6"/>
<path d="M241.858 259.723C240.046 258.848 238.316 257.816 236.688 256.637V252.01C238.279 253.243 240.015 254.279 241.858 255.095V259.723ZM254.527 262.294L246.77 260.751V257.152L254.527 258.437V262.294ZM265.127 263.836L257.37 263.065V258.694L265.127 259.466V263.836Z" fill="#A6A6A6"/>
<path d="M325.365 235.041V301.888C325.365 301.888 313.214 313.972 277.794 313.715C242.375 313.457 232.292 301.116 232.292 301.116V234.784" stroke="#EB5C2B" stroke-width="0.99" stroke-linejoin="bevel"/>
<path d="M325.365 283.119C325.365 283.119 313.214 293.403 277.794 293.146C242.375 292.889 232.292 282.091 232.292 282.091" stroke="#EB5C2B" stroke-width="0.92" stroke-linejoin="bevel"/>
<path d="M325.365 259.98C325.365 259.98 313.214 270.264 277.794 270.007C242.375 269.75 232.292 258.951 232.292 258.951" stroke="#EB5C2B" stroke-width="0.92" stroke-linejoin="bevel"/>
<path d="M42.3305 396L39.5945 392.16C41.2265 391.632 42.1545 390.4 42.1545 388.64C42.1545 386.24 40.4265 384.8 37.5785 384.8H33.3865V396H34.5705V392.448H37.5785C37.8985 392.448 38.1865 392.432 38.4745 392.4L41.0345 396H42.3305ZM37.5465 391.44H34.5705V385.824H37.5465C39.7865 385.824 40.9705 386.848 40.9705 388.64C40.9705 390.4 39.7865 391.44 37.5465 391.44ZM52.053 391.792C52.053 389.264 50.341 387.52 47.973 387.52C45.605 387.52 43.861 389.296 43.861 391.792C43.861 394.288 45.653 396.08 48.277 396.08C49.605 396.08 50.773 395.6 51.525 394.704L50.885 393.968C50.245 394.704 49.333 395.072 48.309 395.072C46.469 395.072 45.125 393.904 44.997 392.144H52.037C52.037 392.016 52.053 391.888 52.053 391.792ZM47.973 388.496C49.621 388.496 50.821 389.648 50.965 391.296H44.997C45.141 389.648 46.341 388.496 47.973 388.496ZM57.0749 387.52C55.7469 387.52 54.4989 387.936 53.6509 388.656L54.1629 389.504C54.8509 388.896 55.8749 388.512 56.9629 388.512C58.5309 388.512 59.3469 389.296 59.3469 390.736V391.248H56.6749C54.2589 391.248 53.4269 392.336 53.4269 393.632C53.4269 395.088 54.5949 396.08 56.4989 396.08C57.8909 396.08 58.8829 395.552 59.3949 394.688V396H60.4829V390.784C60.4829 388.608 59.2509 387.52 57.0749 387.52ZM56.6749 395.184C55.3309 395.184 54.5469 394.576 54.5469 393.6C54.5469 392.736 55.0749 392.096 56.7069 392.096H59.3469V393.472C58.8989 394.576 57.9549 395.184 56.6749 395.184ZM63.5684 396H64.7044V384.128H63.5684V396ZM67.2413 392.16H71.4333V391.168H67.2413V392.16ZM78.1629 394.672C77.8429 394.96 77.3789 395.104 76.9149 395.104C75.9709 395.104 75.4589 394.56 75.4589 393.568V388.544H78.0189V387.584H75.4589V385.744H74.3229V387.584H72.8189V388.544H74.3229V393.632C74.3229 395.184 75.2029 396.08 76.7869 396.08C77.4429 396.08 78.1149 395.888 78.5629 395.488L78.1629 394.672ZM81.2069 385.744C81.6869 385.744 82.0389 385.376 82.0389 384.912C82.0389 384.48 81.6709 384.128 81.2069 384.128C80.7429 384.128 80.3749 384.496 80.3749 384.928C80.3749 385.376 80.7429 385.744 81.2069 385.744ZM80.6309 396H81.7669V387.584H80.6309V396ZM95.4238 387.52C93.9038 387.52 92.7038 388.208 92.0958 389.296C91.5838 388.112 90.4958 387.52 89.1038 387.52C87.6958 387.52 86.6078 388.112 86.0158 389.12V387.584H84.9278V396H86.0638V391.584C86.0638 389.664 87.1678 388.544 88.8798 388.544C90.4158 388.544 91.3118 389.456 91.3118 391.232V396H92.4478V391.584C92.4478 389.664 93.5358 388.544 95.2638 388.544C96.7838 388.544 97.6798 389.456 97.6798 391.232V396H98.8158V391.12C98.8158 388.704 97.4718 387.52 95.4238 387.52ZM109.272 391.792C109.272 389.264 107.56 387.52 105.192 387.52C102.824 387.52 101.08 389.296 101.08 391.792C101.08 394.288 102.872 396.08 105.496 396.08C106.824 396.08 107.992 395.6 108.744 394.704L108.104 393.968C107.464 394.704 106.552 395.072 105.528 395.072C103.688 395.072 102.344 393.904 102.216 392.144H109.256C109.256 392.016 109.272 391.888 109.272 391.792ZM105.192 388.496C106.84 388.496 108.04 389.648 108.184 391.296H102.216C102.36 389.648 103.56 388.496 105.192 388.496ZM20.84 416.08C23.032 416.08 24.312 415.136 24.312 413.68C24.312 410.448 18.856 412.16 18.856 409.888C18.856 409.088 19.528 408.496 21.048 408.496C21.912 408.496 22.792 408.704 23.528 409.216L24.024 408.304C23.32 407.824 22.136 407.52 21.048 407.52C18.904 407.52 17.72 408.544 17.72 409.92C17.72 413.248 23.176 411.52 23.176 413.712C23.176 414.544 22.52 415.088 20.92 415.088C19.736 415.088 18.6 414.672 17.928 414.144L17.416 415.04C18.104 415.632 19.448 416.08 20.84 416.08ZM33.7561 411.792C33.7561 409.264 32.0441 407.52 29.6761 407.52C27.3081 407.52 25.5641 409.296 25.5641 411.792C25.5641 414.288 27.3561 416.08 29.9801 416.08C31.3081 416.08 32.4761 415.6 33.2281 414.704L32.5881 413.968C31.9481 414.704 31.0361 415.072 30.0121 415.072C28.1721 415.072 26.8281 413.904 26.7001 412.144H33.7401C33.7401 412.016 33.7561 411.888 33.7561 411.792ZM29.6761 408.496C31.3241 408.496 32.5241 409.648 32.6681 411.296H26.7001C26.8441 409.648 28.0441 408.496 29.6761 408.496ZM40.3564 407.52C38.9004 407.52 37.7644 408.112 37.1564 409.136V407.584H36.0684V416H37.2044V411.584C37.2044 409.664 38.3404 408.544 40.1484 408.544C41.7484 408.544 42.6764 409.456 42.6764 411.232V416H43.8124V411.12C43.8124 408.704 42.4044 407.52 40.3564 407.52ZM49.1525 416.08C51.3445 416.08 52.6245 415.136 52.6245 413.68C52.6245 410.448 47.1685 412.16 47.1685 409.888C47.1685 409.088 47.8405 408.496 49.3605 408.496C50.2245 408.496 51.1045 408.704 51.8405 409.216L52.3365 408.304C51.6325 407.824 50.4485 407.52 49.3605 407.52C47.2165 407.52 46.0325 408.544 46.0325 409.92C46.0325 413.248 51.4885 411.52 51.4885 413.712C51.4885 414.544 50.8325 415.088 49.2325 415.088C48.0485 415.088 46.9125 414.672 46.2405 414.144L45.7285 415.04C46.4165 415.632 47.7605 416.08 49.1525 416.08ZM58.1646 416.08C60.6286 416.08 62.4366 414.288 62.4366 411.792C62.4366 409.296 60.6286 407.52 58.1646 407.52C55.7006 407.52 53.8766 409.296 53.8766 411.792C53.8766 414.288 55.7006 416.08 58.1646 416.08ZM58.1646 415.072C56.3726 415.072 55.0286 413.76 55.0286 411.792C55.0286 409.824 56.3726 408.512 58.1646 408.512C59.9566 408.512 61.2846 409.824 61.2846 411.792C61.2846 413.76 59.9566 415.072 58.1646 415.072ZM65.8439 409.232V407.584H64.7559V416H65.8919V411.712C65.8919 409.728 66.9639 408.608 68.7239 408.608C68.8039 408.608 68.8999 408.624 68.9959 408.624V407.52C67.4439 407.52 66.3719 408.112 65.8439 409.232ZM81.9093 404.128V409.184C81.2053 408.096 80.0533 407.52 78.7093 407.52C76.3093 407.52 74.5173 409.248 74.5173 411.792C74.5173 414.336 76.3093 416.08 78.7093 416.08C80.1013 416.08 81.2693 415.472 81.9573 414.336V416H83.0453V404.128H81.9093ZM78.8053 415.072C77.0133 415.072 75.6693 413.76 75.6693 411.792C75.6693 409.824 77.0133 408.512 78.8053 408.512C80.5813 408.512 81.9253 409.824 81.9253 411.792C81.9253 413.76 80.5813 415.072 78.8053 415.072ZM89.153 407.52C87.825 407.52 86.577 407.936 85.729 408.656L86.241 409.504C86.929 408.896 87.953 408.512 89.041 408.512C90.609 408.512 91.425 409.296 91.425 410.736V411.248H88.753C86.337 411.248 85.505 412.336 85.505 413.632C85.505 415.088 86.673 416.08 88.577 416.08C89.969 416.08 90.961 415.552 91.473 414.688V416H92.561V410.784C92.561 408.608 91.329 407.52 89.153 407.52ZM88.753 415.184C87.409 415.184 86.625 414.576 86.625 413.6C86.625 412.736 87.153 412.096 88.785 412.096H91.425V413.472C90.977 414.576 90.033 415.184 88.753 415.184ZM99.6785 414.672C99.3585 414.96 98.8945 415.104 98.4305 415.104C97.4865 415.104 96.9745 414.56 96.9745 413.568V408.544H99.5345V407.584H96.9745V405.744H95.8385V407.584H94.3345V408.544H95.8385V413.632C95.8385 415.184 96.7185 416.08 98.3025 416.08C98.9585 416.08 99.6305 415.888 100.079 415.488L99.6785 414.672ZM105.091 407.52C103.763 407.52 102.515 407.936 101.667 408.656L102.179 409.504C102.867 408.896 103.891 408.512 104.979 408.512C106.547 408.512 107.363 409.296 107.363 410.736V411.248H104.691C102.275 411.248 101.443 412.336 101.443 413.632C101.443 415.088 102.611 416.08 104.515 416.08C105.907 416.08 106.899 415.552 107.411 414.688V416H108.499V410.784C108.499 408.608 107.267 407.52 105.091 407.52ZM104.691 415.184C103.347 415.184 102.562 414.576 102.562 413.6C102.562 412.736 103.091 412.096 104.723 412.096H107.363V413.472C106.915 414.576 105.971 415.184 104.691 415.184Z" fill="white"/>
<path d="M352.768 220L350.032 216.16C351.664 215.632 352.592 214.4 352.592 212.64C352.592 210.24 350.864 208.8 348.016 208.8H343.824V220H345.008V216.448H348.016C348.336 216.448 348.624 216.432 348.912 216.4L351.472 220H352.768ZM347.984 215.44H345.008V209.824H347.984C350.224 209.824 351.408 210.848 351.408 212.64C351.408 214.4 350.224 215.44 347.984 215.44ZM362.491 215.792C362.491 213.264 360.779 211.52 358.411 211.52C356.043 211.52 354.299 213.296 354.299 215.792C354.299 218.288 356.091 220.08 358.715 220.08C360.043 220.08 361.211 219.6 361.963 218.704L361.323 217.968C360.683 218.704 359.771 219.072 358.747 219.072C356.907 219.072 355.562 217.904 355.435 216.144H362.475C362.475 216.016 362.491 215.888 362.491 215.792ZM358.411 212.496C360.059 212.496 361.259 213.648 361.403 215.296H355.435C355.579 213.648 356.779 212.496 358.411 212.496ZM367.512 211.52C366.184 211.52 364.936 211.936 364.088 212.656L364.6 213.504C365.288 212.896 366.312 212.512 367.4 212.512C368.968 212.512 369.784 213.296 369.784 214.736V215.248H367.112C364.696 215.248 363.864 216.336 363.864 217.632C363.864 219.088 365.032 220.08 366.936 220.08C368.328 220.08 369.32 219.552 369.832 218.688V220H370.92V214.784C370.92 212.608 369.688 211.52 367.512 211.52ZM367.112 219.184C365.768 219.184 364.984 218.576 364.984 217.6C364.984 216.736 365.512 216.096 367.144 216.096H369.784V217.472C369.336 218.576 368.392 219.184 367.112 219.184ZM374.006 220H375.142V208.128H374.006V220ZM377.679 216.16H381.871V215.168H377.679V216.16ZM388.6 218.672C388.28 218.96 387.816 219.104 387.352 219.104C386.408 219.104 385.896 218.56 385.896 217.568V212.544H388.456V211.584H385.896V209.744H384.76V211.584H383.256V212.544H384.76V217.632C384.76 219.184 385.64 220.08 387.224 220.08C387.88 220.08 388.552 219.888 389 219.488L388.6 218.672ZM391.644 209.744C392.124 209.744 392.476 209.376 392.476 208.912C392.476 208.48 392.108 208.128 391.644 208.128C391.18 208.128 390.812 208.496 390.812 208.928C390.812 209.376 391.18 209.744 391.644 209.744ZM391.068 220H392.204V211.584H391.068V220ZM405.861 211.52C404.341 211.52 403.141 212.208 402.533 213.296C402.021 212.112 400.933 211.52 399.541 211.52C398.133 211.52 397.045 212.112 396.453 213.12V211.584H395.365V220H396.501V215.584C396.501 213.664 397.605 212.544 399.317 212.544C400.853 212.544 401.749 213.456 401.749 215.232V220H402.885V215.584C402.885 213.664 403.973 212.544 405.701 212.544C407.221 212.544 408.117 213.456 408.117 215.232V220H409.253V215.12C409.253 212.704 407.909 211.52 405.861 211.52ZM419.709 215.792C419.709 213.264 417.997 211.52 415.629 211.52C413.261 211.52 411.517 213.296 411.517 215.792C411.517 218.288 413.309 220.08 415.933 220.08C417.261 220.08 418.429 219.6 419.181 218.704L418.541 217.968C417.901 218.704 416.989 219.072 415.965 219.072C414.125 219.072 412.781 217.904 412.653 216.144H419.693C419.693 216.016 419.709 215.888 419.709 215.792ZM415.629 212.496C417.277 212.496 418.477 213.648 418.621 215.296H412.653C412.797 213.648 413.997 212.496 415.629 212.496ZM347.92 231.52C346.528 231.52 345.36 232.128 344.672 233.248V231.584H343.584V243.104H344.72V238.416C345.424 239.504 346.576 240.08 347.92 240.08C350.32 240.08 352.112 238.352 352.112 235.792C352.112 233.248 350.32 231.52 347.92 231.52ZM347.84 239.072C346.048 239.072 344.704 237.76 344.704 235.792C344.704 233.84 346.048 232.512 347.84 232.512C349.616 232.512 350.976 233.84 350.976 235.792C350.976 237.76 349.616 239.072 347.84 239.072ZM355.516 233.232V231.584H354.428V240H355.564V235.712C355.564 233.728 356.636 232.608 358.396 232.608C358.476 232.608 358.572 232.624 358.668 232.624V231.52C357.116 231.52 356.044 232.112 355.516 233.232ZM367.991 235.792C367.991 233.264 366.279 231.52 363.911 231.52C361.543 231.52 359.799 233.296 359.799 235.792C359.799 238.288 361.591 240.08 364.215 240.08C365.543 240.08 366.711 239.6 367.463 238.704L366.823 237.968C366.183 238.704 365.271 239.072 364.247 239.072C362.407 239.072 361.062 237.904 360.935 236.144H367.975C367.975 236.016 367.991 235.888 367.991 235.792ZM363.911 232.496C365.559 232.496 366.759 233.648 366.903 235.296H360.935C361.079 233.648 362.279 232.496 363.911 232.496ZM376.847 228.128V233.184C376.143 232.096 374.991 231.52 373.647 231.52C371.247 231.52 369.455 233.248 369.455 235.792C369.455 238.336 371.247 240.08 373.647 240.08C375.039 240.08 376.207 239.472 376.895 238.336V240H377.983V228.128H376.847ZM373.743 239.072C371.951 239.072 370.607 237.76 370.607 235.792C370.607 233.824 371.951 232.512 373.743 232.512C375.519 232.512 376.863 233.824 376.863 235.792C376.863 237.76 375.519 239.072 373.743 239.072ZM381.723 229.744C382.203 229.744 382.555 229.376 382.555 228.912C382.555 228.48 382.187 228.128 381.723 228.128C381.259 228.128 380.891 228.496 380.891 228.928C380.891 229.376 381.259 229.744 381.723 229.744ZM381.147 240H382.283V231.584H381.147V240ZM388.931 240.08C390.355 240.08 391.555 239.504 392.227 238.416L391.379 237.84C390.803 238.688 389.907 239.072 388.931 239.072C387.091 239.072 385.747 237.776 385.747 235.792C385.747 233.824 387.091 232.512 388.931 232.512C389.907 232.512 390.803 232.912 391.379 233.76L392.227 233.184C391.555 232.08 390.355 231.52 388.931 231.52C386.419 231.52 384.595 233.28 384.595 235.792C384.595 238.304 386.419 240.08 388.931 240.08ZM398.585 238.672C398.265 238.96 397.801 239.104 397.337 239.104C396.393 239.104 395.881 238.56 395.881 237.568V232.544H398.441V231.584H395.881V229.744H394.745V231.584H393.241V232.544H394.745V237.632C394.745 239.184 395.625 240.08 397.209 240.08C397.865 240.08 398.537 239.888 398.985 239.488L398.585 238.672ZM401.629 229.744C402.109 229.744 402.461 229.376 402.461 228.912C402.461 228.48 402.093 228.128 401.629 228.128C401.165 228.128 400.797 228.496 400.797 228.928C400.797 229.376 401.165 229.744 401.629 229.744ZM401.053 240H402.189V231.584H401.053V240ZM408.79 240.08C411.254 240.08 413.062 238.288 413.062 235.792C413.062 233.296 411.254 231.52 408.79 231.52C406.326 231.52 404.502 233.296 404.502 235.792C404.502 238.288 406.326 240.08 408.79 240.08ZM408.79 239.072C406.998 239.072 405.654 237.76 405.654 235.792C405.654 233.824 406.998 232.512 408.79 232.512C410.582 232.512 411.91 233.824 411.91 235.792C411.91 237.76 410.582 239.072 408.79 239.072ZM419.669 231.52C418.213 231.52 417.077 232.112 416.469 233.136V231.584H415.381V240H416.517V235.584C416.517 233.664 417.653 232.544 419.461 232.544C421.061 232.544 421.989 233.456 421.989 235.232V240H423.125V235.12C423.125 232.704 421.717 231.52 419.669 231.52ZM428.465 240.08C430.657 240.08 431.937 239.136 431.937 237.68C431.937 234.448 426.481 236.16 426.481 233.888C426.481 233.088 427.153 232.496 428.673 232.496C429.537 232.496 430.417 232.704 431.153 233.216L431.649 232.304C430.945 231.824 429.761 231.52 428.673 231.52C426.529 231.52 425.345 232.544 425.345 233.92C425.345 237.248 430.801 235.52 430.801 237.712C430.801 238.544 430.145 239.088 428.545 239.088C427.361 239.088 426.225 238.672 425.553 238.144L425.041 239.04C425.729 239.632 427.073 240.08 428.465 240.08ZM352.496 259.424L350.896 257.776C351.344 257.072 351.68 256.208 351.888 255.2L350.96 254.912C350.8 255.76 350.544 256.48 350.208 257.072L347.136 253.904C348.96 252.848 349.632 252.064 349.632 250.944C349.632 249.552 348.608 248.72 347.024 248.72C345.296 248.72 344.192 249.68 344.192 251.104C344.192 251.968 344.512 252.64 345.6 253.76C343.552 254.944 342.784 255.92 342.784 257.248C342.784 258.944 344.352 260.096 346.544 260.096C348.064 260.096 349.344 259.584 350.288 258.576L351.84 260.176L352.496 259.424ZM347.024 249.568C348.064 249.568 348.656 250.128 348.656 250.96C348.656 251.76 348.128 252.32 346.512 253.248C345.488 252.208 345.248 251.744 345.248 251.088C345.248 250.192 345.904 249.568 347.024 249.568ZM346.608 259.152C344.992 259.152 343.904 258.352 343.904 257.136C343.904 256.144 344.448 255.44 346.24 254.416L349.616 257.888C348.848 258.736 347.824 259.152 346.608 259.152ZM361.915 260.08C364.379 260.08 366.187 258.288 366.187 255.792C366.187 253.296 364.379 251.52 361.915 251.52C359.451 251.52 357.627 253.296 357.627 255.792C357.627 258.288 359.451 260.08 361.915 260.08ZM361.915 259.072C360.123 259.072 358.779 257.76 358.779 255.792C358.779 253.824 360.123 252.512 361.915 252.512C363.707 252.512 365.035 253.824 365.035 255.792C365.035 257.76 363.707 259.072 361.915 259.072ZM372.842 251.52C371.45 251.52 370.282 252.128 369.594 253.248V251.584H368.506V263.104H369.642V258.416C370.346 259.504 371.498 260.08 372.842 260.08C375.242 260.08 377.034 258.352 377.034 255.792C377.034 253.248 375.242 251.52 372.842 251.52ZM372.762 259.072C370.97 259.072 369.626 257.76 369.626 255.792C369.626 253.84 370.97 252.512 372.762 252.512C374.538 252.512 375.898 253.84 375.898 255.792C375.898 257.76 374.538 259.072 372.762 259.072ZM383.382 258.672C383.062 258.96 382.598 259.104 382.134 259.104C381.19 259.104 380.678 258.56 380.678 257.568V252.544H383.238V251.584H380.678V249.744H379.542V251.584H378.038V252.544H379.542V257.632C379.542 259.184 380.422 260.08 382.006 260.08C382.662 260.08 383.334 259.888 383.782 259.488L383.382 258.672ZM386.426 249.744C386.906 249.744 387.258 249.376 387.258 248.912C387.258 248.48 386.89 248.128 386.426 248.128C385.962 248.128 385.594 248.496 385.594 248.928C385.594 249.376 385.962 249.744 386.426 249.744ZM385.85 260H386.986V251.584H385.85V260ZM400.643 251.52C399.123 251.52 397.923 252.208 397.315 253.296C396.803 252.112 395.715 251.52 394.323 251.52C392.915 251.52 391.827 252.112 391.235 253.12V251.584H390.147V260H391.283V255.584C391.283 253.664 392.387 252.544 394.099 252.544C395.635 252.544 396.531 253.456 396.531 255.232V260H397.667V255.584C397.667 253.664 398.755 252.544 400.483 252.544C402.003 252.544 402.899 253.456 402.899 255.232V260H404.035V255.12C404.035 252.704 402.691 251.52 400.643 251.52ZM407.691 249.744C408.171 249.744 408.523 249.376 408.523 248.912C408.523 248.48 408.155 248.128 407.691 248.128C407.227 248.128 406.859 248.496 406.859 248.928C406.859 249.376 407.227 249.744 407.691 249.744ZM407.115 260H408.251V251.584H407.115V260ZM411.956 259.056L417.252 252.336V251.584H410.596V252.544H415.796L410.5 259.248V260H417.348V259.056H411.956ZM422.528 251.52C421.2 251.52 419.952 251.936 419.104 252.656L419.616 253.504C420.304 252.896 421.328 252.512 422.416 252.512C423.984 252.512 424.8 253.296 424.8 254.736V255.248H422.128C419.712 255.248 418.88 256.336 418.88 257.632C418.88 259.088 420.048 260.08 421.952 260.08C423.344 260.08 424.336 259.552 424.848 258.688V260H425.936V254.784C425.936 252.608 424.704 251.52 422.528 251.52ZM422.128 259.184C420.784 259.184 420 258.576 420 257.6C420 256.736 420.528 256.096 422.16 256.096H424.8V257.472C424.352 258.576 423.408 259.184 422.128 259.184ZM433.054 258.672C432.734 258.96 432.27 259.104 431.806 259.104C430.862 259.104 430.35 258.56 430.35 257.568V252.544H432.91V251.584H430.35V249.744H429.214V251.584H427.71V252.544H429.214V257.632C429.214 259.184 430.094 260.08 431.678 260.08C432.334 260.08 433.006 259.888 433.454 259.488L433.054 258.672ZM436.098 249.744C436.578 249.744 436.93 249.376 436.93 248.912C436.93 248.48 436.562 248.128 436.098 248.128C435.634 248.128 435.266 248.496 435.266 248.928C435.266 249.376 435.634 249.744 436.098 249.744ZM435.522 260H436.658V251.584H435.522V260ZM443.258 260.08C445.722 260.08 447.53 258.288 447.53 255.792C447.53 253.296 445.722 251.52 443.258 251.52C440.794 251.52 438.97 253.296 438.97 255.792C438.97 258.288 440.794 260.08 443.258 260.08ZM443.258 259.072C441.466 259.072 440.122 257.76 440.122 255.792C440.122 253.824 441.466 252.512 443.258 252.512C445.05 252.512 446.378 253.824 446.378 255.792C446.378 257.76 445.05 259.072 443.258 259.072ZM454.138 251.52C452.682 251.52 451.546 252.112 450.938 253.136V251.584H449.85V260H450.986V255.584C450.986 253.664 452.122 252.544 453.93 252.544C455.53 252.544 456.458 253.456 456.458 255.232V260H457.594V255.12C457.594 252.704 456.186 251.52 454.138 251.52Z" fill="white"/>
<path d="M445.48 384.8L440.664 393.104L435.8 384.8H434.824V396H435.96V387.088L440.36 394.576H440.92L445.32 387.04V396H446.456V384.8H445.48ZM453.305 396.08C455.769 396.08 457.577 394.288 457.577 391.792C457.577 389.296 455.769 387.52 453.305 387.52C450.841 387.52 449.017 389.296 449.017 391.792C449.017 394.288 450.841 396.08 453.305 396.08ZM453.305 395.072C451.513 395.072 450.169 393.76 450.169 391.792C450.169 389.824 451.513 388.512 453.305 388.512C455.097 388.512 456.425 389.824 456.425 391.792C456.425 393.76 455.097 395.072 453.305 395.072ZM464.185 387.52C462.729 387.52 461.593 388.112 460.985 389.136V387.584H459.897V396H461.033V391.584C461.033 389.664 462.169 388.544 463.977 388.544C465.577 388.544 466.505 389.456 466.505 391.232V396H467.641V391.12C467.641 388.704 466.233 387.52 464.185 387.52ZM471.301 385.744C471.781 385.744 472.133 385.376 472.133 384.912C472.133 384.48 471.765 384.128 471.301 384.128C470.837 384.128 470.469 384.496 470.469 384.928C470.469 385.376 470.837 385.744 471.301 385.744ZM470.725 396H471.861V387.584H470.725V396ZM479.054 394.672C478.734 394.96 478.27 395.104 477.806 395.104C476.862 395.104 476.35 394.56 476.35 393.568V388.544H478.91V387.584H476.35V385.744H475.214V387.584H473.71V388.544H475.214V393.632C475.214 395.184 476.094 396.08 477.678 396.08C478.334 396.08 479.006 395.888 479.454 395.488L479.054 394.672ZM484.665 396.08C487.129 396.08 488.937 394.288 488.937 391.792C488.937 389.296 487.129 387.52 484.665 387.52C482.201 387.52 480.377 389.296 480.377 391.792C480.377 394.288 482.201 396.08 484.665 396.08ZM484.665 395.072C482.873 395.072 481.529 393.76 481.529 391.792C481.529 389.824 482.873 388.512 484.665 388.512C486.457 388.512 487.785 389.824 487.785 391.792C487.785 393.76 486.457 395.072 484.665 395.072ZM492.344 389.232V387.584H491.256V396H492.392V391.712C492.392 389.728 493.464 388.608 495.224 388.608C495.304 388.608 495.4 388.624 495.496 388.624V387.52C493.944 387.52 492.872 388.112 492.344 389.232ZM498.129 385.744C498.609 385.744 498.961 385.376 498.961 384.912C498.961 384.48 498.593 384.128 498.129 384.128C497.665 384.128 497.297 384.496 497.297 384.928C497.297 385.376 497.665 385.744 498.129 385.744ZM497.553 396H498.689V387.584H497.553V396ZM506.138 387.52C504.682 387.52 503.546 388.112 502.938 389.136V387.584H501.85V396H502.986V391.584C502.986 389.664 504.122 388.544 505.93 388.544C507.53 388.544 508.458 389.456 508.458 391.232V396H509.594V391.12C509.594 388.704 508.186 387.52 506.138 387.52ZM519.413 387.584V389.2C518.709 388.096 517.493 387.52 516.085 387.52C513.685 387.52 511.861 389.168 511.861 391.584C511.861 394 513.685 395.68 516.085 395.68C517.461 395.68 518.661 395.12 519.365 394.048V395.12C519.365 397.2 518.389 398.176 516.261 398.176C514.965 398.176 513.749 397.744 512.949 397.024L512.373 397.888C513.253 398.72 514.757 399.184 516.293 399.184C519.077 399.184 520.501 397.872 520.501 394.976V387.584H519.413ZM516.197 394.672C514.341 394.672 513.013 393.408 513.013 391.584C513.013 389.76 514.341 388.512 516.197 388.512C518.053 388.512 519.397 389.76 519.397 391.584C519.397 393.408 518.053 394.672 516.197 394.672ZM443.496 415.424L441.896 413.776C442.344 413.072 442.68 412.208 442.888 411.2L441.96 410.912C441.8 411.76 441.544 412.48 441.208 413.072L438.136 409.904C439.96 408.848 440.632 408.064 440.632 406.944C440.632 405.552 439.608 404.72 438.024 404.72C436.296 404.72 435.192 405.68 435.192 407.104C435.192 407.968 435.512 408.64 436.6 409.76C434.552 410.944 433.784 411.92 433.784 413.248C433.784 414.944 435.352 416.096 437.544 416.096C439.064 416.096 440.344 415.584 441.288 414.576L442.84 416.176L443.496 415.424ZM438.024 405.568C439.064 405.568 439.656 406.128 439.656 406.96C439.656 407.76 439.128 408.32 437.512 409.248C436.488 408.208 436.248 407.744 436.248 407.088C436.248 406.192 436.904 405.568 438.024 405.568ZM437.608 415.152C435.992 415.152 434.904 414.352 434.904 413.136C434.904 412.144 435.448 411.44 437.24 410.416L440.616 413.888C439.848 414.736 438.824 415.152 437.608 415.152ZM456.819 411.792C456.819 409.264 455.107 407.52 452.739 407.52C450.371 407.52 448.627 409.296 448.627 411.792C448.627 414.288 450.419 416.08 453.043 416.08C454.371 416.08 455.539 415.6 456.291 414.704L455.651 413.968C455.011 414.704 454.099 415.072 453.075 415.072C451.235 415.072 449.891 413.904 449.763 412.144H456.803C456.803 412.016 456.819 411.888 456.819 411.792ZM452.739 408.496C454.387 408.496 455.587 409.648 455.731 411.296H449.763C449.907 409.648 451.107 408.496 452.739 408.496ZM464.927 407.584L461.743 414.752L458.591 407.584H457.407L461.135 416H462.303L466.047 407.584H464.927ZM470.341 407.52C469.013 407.52 467.765 407.936 466.917 408.656L467.429 409.504C468.117 408.896 469.141 408.512 470.229 408.512C471.797 408.512 472.613 409.296 472.613 410.736V411.248H469.941C467.525 411.248 466.693 412.336 466.693 413.632C466.693 415.088 467.861 416.08 469.765 416.08C471.157 416.08 472.149 415.552 472.661 414.688V416H473.749V410.784C473.749 408.608 472.517 407.52 470.341 407.52ZM469.941 415.184C468.597 415.184 467.812 414.576 467.812 413.6C467.812 412.736 468.341 412.096 469.973 412.096H472.613V413.472C472.165 414.576 471.221 415.184 469.941 415.184ZM476.834 416H477.97V404.128H476.834V416ZM487.579 407.584V412C487.579 413.92 486.475 415.056 484.715 415.056C483.115 415.056 482.187 414.144 482.187 412.352V407.584H481.051V412.464C481.051 414.88 482.459 416.08 484.603 416.08C485.947 416.08 487.035 415.488 487.627 414.464V416H488.715V407.584H487.579ZM494.841 407.52C493.513 407.52 492.265 407.936 491.417 408.656L491.929 409.504C492.617 408.896 493.641 408.512 494.729 408.512C496.297 408.512 497.113 409.296 497.113 410.736V411.248H494.441C492.025 411.248 491.193 412.336 491.193 413.632C491.193 415.088 492.361 416.08 494.265 416.08C495.657 416.08 496.649 415.552 497.161 414.688V416H498.249V410.784C498.249 408.608 497.017 407.52 494.841 407.52ZM494.441 415.184C493.097 415.184 492.312 414.576 492.312 413.6C492.312 412.736 492.841 412.096 494.473 412.096H497.113V413.472C496.665 414.576 495.721 415.184 494.441 415.184ZM505.366 414.672C505.046 414.96 504.582 415.104 504.118 415.104C503.174 415.104 502.662 414.56 502.662 413.568V408.544H505.222V407.584H502.662V405.744H501.526V407.584H500.022V408.544H501.526V413.632C501.526 415.184 502.406 416.08 503.99 416.08C504.646 416.08 505.318 415.888 505.766 415.488L505.366 414.672ZM508.41 405.744C508.89 405.744 509.242 405.376 509.242 404.912C509.242 404.48 508.874 404.128 508.41 404.128C507.946 404.128 507.578 404.496 507.578 404.928C507.578 405.376 507.946 405.744 508.41 405.744ZM507.834 416H508.97V407.584H507.834V416ZM515.571 416.08C518.035 416.08 519.843 414.288 519.843 411.792C519.843 409.296 518.035 407.52 515.571 407.52C513.107 407.52 511.283 409.296 511.283 411.792C511.283 414.288 513.107 416.08 515.571 416.08ZM515.571 415.072C513.779 415.072 512.435 413.76 512.435 411.792C512.435 409.824 513.779 408.512 515.571 408.512C517.363 408.512 518.691 409.824 518.691 411.792C518.691 413.76 517.363 415.072 515.571 415.072ZM526.45 407.52C524.994 407.52 523.858 408.112 523.25 409.136V407.584H522.162V416H523.298V411.584C523.298 409.664 524.434 408.544 526.242 408.544C527.842 408.544 528.77 409.456 528.77 411.232V416H529.906V411.12C529.906 408.704 528.498 407.52 526.45 407.52Z" fill="white"/>
<path d="M215.857 106.561C218.061 106.561 220.029 105.812 221.356 104.357L220.35 103.352C219.131 104.614 217.633 105.149 215.921 105.149C212.305 105.149 209.587 102.496 209.587 98.9437C209.587 95.3918 212.305 92.7385 215.921 92.7385C217.633 92.7385 219.131 93.2734 220.35 94.5145L221.356 93.5088C220.029 92.0538 218.061 91.3263 215.878 91.3263C211.363 91.3263 208.025 94.5573 208.025 98.9437C208.025 103.33 211.363 106.561 215.857 106.561Z" fill="white"/>
<path d="M233.89 106.561C237.72 106.561 240.031 104.336 240.031 100.035V91.4547H238.491V99.9708C238.491 103.523 236.822 105.149 233.89 105.149C230.98 105.149 229.311 103.523 229.311 99.9708V91.4547H227.728V100.035C227.728 104.336 230.06 106.561 233.89 106.561Z" fill="white"/>
<path d="M259.931 106.433L256.272 101.297C258.454 100.591 259.695 98.9437 259.695 96.59C259.695 93.3804 257.384 91.4547 253.576 91.4547H247.97V106.433H249.553V101.683H253.576C254.004 101.683 254.389 101.661 254.774 101.618L258.198 106.433H259.931ZM253.533 100.335H249.553V92.8241H253.533C256.529 92.8241 258.112 94.1935 258.112 96.59C258.112 98.9437 256.529 100.335 253.533 100.335Z" fill="white"/>
<path d="M278.56 106.433L274.901 101.297C277.084 100.591 278.325 98.9437 278.325 96.59C278.325 93.3804 276.014 91.4547 272.205 91.4547H266.599V106.433H268.183V101.683H272.205C272.633 101.683 273.018 101.661 273.404 101.618L276.827 106.433H278.56ZM272.163 100.335H268.183V92.8241H272.163C275.158 92.8241 276.742 94.1935 276.742 96.59C276.742 98.9437 275.158 100.335 272.163 100.335Z" fill="white"/>
<path d="M286.812 105.063V99.5001H294.558V98.152H286.812V92.8241H295.5V91.4547H285.229V106.433H295.821V105.063H286.812Z" fill="white"/>
<path d="M313.665 91.4547V103.608L304.015 91.4547H302.709V106.433H304.293V94.2791L313.922 106.433H315.227V91.4547H313.665Z" fill="white"/>
<path d="M326.192 106.433H327.776V92.8241H333.04V91.4547H320.929V92.8241H326.192V106.433Z" fill="white"/>
<path d="M362 91.4545L355.559 102.56L349.054 91.4545H347.749V106.433H349.268V94.5143L355.152 104.528H355.901L361.786 94.4501V106.433H363.305V91.4545H362Z" fill="#E9623E"/>
<path d="M371.352 106.433H381.323V105.063H372.935V91.4545H371.352V106.433Z" fill="#E9623E"/>
<path d="M198.716 91.4088H185.514V106.432L198.716 91.4088Z" fill="#E9623E"/>
<path d="M382.599 96.4167H383.32V91.9515H385.068V91.3177H380.851V91.9515H382.599V96.4167Z" fill="white"/>
<path d="M391.288 96.4167L391.281 91.3177H390.684L388.586 94.9016L386.459 91.3177H385.861V96.4167H386.561V92.7236L388.404 95.7975H388.739L390.582 92.7017L390.589 96.4167H391.288Z" fill="white"/>
<defs>
<clipPath id="clip0_638_626">
<rect width="105" height="149" fill="white" transform="translate(128 298)"/>
</clipPath>
<clipPath id="clip1_638_626">
<rect width="178" height="48" fill="white" transform="translate(190 555)"/>
</clipPath>
<clipPath id="clip2_638_626">
<rect width="98" height="132" fill="white" transform="translate(321 301)"/>
</clipPath>
</defs>
</svg>
