<svg width="199" height="429" viewBox="0 0 199 429" fill="none" xmlns="http://www.w3.org/2000/svg">
<path d="M114.374 427.832C114.374 427.832 52.878 428.299 22.3627 425.963C37.4804 424.834 52.6578 424.756 67.7863 425.729C52.0262 425.772 36.289 424.522 20.7321 421.991H58.0027L20.9651 418.954L63.1274 417.085L21.8968 416.384L88.751 412.179C88.751 412.179 43.7933 410.778 21.431 412.413L45.8898 410.077L21.6639 404.003C33.2451 402.372 44.9128 401.436 56.6051 401.199C44.1578 401.704 31.6903 401.157 19.3345 399.564L57.5369 396.994L20.2663 394.191L52.1792 389.285C42.2039 389.601 32.2211 388.975 22.3627 387.416L54.0427 385.079C43.2833 383.99 32.4502 383.834 21.6639 384.612C53.111 385.313 115.306 379.005 115.306 379.005C115.306 379.005 57.071 381.108 27.9533 380.874C33.5439 382.977 39.6004 382.51 45.4239 382.042C92.711 378.538 187.518 374.8 187.518 374.8L29.351 367.558L133.942 363.119L26.7886 364.054L131.612 358.447C96.6709 358.213 61.7298 358.68 27.0215 359.381C58.1197 356.033 89.3895 354.55 120.664 354.942H38.6686L108.085 352.373C79.4334 350.27 50.5486 349.336 21.6639 350.036C62.8945 343.495 104.358 336.954 145.822 337.655H20.9651C53.5769 335.085 86.1886 333.216 119.033 332.048L28.6522 330.412L126.953 325.506L29.351 324.338L172.144 316.629L28.4192 312.19C52.9155 308.959 77.563 307.009 102.262 306.35L39.8333 307.284C54.9745 305.649 70.1157 304.481 85.4898 304.247L30.2827 303.312C70.1157 301.677 149.782 303.546 149.782 303.546C149.782 303.546 71.0474 300.275 31.6804 300.743C52.3441 298.605 73.1023 297.513 93.8757 297.472L23.9933 296.304L75.7063 289.996C67.335 290.697 58.9199 290.697 50.5486 289.996C60.9605 286.149 71.8602 283.79 82.9274 282.988C74.9315 283.535 66.9032 283.379 58.9345 282.52C80.1322 283.221 122.294 282.988 122.294 282.988L56.6051 278.549L74.5416 277.381L29.118 276.68L72.4451 274.811C63.7167 275.089 54.9817 274.541 46.3557 273.176L114.607 271.54L23.9933 270.372C35.3845 268.503 46.9355 267.798 58.4686 268.27C46.0817 265.699 33.5609 263.827 20.9651 262.663L41.4639 262.195L19.1016 259.626L44.7251 257.056C36.1415 257.373 27.5491 256.746 19.1016 255.187L52.4122 254.252L24.4592 252.383C32.7975 251.257 41.2034 250.711 49.6169 250.748L29.118 248.178H33.7769" stroke="#555555" stroke-miterlimit="8"/>
<path d="M26.0894 2.6439C30.1419 1.72928 34.2815 1.25928 38.4353 1.24219L25.3906 5.68096C29.5404 5.47785 33.6978 5.8712 37.7365 6.84906L25.6236 10.3534L33.7765 11.0542L23.76 13.1568L36.3388 14.7921C32.1589 15.1097 28.0631 16.1367 24.2259 17.8292L35.873 18.2964C33.5106 19.424 31.001 20.2106 28.4188 20.6326C31.8178 20.7021 35.1899 21.2526 38.4353 22.268C33.2383 23.3313 28.27 25.3087 23.76 28.1085H35.873C31.9336 28.7783 28.0971 29.9562 24.4589 31.6128L37.0377 32.7809L25.3906 35.3507C29.0959 35.1078 32.8132 35.5837 36.3388 36.7524L21.8965 40.4903C28.645 40.0283 35.4225 40.7397 41.9294 42.5929L27.2541 43.9946L52.8777 47.2653L29.1177 50.0687H68.2518C58.796 50.9176 49.3888 52.2431 40.0659 54.0402C51.5368 54.045 62.9884 54.9826 74.3083 56.8437C63.593 57.0773 52.8777 57.7782 42.3953 58.9463L91.08 61.5161L41.9294 64.7868L140.697 68.0574L67.32 70.3936C89.6824 72.5741 112.045 73.7422 134.407 73.8979L30.7483 75.2997C50.6754 75.1013 70.5945 76.1938 90.3812 78.5703C72.2237 77.6359 54.0304 77.6359 35.873 78.5703C55.3416 78.847 74.7815 80.1727 94.1083 82.5419C78.2143 81.8365 62.2902 82.776 46.5883 85.3453C90.8471 84.4108 190.779 85.5789 190.779 85.5789L81.5294 90.7186L191.012 94.4565L87.5859 92.1203L195.904 100.998H103.193C71.7459 102.867 58.0024 113.847 26.7883 117.585C39.2747 119.533 51.8883 120.548 64.5247 120.622L43.56 123.192C90.6141 122.491 184.955 123.893 184.955 123.893C184.955 123.893 145.588 126.462 126.021 126.229L82.4612 125.762L180.064 133.938L100.398 134.873C131.379 133.471 192.642 140.713 192.642 140.713C192.642 140.713 134.64 140.012 105.522 140.947L198 147.722L103.892 147.255L197.301 152.628C197.301 152.628 129.515 149.591 95.7388 153.562L113.908 156.833L95.273 160.804C104.245 160.379 113.235 161.006 122.061 162.673C109.682 162.284 97.3063 163.541 85.2565 166.411C118.334 165.243 184.489 167.813 184.489 167.813H87.8188C110.181 168.047 132.776 169.215 154.906 171.317C129.515 172.719 104.125 172.953 78.5012 172.252C92.1708 171.51 105.877 171.822 119.499 173.186L66.6212 177.625L88.0518 178.793C72.5862 178.206 57.0987 178.674 41.6965 180.195C59.2232 180.004 76.7404 181.097 94.1083 183.466L41.6965 186.035L88.9836 188.138C67.553 189.54 45.8894 191.409 24.4589 193.978L38.9012 193.278L27.4871 197.249H38.6682L26.7883 202.155L35.873 203.09C34.2868 204.479 32.4746 205.586 30.5153 206.36L39.1342 207.295C37.5556 208.633 35.6028 209.45 33.5435 209.631C39.454 209.47 45.3521 210.259 51.0141 211.967L26.0894 218.041L47.753 215.939C41.7119 217.11 35.9437 219.408 30.7483 222.714H51.2471L28.1859 227.386H59.6329L27.2541 231.825L41.9294 234.161C38.9398 236.559 35.2711 237.949 31.4471 238.133L47.9859 239.534C40.8507 241.782 33.5191 243.347 26.0894 244.207H43.793C38.5653 244.439 33.3933 245.382 28.4188 247.01L27.72 243.506" stroke="#555555" stroke-miterlimit="8"/>
<path d="M34.9085 1L40.9779 3.57414L34.9085 5.68025L40.9779 7.08432L34.9085 9.89247L43.5457 11.2965L38.1767 12.7006C38.0666 13.2792 33.448 20.9343 33.041 21.3591C35.2667 21.1694 37.4904 21.7473 39.3438 22.9972L25.1041 25.8053C26.5047 26.9754 30.9401 28.8475 32.8076 28.3794C33.8946 28.2084 35.0063 28.2881 36.0581 28.6125C37.1098 28.9369 38.0738 29.4974 38.8769 30.2515C36.8851 31.8757 34.5805 33.0706 32.1072 33.7617L38.4101 34.2297C36.6995 35.9514 34.4966 37.0964 32.1072 37.5059L38.4101 38.91L25.8044 42.1862C31.1033 41.7136 36.4414 41.9497 41.6782 42.8882L34.9085 45.6963L44.4795 46.1644L37.9432 48.2705H46.5804C43.489 48.7086 40.4915 49.6576 37.7098 51.0786H48.4479L37.7098 54.1208L51.7161 55.0568L40.2776 57.865C46.8717 57.4311 53.4925 58.0632 59.8864 59.7371L47.5142 62.7792C63.1153 60.9043 78.897 61.1404 94.4353 63.4813C81.1196 66.2883 67.6255 68.1649 54.0504 69.0976C67.0114 68.7033 79.9813 69.4865 92.8012 71.4377L25.1041 72.8418C51.0158 73.3098 77.1609 75.1819 103.073 77.9901L48.9148 80.3302C70.6246 81.0322 92.5678 82.6703 114.044 85.0104C81.2903 85.0469 48.562 86.8436 16 90.3927C52.6498 92.7328 102.139 93.2008 139.022 91.5627L76.9274 95.775C96.2281 95.647 115.508 97.0555 134.587 99.9872C131.659 101.814 128.217 102.636 124.782 102.327L164 105.603C145.091 106.774 126.183 107.008 107.041 106.774L121.981 109.348C90 108.412 35.8423 118.24 35.8423 118.24C35.8423 118.24 104.24 122.686 143.224 122.92C112.877 122.92 52.183 125.963 52.183 125.963C52.183 125.963 84.6309 127.367 100.505 129.707L87.6656 133.685L109.842 136.493L102.372 137.195C107.712 137.607 112.819 139.557 117.079 142.811L107.741 143.747L126.883 149.13L109.842 152.406C123.708 151.705 137.607 152.174 151.394 153.81C127.967 152.234 104.437 154.206 81.5962 159.66L116.145 162.702L84.6309 164.809L108.208 168.553C100.046 169.355 91.9881 171.001 84.164 173.467L95.3691 174.637C77.8612 174.403 42.8454 178.615 42.8454 178.615L57.3186 182.593C52.3016 182.718 47.3039 183.266 42.3785 184.232C47.9444 185.007 53.4187 186.339 58.7192 188.21C46.8139 189.614 30.2397 192.656 30.2397 192.656C35.938 193.785 41.712 194.489 47.5142 194.762L29.306 199.676C33.895 201.159 38.3471 203.038 42.612 205.293L29.306 209.505L39.3438 211.143L30.94 213.717C34.1148 213.962 37.2094 214.837 40.0441 216.291C38.0974 217.697 35.8659 218.656 33.5079 219.099C37.0599 219.561 40.4777 220.757 43.5457 222.61L30.0063 226.588C34.9278 226.544 39.8212 227.336 44.4795 228.928L26.5047 232.672C32.4105 232.955 38.2745 233.817 44.0126 235.246C40.1936 236.876 36.1982 238.054 32.1072 238.756L48.9148 239.927C46.163 241.167 43.2582 242.032 40.2776 242.501L48.9148 243.905L33.2744 249.521L42.8454 251.159C38.1397 253.04 33.1853 254.223 28.1388 254.669C32.735 254.645 37.3056 255.356 41.6782 256.775L27.6719 261.924L55.2176 263.328L36.5426 265.902C47.3962 267.073 58.3302 267.308 69.2239 266.604" stroke="white" stroke-miterlimit="10"/>
<path d="M68.7021 267C64.7545 267.515 60.9057 268.623 57.284 270.287L70.1003 270.991L60.0802 275.686L72.6636 276.39L59.3812 279.911H78.9553L63.3426 285.31L77.3241 287.423L67.7701 289.301C71.9535 289.527 76.0974 290.236 80.1204 291.414C63.1096 293.292 46.0988 294.231 28.8549 294.7C48.4418 293.719 68.0746 294.269 87.5771 296.344L77.7901 298.926C83.0386 298.891 88.2747 299.442 93.4027 300.569L83.8488 302.447C87.559 301.967 91.3295 302.452 94.8009 303.856L81.7515 308.551C86.278 308.271 90.8215 308.587 95.267 309.49L85.946 311.837C113.909 317.002 171 317.002 171 317.002C171 317.002 101.093 318.175 66.1389 319.584L80.3534 321.227L20.466 323.105C40.9311 322.867 61.393 323.807 81.7515 325.922L68.7021 329.209L88.5093 331.087C85.164 332.692 81.4952 333.496 77.7901 333.434L88.2762 334.373C84.3264 336.938 79.8765 338.619 75.2268 339.303L47.2639 344.702L60.7793 345.641C49.3611 345.641 31.1852 348.693 20 349.867C34.2145 350.101 55.4198 348.458 69.6343 349.397C65.146 351.464 60.3372 352.735 55.4197 353.153C63.859 353.226 72.2774 354.011 80.5864 355.501L68.9352 357.144C74.0388 357.11 79.0751 358.318 83.6158 360.665L73.5957 364.656C78.3885 364.463 83.1639 365.345 87.5771 367.238L81.0525 369.351C85.5337 369.498 89.9865 370.128 94.3349 371.229L57.517 379.68L48.429 382.497C53.3805 382.492 58.259 383.7 62.6435 386.018L57.0509 387.661L62.4105 388.835L56.3518 390.009C58.597 391.436 61.0282 392.542 63.5756 393.295L56.5849 394.469C58.6672 394.385 66.7994 399.247 68.7021 400.103L36.0787 405.268L44.0015 405.972C37.9429 406.207 26.0586 407.38 26.0586 407.38C28.6058 407.591 31.1137 408.143 33.5154 409.024L29.0879 410.432C29.0879 410.432 49.1281 412.075 58.6821 415.127C57.0202 416.996 54.9446 418.443 52.6235 419.353H63.3426L59.6142 421.231L66.3719 425.456L62.1775 427.099L73.7684 428" stroke="white" stroke-miterlimit="10"/>
<rect width="3" height="429" fill="#E9623E"/>
</svg>
