<svg width="206" height="429" viewBox="0 0 206 429" fill="none" xmlns="http://www.w3.org/2000/svg">
<rect x="0.314453" width="3" height="429" fill="#E9623E"/>
<path d="M83.9116 0.230835V26.0909L62.6523 26.7836H81.1783V44.3315L68.7264 45.7168L82.0894 49.8729L127.645 50.3347V85.6614" stroke="#E9623E" stroke-width="1.76" stroke-miterlimit="10"/>
<path d="M127.644 50.3347H103.651V65.9431H127.644V50.3347Z" fill="#E9623E"/>
<path d="M104.26 83.5834H128.556L127.341 71.8079H103.349L104.26 83.5834Z" fill="#E9623E"/>
<path d="M191.422 94.2045H158.015V106.373H191.422V94.2045Z" fill="#E9623E"/>
<path d="M170.467 156.315L198.408 155.853V128.608L170.467 129.069V156.315Z" fill="#E9623E"/>
<path d="M171.682 193.951L197.8 193.72V168.09L171.682 168.321V193.951Z" fill="#E9623E"/>
<path d="M171.682 210.113L171.985 229.97H197.193L196.889 210.113H171.682Z" fill="#E9623E"/>
<path d="M183.525 242.669V260.91L197.192 261.14V242.669H183.525Z" fill="#E9623E"/>
<path d="M184.437 270.607V288.848H198.103V270.607H184.437Z" fill="#E9623E"/>
<path d="M184.437 299.007V317.248L198.103 317.478V299.007H184.437Z" fill="#E9623E"/>
<path d="M183.525 326.021V344.493H197.192V326.252L183.525 326.021Z" fill="#E9623E"/>
<path d="M184.437 355.345V373.586H198.103V355.345H184.437Z" fill="#E9623E"/>
<path d="M191.119 91.2029V114.292H199.927" stroke="#E9623E" stroke-width="1.76" stroke-miterlimit="10"/>
<path d="M196.281 126.299V159.547" stroke="#E9623E" stroke-width="1.76" stroke-miterlimit="10"/>
<path d="M194.459 165.781V196.259" stroke="#E9623E" stroke-width="1.76" stroke-miterlimit="10"/>
<path d="M196.281 207.804V233.433" stroke="#E9623E" stroke-width="1.76" stroke-miterlimit="10"/>
<path d="M198.104 238.975V264.835" stroke="#E9623E" stroke-width="1.76" stroke-miterlimit="10"/>
<path d="M197.192 291.849V267.375" stroke="#E9623E" stroke-width="1.76" stroke-miterlimit="10"/>
<path d="M198.104 380.743V351.651" stroke="#E9623E" stroke-width="1.76" stroke-miterlimit="10"/>
<path d="M195.37 346.802V326.252" stroke="#E9623E" stroke-width="1.76" stroke-miterlimit="10"/>
<path d="M197.192 295.313V320.942" stroke="#E9623E" stroke-width="1.76" stroke-miterlimit="10"/>
<path d="M83.0001 0V27.0145H29.5483L73.2816 29.0926C73.2816 29.0926 3.73344 30.4779 6.46677 29.7853C9.20011 29.0926 82.089 32.556 82.089 32.556L80.2668 45.2551L4.64453 46.6405L72.3705 48.0258L18.0076 50.1039H106.082L105.17 83.1216L72.3705 83.8143L101.526 85.8924L6.46677 91.8956C6.46677 91.8956 89.9853 87.9704 84.8224 88.6631C79.6594 89.3557 4.64461 95.359 7.37794 95.359L152.245 96.0517C152.245 96.0517 137.971 98.5915 140.704 98.5915C143.437 98.5915 156.8 99.9768 156.8 99.9768L154.978 108.982C154.978 108.982 171.985 110.829 168.341 110.829C164.696 110.829 153.156 112.214 153.156 112.214L170.163 115.678L111.548 114.985L108.815 117.756L25.9038 117.063L26.815 123.066L51.7186 123.759L47.4668 125.837L113.978 124.452V128.608L165.607 127.915L163.785 133.226L168.341 134.611V159.086L134.63 157.7L131.896 161.625H11.3261L8.59274 166.705H146.17L151.333 168.09H169.252V193.027L182.615 195.105L177.148 197.183L187.17 199.03L5.5557 201.108L6.46677 205.264H69.6372L73.889 208.497H169.252V231.586H118.533L113.978 234.357H11.6298L6.46677 238.282L16.1853 239.667L24.0816 242.438H186.259V248.441L180.793 249.827V261.371L112.156 262.064V265.527H6.46677L19.8297 267.375H180.793V278.227L178.971 282.383L180.793 294.62H100.615L95.452 296.467H6.46677L96.3631 299.238H182.615V317.94H59.0076L60.8297 320.711L6.46677 320.018V322.789L59.9186 323.482L60.8297 326.714H184.437V345.647H50.8075L47.4668 348.418H5.5557V352.574H127.341L131.896 355.807H187.17V374.74H9.80753L10.7186 377.511L11.6298 378.896H148.904V383.514H187.17V386.977H201.445V403.833H10.7186L11.6298 406.603L10.415 410.067H75.7113L78.4446 413.299H200.533V429" stroke="#A6A6A6" stroke-width="1.76" stroke-miterlimit="10"/>
</svg>
