<svg width="710" height="609" viewBox="0 0 710 609" fill="none" xmlns="http://www.w3.org/2000/svg">
<path d="M521.3 395.809C521.3 411.922 520.887 428.035 521.3 443.942C521.919 462.948 523.158 481.953 524.19 500.958C524.19 502.611 523.984 505.09 525.223 506.123C532.449 513.353 530.384 522.649 531.21 531.326C531.416 532.978 531.003 534.631 531.21 536.284C531.416 543.927 525.429 549.298 517.377 548.885C516.282 548.916 515.204 549.169 514.21 549.631C513.216 550.093 512.327 550.753 511.597 551.571C505.403 561.28 495.699 563.139 485.377 564.172C484.394 564.342 483.383 564.197 482.486 563.759C478.77 562.726 475.467 561.28 471.751 560.041C474.022 557.562 476.086 554.876 478.357 552.604C481.015 549.425 483.84 546.391 486.822 543.514C492.19 538.763 495.08 533.805 492.809 526.161C492.19 523.682 494.048 520.584 494.667 517.898C495.257 516.031 495.468 514.064 495.287 512.114C487.854 483.192 485.377 453.445 482.073 423.904C479.596 402.832 473.609 382.381 469.273 361.516C466.796 350.361 464.525 339.206 462.047 328.257C461.031 326.194 459.785 324.254 458.331 322.473C457.505 321.027 453.376 318.961 452.344 327.431C441.815 327.637 435.415 323.505 432.318 315.655C425.918 299.129 425.711 281.363 424.885 264.01C423.853 237.981 429.015 212.572 431.905 186.956C433.763 170.016 434.795 152.87 435.208 135.724C435.828 121.676 439.957 111.76 455.028 108.248C461.221 107.009 466.796 103.29 472.37 100.398C477.944 97.5061 483.312 89.0363 482.693 80.3599C482.074 71.6835 476.293 64.6598 472.783 56.8097C471.338 53.5044 467.415 49.786 472.989 45.6544C474.435 44.4149 471.957 38.6306 472.164 34.9121C472.124 28.4507 472.817 22.0056 474.228 15.7002C474.859 13.998 475.849 12.4523 477.132 11.1687C478.415 9.88514 479.96 8.89405 481.661 8.26323C491.364 5.3711 501.48 4.13159 511.39 7.85004C517.79 10.1224 521.3 15.287 522.332 22.3107C523.364 29.3344 525.429 37.5977 525.842 45.4478C526.049 50.1991 523.777 54.9505 522.539 59.7018C521.842 61.1399 521.356 62.6704 521.094 64.2466C520.474 68.5848 518.203 74.9888 520.268 77.2612C525.463 82.824 531.803 87.1937 538.849 90.0692C549.378 93.9943 560.733 96.06 571.675 98.539C574.031 98.8712 576.226 99.9223 577.963 101.549C579.699 103.176 580.892 105.299 581.378 107.629C589.017 135.93 597.482 164.025 604.295 192.533C606.566 202.656 605.947 214.224 604.295 224.966C600.992 245.831 591.288 264.423 579.727 281.983C578.901 283.222 577.456 285.288 576.424 285.081C570.024 284.462 570.23 289.42 569.404 293.138C568.953 295.59 568.815 298.089 568.991 300.575C570.849 341.891 571.056 383.207 574.772 424.317C578.212 459.682 578.557 495.281 575.804 530.706C574.978 540.622 576.63 550.538 572.088 560.454C569.817 565.205 571.469 571.816 570.643 577.393C570.485 580.537 569.245 583.53 567.133 585.863C563.753 589.228 559.573 591.677 554.985 592.978C550.398 594.279 545.555 594.39 540.913 593.3C536.991 592.267 535.545 590.408 536.371 586.689C537.525 581.04 538.972 575.455 540.707 569.956C542.565 564.998 543.184 560.247 540.5 555.289C538.753 552.419 537.497 549.277 536.784 545.993C536.165 540.829 534.72 535.044 536.165 530.499C540.088 519.964 536.784 510.048 535.545 499.925C532.036 466.459 528.113 433.2 524.19 399.734C524.115 398.324 523.837 396.932 523.364 395.602L521.3 395.809Z" stroke="#EB623D" stroke-width="3" stroke-linecap="round" stroke-linejoin="round"/>
<path d="M362.948 341.271C362.329 344.783 361.503 348.295 361.09 351.807L349.322 466.872C348.084 479.061 346.845 491.249 346.019 503.437C345.812 508.188 346.638 513.147 346.845 518.104C347.051 523.062 347.877 524.922 346.432 527.194C341.89 534.218 341.683 541.655 341.683 549.505C341.683 557.355 339.206 560.66 332.806 563.139C331.096 564.293 329.91 566.074 329.502 568.097C327.231 576.98 318.973 585.037 309.889 586.276C300.805 587.516 295.85 581.938 298.328 573.675C299.92 569.036 302.294 564.704 305.347 560.867C312.573 551.57 315.464 541.861 316.083 530.086C316.702 518.311 314.844 504.883 313.193 492.282C311.541 479.68 312.573 466.459 312.367 453.651C312.16 430.101 312.367 406.551 311.747 383.001C311.541 368.333 310.509 353.666 309.683 339.205C308.857 324.745 307.618 311.937 306.173 298.509C305.347 290.866 301.631 288.18 293.992 287.56C293.114 287.313 292.304 286.867 291.625 286.259C290.945 285.65 290.413 284.894 290.07 284.048C277.063 233.023 269.011 181.584 288.831 130.146C291.721 122.709 293.992 115.065 296.47 107.215C297.179 104.637 298.569 102.298 300.495 100.444C302.42 98.5899 304.81 97.2895 307.412 96.6797C314.07 95.1698 320.569 93.0253 326.819 90.2757C332.888 87.376 338.751 84.063 344.367 80.3599C344.851 79.8808 345.215 79.2946 345.43 78.6486C345.646 78.0026 345.706 77.315 345.606 76.6414C343.748 68.5848 345.606 60.115 340.032 52.4715C337.554 48.753 333.632 41.9359 339.206 35.945C340.032 34.9121 339 32.02 339 29.9542C338.793 15.287 343.954 6.81715 355.929 3.0987C359.372 2.04518 363.004 1.76162 366.568 2.26804C370.132 2.77446 373.542 4.05846 376.555 6.02927C379.569 8.00009 382.113 10.6095 384.007 13.6729C385.901 16.7363 387.099 20.1788 387.517 23.7568C388.549 35.7385 389.994 47.7201 383.388 59.2886C380.704 64.04 381.323 70.8571 380.704 76.848C380.853 77.5725 381.149 78.2585 381.576 78.8628C382.002 79.4671 382.548 79.9768 383.181 80.3599C395.981 86.3507 408.575 92.1349 421.375 97.506C425.091 99.1587 427.775 100.605 428.808 104.736C434.176 124.362 441.814 143.574 444.292 163.405C447.182 187.575 448.421 212.365 444.498 236.948C443.466 242.732 443.672 248.93 442.227 254.714C440.163 264.01 437.272 273.306 434.588 282.396C434.175 283.635 432.937 285.494 432.111 285.494C426.33 286.321 425.092 290.659 423.646 295.204C416.007 317.515 415.388 341.065 414.356 364.202C412.911 395.809 412.91 427.415 411.878 458.816C411.052 479.887 409.401 500.958 408.162 522.029C408.127 523.278 407.989 524.522 407.749 525.748C402.381 538.349 407.956 548.472 414.562 559.007C417.204 563.598 418.626 568.79 418.691 574.088C419.104 580.079 415.388 582.764 409.194 582.558C397.014 581.938 392.265 577.187 387.517 565.618C386.22 562.573 384.404 559.777 382.149 557.355C377.4 552.19 377.813 545.993 377.813 539.795C377.813 533.598 377.194 532.152 377.194 528.433C377.194 524.715 376.574 516.452 378.019 510.874C379.668 504.54 380.089 497.948 379.258 491.455C377.194 475.136 376.987 458.403 375.336 442.083C373.271 420.805 370.381 399.527 368.11 378.043C367.077 368.127 366.458 358.004 365.632 347.882C365.426 345.609 365.013 343.544 364.807 341.271H362.948Z" stroke="#EB623D" stroke-width="3" stroke-linecap="round" stroke-linejoin="round"/>
<path d="M91.2533 337.553C92.1274 339.623 92.8182 341.766 93.3179 343.957C97.447 396.015 101.576 447.867 93.9371 499.719C91.4596 517.691 91.2533 536.077 89.3952 554.05C88.7758 560.66 92.4921 563.346 97.447 565.618C98.8922 566.238 100.957 567.684 101.163 569.13C101.916 573.021 103.878 576.575 106.771 579.284C109.663 581.992 113.336 583.716 117.267 584.21C118.497 584.418 119.753 584.418 120.983 584.21C125.112 583.591 132.751 582.764 132.751 581.938C132.957 576.36 133.164 569.337 129.86 565.825C121.602 556.115 121.602 546.613 123.873 534.838C127.441 517.255 129.787 499.447 130.893 481.54C133.126 443.997 137.955 406.655 145.345 369.78C148.235 354.286 150.093 338.379 152.983 322.886C153.293 321.63 153.856 320.452 154.637 319.422C155.418 318.392 156.401 317.532 157.525 316.895C159.011 316.261 160.233 315.135 160.985 313.705C161.737 312.275 161.974 310.629 161.655 309.045C159.59 285.701 157.319 262.358 155.667 238.807C155.048 231.164 156.08 223.52 156.08 215.877C156.287 211.745 159.59 211.539 162.274 211.539C168.674 211.745 171.564 208.233 173.835 202.656C180.855 185.303 180.235 167.33 178.584 149.564C177.552 138.203 174.868 127.047 173.01 115.892C172.184 109.901 169.706 106.389 162.893 104.736C150.093 101.844 137.293 98.1259 127.796 87.7968C124.493 84.0784 122.428 80.5665 124.699 75.6086C126.97 70.6506 130.686 64.4532 133.164 58.4623C135.641 52.4715 138.119 49.5794 133.37 44.2083C131.718 42.1425 133.164 37.3911 133.164 33.8792C133.577 23.3436 130.48 14.4607 119.744 10.5356C114.697 8.37816 109.152 7.66074 103.722 8.4629C98.2925 9.26506 93.1907 11.5555 88.9821 15.0804C86.333 17.0805 84.4406 19.9209 83.6143 23.137C81.9627 36.3582 76.595 49.786 84.2338 63.0071C86.2984 66.519 86.7112 70.8572 87.7434 74.7822C87.9603 75.9893 87.7409 77.2342 87.1242 78.2941C79.0725 87.3837 70.1948 94.8206 57.601 96.8864C51.0785 98.0175 44.7062 99.8889 38.6072 102.464C37.0973 103.125 35.756 104.118 34.6835 105.37C33.611 106.622 32.8352 108.1 32.4135 109.694C28.1142 132.678 27.8348 156.233 31.5877 179.312C31.7049 181.149 32.4315 182.893 33.6522 184.27C38.8136 188.815 38.4008 194.392 37.5749 200.59C36.7491 206.787 38.6071 208.027 39.02 211.952C39.4329 215.877 40.4652 215.051 40.0523 216.497C35.9232 239.634 31.5877 262.564 27.2522 285.495C26.1743 290.321 25.4839 295.225 25.1876 300.162C25.3851 301.084 25.7835 301.95 26.3545 302.7C26.9255 303.45 27.6551 304.065 28.4908 304.5C32.4135 305.946 33.0328 308.218 32.8264 311.937C31.7941 337.966 31.5875 363.995 30.1423 389.818C29.3165 403.865 25.8068 417.5 24.981 431.547C23.1229 461.915 22.2971 492.282 20.439 522.443C19.8197 531.532 16.31 540.209 15.0712 549.092C13.8325 557.975 9.4969 563.346 5.98716 570.369C2.47741 577.393 3.09673 580.905 2.06445 586.276C2.30389 587.103 2.72461 587.866 3.29608 588.509C3.86754 589.152 4.57529 589.66 5.36769 589.995C13.0065 591.441 20.8518 592.06 28.0778 587.309C31.794 584.83 34.8909 582.351 34.065 576.98C33.8586 575.534 36.336 572.848 38.1941 571.816C40.0522 570.783 46.659 566.651 45.8331 560.454C45.712 559.224 46.0023 557.988 46.6588 556.942C55.9493 542.274 56.9816 524.922 59.6656 508.395C65.6528 470.384 69.3689 431.754 75.3561 393.743C78.2465 374.737 84.2337 356.145 88.7757 337.553H91.2533Z" stroke="#EB623D" stroke-width="3" stroke-linecap="round" stroke-linejoin="round"/>
<path d="M266.534 428.448C266.327 438.158 267.772 448.074 266.121 457.37C263.23 475.342 258.069 492.902 254.766 510.667C253.733 516.245 254.972 522.236 255.178 528.02C255.143 529.337 255.005 530.65 254.766 531.945C254.559 534.218 253.527 536.697 254.146 538.763C256.417 547.646 259.514 556.528 261.992 565.411C264.469 574.294 264.056 578.426 259.101 581.318C254.146 584.21 247.746 582.971 242.172 583.59C240.4 583.966 238.607 584.242 236.804 584.417C230.61 584.623 223.797 586.483 218.43 584.417C213.062 582.351 212.442 575.327 213.268 571.196C216.571 557.148 215.539 542.894 215.333 528.847C214.803 519.656 213.139 510.566 210.378 501.785C203.978 478.854 196.752 456.337 196.752 432.167C196.752 417.706 195.513 403.246 194.894 388.785C194.7 387.256 194.425 385.739 194.068 384.24C185.81 388.372 185.397 388.165 183.745 379.695C181.061 364.202 178.584 348.708 175.693 333.215C172.803 317.721 172.39 300.162 177.345 283.635C181.061 271.86 184.364 259.879 187.461 247.897C189.526 240.253 188.287 238.601 180.648 239.427C173.009 240.253 171.151 237.361 168.88 231.784C165.252 221.454 164.051 210.426 165.37 199.557C165.99 190.467 167.022 181.378 167.435 172.288C167.641 167.33 166.403 162.166 166.196 157.001C165.783 145.433 175.693 136.963 187.048 137.583C189.113 137.789 192.003 135.104 193.655 132.831C195.307 130.559 196.545 125.601 199.023 123.329C206.042 117.131 208.313 109.694 208.313 100.811C208.023 95.7958 208.581 90.7672 209.965 85.9376C213.062 77.4678 215.539 67.7585 221.32 60.9413C234.327 45.8609 258.482 56.6031 265.295 68.7914C268.387 74.801 270.678 81.1908 272.108 87.7968C277.063 107.629 278.714 128.08 289.863 146.053C298.741 159.893 298.534 175.387 293.373 190.881C292.547 192.74 291.515 194.599 290.483 197.078L288.418 193.979H286.973C286.147 198.111 284.495 202.242 284.908 205.961C285.321 209.679 287.799 213.811 289.657 218.149L285.321 216.29C284.495 220.215 283.876 223.933 283.257 227.652L277.269 224.347C271.902 226.826 268.805 235.295 271.488 242.939C282.431 274.339 284.082 306.566 279.54 339.412C277.476 353.873 273.553 368.127 276.237 383.001C276.335 384.745 276.126 386.493 275.618 388.165H267.359C267.153 401.799 266.74 415.227 266.534 428.448ZM234.946 475.962C233.707 466.872 234.74 457.576 234.74 448.28C234.74 438.984 234.946 430.308 234.533 421.218C234.12 412.129 232.881 402.006 232.056 392.297L231.436 384.034H229.372C229.372 388.785 229.372 393.536 229.165 398.288C228.959 403.039 227.926 412.748 227.926 419.772C227.926 426.796 229.165 437.331 229.372 446.214C229.578 460.262 229.578 474.103 229.578 488.15C229.578 497.24 228.752 506.329 229.372 515.419C229.578 519.757 232.056 524.095 234.12 530.086C242.172 510.874 237.217 493.521 234.946 475.962Z" stroke="#EB623D" stroke-width="3" stroke-linecap="round" stroke-linejoin="round"/>
<path d="M643.728 572.022L648.683 578.22C652.193 568.097 658.799 560.247 654.464 548.678C650.128 537.11 648.889 519.551 650.335 504.677C650.87 496.427 651.905 488.218 653.431 480.094L655.29 490.216C656.941 497.86 657.561 505.916 660.038 513.147C664.787 526.368 664.58 539.382 662.928 552.81C662.515 555.909 662.722 559.008 662.516 562.106C661.483 572.229 660.245 582.145 659.419 592.267C658.593 602.389 661.277 605.695 666.851 606.521C672.425 607.347 681.922 603.422 683.367 595.985C684.813 588.548 685.226 583.177 683.367 577.806C678 561.693 678.413 545.58 680.89 529.26C682.542 518.311 685.639 507.775 686.051 496.827C686.464 485.878 683.987 478.648 683.161 469.351C682.335 460.055 679.032 447.041 681.509 437.125C686.671 417.706 688.735 398.081 690.387 378.456C692.039 358.831 690.593 341.891 690.387 323.712C690.387 322.266 690.181 319.787 691.006 319.58C698.645 315.449 693.897 309.458 693.071 304.5C691.006 289.833 688.116 275.166 685.638 260.705C685.378 258.67 685.663 256.602 686.464 254.714C691.626 242.113 697.2 229.924 702.362 217.323C704.241 212.377 705.625 207.256 706.491 202.036C707.316 195.839 707.316 189.641 707.936 183.444C708.555 177.246 705.665 171.669 700.916 167.124C699.275 165.261 698.2 162.967 697.819 160.513C693.484 139.649 689.561 118.784 685.019 98.1258C683.928 94.1542 681.951 90.4815 679.238 87.3836C664.167 69.2045 640.425 72.923 632.167 95.2337C625.44 113.54 624.009 133.373 628.038 152.457C629.07 158.034 628.244 161.133 622.257 162.166C616.27 163.199 613.173 166.711 609.869 171.462C600.372 185.51 591.082 199.764 579.933 212.365C573.946 219.595 569.611 226.413 568.991 235.502C568.372 244.592 570.23 246.244 576.424 248.93C582.617 251.615 591.701 256.986 599.547 260.705C607.392 264.423 602.643 267.109 602.024 270.208C599.547 280.33 596.863 290.659 593.559 300.575C592.321 304.5 593.147 306.772 596.45 308.012C599.753 309.251 600.992 312.557 600.373 316.482C598.308 333.421 595.418 350.361 599.134 367.507C600.992 376.39 602.85 385.273 604.502 394.156C605.327 398.907 605.121 404.072 605.947 408.823C606.773 413.575 606.566 416.054 608.631 417.913C619.779 428.655 621.844 442.289 622.05 456.75C622.257 471.211 622.876 482.779 624.115 495.587C625.473 507.667 627.472 519.665 630.102 531.532C632.786 544.753 628.657 556.115 622.257 566.858C621.261 568.336 619.913 569.543 618.334 570.369C615.475 572.028 612.991 574.261 611.037 576.928C609.083 579.594 607.701 582.636 606.979 585.863C605.327 592.06 610.489 596.605 617.508 595.572C624.528 594.539 630.721 588.342 635.47 582.351C640.218 576.36 640.631 575.947 643.728 572.022Z" stroke="#EB623D" stroke-width="3" stroke-linecap="round" stroke-linejoin="round"/>
</svg>
