<svg width="421" height="435" fill="none" xmlns="http://www.w3.org/2000/svg"><g clip-path="url(#clip0_113_615)" fill="#EB623D"><path d="M420.574 148.547l-.639-.638-1.916-3.831h.213l-1.065-2.554a106.391 106.391 0 00-17.249-28.305l-.639-.638h-1.065c-21.933 1.064-44.719 7.661-63.884 15.11a149.671 149.671 0 00-47.701-43.202 2.558 2.558 0 00.639-1.916v-.425a16.174 16.174 0 01.213-3.192l7.666.425h.426c1.491 0 2.768-1.277 3.407-3.83a22.111 22.111 0 001.065-7.024c.213-1.915.213-11.066-3.833-11.279h-.426l-8.518-.638h-.639c-.213-1.916-.639-3.618-.852-5.534l5.111.426h.426c4.472 0 5.111-11.492 5.111-12.77a33.852 33.852 0 00-.852-8.512c-.639-2.98-1.916-4.469-3.62-4.682h-.852l-9.583-.638h-.212a13.211 13.211 0 00-5.111.425 80.048 80.048 0 00-8.305-12.556c-.213-4.47-1.278-10.854-4.898-10.854h-.852l-4.259-.425-2.768-.426c-19.379-2.767-32.581 0-33.22.213h-.852l-.426.851c-10.434 19.154-16.61 41.925-20.23 61.93a153.392 153.392 0 00-62.82 18.09.425.425 0 00-.426-.426l-.426-.425-2.555-1.703 4.685-6.385c2.129-3.192-5.324-8.725-6.815-9.79-1.49-1.063-9.369-5.958-11.499-2.553l-.426.638-4.898 6.81-.426.426-5.11-1.915 2.981-4.257h.213c2.555-3.83-7.027-10.428-8.092-11.279-1.065-.851-10.86-7.023-13.416-3.192l-.426.638-5.75 7.875a14.68 14.68 0 00-2.555 4.682 87.374 87.374 0 00-14.906.425c-3.833-2.128-9.796-4.682-11.925-1.702-2.13 2.98-.213.425-.213.851l-2.556 3.405-1.916 2.128a103.21 103.21 0 00-17.675 28.092l-.426.852.426.85c10.434 18.729 26.193 35.967 41.738 50.226A150.813 150.813 0 0057.496 217.5c0 1.915.213 3.831.213 5.746l-1.065.426h-.425l-2.769 1.489-3.62-6.81h-.213c-.852-1.489-2.555-1.702-5.11-1.064a24.286 24.286 0 00-6.602 2.767 26.828 26.828 0 00-5.963 4.256c-1.916 1.916-2.555 3.405-1.703 4.895l.426.638 3.833 7.449.426.426-4.26 3.618-2.342-4.47h-.213c-.852-1.489-2.768-1.915-5.75-1.064a29.187 29.187 0 00-7.879 3.193c-1.277.638-11.286 6.597-9.156 10.641l.639.638 4.471 7.661a16.596 16.596 0 002.982 4.257 114.866 114.866 0 00-6.389 13.62 24.758 24.758 0 00-4.259 3.405c-2.555 2.554-3.407 4.682-2.342 6.385 1.065 1.702.213.425.639.638l1.703 3.618h-.213l1.278 2.554a100.453 100.453 0 0017.249 28.305l.639.638h1.064c21.934-1.064 44.933-7.874 64.098-15.11a152.664 152.664 0 0053.663 45.756v.426c0 1.064-.213 2.128-.213 3.192l-7.879-.426h-.213c-4.046 0-4.472 9.151-4.685 11.067a34.27 34.27 0 00.639 7.023c.639 2.766 1.704 4.043 3.194 4.256h.639l8.518.639h.852c.163 1.79.448 3.568.852 5.32h-5.537c-4.472 0-5.111 11.705-5.111 12.982a34.692 34.692 0 00.639 8.513c.852 2.979 1.917 4.469 3.62 4.469h.852l9.796.638h1.278c1.362.083 2.73-.061 4.046-.425a79.957 79.957 0 008.305 12.556 20.841 20.841 0 00.638 5.533c.852 3.405 2.343 5.321 4.259 5.321h.852l4.259.425h-.213l2.769.426a106.189 106.189 0 0017.248 1.277 89.974 89.974 0 0015.972-1.277h1.064l.426-.851c10.861-19.792 17.036-43.841 20.443-64.271a149.988 149.988 0 0057.922-18.941l.852.851h.213l2.769 1.915-4.685 6.385c-.852 1.277-.426 2.979 1.277 5.108a25.39 25.39 0 005.537 4.682c1.065.851 5.75 3.83 8.944 3.83.482.063.972-.003 1.42-.19.449-.186.84-.488 1.135-.874l.426-.638 4.898-6.81.426-.639 5.111 2.128-3.195 4.257h.213a.212.212 0 01-.213.213c-2.555 3.83 7.028 10.64 8.092 11.279a32.603 32.603 0 007.454 4.043l3.194.639a3.19 3.19 0 002.768-1.277l.426-.639 5.75-8.087a12.117 12.117 0 002.342-4.682h5.537l9.583-.425a25.939 25.939 0 005.11 2.341l3.62.638a3.418 3.418 0 002.556-.851h.213l4.046-5.533 1.065-1.277a99.825 99.825 0 0017.674-28.092v-.851l-.426-.852c-10.647-19.366-27.044-37.03-43.228-51.502a153.79 153.79 0 0016.184-68.314 36.05 36.05 0 00-.213-4.895l1.278-.426h.426l2.981-1.489 3.62 6.81h.213a2.772 2.772 0 002.768 1.489l2.343-.425a27.507 27.507 0 006.601-2.767c1.704-.851 9.583-5.533 7.666-9.151l-.639-.638-3.62-7.449-.426-.426 4.046-3.83 2.556 4.682a.212.212 0 01.213.212 3.196 3.196 0 003.194 1.49l2.555-.426a38.268 38.268 0 008.092-3.192c1.278-.638 11.287-6.597 8.944-10.641 0-.213-.213-.425-.426-.638l-4.472-8.726a17.02 17.02 0 00-3.194-4.256 89.553 89.553 0 006.602-13.62c3.407-2.341 8.305-6.598 6.601-9.79zm-12.777 29.156l3.194 6.597a37.941 37.941 0 00-9.156 3.618 30.887 30.887 0 00-7.667 5.959h-.212l-3.408-6.81c-3.407-6.81-.426-8.938 4.898-11.918a13.854 13.854 0 016.389-2.341h1.277a9.792 9.792 0 014.685 4.895zm-11.925 18.941a21.734 21.734 0 017.666-5.959 21.296 21.296 0 018.944-3.405 19.81 19.81 0 01-7.453 6.172 24.943 24.943 0 01-9.157 3.192zm8.305-26.602c-3.407-1.064-7.027.425-10.221 2.341-3.195 1.915-11.287 6.171-6.389 16.174l.852 1.702-4.472 4.044a5.105 5.105 0 00-2.981-1.915c-2.982-1.065-5.963.425-8.731 1.915-2.769 1.49-7.879 5.108-6.176 11.918l-2.129 1.277c0-3.193.213-8.513-5.111-12.344-5.324-3.831-12.564-4.682-23.85-3.831a4.05 4.05 0 00.213-3.83h.213l-6.176-11.705-1.065-1.916c4.685-2.341 9.796-4.894 15.333-7.235l.638 1.064 5.75 11.279h.426a4.04 4.04 0 001.679 1.386 4.04 4.04 0 002.154.317 34.726 34.726 0 0011.499-3.193 42.141 42.141 0 007.879-5.107c2.556-2.341 3.62-4.47 2.769-6.172l-.426-.426h.426l-5.111-10.002c5.537-1.916 11.286-3.831 17.036-5.321.326.545.611 1.115.852 1.703l5.536 10.854h.213l.426.638a3.197 3.197 0 003.407 1.703 7.694 7.694 0 002.982-.426 26.617 26.617 0 007.027-2.767 83.33 83.33 0 01-4.259 8.726l-.213-.851zm-20.656 29.156l2.768 5.32a32.142 32.142 0 00-7.24 2.98 26.812 26.812 0 00-5.963 4.256h-.638l-2.769-5.108c-2.129-5.746-.426-7.448 4.046-10.002a13.413 13.413 0 015.324-1.916h1.065c1.278 1.065 2.342 2.341 3.407 4.47zm-8.731 15.535a21.725 21.725 0 015.75-4.256 21.316 21.316 0 016.814-2.767 24.273 24.273 0 01-12.564 7.023zm-10.434 155.57a33.213 33.213 0 01-17.249-11.705 21.294 21.294 0 019.582 4.47 22.558 22.558 0 017.667 7.235zm-22.999-2.766c-.639-3.405-3.62-5.959-6.601-8.087-2.982-2.129-10.648-7.236-17.462 1.702l-1.065 1.49-5.537-2.554a9.96 9.96 0 00.426-3.405c-.638-3.192-3.194-5.108-5.749-7.023-2.556-1.915-8.092-4.895-13.416-.213l-2.13-1.49a13.2 13.2 0 008.731-10.002c1.065-5.533-1.49-13.195-7.24-22.984h.426a3.617 3.617 0 003.194-1.49h.213l7.879-10.641a8.735 8.735 0 001.065-1.915l13.629 10.641a2.125 2.125 0 00-.852 1.064l-7.666 10.215h.426c-.852 1.49-.426 3.618 1.49 6.384a50.84 50.84 0 006.815 6.598 43.054 43.054 0 008.092 4.895c1.237.442 2.525.728 3.833.851a3.19 3.19 0 002.768-1.277v-.426h.426l6.602-9.151a357.144 357.144 0 0112.351 12.982l-1.278 1.49-7.453 10.002h.426c0 .213-.213.213-.213.426s-.426 3.618 1.703 6.384a34.946 34.946 0 005.75 5.108l-9.583.426zm-5.324 6.384l-4.472 5.959-.851-1.064a28.314 28.314 0 00-6.389-5.533 43.898 43.898 0 00-7.453-4.044h-1.491l4.472-5.959c4.685-6.171 8.092-4.469 12.99-.851 4.898 3.618 4.898 3.618 5.324 5.959a8.509 8.509 0 01-2.13 5.533zm-13.415 1.916c4.046 2.979 6.388 5.533 6.814 6.81a26.628 26.628 0 01-8.731-4.044c-4.046-2.979-6.388-5.533-6.814-6.81a26.637 26.637 0 018.731 4.044zm-20.231-8.939a29.6 29.6 0 00-5.962-5.32 26.834 26.834 0 00-6.389-3.405l-.638-.426 3.407-4.682c4.259-4.469 6.388-3.618 10.647-.851 4.259 2.766 4.259 3.192 4.472 4.895a6.802 6.802 0 01-1.916 4.894l-3.621 4.895zm-7.666-2.766a20.226 20.226 0 015.324 5.107 28.536 28.536 0 01-6.601-3.192 20.214 20.214 0 01-5.324-5.108 28.519 28.519 0 016.601 3.193zm-159.924 32.135a22.754 22.754 0 011.916-9.364 20.847 20.847 0 011.278 9.577 22.755 22.755 0 01-1.917 9.364 20.846 20.846 0 01-1.277-9.577zm6.388.213a33.809 33.809 0 00-.852-8.513c0-.425-.213-.851-.213-1.277l7.454.426c7.666.638 8.092 4.469 7.666 10.641-.426 6.172-.426 5.959-2.13 7.449a7.882 7.882 0 01-6.388 1.489l-7.24-.425a40.045 40.045 0 001.703-9.79zm14.055 11.279c2.555-2.554 2.981-6.171 3.194-10.002.213-3.831.639-12.769-10.647-13.833h-1.704c-.426-2.128-.852-4.044-1.065-5.959a12.968 12.968 0 002.981-1.49c2.343-2.128 2.769-5.533 2.982-8.725.213-3.193-.213-9.365-7.028-11.28a10.48 10.48 0 01.213-2.554 13.21 13.21 0 0012.99 2.129c5.324-2.341 10.435-8.513 15.758-18.516a4.05 4.05 0 003.195 2.129v.425l13.203.639h2.129c-.426 5.32-.852 11.066-1.704 17.025h-1.277l-12.777-.851v.638c-1.704 0-3.194 1.49-4.472 4.469a36.195 36.195 0 00-1.917 9.364 33.652 33.652 0 00.213 9.364c.639 3.406 1.917 5.321 3.833 5.534h.426v.425l11.287.639a232.94 232.94 0 01-4.472 17.451h-1.917l-11.925-.851v.425h-.852c-4.259 0-5.324 8.3-5.749 12.344a54.215 54.215 0 01-5.111-8.3l.213-.639zm-20.443-33.199c0-.213.213-.426.213-.639a23.63 23.63 0 001.064-7.236 24.462 24.462 0 00-.638-7.235v-.639l5.962.426c5.963.851 6.601 3.192 6.389 8.513-.213 5.32-.639 5.107-1.917 6.171a6.168 6.168 0 01-4.898 1.064l-6.175-.425zm-4.046-8.087a29.747 29.747 0 011.277-7.236 19.999 19.999 0 01.852 7.448 17.435 17.435 0 01-1.278 7.236 25.912 25.912 0 01-.851-7.448zM12.138 276.876a28.12 28.12 0 0110.009-3.618 25.773 25.773 0 01-8.305 6.598 22.804 22.804 0 01-9.796 3.618 24.062 24.062 0 018.092-6.598zm1.065-20.43l-3.407-6.598h1.277a34.912 34.912 0 008.092-3.405 30.86 30.86 0 007.667-5.959h.212l3.408 6.598c3.407 7.023.426 9.151-5.111 12.13-5.537 2.98-5.324 2.767-7.666 2.129a10.652 10.652 0 01-4.472-4.895zm11.712-18.941a20.018 20.018 0 01-7.453 5.959 22.372 22.372 0 01-8.944 3.405 19.803 19.803 0 017.453-6.172 24.507 24.507 0 018.944-3.192zm-8.092 26.602l2.342.426a16.827 16.827 0 007.88-2.767c4.471-2.341 11.286-6.172 6.175-16.174l-.852-1.703 4.685-4.043a4.683 4.683 0 002.768 1.915l2.13.426a17.468 17.468 0 006.814-2.341c4.26-2.341 7.88-5.108 5.963-11.918l2.342-1.277c0 2.98-.213 8.513 5.111 12.344 5.324 3.83 12.564 4.682 23.85 3.83a3.62 3.62 0 00-.213 3.831h-.213l6.176 11.705a8.71 8.71 0 001.065 1.915l-15.333 7.236-.638-1.064-5.963-11.492-.426.426c-.852-1.703-2.981-2.129-6.175-1.49a36.646 36.646 0 00-8.944 2.979c-1.278.639-12.99 6.598-10.648 11.28 0 .212.213.212.213.425h-.213l5.111 10.003c-5.537 1.915-11.286 3.831-17.249 5.32l-.639-1.915-5.536-10.641h-.426a.851.851 0 00-.213-.639c-2.13-3.83-10.009-.425-13.629 1.49a55.975 55.975 0 014.472-8.725l.213.638zm20.656-29.156l-2.981-5.533a30.89 30.89 0 007.453-2.767 36.628 36.628 0 005.75-4.256c.056 0 .11-.023.15-.062a.215.215 0 00.063-.151h.638l2.556 5.108c2.342 5.746.639 7.448-3.833 9.789-4.472 2.341-4.898 2.341-6.389 1.916-1.49-.426-2.342-1.916-3.407-4.044zm8.73-15.748a25.573 25.573 0 01-5.749 4.682 23.844 23.844 0 01-7.027 2.553 19.808 19.808 0 015.962-4.469 23.41 23.41 0 016.815-2.766zM82.412 64.271c.639 3.618 3.407 5.959 6.602 8.087a15.55 15.55 0 008.73 3.83c2.556 0 5.537-1.489 8.518-5.32l1.278-1.49 5.537 2.129a7.017 7.017 0 00-.426 3.618c.426 2.98 3.194 5.107 5.75 6.81a12.565 12.565 0 007.24 2.98 8.314 8.314 0 005.962-2.767l2.13 1.49c-2.556 1.276-7.666 3.617-8.731 10.002-1.065 6.384 1.491 13.407 7.24 23.197a3.41 3.41 0 00-3.62 1.49h-.213l-7.666 10.854-1.278 1.702-13.415-10.428.851-1.064 7.454-10.215v-.426c2.555-4.256-7.241-11.918-8.305-12.77-1.065-.85-11.5-8.725-14.694-4.681l-.426.638v-.425l-6.814 9.151c-4.26-4.044-8.305-8.513-12.351-12.982l1.277-1.49 7.24-9.79h-.425l.639-.425c2.342-3.618-4.26-9.151-7.454-11.492l9.37-.213zm5.324-6.385l4.259-5.958a29.169 29.169 0 007.453 6.597 26.416 26.416 0 008.731 4.47l-4.472 6.17c-4.472 5.96-7.879 4.257-12.99.852-5.11-3.405-4.685-3.618-5.11-5.959a8.083 8.083 0 012.129-6.172zm13.416-1.915a23.205 23.205 0 01-7.028-6.597 18.742 18.742 0 018.731 4.043 20.649 20.649 0 017.028 6.598 22.57 22.57 0 01-8.731-4.044zm20.23 9.151a27.257 27.257 0 005.749 5.108 30.488 30.488 0 006.602 3.405l.639.426-3.62 4.682c-4.046 4.682-6.389 3.83-10.435.85-4.046-2.978-4.259-3.191-4.472-4.894a6.384 6.384 0 011.917-4.682l3.62-4.895zm7.666 2.554a22.576 22.576 0 01-5.537-4.895 15.975 15.975 0 016.602 3.193 18.946 18.946 0 015.536 4.894 21.507 21.507 0 01-6.601-3.192zm152.259-39.584l7.24.426-.426 1.276a32.54 32.54 0 00-1.278 8.513 34.688 34.688 0 00.639 8.513c.213.426.213.851.426 1.277l-7.453-.426c-7.666-.851-8.092-4.469-7.879-10.64.213-2.98.638-5.96 2.342-7.662a8.096 8.096 0 015.111-1.49l1.278.213zm11.925 10.428c0 3.219-.652 6.404-1.917 9.364a20.846 20.846 0 01-1.278-9.577 22.755 22.755 0 011.917-9.364 20.846 20.846 0 011.278 9.577zm-20.443-11.492c-2.556 2.34-3.195 6.172-3.408 10.002-.213 3.831-.426 12.77 10.648 13.834h1.916a58.135 58.135 0 011.065 5.958 7.452 7.452 0 00-3.194 1.49c-2.343 2.128-2.556 5.32-2.768 8.726-.213 3.405.212 9.364 7.027 11.28a10.415 10.415 0 00-.213 2.553 13.207 13.207 0 00-12.99-2.128c-5.324 2.34-10.647 8.512-15.758 18.515a4.262 4.262 0 00-3.194-2.341l-13.416-.851h-1.917c.213-5.108.852-10.854 1.491-16.813h1.491l12.564.851v-.425c4.897 0 6.175-12.344 6.388-13.834a33.388 33.388 0 00-.213-9.364c-.639-3.617-1.916-5.32-3.833-5.533h-.426v-.425l-11.286-.639c1.277-5.959 2.555-11.705 4.259-17.664l1.916.426 12.138.851v-.426h.852c4.046 0 5.324-8.3 5.75-12.343a78.442 78.442 0 015.111 8.3zm20.443 33.2a.858.858 0 00-.213.638 23.6 23.6 0 00-1.065 7.236 24.457 24.457 0 00.426 7.023v.638l-5.75-.425c-6.175-1.064-6.601-3.405-6.388-8.513.213-5.108.426-5.108 1.703-6.172a5.122 5.122 0 013.833-1.064h1.278l6.176.639zm3.833 7.874a17.871 17.871 0 01-1.278 7.448 25.954 25.954 0 01-.852-7.448c.033-2.485.539-4.94 1.491-7.236.639 2.355.855 4.805.639 7.236zm111.585 89.171a26.207 26.207 0 01-9.796 3.617 21.726 21.726 0 018.092-6.597 24.287 24.287 0 0110.009-3.618 25.78 25.78 0 01-8.305 6.598zm-36.84 184.513a8.509 8.509 0 012.981 5.32 20.208 20.208 0 01-2.981 13.195l-5.111 6.81-.639-.851a36.637 36.637 0 00-7.24-6.385 46.495 46.495 0 00-7.879-4.043l-1.491-1.277 4.898-6.385c3.833-5.32 13.203-9.364 17.462-6.384zm-34.285-32.774a8.509 8.509 0 012.981 5.32 19.778 19.778 0 01-2.981 12.982l-5.111 7.023-1.916-1.277a35.777 35.777 0 00-14.694-10.641l-.639-.638 5.111-6.81c3.833-5.108 12.777-9.152 17.249-5.959zm-8.092 28.943a25.34 25.34 0 01-9.157-4.895 29.357 29.357 0 01-7.24-7.661 25.34 25.34 0 019.157 4.895 29.374 29.374 0 017.24 7.661zM190.376 425.21a19.81 19.81 0 01-12.777 4.682l-8.731-.638.639-1.277a40.15 40.15 0 001.278-9.577 28.943 28.943 0 00-.852-9.577v-1.277l8.305.639c6.176.426 15.12 5.746 14.907 11.492a7.446 7.446 0 01-2.769 5.533zm12.138-51.927a8.297 8.297 0 01-2.981 5.32 19.598 19.598 0 01-12.351 4.469l-8.944-.638v-2.341a37.01 37.01 0 001.491-7.874 33.18 33.18 0 00-.213-10.216v-.638l8.518.426c6.601.425 14.693 6.171 14.48 11.492zm-29.6-1.703a26.178 26.178 0 012.769-10.215 31.286 31.286 0 01.639 10.428 21.695 21.695 0 01-2.769 10.003 29.154 29.154 0 01-.639-10.216zM26.406 303.053a9.597 9.597 0 01-6.389.213 19.378 19.378 0 01-10.647-8.513l-3.833-7.661h1.277a43.25 43.25 0 0016.823-9.577l1.065-.639 3.833 7.449c2.768 5.32 2.981 15.961-2.13 18.728zm44.293-16.387a7.246 7.246 0 01-5.962.213 17.462 17.462 0 01-10.222-8.3l-4.046-7.875 1.916-1.064a30.449 30.449 0 007.667-2.766 40.922 40.922 0 008.518-5.533l.638-.426 3.833 7.661c2.982 5.746 2.556 15.536-2.342 18.09zm-22.147-20.218a26.204 26.204 0 018.518-5.959 26.628 26.628 0 0110.009-2.979 25.565 25.565 0 01-8.518 5.959c-4.898 2.341-8.518 3.192-10.009 2.979zm3.195-176.213a7.66 7.66 0 01-2.982-5.533 18.08 18.08 0 012.982-13.195l5.11-6.81.852 1.064a36.408 36.408 0 007.24 6.172 31.735 31.735 0 008.518 4.469l1.065.851-4.898 6.81c-3.62 4.895-12.99 9.577-17.887 6.172zm34.497 32.774a8.513 8.513 0 01-2.981-5.533 18.722 18.722 0 012.768-12.77l5.324-7.235 1.917 1.49a41.742 41.742 0 0014.693 10.64l.426.426-4.898 6.81c-3.833 5.321-12.99 9.151-17.249 6.172zm8.092-29.156a23.64 23.64 0 019.157 5.107c4.259 3.193 6.602 6.172 7.027 7.662a27.249 27.249 0 01-9.156-5.108 22.347 22.347 0 01-7.028-7.661zM237.651 9.577a18.96 18.96 0 0111.925-4.682h.852l8.518.638c-.213.426-.213.852-.426 1.277a39.365 39.365 0 00-1.491 9.577 49.78 49.78 0 00.852 9.577v1.277l-8.305-.639c-6.175-.425-15.332-5.746-14.906-11.492a7.438 7.438 0 012.981-5.533zm-12.138 51.927a7.44 7.44 0 012.981-5.32 18.107 18.107 0 0111.499-4.47h.852l8.731.64v2.34a36.138 36.138 0 00-1.703 7.874 45.95 45.95 0 00.425 10.216v.638l-8.518-.638c-6.388-.426-14.693-5.96-14.267-11.28zm29.6 1.703a26.146 26.146 0 01-2.769 10.215 22.763 22.763 0 01-.638-10.428 24.876 24.876 0 012.555-10.215 24.885 24.885 0 01.852 10.428zm70.273 114.283l4.259 7.874-.426.426a30.675 30.675 0 00-9.796 3.618 33.88 33.88 0 00-7.879 5.533l-.639.426-4.259-7.874c-2.981-5.746-2.129-15.323 2.556-17.877a5.748 5.748 0 012.981-.851 7.03 7.03 0 013.194.638 18.098 18.098 0 0110.009 8.087zm5.111 12.344a23.01 23.01 0 01-7.666 5.746 30.474 30.474 0 01-8.944 3.405 22.99 22.99 0 017.666-5.746 30.435 30.435 0 018.944-3.405zm-43.442 15.11h-.213a36.838 36.838 0 00-9.795 3.618 49.58 49.58 0 00-8.093 5.959h-.638l-4.472-8.088a19.987 19.987 0 01-1.491-10.215 9.358 9.358 0 014.259-7.448 6.806 6.806 0 012.981-.639 11.51 11.51 0 015.537 1.49 18.52 18.52 0 017.666 6.81l4.259 8.513zm1.065 4.256a26.4 26.4 0 01-7.666 5.746 28.967 28.967 0 01-9.157 3.192 33.213 33.213 0 017.879-5.533 25.36 25.36 0 018.944-3.405zm11.286 72.997a8.507 8.507 0 012.981 5.533 18.292 18.292 0 01-2.768 12.556l-5.324 7.236h-.425a34.948 34.948 0 00-7.667-7.023 35.56 35.56 0 00-8.518-4.682l-.638-.426 5.323-7.235c3.62-5.321 12.777-9.152 17.036-5.959zm-8.731 28.092a30.267 30.267 0 01-8.518-4.257 36.395 36.395 0 01-7.027-6.597c3.062.92 5.944 2.36 8.518 4.256a30.635 30.635 0 017.027 6.598zm-11.925-24.9l-4.259 6.172c-3.407-4.257-7.24-8.513-11.499-13.195l2.981-4.044 9.37 7.236h.213l4.259 2.767-1.065 1.064zm-24.276-4.469a30.228 30.228 0 01-8.518-4.257 36.366 36.366 0 01-7.027-6.597 30.686 30.686 0 018.731 4.256 33.22 33.22 0 016.814 6.598zm3.407-2.98a68.467 68.467 0 00-7.666-7.236 53.084 53.084 0 00-8.944-4.682l-.639-.425 5.537-7.449a17.254 17.254 0 018.305-5.746 9.384 9.384 0 018.731.426c4.259 3.192 3.833 12.769.213 17.664l-5.537 7.661v-.213zm-81.559 56.61a27.21 27.21 0 01-.852-9.577 22.975 22.975 0 011.916-9.364 31.042 31.042 0 01.852 9.364 30.434 30.434 0 01-1.916 9.577zm4.259.851l.426-.638a39.143 39.143 0 001.49-9.364 34.237 34.237 0 00-.639-9.79v-.851l8.944.638c6.389.426 14.268 5.959 14.055 11.492a8.297 8.297 0 01-2.981 5.321 17.894 17.894 0 01-12.351 4.256l-8.944-.425v-.639zm10.434-24.261l-7.453-.426a230.663 230.663 0 004.898-16.812l5.111.425-1.065 11.705v5.108h-1.491zm-9.157-22.984a25.933 25.933 0 01-.851-9.577 31.686 31.686 0 011.703-9.364 22.326 22.326 0 01.852 9.577 28.934 28.934 0 01-1.704 9.364zm4.259 1.064a32.742 32.742 0 001.917-10.216 35.727 35.727 0 00-.639-10.002v-.639l9.157.639c6.388.213 14.054 5.959 13.841 11.279a9.784 9.784 0 01-5.323 7.023 16.83 16.83 0 01-9.796 2.767l-9.157-.639v-.212zm-7.666-71.933a32.336 32.336 0 015.366-18.051 32.372 32.372 0 0133.264-13.898 32.373 32.373 0 0116.625 8.863 32.342 32.342 0 018.869 16.615 32.324 32.324 0 01-1.893 18.736 32.35 32.35 0 01-12.013 14.508 32.385 32.385 0 01-40.738-4.111 32.342 32.342 0 01-9.48-22.662zm-34.71 55.546l-16.611-26.815 8.731-4.47a20.669 20.669 0 0015.333 8.513 10.006 10.006 0 005.11-1.064c6.389-3.405 8.093-13.407 5.537-20.856l11.712-5.959a37.026 37.026 0 0010.648 21.707l-40.46 28.944zm-31.943-8.3a7.883 7.883 0 01-6.175.213 17.464 17.464 0 01-10.009-8.087l-4.259-8.088h.426a43.873 43.873 0 009.796-3.617 39 39 0 007.879-5.534l.639-.425 4.046 7.874c2.981 5.533 2.342 15.11-2.343 17.664zm-21.295-20.431a27.04 27.04 0 017.666-5.533 30.476 30.476 0 018.944-3.405 22.99 22.99 0 01-7.666 5.746 28.313 28.313 0 01-8.944 3.192zm27.471.639l-3.408-6.81c5.111-1.065 10.861-2.554 16.823-4.257l2.343 4.257-10.648 5.533h-.213l-4.258 2.554-.639-1.277zm15.971-15.536h1.065a53.417 53.417 0 008.943-3.405 41.982 41.982 0 007.88-5.533c0-.213.213-.213.213-.426h.638l4.259 8.087c2.982 5.533 2.13 15.11-2.555 17.664-4.685 2.554-13.203-2.128-16.184-7.661l-4.259-8.726zm-1.065-4.256a26.4 26.4 0 017.666-5.746 36.002 36.002 0 019.157-3.406 27.48 27.48 0 01-7.879 5.747 30.474 30.474 0 01-8.944 3.405zm-8.731-75.338a7.224 7.224 0 01-2.768-5.32 17.02 17.02 0 012.768-12.557l5.324-7.448.426.425.426.639a41.909 41.909 0 007.027 6.384 40.634 40.634 0 008.518 4.682l.639.426-5.111 7.023c-3.833 5.32-12.777 8.938-17.249 5.746zm8.944-28.092a29.613 29.613 0 018.518 4.469 24.91 24.91 0 016.814 6.598 33.015 33.015 0 01-8.518-4.47 24.906 24.906 0 01-6.814-6.597zm11.712 24.9l4.472-6.172a203.157 203.157 0 0011.499 13.195l-2.981 4.043-9.583-7.023h-.213l-4.258-2.553 1.064-1.49zm24.276 4.469a25.133 25.133 0 018.518 4.469 23.426 23.426 0 017.028 6.597 27.243 27.243 0 01-8.518-4.469 30.656 30.656 0 01-7.028-6.597zm-3.194 3.192a34.941 34.941 0 007.666 7.023 43.23 43.23 0 008.518 4.682h.213l.639.426-5.324 7.448a17.45 17.45 0 01-8.305 5.959 9.375 9.375 0 01-8.731-.425c-4.471-3.193-3.833-12.769-.213-17.877l5.324-7.449.213.213zm-10.221 7.023a21.698 21.698 0 00-2.556 10.003 13.614 13.614 0 004.898 11.492 11.715 11.715 0 006.814 2.128 21.513 21.513 0 0014.268-6.384l10.647 7.661a38.312 38.312 0 00-14.693 19.366l-44.08-23.41 16.61-26.815 8.092 5.959zm96.04-60.866a33.61 33.61 0 01.851 9.577 27.432 27.432 0 01-1.916 9.364 26.587 26.587 0 01-.852-9.577 24.895 24.895 0 011.917-9.364zm-4.472-1.064c0 .426-.213.639-.213.851a38.739 38.739 0 00-1.704 9.364c-.147 3.277.067 6.56.639 9.79v.639l-8.731-.426c-6.388-.426-14.48-5.959-14.055-11.492a7.455 7.455 0 012.982-5.321 18.107 18.107 0 0111.499-4.469h.639l8.944.639v.425zm-10.222 24.474l7.453.426a332.097 332.097 0 00-5.11 16.813l-4.685-.426.639-12.131v-4.895l1.703.213zm9.157 22.772a33.643 33.643 0 01.852 9.577 25.297 25.297 0 01-1.917 9.576 33.64 33.64 0 01-.852-9.576 25.302 25.302 0 011.917-9.577zm-4.472-.851a53.666 53.666 0 00-1.917 10.215 61.747 61.747 0 00.639 9.577.213.213 0 01.213.212v.852l-9.157-.639a18.732 18.732 0 01-9.582-3.831c-2.769-2.341-4.472-5.107-4.259-7.448.213-2.341 8.092-9.79 14.267-9.79h.639l9.37.426-.213.426zm-11.286-5.108c-7.879.638-16.61 6.384-17.036 13.62-.426 7.236 1.916 7.875 5.962 11.28a21.733 21.733 0 008.944 4.256l-.852 14.046a37.076 37.076 0 00-16.823-4.044 28.133 28.133 0 00-7.24.852l-4.046-49.587h31.73l-.639 9.577zm46.848 20.643l16.611 27.028-8.944 4.257a21.298 21.298 0 00-7.879-6.385 13.643 13.643 0 00-12.352-.851c-6.388 3.405-8.092 13.194-5.749 20.43l-11.286 5.746a37.45 37.45 0 00-10.861-21.069l40.46-29.156zM197.83 294.114a20.44 20.44 0 009.582-3.192 14.049 14.049 0 007.24-10.428c.426-7.023-7.24-13.62-14.693-15.323l.852-11.705a38.563 38.563 0 0023.637-1.277l4.046 51.715h-31.516l.852-9.79zm70.273-23.41c3.62-7.022 3.407-17.025-2.556-21.494-5.962-4.469-15.332-1.277-20.869 4.043l-9.795-7.235a37.033 37.033 0 0012.351-20.431l45.571 24.261-16.823 26.815-7.879-5.959zm19.165-74.486l10.648-5.533h.212l4.046-2.767c.153.561.446 1.074.852 1.49l3.407 6.81c-5.323 1.064-10.86 2.554-16.822 4.257l-2.343-4.257zm85.18-28.517a26.196 26.196 0 01-8.518 5.958 26.636 26.636 0 01-10.009 2.98 23.203 23.203 0 018.518-5.959c4.898-2.341 8.518-3.192 10.009-2.979zm-4.046-3.193a32.406 32.406 0 00-7.454 2.767 40.916 40.916 0 00-8.518 5.533h-.638l-4.046-7.448c-2.982-5.746-2.343-15.536 2.342-18.09a5.961 5.961 0 013.194-.851 6.823 6.823 0 012.982.638 18.952 18.952 0 0110.221 8.3l4.046 7.874-2.129 1.277zm27.896-7.235l-3.833-7.449c-2.769-5.321-2.981-15.961 2.129-18.728a8.542 8.542 0 013.195-.639l3.194.426a18.949 18.949 0 0110.434 8.513l4.046 7.661a30.888 30.888 0 00-10.221 4.044 28.498 28.498 0 00-7.666 5.533h-.213l-1.065.639zm1.065-40.436a81.574 81.574 0 018.731 12.344 17.478 17.478 0 00-4.046-1.916 11.304 11.304 0 00-9.157.639c-5.537 2.979-6.815 11.066-5.75 17.876-6.175 1.703-12.138 3.618-18.101 5.746a22.359 22.359 0 00-11.499-8.299 11.708 11.708 0 00-9.37.425c-5.962 3.192-7.24 11.705-5.962 18.515l-17.036 8.3a20.868 20.868 0 00-8.518-5.107 11.708 11.708 0 00-9.37.425c-5.962 3.193-7.453 11.28-6.175 18.09l-3.62 2.128-16.61-27.241c11.499-7.023 66.866-39.158 116.483-41.925zm-81.773 18.728a401.784 401.784 0 00-39.395 21.069l-42.803 30.859c-.213-.426-.639-.639-1.065-1.064 1.065-5.534 2.343-10.854 3.407-15.962l8.731.426h.639c1.917 0 3.62-1.703 4.685-5.108a30.851 30.851 0 001.491-9.364c.213-2.554.639-14.897-4.898-15.323h-3.194c1.703-6.171 3.194-11.705 4.897-16.812h2.556c5.111 0 6.175-11.918 6.175-14.472a44.563 44.563 0 00-.213-7.661c6.176-12.982 11.287-18.516 15.546-20.218l2.342-.639a153.099 153.099 0 0156.858 47.246l-15.759 7.023zM264.27 16.6a23.399 23.399 0 01-2.13 10.215 24.89 24.89 0 01-1.278-10.428c.024-3.561.672-7.09 1.917-10.428.852 1.49 1.491 5.108 1.491 10.64zM223.809 5.32a86.3 86.3 0 0114.907-1.064l-3.62 2.341a13.189 13.189 0 00-4.259 8.3c-.213 6.172 5.962 11.492 12.351 14.046a269.818 269.818 0 00-4.472 18.515 23.645 23.645 0 00-13.203 5.534 11.715 11.715 0 00-2.993 3.707 11.715 11.715 0 00-1.266 4.593c-.426 6.81 6.175 12.13 12.777 14.684a350.076 350.076 0 00-1.917 18.728 21.732 21.732 0 00-8.731 4.682 12.145 12.145 0 00-4.472 8.3c-.425 6.81 5.963 12.131 12.139 14.472v4.256h-31.73c-.213-13.408 1.065-77.466 24.489-121.094zm-26.405 79.594a328.16 328.16 0 00-2.343 44.692l4.046 51.928-4.259 1.702-11.073-10.853 5.111-7.023h.213c1.064-1.703.638-4.044-1.704-6.811a36.6 36.6 0 00-7.24-6.384c-1.917-1.49-12.138-8.3-15.333-3.831h-.213l-1.703 2.341-11.499-13.195 1.064-1.276.426-.426c2.982-4.469-6.814-11.705-8.944-13.195a36.029 36.029 0 00-6.601-3.831c-7.666-12.13-9.583-19.579-8.731-24.048a8.085 8.085 0 012.343-4.47 48.092 48.092 0 015.536-3.404h.426a150.195 150.195 0 0163.033-18.941c-1.065 5.746-1.917 11.705-2.555 17.025zM68.783 66.186a26.614 26.614 0 017.879 7.236 26.199 26.199 0 01-9.583-4.469 29.806 29.806 0 01-7.88-7.236 23.005 23.005 0 019.584 4.47zM37.691 94.278a83.414 83.414 0 017.24-13.194 9.358 9.358 0 00.213 4.256 11.274 11.274 0 004.472 8.087 9.8 9.8 0 005.963 1.703 21.729 21.729 0 0012.564-4.682c4.259 4.895 8.73 9.364 13.202 13.833a24.035 24.035 0 00-2.342 13.833 12.98 12.98 0 004.685 8.3 11.286 11.286 0 006.388 1.915 22.151 22.151 0 0012.777-4.895l14.907 11.493a22.75 22.75 0 00-.639 10.002 12.554 12.554 0 004.685 8.3 11.928 11.928 0 006.601 1.915 21.299 21.299 0 0012.138-4.469l3.62 2.128-16.823 27.028c-11.499-7.236-65.162-42.351-89.651-85.553zm89.651 90.661l46.636 24.474a26.404 26.404 0 00-.852 7.023l-14.48 4.895-4.259-7.662c-2.768-4.895-13.629.639-15.971 1.916a34.063 34.063 0 00-7.879 5.533c-2.556 2.554-3.408 4.682-2.343 6.597l1.491 2.554c-6.176 1.915-11.712 3.192-16.823 4.469l-.852-1.702c-.213 0-.213-.213-.213-.426-2.555-4.682-13.629.851-15.758 2.128l-6.389 4.044c-14.267 1.702-21.72 0-25.34-2.767a6.598 6.598 0 01-2.556-2.979 138.055 138.055 0 01-1.065-16.387 147.623 147.623 0 0117.036-68.953 354.767 354.767 0 0049.617 37.243zM23.637 317.312a77.657 77.657 0 01-8.73-12.344 14.063 14.063 0 004.045 1.916c1.381.42 2.816.635 4.26.638a9.797 9.797 0 004.897-1.277c5.537-2.979 6.815-11.066 5.537-17.877 6.175-1.702 12.35-3.617 18.313-5.746a22.357 22.357 0 0011.5 8.3 10.85 10.85 0 004.259.851 10.231 10.231 0 005.11-1.276c5.963-3.193 7.24-11.705 5.75-18.516 6.176-2.766 11.925-5.533 17.036-8.299a21.507 21.507 0 008.731 5.107c1.377.467 2.808.753 4.259.851a10.223 10.223 0 005.111-1.277c5.962-3.192 7.24-11.279 6.175-18.089l3.407-2.128 16.823 27.028c-11.499 7.236-66.866 39.371-116.483 42.138zm81.773-18.728a333.617 333.617 0 0039.395-21.282l42.59-30.646a35.126 35.126 0 007.666 4.682c-1.065 4.469-1.916 8.938-2.981 12.982l-8.731-.426h-.213c-5.537-.425-6.388 12.131-6.601 14.472-.213 2.341-.426 14.897 5.11 15.11h3.195a333.077 333.077 0 01-5.111 16.813h-2.13c-5.323-.426-6.388 11.917-6.601 14.471-.082 2.562.06 5.125.426 7.662-6.176 12.982-11.499 18.515-15.545 20.217-4.046 1.703-7.667-.425-10.009-1.915-2.342-1.49-2.342-1.49-3.62-1.064a153.077 153.077 0 01-52.386-44.479l15.546-6.597zm58.348 119.603c-.025-3.586.7-7.138 2.129-10.428a27.004 27.004 0 011.278 10.641 23.395 23.395 0 01-2.13 10.215 24.886 24.886 0 01-1.277-10.428zm40.46 11.28a87.358 87.358 0 01-15.119 1.064 11.085 11.085 0 003.62-2.554 11.717 11.717 0 004.472-8.087c.213-6.172-5.963-11.492-12.351-14.046a271.1 271.1 0 004.472-18.515 23.86 23.86 0 0012.989-5.533 12.138 12.138 0 004.472-8.3c.426-6.811-6.388-12.344-12.777-14.685.852-6.597 1.278-12.982 1.704-18.728a21.29 21.29 0 008.944-4.682 12.555 12.555 0 004.472-8.3c.213-6.81-5.963-12.13-12.351-14.684v-4.044h31.942c0 13.195-1.065 77.253-24.489 121.094zm26.406-79.594a375.731 375.731 0 002.342-44.692l-4.259-54.907 1.065-.851 10.221 10.002-5.11 7.236h-.213c-3.195 4.469 6.814 11.918 8.731 13.407 1.916 1.49 7.879 5.321 12.351 5.321a3.838 3.838 0 003.194-1.49l1.916-2.554 11.5 13.195-1.065 1.49-.426.426c-1.278 1.702-.639 3.83 1.704 6.81a53.628 53.628 0 007.027 6.384 45.838 45.838 0 006.601 3.831c7.879 12.131 9.583 19.366 8.944 24.048a7.46 7.46 0 01-1.277 2.98 150.197 150.197 0 01-65.376 24.474c.852-5.321 1.491-10.428 2.13-15.11zm155.239-12.131a64.382 64.382 0 01-6.814 12.769 12.54 12.54 0 00-.213-4.043 11.477 11.477 0 00-4.685-8.087c-5.324-3.831-13.203-1.277-18.739 2.766-4.259-4.682-8.731-9.151-13.203-13.62a20.843 20.843 0 002.342-13.833 11.268 11.268 0 00-4.472-8.087c-5.749-4.044-13.841-1.277-19.378 2.979-5.111-4.256-10.221-8.087-14.906-11.705a22.968 22.968 0 00.851-10.002 12.34 12.34 0 00-4.684-8.087c-5.537-4.044-13.416-1.49-18.74 2.553l-3.62-2.341 16.823-27.027c11.499 7.235 64.949 42.563 89.438 85.765zm-89.651-90.873l-48.127-25.538c0-1.277.213-2.554.213-3.831l14.055-4.682 4.046 7.661h.213a4.258 4.258 0 004.046 1.916h2.768a42.397 42.397 0 0016.823-9.151c2.769-2.554 3.621-4.682 2.556-6.598h-.213l-1.278-2.766 16.823-4.257.852 1.703h.213a3.828 3.828 0 003.833 2.128c4.472 0 10.221-3.192 11.925-4.044a47.518 47.518 0 006.389-4.256c14.267-1.49 21.72.213 25.34 2.98a6.82 6.82 0 012.343 2.553c.614 5.298.898 10.629.852 15.962a146.14 146.14 0 01-15.546 65.973 393.913 393.913 0 00-48.126-35.753z"/><path d="M210.607 237.931a20.456 20.456 0 0011.415-3.34 20.416 20.416 0 008.873-20.945 20.42 20.42 0 00-5.545-10.516 20.45 20.45 0 00-31.513 2.998 20.425 20.425 0 00-3.461 11.372 20.427 20.427 0 005.913 14.372 20.455 20.455 0 0014.318 6.059zm16.184-20.431a16.18 16.18 0 01-9.842 15.094 16.19 16.19 0 01-17.709-3.369 16.17 16.17 0 012.353-24.945 16.19 16.19 0 0120.383 1.92 16.171 16.171 0 014.815 11.3z"/></g><defs><clipPath id="clip0_113_615"><path fill="#fff" d="M0 0h421v435H0z"/></clipPath></defs></svg>