<svg width="355" height="406" fill="none" xmlns="http://www.w3.org/2000/svg"><g clip-path="url(#clip0_276_496)"><path d="M188.6 78.2v-6.1h14.9a53.197 53.197 0 006.9-26.7c0-24.2-14.9-43.9-33.2-43.9-18.3 0-33.1 19.7-33.1 43.9a53.217 53.217 0 006.9 26.7h14.9v6.1c-16.9 2.4-30.3 9.9-35.5 19.5a64.703 64.703 0 0093.7 0c-5.2-9.6-18.7-17.1-35.5-19.5zM67.8 154.7c-.3-1.8-.5-3.5-.9-5.3a5.105 5.105 0 01-2.5 1.6v-4.2c5.3-3.9 9.4-10.2 11.4-17.7 2 0 4.5-2.6 5.8-6.4 1.3-3.8.9-8.2-1.3-9-2.2-.8-2.2.1-3.3 1-1.1.9-.1-1.1-.2-1.7 1.6-2.2 3.1-4.5 4.7-6.8h-2.6a9.405 9.405 0 006.7-6.1h-4.1a13.2 13.2 0 006-4.7l-5.2-.3a10.8 10.8 0 005.5-4.8 9.7 9.7 0 01-6.3.1 9.8 9.8 0 005.2-4.6 19.101 19.101 0 01-17.7.7c-3-1.4-5.6-3.6-8.7-4.8a15.899 15.899 0 00-15.2 1.9c-1.9 1.4-3.6 3.4-6 3.7a20.2 20.2 0 01-3.5-.1c-6.8-.3-12 6.9-12.2 13.7-.1 4.7 1.5 9.2 3.6 13.5 0 .1-.1.3-.1.4 0 .1-2.3-1.4-3.3-1-1 .4-2.7 4.8-1.3 9 1.4 4.2 3.8 6.4 5.8 6.4 2.1 7.5 6.1 13.8 11.4 17.7v4.2a5.597 5.597 0 01-2.5-1.6 48.493 48.493 0 00-.8 5.3c-14.4 2.3-26.7 7.7-34.7 15a64.902 64.902 0 00100.9 0c-8-7.4-20.3-12.8-34.6-15.1zm247.5 140.4v-2.8c8.6-.6 17.5-2.2 25.5.7a117.334 117.334 0 01-5.9-29.3c-.6-8.1-.3-16.3-2.9-23.9-2.6-7.6-9.6-16-18.1-19.1a26.7 26.7 0 00-25.7 3.8c-2.5 1.9-4.7 4.8-4.5 7.9-4.3-1.4-9.1 1.6-11.1 5.7s-1.9 8.9-1.6 13.4c.8 13.3 2.8 26.9-.8 39.8l22.4.6v3.2c-15.5 2.2-28.8 8.7-37.2 17.7a64.808 64.808 0 0048.55 21.882A64.808 64.808 0 00352.5 312.8c-8.4-9-21.7-15.5-37.2-17.7zM314 153.2v-3.9c4.5-4 8-9.9 10-16.9l.5.2c2.3.4 4.8-3.8 5.5-9.4.7-5.6-.5-10.5-2.8-10.9a2.606 2.606 0 00-2 .8c0-.3-.1-.7-.1-1 0-.3.5-2.5.8-3.7.8-4 1.6-8.1.3-12a14.502 14.502 0 00-3.2-5.3 29 29 0 00-17.5-8.7 45.098 45.098 0 00-19.6 2.4c-3.7 1.3-8 4.2-7.3 8.1-1.9-.8-4.1.8-4.8 2.7-.7 1.9-.4 4-.1 6.1.5 3.7 1.1 7.4 1.6 11.1a2.3 2.3 0 00-1.5-.5c-2.3.4-3.5 5.3-2.8 10.9.7 5.6 3.2 9.8 5.5 9.4l.5-.2c2 7 5.5 12.9 10.1 16.9v3.8c-15.8 1.6-29.6 6.1-39.5 12.3a64.803 64.803 0 0052.647 27.364A64.803 64.803 0 00353.1 165.8c-9.7-6.3-23.4-10.9-39.1-12.6zM199.301 365.8l-.5-.9a4.698 4.698 0 01.6-5.4h-6.7c4.6-5.1 7.9-12.3 9.2-20.6 1.8-.6 3.8-3 5-6.3 1.2-3.3.8-8.2-1.3-9a3.503 3.503 0 00-3.2.9v-23.7a6.702 6.702 0 00-6.6-6.7h-37.1a6.6 6.6 0 00-6.6 6.7v23.7a3.506 3.506 0 00-3.2-.9c-2.2.8-2.8 4.8-1.3 9 1.5 4.2 3.1 5.7 5 6.3 1.3 8.3 4.6 15.5 9.2 20.6h-6.7a4.697 4.697 0 01.6 5.4l-.5.9c-11.7 2.8-21.6 7.6-28.4 13.8a64.906 64.906 0 0050.45 24.074 64.896 64.896 0 0050.45-24.074c-6.8-6.2-16.7-11-28.4-13.8zM62.9 301.5v-9.8c5.6-3.8 10-10.4 12.2-18.4l.5.2c2.2.4 4.7-2.9 5.5-7.3.16-1.193.227-2.397.2-3.6.326.333.715.597 1.144.777a3.489 3.489 0 002.712 0c.429-.18.818-.444 1.144-.777a3.595 3.595 0 00.783-2.828A3.599 3.599 0 0085.5 257.3a3.601 3.601 0 002.4-3.7 3.697 3.697 0 00-3.1-3.3c1.4-1.4 2.8-3.1 2.9-5.1.1-2-1.7-4.2-3.7-3.8 1.2-1 .7-3-.4-3.9a8.104 8.104 0 00-4.3-1.4c1.3 0 2.1-1.7 1.7-3a4.403 4.403 0 00-3.1-2.3c-3.4-.8-7.5.3-9.9-2.1a10.617 10.617 0 00-1.5-1.5c-1-.6-2.3-.4-3.4-.5-1.1-.1-2.4-1.3-1.9-2.3a9.405 9.405 0 01-5 .2 5.499 5.499 0 00-1.8-.2 2.996 2.996 0 00-1.3.9 11.589 11.589 0 00-1.6 2.1 8.006 8.006 0 00-1.5-2.1 3.4 3.4 0 00-1.4-.9 5.498 5.498 0 00-1.8.2 9.001 9.001 0 01-4.9-.2c.5 1-.8 2.1-2 2.3-1.2.2-2.4-.1-3.4.5-.549.449-1.051.951-1.5 1.5-2.4 2.4-6.5 1.3-9.8 2.1a4.4 4.4 0 00-3.1 2.3c-.5 1.3.3 3 1.7 3-1.6.2-3.2.4-4.3 1.4-1.1 1-1.6 2.9-.5 3.9-1.9-.4-3.7 1.7-3.6 3.8.1 2.1 1.4 3.7 2.8 5.1a3.804 3.804 0 00-3.1 3.3 3.701 3.701 0 002.4 3.7 3.497 3.497 0 00-1.873 2.391A3.499 3.499 0 0021.8 262.6a11.198 11.198 0 00.2 3.6c.7 4.4 3.2 7.7 5.5 7.3l.4-.2c2.2 8 6.6 14.6 12.2 18.4v9.8c-16.5 1.6-30 6.8-36.1 13.5a64.797 64.797 0 0095 0c-6.1-6.7-19.5-11.9-36.1-13.5z" stroke="#E8623D" stroke-width="3" stroke-linecap="round" stroke-linejoin="round"/><path clip-rule="evenodd" d="M135.301 184.9v-4.5h25.3a31.885 31.885 0 019.8 1.5 37.718 37.718 0 017.6 3.5 37.693 37.693 0 017.6-3.5 31.88 31.88 0 019.8-1.5h25.2v44.7h-25.2a26.516 26.516 0 00-8.5 1.3 24.59 24.59 0 00-7.6 3.8l-1.3.9-1.3-.9a24.107 24.107 0 00-7.7-3.8 25.5 25.5 0 00-8.4-1.3h-25.3v-40.2 0z" stroke="#6C6C6C" stroke-width="3" stroke-miterlimit="10"/><path d="M221.101 187.4h5.5v44.7h-31.2a29.58 29.58 0 00-8.5 1.3 27.415 27.415 0 00-7.6 3.9l-1.3.9-1.3-.9a26.58 26.58 0 00-7.7-3.9 28.395 28.395 0 00-8.4-1.3h-31.3v-44.7h5.6" stroke="#6C6C6C" stroke-width="3" stroke-miterlimit="10"/><path d="M228.2 194h4.6v44.7h-37.3a28.395 28.395 0 00-8.4 1.3 30.715 30.715 0 00-7.7 3.8l-1.3 1-1.3-1a29.998 29.998 0 00-7.6-3.8 28.902 28.902 0 00-8.4-1.3h-37.3V194h4.5m49.801-8.2v45" stroke="#6C6C6C" stroke-width="3" stroke-miterlimit="10"/><path d="M145.6 189.8h19.5m-19.6 8.3H165m-19.6 8.4h19.5m-19.5 8.3h19.5m25.2-25h19.5m-19.6 8.3h19.5m-19.6 8.4h19.5m-19.5 8.3h19.5" stroke="#E8623D" stroke-width="2" stroke-linecap="round" stroke-linejoin="round"/></g><defs><clipPath id="clip0_276_496"><path fill="#fff" d="M0 0h354.6v405.2H0z"/></clipPath></defs></svg>