<svg width="427" height="247" fill="none" xmlns="http://www.w3.org/2000/svg"><g clip-path="url(#clip0_276_520)"><path clip-rule="evenodd" d="M115.8 162.8l-101.6-.2a6.103 6.103 0 00-6.2 6.1l3.3 60.3a6.1 6.1 0 006.1 6.1l94.8.3a6.1 6.1 0 006.2-6.1L122 169a6.399 6.399 0 00-6.2-6.2v0z" stroke="#6C6C6C" stroke-width="3" stroke-miterlimit="10"/><path d="M111.499 228.5l-89.8-.3" stroke="#6C6C6C" stroke-width="3" stroke-miterlimit="10"/><path clip-rule="evenodd" d="M268.4 162.8l-101.7-.2a6.1 6.1 0 00-6.2 6.1l3.3 60.3a6.103 6.103 0 006.2 6.1l94.8.3a6.1 6.1 0 006.1-6.1l3.6-60.3a6.302 6.302 0 00-6.1-6.2v0z" stroke="#6C6C6C" stroke-width="3" stroke-miterlimit="10"/><path d="M263.999 228.5l-89.8-.3" stroke="#6C6C6C" stroke-width="3" stroke-miterlimit="10"/><path d="M273.699 156.4c-9.7-10.4-23.2-17.8-41.1-20.3v-3.4c9.9-.6 18.3-2.5 27.6.9a134.407 134.407 0 01-6.8-33.8c-.7-9.3-.4-18.8-3.3-27.6a36.099 36.099 0 00-20.9-22c-9.8-3.6-21.5-2.1-29.6 4.4-2.9 2.3-5.5 5.5-5.2 9.2-5-1.7-10.5 1.8-12.8 6.5-2.3 4.7-2.2 10.2-1.9 15.5 1 15.3 3.3 31-.8 45.8l24 .8v3.7c-17.9 2.5-31.4 9.9-41.2 20.3" stroke="#E8623D" stroke-width="3" stroke-miterlimit="8"/><path clip-rule="evenodd" d="M418.7 162.8l-101.7-.2a6.1 6.1 0 00-6.1 6.1l3.3 60.3a6.09 6.09 0 001.787 4.313 6.096 6.096 0 004.313 1.787l94.8.3a6.111 6.111 0 004.379-1.751 6.112 6.112 0 001.348-1.991 6.117 6.117 0 00.473-2.358l3.6-60.3a6.399 6.399 0 00-6.2-6.2v0z" stroke="#6C6C6C" stroke-width="3" stroke-miterlimit="10"/><path d="M414.4 228.5l-89.9-.3" stroke="#6C6C6C" stroke-width="3" stroke-miterlimit="10"/><path d="M124.001 148.8c-11.1-5.3-24.9-9-40-10.6v-5c5.7-5 10.2-12.5 12.7-21.3l.6.2c2.9.5 6-4.8 6.9-11.9.9-7.1-.6-13.2-3.5-13.7a3.4 3.4 0 00-2.5 1c-.1-.4-.1-.8-.2-1.2-.1-.4.6-3.2 1-4.7 1-5 2-10.3.4-15.2a18.9 18.9 0 00-4.2-6.7c-5.6-6.2-13.7-9.9-22-10.9s-16.8.3-24.8 3.1c-4.7 1.6-10.1 5.2-9.1 10.1-2.4-.9-5.2 1.1-6.1 3.5-.9 2.4-.6 5.1-.2 7.7.7 4.6 1.5 9.3 2.2 14a2.2 2.2 0 00-2-.5c-2.9.5-4.4 6.6-3.5 13.6.9 7 4.1 12.4 7 11.9l.7-.2c2.4 8.8 6.9 16.3 12.6 21.3v4.8c-15.9 1.7-30.2 5.6-41.7 11.2m411.899 8.3c-5.9-11-21.2-19.5-40.3-22.2v-6.9h16.9a60.699 60.699 0 007.8-30.4c0-27.5-16.9-49.9-37.7-49.9-20.8 0-37.6 22.4-37.6 49.9a60.699 60.699 0 007.8 30.4H354v6.9c-19.1 2.7-34.5 11.2-40.4 22.2" stroke="#E8623D" stroke-width="3" stroke-miterlimit="8"/><path d="M299.801 8.2h-39.3a13.702 13.702 0 00-13.7 13.7v18a13.697 13.697 0 0013.5 13.7v13.1a2.597 2.597 0 003.007 2.404 2.602 2.602 0 001.293-.604l14.8-14.9h20.4a13.7 13.7 0 0013.7-13.7v-18a13.709 13.709 0 00-4.013-9.687 13.697 13.697 0 00-9.687-4.013v0z" stroke="#6C6C6C" stroke-width="1.89" stroke-miterlimit="10"/><path d="M271.039 33.99c1.496 0 2.743-1.206 2.743-2.868 0-1.663-1.247-2.826-2.743-2.826-1.538 0-2.826 1.163-2.826 2.826 0 1.662 1.288 2.867 2.826 2.867zm9.416 0c1.496 0 2.743-1.206 2.743-2.868 0-1.663-1.247-2.826-2.743-2.826-1.538 0-2.827 1.163-2.827 2.826 0 1.662 1.289 2.867 2.827 2.867zm9.415 0c1.497 0 2.743-1.206 2.743-2.868 0-1.663-1.246-2.826-2.743-2.826-1.537 0-2.826 1.163-2.826 2.826 0 1.662 1.289 2.867 2.826 2.867z" fill="#A5A4A5"/><path d="M210.1 119.6h9.1" stroke="#E8623D" stroke-width="7.27" stroke-linecap="round" stroke-linejoin="round"/><path d="M253.199 99.8c-1.4 18.6-25.1 19.5-34.5 19.8" stroke="#E8623D" stroke-width="3" stroke-miterlimit="8"/><path d="M361.301 115.8h9.1" stroke="#E8623D" stroke-width="7.27" stroke-linecap="round" stroke-linejoin="round"/><path d="M404.4 96c-1.4 18.6-25.1 19.5-34.5 19.8" stroke="#E8623D" stroke-width="3" stroke-miterlimit="8"/><path d="M61 121.1h9.1" stroke="#E8623D" stroke-width="7.27" stroke-linecap="round" stroke-linejoin="round"/><path d="M104.1 101.2c-1.5 18.6-25.1 19.5-34.5 19.9" stroke="#E8623D" stroke-width="3" stroke-miterlimit="8"/><path d="M0 245.4h424.5" stroke="#6C6C6C" stroke-width="3" stroke-miterlimit="10"/></g><defs><clipPath id="clip0_276_520"><path fill="#fff" d="M0 0h426.4v246.9H0z"/></clipPath></defs></svg>